<?xml version="1.0" encoding="utf-8" standalone="no"?>
<!DOCTYPE svg PUBLIC "-//W3C//DTD SVG 1.1//EN"
  "http://www.w3.org/Graphics/SVG/1.1/DTD/svg11.dtd">
<!-- Created with matplotlib (http://matplotlib.org/) -->
<svg height="572pt" version="1.1" viewBox="0 0 2486 572" width="2486pt" xmlns="http://www.w3.org/2000/svg" xmlns:xlink="http://www.w3.org/1999/xlink">
 <defs>
  <style type="text/css">
*{stroke-linecap:butt;stroke-linejoin:round;stroke-miterlimit:100000;}
  </style>
 </defs>
 <g id="figure_1">
  <g id="patch_1">
   <path d="M 0 572.4 
L 2486.21375 572.4 
L 2486.21375 0 
L 0 0 
z
" style="fill:#ffffff;"/>
  </g>
  <g id="axes_1">
   <g id="matplotlib.axis_1"/>
   <g id="matplotlib.axis_2">
    <g id="text_1">
     <!-- SSF Developed -->
     <defs>
      <path id="BitstreamVeraSans-Roman-20"/>
      <path d="M 30.609375 48.390625 
Q 23.390625 48.390625 19.1875 42.75 
Q 14.984375 37.109375 14.984375 27.296875 
Q 14.984375 17.484375 19.15625 11.84375 
Q 23.34375 6.203125 30.609375 6.203125 
Q 37.796875 6.203125 41.984375 11.859375 
Q 46.1875 17.53125 46.1875 27.296875 
Q 46.1875 37.015625 41.984375 42.703125 
Q 37.796875 48.390625 30.609375 48.390625 
M 30.609375 56 
Q 42.328125 56 49.015625 48.375 
Q 55.71875 40.765625 55.71875 27.296875 
Q 55.71875 13.875 49.015625 6.21875 
Q 42.328125 -1.421875 30.609375 -1.421875 
Q 18.84375 -1.421875 12.171875 6.21875 
Q 5.515625 13.875 5.515625 27.296875 
Q 5.515625 40.765625 12.171875 48.375 
Q 18.84375 56 30.609375 56 
" id="BitstreamVeraSans-Roman-6f"/>
      <path d="M 9.421875 75.984375 
L 18.40625 75.984375 
L 18.40625 0 
L 9.421875 0 
z
" id="BitstreamVeraSans-Roman-6c"/>
      <path d="M 2.984375 54.6875 
L 12.5 54.6875 
L 29.59375 8.796875 
L 46.6875 54.6875 
L 56.203125 54.6875 
L 35.6875 0 
L 23.484375 0 
z
" id="BitstreamVeraSans-Roman-76"/>
      <path d="M 9.8125 72.90625 
L 51.703125 72.90625 
L 51.703125 64.59375 
L 19.671875 64.59375 
L 19.671875 43.109375 
L 48.578125 43.109375 
L 48.578125 34.8125 
L 19.671875 34.8125 
L 19.671875 0 
L 9.8125 0 
z
" id="BitstreamVeraSans-Roman-46"/>
      <path d="M 19.671875 64.796875 
L 19.671875 8.109375 
L 31.59375 8.109375 
Q 46.6875 8.109375 53.6875 14.9375 
Q 60.6875 21.78125 60.6875 36.53125 
Q 60.6875 51.171875 53.6875 57.984375 
Q 46.6875 64.796875 31.59375 64.796875 
z
M 9.8125 72.90625 
L 30.078125 72.90625 
Q 51.265625 72.90625 61.171875 64.09375 
Q 71.09375 55.28125 71.09375 36.53125 
Q 71.09375 17.671875 61.125 8.828125 
Q 51.171875 0 30.078125 0 
L 9.8125 0 
z
" id="BitstreamVeraSans-Roman-44"/>
      <path d="M 18.109375 8.203125 
L 18.109375 -20.796875 
L 9.078125 -20.796875 
L 9.078125 54.6875 
L 18.109375 54.6875 
L 18.109375 46.390625 
Q 20.953125 51.265625 25.265625 53.625 
Q 29.59375 56 35.59375 56 
Q 45.5625 56 51.78125 48.09375 
Q 58.015625 40.1875 58.015625 27.296875 
Q 58.015625 14.40625 51.78125 6.484375 
Q 45.5625 -1.421875 35.59375 -1.421875 
Q 29.59375 -1.421875 25.265625 0.953125 
Q 20.953125 3.328125 18.109375 8.203125 
M 48.6875 27.296875 
Q 48.6875 37.203125 44.609375 42.84375 
Q 40.53125 48.484375 33.40625 48.484375 
Q 26.265625 48.484375 22.1875 42.84375 
Q 18.109375 37.203125 18.109375 27.296875 
Q 18.109375 17.390625 22.1875 11.75 
Q 26.265625 6.109375 33.40625 6.109375 
Q 40.53125 6.109375 44.609375 11.75 
Q 48.6875 17.390625 48.6875 27.296875 
" id="BitstreamVeraSans-Roman-70"/>
      <path d="M 56.203125 29.59375 
L 56.203125 25.203125 
L 14.890625 25.203125 
Q 15.484375 15.921875 20.484375 11.0625 
Q 25.484375 6.203125 34.421875 6.203125 
Q 39.59375 6.203125 44.453125 7.46875 
Q 49.3125 8.734375 54.109375 11.28125 
L 54.109375 2.78125 
Q 49.265625 0.734375 44.1875 -0.34375 
Q 39.109375 -1.421875 33.890625 -1.421875 
Q 20.796875 -1.421875 13.15625 6.1875 
Q 5.515625 13.8125 5.515625 26.8125 
Q 5.515625 40.234375 12.765625 48.109375 
Q 20.015625 56 32.328125 56 
Q 43.359375 56 49.78125 48.890625 
Q 56.203125 41.796875 56.203125 29.59375 
M 47.21875 32.234375 
Q 47.125 39.59375 43.09375 43.984375 
Q 39.0625 48.390625 32.421875 48.390625 
Q 24.90625 48.390625 20.390625 44.140625 
Q 15.875 39.890625 15.1875 32.171875 
z
" id="BitstreamVeraSans-Roman-65"/>
      <path d="M 45.40625 46.390625 
L 45.40625 75.984375 
L 54.390625 75.984375 
L 54.390625 0 
L 45.40625 0 
L 45.40625 8.203125 
Q 42.578125 3.328125 38.25 0.953125 
Q 33.9375 -1.421875 27.875 -1.421875 
Q 17.96875 -1.421875 11.734375 6.484375 
Q 5.515625 14.40625 5.515625 27.296875 
Q 5.515625 40.1875 11.734375 48.09375 
Q 17.96875 56 27.875 56 
Q 33.9375 56 38.25 53.625 
Q 42.578125 51.265625 45.40625 46.390625 
M 14.796875 27.296875 
Q 14.796875 17.390625 18.875 11.75 
Q 22.953125 6.109375 30.078125 6.109375 
Q 37.203125 6.109375 41.296875 11.75 
Q 45.40625 17.390625 45.40625 27.296875 
Q 45.40625 37.203125 41.296875 42.84375 
Q 37.203125 48.484375 30.078125 48.484375 
Q 22.953125 48.484375 18.875 42.84375 
Q 14.796875 37.203125 14.796875 27.296875 
" id="BitstreamVeraSans-Roman-64"/>
      <path d="M 53.515625 70.515625 
L 53.515625 60.890625 
Q 47.90625 63.578125 42.921875 64.890625 
Q 37.9375 66.21875 33.296875 66.21875 
Q 25.25 66.21875 20.875 63.09375 
Q 16.5 59.96875 16.5 54.203125 
Q 16.5 49.359375 19.40625 46.890625 
Q 22.3125 44.4375 30.421875 42.921875 
L 36.375 41.703125 
Q 47.40625 39.59375 52.65625 34.296875 
Q 57.90625 29 57.90625 20.125 
Q 57.90625 9.515625 50.796875 4.046875 
Q 43.703125 -1.421875 29.984375 -1.421875 
Q 24.8125 -1.421875 18.96875 -0.25 
Q 13.140625 0.921875 6.890625 3.21875 
L 6.890625 13.375 
Q 12.890625 10.015625 18.65625 8.296875 
Q 24.421875 6.59375 29.984375 6.59375 
Q 38.421875 6.59375 43.015625 9.90625 
Q 47.609375 13.234375 47.609375 19.390625 
Q 47.609375 24.75 44.3125 27.78125 
Q 41.015625 30.8125 33.5 32.328125 
L 27.484375 33.5 
Q 16.453125 35.6875 11.515625 40.375 
Q 6.59375 45.0625 6.59375 53.421875 
Q 6.59375 63.09375 13.40625 68.65625 
Q 20.21875 74.21875 32.171875 74.21875 
Q 37.3125 74.21875 42.625 73.28125 
Q 47.953125 72.359375 53.515625 70.515625 
" id="BitstreamVeraSans-Roman-53"/>
     </defs>
     <g style="fill:#555555;" transform="translate(16.318125 331.3790625)rotate(-90.0)scale(0.12 -0.12)">
      <use xlink:href="#BitstreamVeraSans-Roman-53"/>
      <use x="63.4765625" xlink:href="#BitstreamVeraSans-Roman-53"/>
      <use x="126.953125" xlink:href="#BitstreamVeraSans-Roman-46"/>
      <use x="184.47265625" xlink:href="#BitstreamVeraSans-Roman-20"/>
      <use x="216.259765625" xlink:href="#BitstreamVeraSans-Roman-44"/>
      <use x="293.26171875" xlink:href="#BitstreamVeraSans-Roman-65"/>
      <use x="354.78515625" xlink:href="#BitstreamVeraSans-Roman-76"/>
      <use x="413.96484375" xlink:href="#BitstreamVeraSans-Roman-65"/>
      <use x="475.48828125" xlink:href="#BitstreamVeraSans-Roman-6c"/>
      <use x="503.271484375" xlink:href="#BitstreamVeraSans-Roman-6f"/>
      <use x="564.453125" xlink:href="#BitstreamVeraSans-Roman-70"/>
      <use x="627.9296875" xlink:href="#BitstreamVeraSans-Roman-65"/>
      <use x="689.453125" xlink:href="#BitstreamVeraSans-Roman-64"/>
     </g>
    </g>
   </g>
   <g id="patch_2">
    <path d="M 506.185616 285.437894 
C 506.185616 259.447485 501.843333 233.655688 493.354865 209.227262 
C 484.866397 184.798836 472.361477 162.107131 456.404828 142.176907 
L 292.689964 285.437894 
L 506.185616 285.437894 
z
" style="fill:#fbb52e;stroke:#eeeeee;stroke-linejoin:miter;stroke-width:0.5;"/>
   </g>
   <g id="patch_3">
    <path d="M 453.033592 141.222448 
C 416.787207 95.949875 364.800053 67.5119 308.558109 62.191574 
C 252.316165 56.871249 196.290734 75.091546 152.860006 112.826896 
C 109.429277 150.562245 82.046047 204.81264 76.760333 263.592065 
C 71.474619 322.371491 88.706641 381.00691 124.649178 426.543486 
L 289.318728 284.483435 
L 453.033592 141.222448 
z
" style="fill:#00b3b3;stroke:#eeeeee;stroke-linejoin:miter;stroke-width:0.5;"/>
   </g>
   <g id="patch_4">
    <path d="M 126.735713 430.360565 
C 154.713031 465.805788 192.490077 491.367511 234.878367 503.534961 
C 277.266657 515.70241 322.232478 513.891815 363.600006 498.351852 
C 404.967534 482.811888 440.75203 454.288134 466.038678 416.698182 
C 491.325325 379.10823 504.900917 334.255576 504.900915 288.300503 
L 291.405263 288.300513 
L 126.735713 430.360565 
z
" style="fill:#b30824;stroke:#eeeeee;stroke-linejoin:miter;stroke-width:0.5;"/>
   </g>
  </g>
  <g id="axes_2">
   <g id="matplotlib.axis_3"/>
   <g id="matplotlib.axis_4">
    <g id="text_2">
     <!-- SSF Developing -->
     <defs>
      <path d="M 54.890625 33.015625 
L 54.890625 0 
L 45.90625 0 
L 45.90625 32.71875 
Q 45.90625 40.484375 42.875 44.328125 
Q 39.84375 48.1875 33.796875 48.1875 
Q 26.515625 48.1875 22.3125 43.546875 
Q 18.109375 38.921875 18.109375 30.90625 
L 18.109375 0 
L 9.078125 0 
L 9.078125 54.6875 
L 18.109375 54.6875 
L 18.109375 46.1875 
Q 21.34375 51.125 25.703125 53.5625 
Q 30.078125 56 35.796875 56 
Q 45.21875 56 50.046875 50.171875 
Q 54.890625 44.34375 54.890625 33.015625 
" id="BitstreamVeraSans-Roman-6e"/>
      <path d="M 45.40625 27.984375 
Q 45.40625 37.75 41.375 43.109375 
Q 37.359375 48.484375 30.078125 48.484375 
Q 22.859375 48.484375 18.828125 43.109375 
Q 14.796875 37.75 14.796875 27.984375 
Q 14.796875 18.265625 18.828125 12.890625 
Q 22.859375 7.515625 30.078125 7.515625 
Q 37.359375 7.515625 41.375 12.890625 
Q 45.40625 18.265625 45.40625 27.984375 
M 54.390625 6.78125 
Q 54.390625 -7.171875 48.1875 -13.984375 
Q 42 -20.796875 29.203125 -20.796875 
Q 24.46875 -20.796875 20.265625 -20.09375 
Q 16.0625 -19.390625 12.109375 -17.921875 
L 12.109375 -9.1875 
Q 16.0625 -11.328125 19.921875 -12.34375 
Q 23.78125 -13.375 27.78125 -13.375 
Q 36.625 -13.375 41.015625 -8.765625 
Q 45.40625 -4.15625 45.40625 5.171875 
L 45.40625 9.625 
Q 42.625 4.78125 38.28125 2.390625 
Q 33.9375 0 27.875 0 
Q 17.828125 0 11.671875 7.65625 
Q 5.515625 15.328125 5.515625 27.984375 
Q 5.515625 40.671875 11.671875 48.328125 
Q 17.828125 56 27.875 56 
Q 33.9375 56 38.28125 53.609375 
Q 42.625 51.21875 45.40625 46.390625 
L 45.40625 54.6875 
L 54.390625 54.6875 
z
" id="BitstreamVeraSans-Roman-67"/>
      <path d="M 9.421875 54.6875 
L 18.40625 54.6875 
L 18.40625 0 
L 9.421875 0 
z
M 9.421875 75.984375 
L 18.40625 75.984375 
L 18.40625 64.59375 
L 9.421875 64.59375 
z
" id="BitstreamVeraSans-Roman-69"/>
     </defs>
     <g style="fill:#555555;" transform="translate(656.805081522 333.1565625)rotate(-90.0)scale(0.12 -0.12)">
      <use xlink:href="#BitstreamVeraSans-Roman-53"/>
      <use x="63.4765625" xlink:href="#BitstreamVeraSans-Roman-53"/>
      <use x="126.953125" xlink:href="#BitstreamVeraSans-Roman-46"/>
      <use x="184.47265625" xlink:href="#BitstreamVeraSans-Roman-20"/>
      <use x="216.259765625" xlink:href="#BitstreamVeraSans-Roman-44"/>
      <use x="293.26171875" xlink:href="#BitstreamVeraSans-Roman-65"/>
      <use x="354.78515625" xlink:href="#BitstreamVeraSans-Roman-76"/>
      <use x="413.96484375" xlink:href="#BitstreamVeraSans-Roman-65"/>
      <use x="475.48828125" xlink:href="#BitstreamVeraSans-Roman-6c"/>
      <use x="503.271484375" xlink:href="#BitstreamVeraSans-Roman-6f"/>
      <use x="564.453125" xlink:href="#BitstreamVeraSans-Roman-70"/>
      <use x="627.9296875" xlink:href="#BitstreamVeraSans-Roman-69"/>
      <use x="655.712890625" xlink:href="#BitstreamVeraSans-Roman-6e"/>
      <use x="719.091796875" xlink:href="#BitstreamVeraSans-Roman-67"/>
     </g>
    </g>
   </g>
   <g id="patch_5">
    <path d="M 1146.673613 285.440894 
C 1146.673613 259.557674 1142.367073 233.870614 1133.946895 209.530322 
C 1125.526718 185.190029 1113.120532 162.565439 1097.28405 142.669979 
L 933.177961 285.440894 
L 1146.673613 285.440894 
z
" style="fill:#fbb52e;stroke:#eeeeee;stroke-linejoin:miter;stroke-width:0.5;"/>
   </g>
   <g id="patch_6">
    <path d="M 1094.17602 141.516363 
C 1061.562474 100.543787 1015.964522 73.110369 965.693112 64.216284 
C 915.421701 55.322199 863.728649 65.542763 820.035833 93.015117 
C 776.343018 120.48747 743.476717 163.434557 727.427336 214.028592 
C 711.377955 264.622627 713.183651 319.590922 732.515306 368.914637 
L 930.069931 284.287278 
L 1094.17602 141.516363 
z
" style="fill:#00b3b3;stroke:#eeeeee;stroke-linejoin:miter;stroke-width:0.5;"/>
   </g>
   <g id="patch_7">
    <path d="M 734.028161 373.017299 
C 752.778198 420.857044 786.85709 460.431186 830.403128 484.93281 
C 873.949166 509.434433 924.313797 517.373304 972.834099 507.383903 
C 1021.3544 497.394502 1065.079277 470.084404 1096.487869 430.151057 
C 1127.896462 390.21771 1145.078442 340.089937 1145.078437 288.389919 
L 931.582785 288.38994 
L 734.028161 373.017299 
z
" style="fill:#b30824;stroke:#eeeeee;stroke-linejoin:miter;stroke-width:0.5;"/>
   </g>
  </g>
  <g id="axes_3">
   <g id="matplotlib.axis_5"/>
   <g id="matplotlib.axis_6">
    <g id="text_3">
     <!-- LSF Developed -->
     <defs>
      <path d="M 9.8125 72.90625 
L 19.671875 72.90625 
L 19.671875 8.296875 
L 55.171875 8.296875 
L 55.171875 0 
L 9.8125 0 
z
" id="BitstreamVeraSans-Roman-4c"/>
     </defs>
     <g style="fill:#555555;" transform="translate(1297.29203804 330.913125)rotate(-90.0)scale(0.12 -0.12)">
      <use xlink:href="#BitstreamVeraSans-Roman-4c"/>
      <use x="55.712890625" xlink:href="#BitstreamVeraSans-Roman-53"/>
      <use x="119.189453125" xlink:href="#BitstreamVeraSans-Roman-46"/>
      <use x="176.708984375" xlink:href="#BitstreamVeraSans-Roman-20"/>
      <use x="208.49609375" xlink:href="#BitstreamVeraSans-Roman-44"/>
      <use x="285.498046875" xlink:href="#BitstreamVeraSans-Roman-65"/>
      <use x="347.021484375" xlink:href="#BitstreamVeraSans-Roman-76"/>
      <use x="406.201171875" xlink:href="#BitstreamVeraSans-Roman-65"/>
      <use x="467.724609375" xlink:href="#BitstreamVeraSans-Roman-6c"/>
      <use x="495.5078125" xlink:href="#BitstreamVeraSans-Roman-6f"/>
      <use x="556.689453125" xlink:href="#BitstreamVeraSans-Roman-70"/>
      <use x="620.166015625" xlink:href="#BitstreamVeraSans-Roman-65"/>
      <use x="681.689453125" xlink:href="#BitstreamVeraSans-Roman-64"/>
     </g>
    </g>
   </g>
   <g id="patch_8">
    <path d="M 1786.989906 285.062722 
C 1786.989906 245.050023 1776.698194 205.763937 1757.19683 171.334964 
C 1737.695466 136.905991 1709.692724 108.584563 1676.132782 89.348365 
L 1573.494254 285.062722 
L 1786.989906 285.062722 
z
" style="fill:#fbb52e;stroke:#eeeeee;stroke-linejoin:miter;stroke-width:0.5;"/>
   </g>
   <g id="patch_9">
    <path d="M 1673.451629 88.435515 
C 1645.00024 72.127484 1613.363619 62.812906 1580.953205 61.201765 
C 1548.542791 59.590624 1516.203525 65.724924 1486.400405 79.137088 
C 1456.597285 92.549253 1430.107279 112.889626 1408.949537 138.607805 
C 1387.791794 164.325983 1372.517898 194.751491 1364.292071 227.565204 
L 1570.813101 284.149872 
L 1673.451629 88.435515 
z
" style="fill:#00b3b3;stroke:#eeeeee;stroke-linejoin:miter;stroke-width:0.5;"/>
   </g>
   <g id="patch_10">
    <path d="M 1364.863339 231.829028 
C 1357.171745 262.511626 1355.823836 294.55878 1360.909693 325.828767 
C 1365.99555 357.098753 1377.399294 386.879107 1394.358809 413.179596 
C 1411.318325 439.480085 1433.4472 461.70147 1459.266555 478.358688 
C 1485.08591 495.015906 1514.007467 505.729433 1544.098389 509.78328 
C 1574.18931 513.837128 1604.763995 511.138931 1633.779124 501.869012 
C 1662.794254 492.599093 1689.588738 476.968661 1712.371893 456.022303 
C 1735.155047 435.075944 1753.407772 409.290908 1765.910232 380.390419 
C 1778.412692 351.489929 1784.880026 320.132464 1784.880021 288.413654 
L 1571.384368 288.413696 
L 1364.863339 231.829028 
z
" style="fill:#b30824;stroke:#eeeeee;stroke-linejoin:miter;stroke-width:0.5;"/>
   </g>
  </g>
  <g id="axes_4">
   <g id="matplotlib.axis_7"/>
   <g id="matplotlib.axis_8">
    <g id="text_4">
     <!-- LSF Developing -->
     <g style="fill:#555555;" transform="translate(1937.77899457 332.690625)rotate(-90.0)scale(0.12 -0.12)">
      <use xlink:href="#BitstreamVeraSans-Roman-4c"/>
      <use x="55.712890625" xlink:href="#BitstreamVeraSans-Roman-53"/>
      <use x="119.189453125" xlink:href="#BitstreamVeraSans-Roman-46"/>
      <use x="176.708984375" xlink:href="#BitstreamVeraSans-Roman-20"/>
      <use x="208.49609375" xlink:href="#BitstreamVeraSans-Roman-44"/>
      <use x="285.498046875" xlink:href="#BitstreamVeraSans-Roman-65"/>
      <use x="347.021484375" xlink:href="#BitstreamVeraSans-Roman-76"/>
      <use x="406.201171875" xlink:href="#BitstreamVeraSans-Roman-65"/>
      <use x="467.724609375" xlink:href="#BitstreamVeraSans-Roman-6c"/>
      <use x="495.5078125" xlink:href="#BitstreamVeraSans-Roman-6f"/>
      <use x="556.689453125" xlink:href="#BitstreamVeraSans-Roman-70"/>
      <use x="620.166015625" xlink:href="#BitstreamVeraSans-Roman-69"/>
      <use x="647.94921875" xlink:href="#BitstreamVeraSans-Roman-6e"/>
      <use x="711.328125" xlink:href="#BitstreamVeraSans-Roman-67"/>
     </g>
    </g>
   </g>
   <g id="patch_11">
    <path d="M 2427.769601 286.044423 
C 2427.769601 280.853788 2427.596407 275.664733 2427.250335 270.486723 
C 2426.904263 265.308713 2426.385523 260.144899 2425.695063 255.004702 
L 2214.273949 286.044423 
L 2427.769601 286.044423 
z
" style="fill:#fbb52e;stroke:#eeeeee;stroke-linejoin:miter;stroke-width:0.5;"/>
   </g>
   <g id="patch_12">
    <path d="M 2424.756652 253.308108 
C 2420.588433 222.27742 2410.216045 192.509382 2394.316328 165.946479 
C 2378.416611 139.383577 2357.343096 116.616436 2332.470915 99.130705 
C 2307.598734 81.644975 2279.48092 69.829449 2249.952274 64.455139 
C 2220.423629 59.08083 2190.140721 60.267234 2161.079634 67.936935 
L 2213.335539 284.347829 
L 2424.756652 253.308108 
z
" style="fill:#00b3b3;stroke:#eeeeee;stroke-linejoin:miter;stroke-width:0.5;"/>
   </g>
   <g id="patch_13">
    <path d="M 2158.576335 71.549957 
C 2119.816242 81.779386 2084.57257 103.187373 2056.876674 133.325163 
C 2029.180778 163.462952 2010.130517 201.135888 2001.90496 242.034743 
C 1993.679403 282.933598 1996.604608 325.43715 2010.345976 364.683623 
C 2024.087344 403.930095 2048.10017 438.363764 2079.637741 464.045929 
C 2111.175313 489.728093 2148.987487 505.640717 2188.74911 509.963632 
C 2228.510733 514.286546 2268.645663 506.848391 2304.563057 488.499983 
C 2340.480451 470.151574 2370.756552 441.620238 2391.92822 406.169539 
C 2413.099889 370.718839 2424.327885 329.754033 2424.327892 287.96089 
L 2210.83224 287.960851 
L 2158.576335 71.549957 
z
" style="fill:#b30824;stroke:#eeeeee;stroke-linejoin:miter;stroke-width:0.5;"/>
   </g>
  </g>
 </g>
</svg>
