<?xml version="1.0" encoding="utf-8" standalone="no"?>
<!DOCTYPE svg PUBLIC "-//W3C//DTD SVG 1.1//EN"
  "http://www.w3.org/Graphics/SVG/1.1/DTD/svg11.dtd">
<!-- Created with matplotlib (http://matplotlib.org/) -->
<svg height="572pt" version="1.1" viewBox="0 0 2486 572" width="2486pt" xmlns="http://www.w3.org/2000/svg" xmlns:xlink="http://www.w3.org/1999/xlink">
 <defs>
  <style type="text/css">
*{stroke-linecap:butt;stroke-linejoin:round;stroke-miterlimit:100000;}
  </style>
 </defs>
 <g id="figure_1">
  <g id="patch_1">
   <path d="M 0 572.4 
L 2486.21375 572.4 
L 2486.21375 0 
L 0 0 
z
" style="fill:#ffffff;"/>
  </g>
  <g id="axes_1">
   <g id="matplotlib.axis_1"/>
   <g id="matplotlib.axis_2">
    <g id="text_1">
     <!-- SSF Developed -->
     <defs>
      <path id="BitstreamVeraSans-Roman-20"/>
      <path d="M 30.609375 48.390625 
Q 23.390625 48.390625 19.1875 42.75 
Q 14.984375 37.109375 14.984375 27.296875 
Q 14.984375 17.484375 19.15625 11.84375 
Q 23.34375 6.203125 30.609375 6.203125 
Q 37.796875 6.203125 41.984375 11.859375 
Q 46.1875 17.53125 46.1875 27.296875 
Q 46.1875 37.015625 41.984375 42.703125 
Q 37.796875 48.390625 30.609375 48.390625 
M 30.609375 56 
Q 42.328125 56 49.015625 48.375 
Q 55.71875 40.765625 55.71875 27.296875 
Q 55.71875 13.875 49.015625 6.21875 
Q 42.328125 -1.421875 30.609375 -1.421875 
Q 18.84375 -1.421875 12.171875 6.21875 
Q 5.515625 13.875 5.515625 27.296875 
Q 5.515625 40.765625 12.171875 48.375 
Q 18.84375 56 30.609375 56 
" id="BitstreamVeraSans-Roman-6f"/>
      <path d="M 9.421875 75.984375 
L 18.40625 75.984375 
L 18.40625 0 
L 9.421875 0 
z
" id="BitstreamVeraSans-Roman-6c"/>
      <path d="M 2.984375 54.6875 
L 12.5 54.6875 
L 29.59375 8.796875 
L 46.6875 54.6875 
L 56.203125 54.6875 
L 35.6875 0 
L 23.484375 0 
z
" id="BitstreamVeraSans-Roman-76"/>
      <path d="M 9.8125 72.90625 
L 51.703125 72.90625 
L 51.703125 64.59375 
L 19.671875 64.59375 
L 19.671875 43.109375 
L 48.578125 43.109375 
L 48.578125 34.8125 
L 19.671875 34.8125 
L 19.671875 0 
L 9.8125 0 
z
" id="BitstreamVeraSans-Roman-46"/>
      <path d="M 19.671875 64.796875 
L 19.671875 8.109375 
L 31.59375 8.109375 
Q 46.6875 8.109375 53.6875 14.9375 
Q 60.6875 21.78125 60.6875 36.53125 
Q 60.6875 51.171875 53.6875 57.984375 
Q 46.6875 64.796875 31.59375 64.796875 
z
M 9.8125 72.90625 
L 30.078125 72.90625 
Q 51.265625 72.90625 61.171875 64.09375 
Q 71.09375 55.28125 71.09375 36.53125 
Q 71.09375 17.671875 61.125 8.828125 
Q 51.171875 0 30.078125 0 
L 9.8125 0 
z
" id="BitstreamVeraSans-Roman-44"/>
      <path d="M 18.109375 8.203125 
L 18.109375 -20.796875 
L 9.078125 -20.796875 
L 9.078125 54.6875 
L 18.109375 54.6875 
L 18.109375 46.390625 
Q 20.953125 51.265625 25.265625 53.625 
Q 29.59375 56 35.59375 56 
Q 45.5625 56 51.78125 48.09375 
Q 58.015625 40.1875 58.015625 27.296875 
Q 58.015625 14.40625 51.78125 6.484375 
Q 45.5625 -1.421875 35.59375 -1.421875 
Q 29.59375 -1.421875 25.265625 0.953125 
Q 20.953125 3.328125 18.109375 8.203125 
M 48.6875 27.296875 
Q 48.6875 37.203125 44.609375 42.84375 
Q 40.53125 48.484375 33.40625 48.484375 
Q 26.265625 48.484375 22.1875 42.84375 
Q 18.109375 37.203125 18.109375 27.296875 
Q 18.109375 17.390625 22.1875 11.75 
Q 26.265625 6.109375 33.40625 6.109375 
Q 40.53125 6.109375 44.609375 11.75 
Q 48.6875 17.390625 48.6875 27.296875 
" id="BitstreamVeraSans-Roman-70"/>
      <path d="M 56.203125 29.59375 
L 56.203125 25.203125 
L 14.890625 25.203125 
Q 15.484375 15.921875 20.484375 11.0625 
Q 25.484375 6.203125 34.421875 6.203125 
Q 39.59375 6.203125 44.453125 7.46875 
Q 49.3125 8.734375 54.109375 11.28125 
L 54.109375 2.78125 
Q 49.265625 0.734375 44.1875 -0.34375 
Q 39.109375 -1.421875 33.890625 -1.421875 
Q 20.796875 -1.421875 13.15625 6.1875 
Q 5.515625 13.8125 5.515625 26.8125 
Q 5.515625 40.234375 12.765625 48.109375 
Q 20.015625 56 32.328125 56 
Q 43.359375 56 49.78125 48.890625 
Q 56.203125 41.796875 56.203125 29.59375 
M 47.21875 32.234375 
Q 47.125 39.59375 43.09375 43.984375 
Q 39.0625 48.390625 32.421875 48.390625 
Q 24.90625 48.390625 20.390625 44.140625 
Q 15.875 39.890625 15.1875 32.171875 
z
" id="BitstreamVeraSans-Roman-65"/>
      <path d="M 45.40625 46.390625 
L 45.40625 75.984375 
L 54.390625 75.984375 
L 54.390625 0 
L 45.40625 0 
L 45.40625 8.203125 
Q 42.578125 3.328125 38.25 0.953125 
Q 33.9375 -1.421875 27.875 -1.421875 
Q 17.96875 -1.421875 11.734375 6.484375 
Q 5.515625 14.40625 5.515625 27.296875 
Q 5.515625 40.1875 11.734375 48.09375 
Q 17.96875 56 27.875 56 
Q 33.9375 56 38.25 53.625 
Q 42.578125 51.265625 45.40625 46.390625 
M 14.796875 27.296875 
Q 14.796875 17.390625 18.875 11.75 
Q 22.953125 6.109375 30.078125 6.109375 
Q 37.203125 6.109375 41.296875 11.75 
Q 45.40625 17.390625 45.40625 27.296875 
Q 45.40625 37.203125 41.296875 42.84375 
Q 37.203125 48.484375 30.078125 48.484375 
Q 22.953125 48.484375 18.875 42.84375 
Q 14.796875 37.203125 14.796875 27.296875 
" id="BitstreamVeraSans-Roman-64"/>
      <path d="M 53.515625 70.515625 
L 53.515625 60.890625 
Q 47.90625 63.578125 42.921875 64.890625 
Q 37.9375 66.21875 33.296875 66.21875 
Q 25.25 66.21875 20.875 63.09375 
Q 16.5 59.96875 16.5 54.203125 
Q 16.5 49.359375 19.40625 46.890625 
Q 22.3125 44.4375 30.421875 42.921875 
L 36.375 41.703125 
Q 47.40625 39.59375 52.65625 34.296875 
Q 57.90625 29 57.90625 20.125 
Q 57.90625 9.515625 50.796875 4.046875 
Q 43.703125 -1.421875 29.984375 -1.421875 
Q 24.8125 -1.421875 18.96875 -0.25 
Q 13.140625 0.921875 6.890625 3.21875 
L 6.890625 13.375 
Q 12.890625 10.015625 18.65625 8.296875 
Q 24.421875 6.59375 29.984375 6.59375 
Q 38.421875 6.59375 43.015625 9.90625 
Q 47.609375 13.234375 47.609375 19.390625 
Q 47.609375 24.75 44.3125 27.78125 
Q 41.015625 30.8125 33.5 32.328125 
L 27.484375 33.5 
Q 16.453125 35.6875 11.515625 40.375 
Q 6.59375 45.0625 6.59375 53.421875 
Q 6.59375 63.09375 13.40625 68.65625 
Q 20.21875 74.21875 32.171875 74.21875 
Q 37.3125 74.21875 42.625 73.28125 
Q 47.953125 72.359375 53.515625 70.515625 
" id="BitstreamVeraSans-Roman-53"/>
     </defs>
     <g style="fill:#555555;" transform="translate(16.318125 331.3790625)rotate(-90.0)scale(0.12 -0.12)">
      <use xlink:href="#BitstreamVeraSans-Roman-53"/>
      <use x="63.4765625" xlink:href="#BitstreamVeraSans-Roman-53"/>
      <use x="126.953125" xlink:href="#BitstreamVeraSans-Roman-46"/>
      <use x="184.47265625" xlink:href="#BitstreamVeraSans-Roman-20"/>
      <use x="216.259765625" xlink:href="#BitstreamVeraSans-Roman-44"/>
      <use x="293.26171875" xlink:href="#BitstreamVeraSans-Roman-65"/>
      <use x="354.78515625" xlink:href="#BitstreamVeraSans-Roman-76"/>
      <use x="413.96484375" xlink:href="#BitstreamVeraSans-Roman-65"/>
      <use x="475.48828125" xlink:href="#BitstreamVeraSans-Roman-6c"/>
      <use x="503.271484375" xlink:href="#BitstreamVeraSans-Roman-6f"/>
      <use x="564.453125" xlink:href="#BitstreamVeraSans-Roman-70"/>
      <use x="627.9296875" xlink:href="#BitstreamVeraSans-Roman-65"/>
      <use x="689.453125" xlink:href="#BitstreamVeraSans-Roman-64"/>
     </g>
    </g>
   </g>
   <g id="patch_2">
    <path d="M 504.186436 283.968014 
C 504.186436 224.929406 481.780446 168.237619 441.918819 126.418066 
C 402.057191 84.598513 347.908974 60.975901 291.437607 60.769379 
C 234.966241 60.562858 180.661268 83.788846 140.520763 125.315823 
C 100.380257 166.842799 77.595438 223.369319 77.200356 282.406482 
L 290.690783 283.968014 
L 504.186436 283.968014 
z
" style="fill:#00b3b3;stroke:#eeeeee;stroke-linejoin:miter;stroke-width:0.5;"/>
   </g>
   <g id="patch_3">
    <path d="M 76.456902 286.73365 
C 76.149374 332.687598 89.424484 377.638447 114.458965 415.412428 
C 139.493446 453.186408 175.086189 481.971194 216.348713 497.813342 
C 257.611237 513.655491 302.563842 515.794924 345.032517 503.937803 
C 387.501193 492.080682 425.44837 466.795888 453.662199 431.55616 
L 289.947329 288.295182 
L 76.456902 286.73365 
z
" style="fill:#b30824;stroke:#eeeeee;stroke-linejoin:miter;stroke-width:0.5;"/>
   </g>
   <g id="patch_4">
    <path d="M 456.404834 430.223085 
C 472.361483 410.29286 484.866402 387.601154 493.354869 363.172728 
C 501.843336 338.744302 506.185618 312.952504 506.185616 286.962096 
L 292.689964 286.962106 
L 456.404834 430.223085 
z
" style="fill:#fbb52e;stroke:#eeeeee;stroke-linejoin:miter;stroke-width:0.5;"/>
   </g>
  </g>
  <g id="axes_2">
   <g id="matplotlib.axis_3"/>
   <g id="matplotlib.axis_4">
    <g id="text_2">
     <!-- SSF Developing -->
     <defs>
      <path d="M 54.890625 33.015625 
L 54.890625 0 
L 45.90625 0 
L 45.90625 32.71875 
Q 45.90625 40.484375 42.875 44.328125 
Q 39.84375 48.1875 33.796875 48.1875 
Q 26.515625 48.1875 22.3125 43.546875 
Q 18.109375 38.921875 18.109375 30.90625 
L 18.109375 0 
L 9.078125 0 
L 9.078125 54.6875 
L 18.109375 54.6875 
L 18.109375 46.1875 
Q 21.34375 51.125 25.703125 53.5625 
Q 30.078125 56 35.796875 56 
Q 45.21875 56 50.046875 50.171875 
Q 54.890625 44.34375 54.890625 33.015625 
" id="BitstreamVeraSans-Roman-6e"/>
      <path d="M 45.40625 27.984375 
Q 45.40625 37.75 41.375 43.109375 
Q 37.359375 48.484375 30.078125 48.484375 
Q 22.859375 48.484375 18.828125 43.109375 
Q 14.796875 37.75 14.796875 27.984375 
Q 14.796875 18.265625 18.828125 12.890625 
Q 22.859375 7.515625 30.078125 7.515625 
Q 37.359375 7.515625 41.375 12.890625 
Q 45.40625 18.265625 45.40625 27.984375 
M 54.390625 6.78125 
Q 54.390625 -7.171875 48.1875 -13.984375 
Q 42 -20.796875 29.203125 -20.796875 
Q 24.46875 -20.796875 20.265625 -20.09375 
Q 16.0625 -19.390625 12.109375 -17.921875 
L 12.109375 -9.1875 
Q 16.0625 -11.328125 19.921875 -12.34375 
Q 23.78125 -13.375 27.78125 -13.375 
Q 36.625 -13.375 41.015625 -8.765625 
Q 45.40625 -4.15625 45.40625 5.171875 
L 45.40625 9.625 
Q 42.625 4.78125 38.28125 2.390625 
Q 33.9375 0 27.875 0 
Q 17.828125 0 11.671875 7.65625 
Q 5.515625 15.328125 5.515625 27.984375 
Q 5.515625 40.671875 11.671875 48.328125 
Q 17.828125 56 27.875 56 
Q 33.9375 56 38.28125 53.609375 
Q 42.625 51.21875 45.40625 46.390625 
L 45.40625 54.6875 
L 54.390625 54.6875 
z
" id="BitstreamVeraSans-Roman-67"/>
      <path d="M 9.421875 54.6875 
L 18.40625 54.6875 
L 18.40625 0 
L 9.421875 0 
z
M 9.421875 75.984375 
L 18.40625 75.984375 
L 18.40625 64.59375 
L 9.421875 64.59375 
z
" id="BitstreamVeraSans-Roman-69"/>
     </defs>
     <g style="fill:#555555;" transform="translate(656.805081522 333.1565625)rotate(-90.0)scale(0.12 -0.12)">
      <use xlink:href="#BitstreamVeraSans-Roman-53"/>
      <use x="63.4765625" xlink:href="#BitstreamVeraSans-Roman-53"/>
      <use x="126.953125" xlink:href="#BitstreamVeraSans-Roman-46"/>
      <use x="184.47265625" xlink:href="#BitstreamVeraSans-Roman-20"/>
      <use x="216.259765625" xlink:href="#BitstreamVeraSans-Roman-44"/>
      <use x="293.26171875" xlink:href="#BitstreamVeraSans-Roman-65"/>
      <use x="354.78515625" xlink:href="#BitstreamVeraSans-Roman-76"/>
      <use x="413.96484375" xlink:href="#BitstreamVeraSans-Roman-65"/>
      <use x="475.48828125" xlink:href="#BitstreamVeraSans-Roman-6c"/>
      <use x="503.271484375" xlink:href="#BitstreamVeraSans-Roman-6f"/>
      <use x="564.453125" xlink:href="#BitstreamVeraSans-Roman-70"/>
      <use x="627.9296875" xlink:href="#BitstreamVeraSans-Roman-69"/>
      <use x="655.712890625" xlink:href="#BitstreamVeraSans-Roman-6e"/>
      <use x="719.091796875" xlink:href="#BitstreamVeraSans-Roman-67"/>
     </g>
    </g>
   </g>
   <g id="patch_5">
    <path d="M 1144.99042 283.993932 
C 1144.99042 230.6902 1126.725947 179.110451 1093.52599 138.655909 
C 1060.326033 98.201367 1014.33814 71.488844 963.944331 63.38712 
C 913.550522 55.285396 862.010533 66.318533 818.718341 94.475567 
C 775.42615 122.632601 743.182123 166.092188 727.863243 216.93313 
L 931.494767 283.993932 
L 1144.99042 283.993932 
z
" style="fill:#00b3b3;stroke:#eeeeee;stroke-linejoin:miter;stroke-width:0.5;"/>
   </g>
   <g id="patch_6">
    <path d="M 726.51593 221.098383 
C 711.657939 270.409708 713.639919 323.618436 732.120962 371.572449 
C 750.602005 419.526463 784.458058 459.309106 827.865743 484.077603 
C 871.273427 508.8461 921.592605 517.093983 970.168172 507.402583 
C 1018.743738 497.711182 1062.621236 470.669948 1094.253556 430.930083 
L 930.147455 288.159184 
L 726.51593 221.098383 
z
" style="fill:#b30824;stroke:#eeeeee;stroke-linejoin:miter;stroke-width:0.5;"/>
   </g>
   <g id="patch_7">
    <path d="M 1097.284063 429.730004 
C 1113.120543 409.834543 1125.526727 387.209952 1133.946902 362.869659 
C 1142.367077 338.529365 1146.673616 312.842305 1146.673613 286.959085 
L 933.177961 286.959106 
L 1097.284063 429.730004 
z
" style="fill:#fbb52e;stroke:#eeeeee;stroke-linejoin:miter;stroke-width:0.5;"/>
   </g>
  </g>
  <g id="axes_3">
   <g id="matplotlib.axis_5"/>
   <g id="matplotlib.axis_6">
    <g id="text_3">
     <!-- LSF Developed -->
     <defs>
      <path d="M 9.8125 72.90625 
L 19.671875 72.90625 
L 19.671875 8.296875 
L 55.171875 8.296875 
L 55.171875 0 
L 9.8125 0 
z
" id="BitstreamVeraSans-Roman-4c"/>
     </defs>
     <g style="fill:#555555;" transform="translate(1297.29203804 330.913125)rotate(-90.0)scale(0.12 -0.12)">
      <use xlink:href="#BitstreamVeraSans-Roman-4c"/>
      <use x="55.712890625" xlink:href="#BitstreamVeraSans-Roman-53"/>
      <use x="119.189453125" xlink:href="#BitstreamVeraSans-Roman-46"/>
      <use x="176.708984375" xlink:href="#BitstreamVeraSans-Roman-20"/>
      <use x="208.49609375" xlink:href="#BitstreamVeraSans-Roman-44"/>
      <use x="285.498046875" xlink:href="#BitstreamVeraSans-Roman-65"/>
      <use x="347.021484375" xlink:href="#BitstreamVeraSans-Roman-76"/>
      <use x="406.201171875" xlink:href="#BitstreamVeraSans-Roman-65"/>
      <use x="467.724609375" xlink:href="#BitstreamVeraSans-Roman-6c"/>
      <use x="495.5078125" xlink:href="#BitstreamVeraSans-Roman-6f"/>
      <use x="556.689453125" xlink:href="#BitstreamVeraSans-Roman-70"/>
      <use x="620.166015625" xlink:href="#BitstreamVeraSans-Roman-65"/>
      <use x="681.689453125" xlink:href="#BitstreamVeraSans-Roman-64"/>
     </g>
    </g>
   </g>
   <g id="patch_8">
    <path d="M 1786.466573 284.440574 
C 1786.466573 250.518676 1779.069631 217.038952 1764.839566 186.553327 
C 1750.6095 156.067701 1729.917289 129.370937 1704.340155 108.497942 
C 1678.763021 87.624947 1648.967762 73.119881 1617.225463 66.088366 
C 1585.483164 59.05685 1552.621349 59.682196 1521.144844 67.916737 
L 1572.970921 284.440574 
L 1786.466573 284.440574 
z
" style="fill:#00b3b3;stroke:#eeeeee;stroke-linejoin:miter;stroke-width:0.5;"/>
   </g>
   <g id="patch_9">
    <path d="M 1517.843276 70.490269 
C 1488.41104 78.190011 1460.884048 92.361108 1437.101939 112.0565 
C 1413.31983 131.751892 1393.824464 156.522832 1379.918722 184.713871 
C 1366.01298 212.90491 1358.013696 243.873732 1356.455464 275.55068 
C 1354.897233 307.227629 1359.815558 338.890965 1370.881745 368.424617 
C 1381.947933 397.958269 1398.909847 424.689332 1420.633918 446.83136 
C 1442.357988 468.973387 1468.349246 486.021888 1496.870687 496.837504 
C 1525.392127 507.65312 1555.793908 511.989425 1586.044267 509.556622 
C 1616.294626 507.12382 1645.704329 497.977339 1672.307915 482.728442 
L 1569.669352 287.014105 
L 1517.843276 70.490269 
z
" style="fill:#b30824;stroke:#eeeeee;stroke-linejoin:miter;stroke-width:0.5;"/>
   </g>
   <g id="patch_10">
    <path d="M 1676.132817 483.051615 
C 1709.692755 463.81541 1737.695493 435.493976 1757.196851 401.065 
C 1776.698209 366.636023 1786.989914 327.349935 1786.989906 287.337235 
L 1573.494254 287.337277 
L 1676.132817 483.051615 
z
" style="fill:#fbb52e;stroke:#eeeeee;stroke-linejoin:miter;stroke-width:0.5;"/>
   </g>
  </g>
  <g id="axes_4">
   <g id="matplotlib.axis_7"/>
   <g id="matplotlib.axis_8">
    <g id="text_4">
     <!-- LSF Developing -->
     <g style="fill:#555555;" transform="translate(1937.77899457 332.690625)rotate(-90.0)scale(0.12 -0.12)">
      <use xlink:href="#BitstreamVeraSans-Roman-4c"/>
      <use x="55.712890625" xlink:href="#BitstreamVeraSans-Roman-53"/>
      <use x="119.189453125" xlink:href="#BitstreamVeraSans-Roman-46"/>
      <use x="176.708984375" xlink:href="#BitstreamVeraSans-Roman-20"/>
      <use x="208.49609375" xlink:href="#BitstreamVeraSans-Roman-44"/>
      <use x="285.498046875" xlink:href="#BitstreamVeraSans-Roman-65"/>
      <use x="347.021484375" xlink:href="#BitstreamVeraSans-Roman-76"/>
      <use x="406.201171875" xlink:href="#BitstreamVeraSans-Roman-65"/>
      <use x="467.724609375" xlink:href="#BitstreamVeraSans-Roman-6c"/>
      <use x="495.5078125" xlink:href="#BitstreamVeraSans-Roman-6f"/>
      <use x="556.689453125" xlink:href="#BitstreamVeraSans-Roman-70"/>
      <use x="620.166015625" xlink:href="#BitstreamVeraSans-Roman-69"/>
      <use x="647.94921875" xlink:href="#BitstreamVeraSans-Roman-6e"/>
      <use x="711.328125" xlink:href="#BitstreamVeraSans-Roman-67"/>
     </g>
    </g>
   </g>
   <g id="patch_11">
    <path d="M 2427.065991 284.539035 
C 2427.065991 253.203863 2420.75415 222.21706 2408.54234 193.60064 
C 2396.330531 164.98422 2378.490283 139.37447 2356.185745 118.44253 
C 2333.881207 97.51059 2307.60832 81.721881 2279.081498 72.10668 
C 2250.554675 62.49148 2220.408211 59.263583 2190.609283 62.633622 
L 2213.570339 284.539035 
L 2427.065991 284.539035 
z
" style="fill:#00b3b3;stroke:#eeeeee;stroke-linejoin:miter;stroke-width:0.5;"/>
   </g>
   <g id="patch_12">
    <path d="M 2187.649703 65.847586 
C 2147.905519 70.34236 2110.156609 86.418317 2078.720891 112.236604 
C 2047.285174 138.054892 2023.408753 172.592078 2009.822739 211.897621 
C 1996.236724 251.203164 1993.479663 293.718999 2001.866922 334.581944 
C 2010.254182 375.444889 2029.453292 413.035145 2057.268159 443.052943 
C 2085.083026 473.07074 2120.411074 494.32618 2159.211297 504.387954 
C 2198.01152 514.449729 2238.745886 512.918991 2276.754984 499.970834 
C 2314.764083 487.022678 2348.541242 463.170365 2374.222854 431.142248 
C 2399.904466 399.114131 2416.472517 360.179798 2422.031867 318.792759 
L 2210.610759 287.752999 
L 2187.649703 65.847586 
z
" style="fill:#b30824;stroke:#eeeeee;stroke-linejoin:miter;stroke-width:0.5;"/>
   </g>
   <g id="patch_13">
    <path d="M 2425.695057 317.395337 
C 2426.385519 312.25514 2426.904259 307.091327 2427.250332 301.913317 
C 2427.596405 296.735307 2427.7696 291.546251 2427.769601 286.355617 
L 2214.273949 286.355577 
L 2425.695057 317.395337 
z
" style="fill:#fbb52e;stroke:#eeeeee;stroke-linejoin:miter;stroke-width:0.5;"/>
   </g>
  </g>
 </g>
</svg>
