<?xml version="1.0" encoding="utf-8" standalone="no"?>
<!DOCTYPE svg PUBLIC "-//W3C//DTD SVG 1.1//EN"
  "http://www.w3.org/Graphics/SVG/1.1/DTD/svg11.dtd">
<!-- Created with matplotlib (http://matplotlib.org/) -->
<svg height="572pt" version="1.1" viewBox="0 0 3379 572" width="3379pt" xmlns="http://www.w3.org/2000/svg" xmlns:xlink="http://www.w3.org/1999/xlink">
 <defs>
  <style type="text/css">
*{stroke-linecap:butt;stroke-linejoin:round;stroke-miterlimit:100000;}
  </style>
 </defs>
 <g id="figure_1">
  <g id="patch_1">
   <path d="M 0 572.4 
L 3379.01375 572.4 
L 3379.01375 0 
L 0 0 
z
" style="fill:#ffffff;"/>
  </g>
  <g id="axes_1">
   <g id="matplotlib.axis_1"/>
   <g id="matplotlib.axis_2">
    <g id="text_1">
     <!-- Asia -->
     <defs>
      <path d="M 34.28125 27.484375 
Q 23.390625 27.484375 19.1875 25 
Q 14.984375 22.515625 14.984375 16.5 
Q 14.984375 11.71875 18.140625 8.90625 
Q 21.296875 6.109375 26.703125 6.109375 
Q 34.1875 6.109375 38.703125 11.40625 
Q 43.21875 16.703125 43.21875 25.484375 
L 43.21875 27.484375 
z
M 52.203125 31.203125 
L 52.203125 0 
L 43.21875 0 
L 43.21875 8.296875 
Q 40.140625 3.328125 35.546875 0.953125 
Q 30.953125 -1.421875 24.3125 -1.421875 
Q 15.921875 -1.421875 10.953125 3.296875 
Q 6 8.015625 6 15.921875 
Q 6 25.140625 12.171875 29.828125 
Q 18.359375 34.515625 30.609375 34.515625 
L 43.21875 34.515625 
L 43.21875 35.40625 
Q 43.21875 41.609375 39.140625 45 
Q 35.0625 48.390625 27.6875 48.390625 
Q 23 48.390625 18.546875 47.265625 
Q 14.109375 46.140625 10.015625 43.890625 
L 10.015625 52.203125 
Q 14.9375 54.109375 19.578125 55.046875 
Q 24.21875 56 28.609375 56 
Q 40.484375 56 46.34375 49.84375 
Q 52.203125 43.703125 52.203125 31.203125 
" id="BitstreamVeraSans-Roman-61"/>
      <path d="M 9.421875 54.6875 
L 18.40625 54.6875 
L 18.40625 0 
L 9.421875 0 
z
M 9.421875 75.984375 
L 18.40625 75.984375 
L 18.40625 64.59375 
L 9.421875 64.59375 
z
" id="BitstreamVeraSans-Roman-69"/>
      <path d="M 44.28125 53.078125 
L 44.28125 44.578125 
Q 40.484375 46.53125 36.375 47.5 
Q 32.28125 48.484375 27.875 48.484375 
Q 21.1875 48.484375 17.84375 46.4375 
Q 14.5 44.390625 14.5 40.28125 
Q 14.5 37.15625 16.890625 35.375 
Q 19.28125 33.59375 26.515625 31.984375 
L 29.59375 31.296875 
Q 39.15625 29.25 43.1875 25.515625 
Q 47.21875 21.78125 47.21875 15.09375 
Q 47.21875 7.46875 41.1875 3.015625 
Q 35.15625 -1.421875 24.609375 -1.421875 
Q 20.21875 -1.421875 15.453125 -0.5625 
Q 10.6875 0.296875 5.421875 2 
L 5.421875 11.28125 
Q 10.40625 8.6875 15.234375 7.390625 
Q 20.0625 6.109375 24.8125 6.109375 
Q 31.15625 6.109375 34.5625 8.28125 
Q 37.984375 10.453125 37.984375 14.40625 
Q 37.984375 18.0625 35.515625 20.015625 
Q 33.0625 21.96875 24.703125 23.78125 
L 21.578125 24.515625 
Q 13.234375 26.265625 9.515625 29.90625 
Q 5.8125 33.546875 5.8125 39.890625 
Q 5.8125 47.609375 11.28125 51.796875 
Q 16.75 56 26.8125 56 
Q 31.78125 56 36.171875 55.265625 
Q 40.578125 54.546875 44.28125 53.078125 
" id="BitstreamVeraSans-Roman-73"/>
      <path d="M 34.1875 63.1875 
L 20.796875 26.90625 
L 47.609375 26.90625 
z
M 28.609375 72.90625 
L 39.796875 72.90625 
L 67.578125 0 
L 57.328125 0 
L 50.6875 18.703125 
L 17.828125 18.703125 
L 11.1875 0 
L 0.78125 0 
z
" id="BitstreamVeraSans-Roman-41"/>
     </defs>
     <g style="fill:#555555;" transform="translate(16.318125 298.77375)rotate(-90.0)scale(0.12 -0.12)">
      <use xlink:href="#BitstreamVeraSans-Roman-41"/>
      <use x="68.408203125" xlink:href="#BitstreamVeraSans-Roman-73"/>
      <use x="120.5078125" xlink:href="#BitstreamVeraSans-Roman-69"/>
      <use x="148.291015625" xlink:href="#BitstreamVeraSans-Roman-61"/>
     </g>
    </g>
   </g>
   <g id="patch_2">
    <path d="M 454.270893 286.2 
C 454.270893 240.500723 442.240801 195.885486 419.815272 158.416629 
C 397.389743 120.947772 365.632697 92.402905 328.859295 76.660718 
L 262.956607 286.2 
L 454.270893 286.2 
z
" style="fill:#0000ff;stroke:#eeeeee;stroke-linejoin:miter;stroke-width:0.5;"/>
   </g>
   <g id="patch_3">
    <path d="M 328.859295 76.660718 
C 309.87125 68.532197 289.897885 63.967875 269.684442 63.138056 
C 249.470999 62.308236 229.272044 65.223369 209.841236 71.774686 
C 190.410428 78.326003 171.992476 88.430997 155.274587 101.712634 
C 138.556697 114.99427 123.749414 131.285281 111.405223 149.97782 
C 99.061032 168.670359 89.335394 189.529014 82.591191 211.775513 
C 75.846988 234.022011 72.169154 257.376182 71.694917 280.96664 
C 71.22068 304.557098 73.956012 328.086748 79.798853 350.677657 
C 85.641694 373.268566 94.518459 394.636225 106.097942 413.983371 
C 117.677425 433.330517 131.813793 450.413493 147.979595 464.594903 
C 164.145397 478.776313 182.137042 489.877557 201.283229 497.48443 
C 220.429416 505.091302 240.489021 509.108002 260.713584 509.384659 
C 280.938148 509.661316 301.072963 506.194447 320.366765 499.113405 
C 339.660567 492.032364 357.870371 481.426329 374.316738 467.69103 
C 390.763105 453.95573 405.238911 437.264148 417.204037 418.239075 
C 429.169163 399.214003 438.472923 378.095039 444.768176 355.670171 
C 451.063428 333.245302 454.270893 309.796946 454.270893 286.2 
L 262.956607 286.2 
L 328.859295 76.660718 
z
" style="fill:#008000;stroke:#eeeeee;stroke-linejoin:miter;stroke-width:0.5;"/>
   </g>
   <g id="text_2">
    <!-- SSF subsidies -->
    <defs>
     <path id="BitstreamVeraSans-Roman-20"/>
     <path d="M 9.8125 72.90625 
L 51.703125 72.90625 
L 51.703125 64.59375 
L 19.671875 64.59375 
L 19.671875 43.109375 
L 48.578125 43.109375 
L 48.578125 34.8125 
L 19.671875 34.8125 
L 19.671875 0 
L 9.8125 0 
z
" id="BitstreamVeraSans-Roman-46"/>
     <path d="M 53.515625 70.515625 
L 53.515625 60.890625 
Q 47.90625 63.578125 42.921875 64.890625 
Q 37.9375 66.21875 33.296875 66.21875 
Q 25.25 66.21875 20.875 63.09375 
Q 16.5 59.96875 16.5 54.203125 
Q 16.5 49.359375 19.40625 46.890625 
Q 22.3125 44.4375 30.421875 42.921875 
L 36.375 41.703125 
Q 47.40625 39.59375 52.65625 34.296875 
Q 57.90625 29 57.90625 20.125 
Q 57.90625 9.515625 50.796875 4.046875 
Q 43.703125 -1.421875 29.984375 -1.421875 
Q 24.8125 -1.421875 18.96875 -0.25 
Q 13.140625 0.921875 6.890625 3.21875 
L 6.890625 13.375 
Q 12.890625 10.015625 18.65625 8.296875 
Q 24.421875 6.59375 29.984375 6.59375 
Q 38.421875 6.59375 43.015625 9.90625 
Q 47.609375 13.234375 47.609375 19.390625 
Q 47.609375 24.75 44.3125 27.78125 
Q 41.015625 30.8125 33.5 32.328125 
L 27.484375 33.5 
Q 16.453125 35.6875 11.515625 40.375 
Q 6.59375 45.0625 6.59375 53.421875 
Q 6.59375 63.09375 13.40625 68.65625 
Q 20.21875 74.21875 32.171875 74.21875 
Q 37.3125 74.21875 42.625 73.28125 
Q 47.953125 72.359375 53.515625 70.515625 
" id="BitstreamVeraSans-Roman-53"/>
     <path d="M 56.203125 29.59375 
L 56.203125 25.203125 
L 14.890625 25.203125 
Q 15.484375 15.921875 20.484375 11.0625 
Q 25.484375 6.203125 34.421875 6.203125 
Q 39.59375 6.203125 44.453125 7.46875 
Q 49.3125 8.734375 54.109375 11.28125 
L 54.109375 2.78125 
Q 49.265625 0.734375 44.1875 -0.34375 
Q 39.109375 -1.421875 33.890625 -1.421875 
Q 20.796875 -1.421875 13.15625 6.1875 
Q 5.515625 13.8125 5.515625 26.8125 
Q 5.515625 40.234375 12.765625 48.109375 
Q 20.015625 56 32.328125 56 
Q 43.359375 56 49.78125 48.890625 
Q 56.203125 41.796875 56.203125 29.59375 
M 47.21875 32.234375 
Q 47.125 39.59375 43.09375 43.984375 
Q 39.0625 48.390625 32.421875 48.390625 
Q 24.90625 48.390625 20.390625 44.140625 
Q 15.875 39.890625 15.1875 32.171875 
z
" id="BitstreamVeraSans-Roman-65"/>
     <path d="M 45.40625 46.390625 
L 45.40625 75.984375 
L 54.390625 75.984375 
L 54.390625 0 
L 45.40625 0 
L 45.40625 8.203125 
Q 42.578125 3.328125 38.25 0.953125 
Q 33.9375 -1.421875 27.875 -1.421875 
Q 17.96875 -1.421875 11.734375 6.484375 
Q 5.515625 14.40625 5.515625 27.296875 
Q 5.515625 40.1875 11.734375 48.09375 
Q 17.96875 56 27.875 56 
Q 33.9375 56 38.25 53.625 
Q 42.578125 51.265625 45.40625 46.390625 
M 14.796875 27.296875 
Q 14.796875 17.390625 18.875 11.75 
Q 22.953125 6.109375 30.078125 6.109375 
Q 37.203125 6.109375 41.296875 11.75 
Q 45.40625 17.390625 45.40625 27.296875 
Q 45.40625 37.203125 41.296875 42.84375 
Q 37.203125 48.484375 30.078125 48.484375 
Q 22.953125 48.484375 18.875 42.84375 
Q 14.796875 37.203125 14.796875 27.296875 
" id="BitstreamVeraSans-Roman-64"/>
     <path d="M 8.5 21.578125 
L 8.5 54.6875 
L 17.484375 54.6875 
L 17.484375 21.921875 
Q 17.484375 14.15625 20.5 10.265625 
Q 23.53125 6.390625 29.59375 6.390625 
Q 36.859375 6.390625 41.078125 11.03125 
Q 45.3125 15.671875 45.3125 23.6875 
L 45.3125 54.6875 
L 54.296875 54.6875 
L 54.296875 0 
L 45.3125 0 
L 45.3125 8.40625 
Q 42.046875 3.421875 37.71875 1 
Q 33.40625 -1.421875 27.6875 -1.421875 
Q 18.265625 -1.421875 13.375 4.4375 
Q 8.5 10.296875 8.5 21.578125 
" id="BitstreamVeraSans-Roman-75"/>
     <path d="M 48.6875 27.296875 
Q 48.6875 37.203125 44.609375 42.84375 
Q 40.53125 48.484375 33.40625 48.484375 
Q 26.265625 48.484375 22.1875 42.84375 
Q 18.109375 37.203125 18.109375 27.296875 
Q 18.109375 17.390625 22.1875 11.75 
Q 26.265625 6.109375 33.40625 6.109375 
Q 40.53125 6.109375 44.609375 11.75 
Q 48.6875 17.390625 48.6875 27.296875 
M 18.109375 46.390625 
Q 20.953125 51.265625 25.265625 53.625 
Q 29.59375 56 35.59375 56 
Q 45.5625 56 51.78125 48.09375 
Q 58.015625 40.1875 58.015625 27.296875 
Q 58.015625 14.40625 51.78125 6.484375 
Q 45.5625 -1.421875 35.59375 -1.421875 
Q 29.59375 -1.421875 25.265625 0.953125 
Q 20.953125 3.328125 18.109375 8.203125 
L 18.109375 0 
L 9.078125 0 
L 9.078125 75.984375 
L 18.109375 75.984375 
z
" id="BitstreamVeraSans-Roman-62"/>
    </defs>
    <g transform="translate(435.501138809 148.397666584)scale(0.1 -0.1)">
     <use xlink:href="#BitstreamVeraSans-Roman-53"/>
     <use x="63.4765625" xlink:href="#BitstreamVeraSans-Roman-53"/>
     <use x="126.953125" xlink:href="#BitstreamVeraSans-Roman-46"/>
     <use x="184.47265625" xlink:href="#BitstreamVeraSans-Roman-20"/>
     <use x="216.259765625" xlink:href="#BitstreamVeraSans-Roman-73"/>
     <use x="268.359375" xlink:href="#BitstreamVeraSans-Roman-75"/>
     <use x="331.73828125" xlink:href="#BitstreamVeraSans-Roman-62"/>
     <use x="395.21484375" xlink:href="#BitstreamVeraSans-Roman-73"/>
     <use x="447.314453125" xlink:href="#BitstreamVeraSans-Roman-69"/>
     <use x="475.09765625" xlink:href="#BitstreamVeraSans-Roman-64"/>
     <use x="538.57421875" xlink:href="#BitstreamVeraSans-Roman-69"/>
     <use x="566.357421875" xlink:href="#BitstreamVeraSans-Roman-65"/>
     <use x="627.880859375" xlink:href="#BitstreamVeraSans-Roman-73"/>
    </g>
   </g>
   <g id="text_3">
    <!-- LSF subsidies -->
    <defs>
     <path d="M 9.8125 72.90625 
L 19.671875 72.90625 
L 19.671875 8.296875 
L 55.171875 8.296875 
L 55.171875 0 
L 9.8125 0 
z
" id="BitstreamVeraSans-Roman-4c"/>
    </defs>
    <g transform="translate(23.1902004769 429.521083416)scale(0.1 -0.1)">
     <use xlink:href="#BitstreamVeraSans-Roman-4c"/>
     <use x="55.712890625" xlink:href="#BitstreamVeraSans-Roman-53"/>
     <use x="119.189453125" xlink:href="#BitstreamVeraSans-Roman-46"/>
     <use x="176.708984375" xlink:href="#BitstreamVeraSans-Roman-20"/>
     <use x="208.49609375" xlink:href="#BitstreamVeraSans-Roman-73"/>
     <use x="260.595703125" xlink:href="#BitstreamVeraSans-Roman-75"/>
     <use x="323.974609375" xlink:href="#BitstreamVeraSans-Roman-62"/>
     <use x="387.451171875" xlink:href="#BitstreamVeraSans-Roman-73"/>
     <use x="439.55078125" xlink:href="#BitstreamVeraSans-Roman-69"/>
     <use x="467.333984375" xlink:href="#BitstreamVeraSans-Roman-64"/>
     <use x="530.810546875" xlink:href="#BitstreamVeraSans-Roman-69"/>
     <use x="558.59375" xlink:href="#BitstreamVeraSans-Roman-65"/>
     <use x="620.1171875" xlink:href="#BitstreamVeraSans-Roman-73"/>
    </g>
   </g>
   <g id="legend_1">
    <g id="patch_4">
     <path d="M 371.301339 52.0275 
L 496.099464 52.0275 
L 496.099464 13.2 
L 371.301339 13.2 
z
" style="fill:#e5e5e5;stroke:#ffffff;stroke-linejoin:miter;stroke-width:0.5;"/>
    </g>
    <g id="patch_5">
     <path d="M 376.101339 27.118125 
L 400.101339 27.118125 
L 400.101339 18.718125 
L 376.101339 18.718125 
z
" style="fill:#0000ff;stroke:#eeeeee;stroke-linejoin:miter;stroke-width:0.5;"/>
    </g>
    <g id="text_4">
     <!-- SSF subsidies -->
     <g transform="translate(409.701339286 27.118125)scale(0.12 -0.12)">
      <use xlink:href="#BitstreamVeraSans-Roman-53"/>
      <use x="63.4765625" xlink:href="#BitstreamVeraSans-Roman-53"/>
      <use x="126.953125" xlink:href="#BitstreamVeraSans-Roman-46"/>
      <use x="184.47265625" xlink:href="#BitstreamVeraSans-Roman-20"/>
      <use x="216.259765625" xlink:href="#BitstreamVeraSans-Roman-73"/>
      <use x="268.359375" xlink:href="#BitstreamVeraSans-Roman-75"/>
      <use x="331.73828125" xlink:href="#BitstreamVeraSans-Roman-62"/>
      <use x="395.21484375" xlink:href="#BitstreamVeraSans-Roman-73"/>
      <use x="447.314453125" xlink:href="#BitstreamVeraSans-Roman-69"/>
      <use x="475.09765625" xlink:href="#BitstreamVeraSans-Roman-64"/>
      <use x="538.57421875" xlink:href="#BitstreamVeraSans-Roman-69"/>
      <use x="566.357421875" xlink:href="#BitstreamVeraSans-Roman-65"/>
      <use x="627.880859375" xlink:href="#BitstreamVeraSans-Roman-73"/>
     </g>
    </g>
    <g id="patch_6">
     <path d="M 376.101339 44.731875 
L 400.101339 44.731875 
L 400.101339 36.331875 
L 376.101339 36.331875 
z
" style="fill:#008000;stroke:#eeeeee;stroke-linejoin:miter;stroke-width:0.5;"/>
    </g>
    <g id="text_5">
     <!-- LSF subsidies -->
     <g transform="translate(409.701339286 44.731875)scale(0.12 -0.12)">
      <use xlink:href="#BitstreamVeraSans-Roman-4c"/>
      <use x="55.712890625" xlink:href="#BitstreamVeraSans-Roman-53"/>
      <use x="119.189453125" xlink:href="#BitstreamVeraSans-Roman-46"/>
      <use x="176.708984375" xlink:href="#BitstreamVeraSans-Roman-20"/>
      <use x="208.49609375" xlink:href="#BitstreamVeraSans-Roman-73"/>
      <use x="260.595703125" xlink:href="#BitstreamVeraSans-Roman-75"/>
      <use x="323.974609375" xlink:href="#BitstreamVeraSans-Roman-62"/>
      <use x="387.451171875" xlink:href="#BitstreamVeraSans-Roman-73"/>
      <use x="439.55078125" xlink:href="#BitstreamVeraSans-Roman-69"/>
      <use x="467.333984375" xlink:href="#BitstreamVeraSans-Roman-64"/>
      <use x="530.810546875" xlink:href="#BitstreamVeraSans-Roman-69"/>
      <use x="558.59375" xlink:href="#BitstreamVeraSans-Roman-65"/>
      <use x="620.1171875" xlink:href="#BitstreamVeraSans-Roman-73"/>
     </g>
    </g>
   </g>
  </g>
  <g id="axes_2">
   <g id="matplotlib.axis_3"/>
   <g id="matplotlib.axis_4">
    <g id="text_6">
     <!-- Europe -->
     <defs>
      <path d="M 9.8125 72.90625 
L 55.90625 72.90625 
L 55.90625 64.59375 
L 19.671875 64.59375 
L 19.671875 43.015625 
L 54.390625 43.015625 
L 54.390625 34.71875 
L 19.671875 34.71875 
L 19.671875 8.296875 
L 56.78125 8.296875 
L 56.78125 0 
L 9.8125 0 
z
" id="BitstreamVeraSans-Roman-45"/>
      <path d="M 30.609375 48.390625 
Q 23.390625 48.390625 19.1875 42.75 
Q 14.984375 37.109375 14.984375 27.296875 
Q 14.984375 17.484375 19.15625 11.84375 
Q 23.34375 6.203125 30.609375 6.203125 
Q 37.796875 6.203125 41.984375 11.859375 
Q 46.1875 17.53125 46.1875 27.296875 
Q 46.1875 37.015625 41.984375 42.703125 
Q 37.796875 48.390625 30.609375 48.390625 
M 30.609375 56 
Q 42.328125 56 49.015625 48.375 
Q 55.71875 40.765625 55.71875 27.296875 
Q 55.71875 13.875 49.015625 6.21875 
Q 42.328125 -1.421875 30.609375 -1.421875 
Q 18.84375 -1.421875 12.171875 6.21875 
Q 5.515625 13.875 5.515625 27.296875 
Q 5.515625 40.765625 12.171875 48.375 
Q 18.84375 56 30.609375 56 
" id="BitstreamVeraSans-Roman-6f"/>
      <path d="M 41.109375 46.296875 
Q 39.59375 47.171875 37.8125 47.578125 
Q 36.03125 48 33.890625 48 
Q 26.265625 48 22.1875 43.046875 
Q 18.109375 38.09375 18.109375 28.8125 
L 18.109375 0 
L 9.078125 0 
L 9.078125 54.6875 
L 18.109375 54.6875 
L 18.109375 46.1875 
Q 20.953125 51.171875 25.484375 53.578125 
Q 30.03125 56 36.53125 56 
Q 37.453125 56 38.578125 55.875 
Q 39.703125 55.765625 41.0625 55.515625 
z
" id="BitstreamVeraSans-Roman-72"/>
      <path d="M 18.109375 8.203125 
L 18.109375 -20.796875 
L 9.078125 -20.796875 
L 9.078125 54.6875 
L 18.109375 54.6875 
L 18.109375 46.390625 
Q 20.953125 51.265625 25.265625 53.625 
Q 29.59375 56 35.59375 56 
Q 45.5625 56 51.78125 48.09375 
Q 58.015625 40.1875 58.015625 27.296875 
Q 58.015625 14.40625 51.78125 6.484375 
Q 45.5625 -1.421875 35.59375 -1.421875 
Q 29.59375 -1.421875 25.265625 0.953125 
Q 20.953125 3.328125 18.109375 8.203125 
M 48.6875 27.296875 
Q 48.6875 37.203125 44.609375 42.84375 
Q 40.53125 48.484375 33.40625 48.484375 
Q 26.265625 48.484375 22.1875 42.84375 
Q 18.109375 37.203125 18.109375 27.296875 
Q 18.109375 17.390625 22.1875 11.75 
Q 26.265625 6.109375 33.40625 6.109375 
Q 40.53125 6.109375 44.609375 11.75 
Q 48.6875 17.390625 48.6875 27.296875 
" id="BitstreamVeraSans-Roman-70"/>
     </defs>
     <g style="fill:#555555;" transform="translate(590.260982143 307.430625)rotate(-90.0)scale(0.12 -0.12)">
      <use xlink:href="#BitstreamVeraSans-Roman-45"/>
      <use x="63.18359375" xlink:href="#BitstreamVeraSans-Roman-75"/>
      <use x="126.5625" xlink:href="#BitstreamVeraSans-Roman-72"/>
      <use x="167.64453125" xlink:href="#BitstreamVeraSans-Roman-6f"/>
      <use x="228.826171875" xlink:href="#BitstreamVeraSans-Roman-70"/>
      <use x="292.302734375" xlink:href="#BitstreamVeraSans-Roman-65"/>
     </g>
    </g>
   </g>
   <g id="patch_7">
    <path d="M 1028.21375 286.2 
C 1028.21375 263.433589 1025.228096 240.800608 1019.360563 219.087726 
C 1013.49303 197.374844 1004.812395 176.836574 993.620376 158.186776 
L 836.899464 286.2 
L 1028.21375 286.2 
z
" style="fill:#0000ff;stroke:#eeeeee;stroke-linejoin:miter;stroke-width:0.5;"/>
   </g>
   <g id="patch_8">
    <path d="M 993.620376 158.186776 
C 980.619762 136.52323 964.42189 117.726702 945.78374 102.675619 
C 927.145591 87.624535 906.362099 76.557067 884.404546 69.990435 
C 862.446994 63.423803 839.662843 61.461919 817.116874 64.196469 
C 794.570905 66.931018 772.619891 74.318728 752.289676 86.014347 
C 731.959461 97.709966 713.571756 113.528419 697.985879 132.730457 
C 682.400003 151.932495 669.862591 174.21426 660.959558 198.53445 
C 652.056525 222.85464 646.928755 248.828405 645.815886 275.241906 
C 644.703017 301.655408 647.622659 328.090669 654.438368 353.312284 
C 661.254077 378.533898 671.857999 402.142752 685.754578 423.035524 
C 699.651156 443.928296 716.620488 461.774373 735.869539 475.739749 
C 755.11859 489.705125 776.342759 499.568808 798.550168 504.869835 
C 820.757578 510.170862 843.596812 510.825348 866.000518 506.802706 
C 888.404224 502.780065 910.017879 494.143952 929.831404 481.297961 
C 949.644929 468.45197 967.344791 451.59938 982.103814 431.527769 
C 996.862838 411.456158 1008.447474 388.483145 1016.316332 363.682334 
C 1024.18519 338.881523 1028.213752 312.645371 1028.21375 286.199979 
L 836.899464 286.2 
L 993.620376 158.186776 
z
" style="fill:#008000;stroke:#eeeeee;stroke-linejoin:miter;stroke-width:0.5;"/>
   </g>
   <g id="text_7">
    <!-- SSF subsidies -->
    <g transform="translate(1037.606673 215.135873667)scale(0.1 -0.1)">
     <use xlink:href="#BitstreamVeraSans-Roman-53"/>
     <use x="63.4765625" xlink:href="#BitstreamVeraSans-Roman-53"/>
     <use x="126.953125" xlink:href="#BitstreamVeraSans-Roman-46"/>
     <use x="184.47265625" xlink:href="#BitstreamVeraSans-Roman-20"/>
     <use x="216.259765625" xlink:href="#BitstreamVeraSans-Roman-73"/>
     <use x="268.359375" xlink:href="#BitstreamVeraSans-Roman-75"/>
     <use x="331.73828125" xlink:href="#BitstreamVeraSans-Roman-62"/>
     <use x="395.21484375" xlink:href="#BitstreamVeraSans-Roman-73"/>
     <use x="447.314453125" xlink:href="#BitstreamVeraSans-Roman-69"/>
     <use x="475.09765625" xlink:href="#BitstreamVeraSans-Roman-64"/>
     <use x="538.57421875" xlink:href="#BitstreamVeraSans-Roman-69"/>
     <use x="566.357421875" xlink:href="#BitstreamVeraSans-Roman-65"/>
     <use x="627.880859375" xlink:href="#BitstreamVeraSans-Roman-73"/>
    </g>
   </g>
   <g id="text_8">
    <!-- LSF subsidies -->
    <g transform="translate(568.970383535 362.782887295)scale(0.1 -0.1)">
     <use xlink:href="#BitstreamVeraSans-Roman-4c"/>
     <use x="55.712890625" xlink:href="#BitstreamVeraSans-Roman-53"/>
     <use x="119.189453125" xlink:href="#BitstreamVeraSans-Roman-46"/>
     <use x="176.708984375" xlink:href="#BitstreamVeraSans-Roman-20"/>
     <use x="208.49609375" xlink:href="#BitstreamVeraSans-Roman-73"/>
     <use x="260.595703125" xlink:href="#BitstreamVeraSans-Roman-75"/>
     <use x="323.974609375" xlink:href="#BitstreamVeraSans-Roman-62"/>
     <use x="387.451171875" xlink:href="#BitstreamVeraSans-Roman-73"/>
     <use x="439.55078125" xlink:href="#BitstreamVeraSans-Roman-69"/>
     <use x="467.333984375" xlink:href="#BitstreamVeraSans-Roman-64"/>
     <use x="530.810546875" xlink:href="#BitstreamVeraSans-Roman-69"/>
     <use x="558.59375" xlink:href="#BitstreamVeraSans-Roman-65"/>
     <use x="620.1171875" xlink:href="#BitstreamVeraSans-Roman-73"/>
    </g>
   </g>
   <g id="legend_2">
    <g id="patch_9">
     <path d="M 945.244196 52.0275 
L 1070.042321 52.0275 
L 1070.042321 13.2 
L 945.244196 13.2 
z
" style="fill:#e5e5e5;stroke:#ffffff;stroke-linejoin:miter;stroke-width:0.5;"/>
    </g>
    <g id="patch_10">
     <path d="M 950.044196 27.118125 
L 974.044196 27.118125 
L 974.044196 18.718125 
L 950.044196 18.718125 
z
" style="fill:#0000ff;stroke:#eeeeee;stroke-linejoin:miter;stroke-width:0.5;"/>
    </g>
    <g id="text_9">
     <!-- SSF subsidies -->
     <g transform="translate(983.644196429 27.118125)scale(0.12 -0.12)">
      <use xlink:href="#BitstreamVeraSans-Roman-53"/>
      <use x="63.4765625" xlink:href="#BitstreamVeraSans-Roman-53"/>
      <use x="126.953125" xlink:href="#BitstreamVeraSans-Roman-46"/>
      <use x="184.47265625" xlink:href="#BitstreamVeraSans-Roman-20"/>
      <use x="216.259765625" xlink:href="#BitstreamVeraSans-Roman-73"/>
      <use x="268.359375" xlink:href="#BitstreamVeraSans-Roman-75"/>
      <use x="331.73828125" xlink:href="#BitstreamVeraSans-Roman-62"/>
      <use x="395.21484375" xlink:href="#BitstreamVeraSans-Roman-73"/>
      <use x="447.314453125" xlink:href="#BitstreamVeraSans-Roman-69"/>
      <use x="475.09765625" xlink:href="#BitstreamVeraSans-Roman-64"/>
      <use x="538.57421875" xlink:href="#BitstreamVeraSans-Roman-69"/>
      <use x="566.357421875" xlink:href="#BitstreamVeraSans-Roman-65"/>
      <use x="627.880859375" xlink:href="#BitstreamVeraSans-Roman-73"/>
     </g>
    </g>
    <g id="patch_11">
     <path d="M 950.044196 44.731875 
L 974.044196 44.731875 
L 974.044196 36.331875 
L 950.044196 36.331875 
z
" style="fill:#008000;stroke:#eeeeee;stroke-linejoin:miter;stroke-width:0.5;"/>
    </g>
    <g id="text_10">
     <!-- LSF subsidies -->
     <g transform="translate(983.644196429 44.731875)scale(0.12 -0.12)">
      <use xlink:href="#BitstreamVeraSans-Roman-4c"/>
      <use x="55.712890625" xlink:href="#BitstreamVeraSans-Roman-53"/>
      <use x="119.189453125" xlink:href="#BitstreamVeraSans-Roman-46"/>
      <use x="176.708984375" xlink:href="#BitstreamVeraSans-Roman-20"/>
      <use x="208.49609375" xlink:href="#BitstreamVeraSans-Roman-73"/>
      <use x="260.595703125" xlink:href="#BitstreamVeraSans-Roman-75"/>
      <use x="323.974609375" xlink:href="#BitstreamVeraSans-Roman-62"/>
      <use x="387.451171875" xlink:href="#BitstreamVeraSans-Roman-73"/>
      <use x="439.55078125" xlink:href="#BitstreamVeraSans-Roman-69"/>
      <use x="467.333984375" xlink:href="#BitstreamVeraSans-Roman-64"/>
      <use x="530.810546875" xlink:href="#BitstreamVeraSans-Roman-69"/>
      <use x="558.59375" xlink:href="#BitstreamVeraSans-Roman-65"/>
      <use x="620.1171875" xlink:href="#BitstreamVeraSans-Roman-73"/>
     </g>
    </g>
   </g>
  </g>
  <g id="axes_3">
   <g id="matplotlib.axis_5"/>
   <g id="matplotlib.axis_6">
    <g id="text_11">
     <!-- North America -->
     <defs>
      <path d="M 52 44.1875 
Q 55.375 50.25 60.0625 53.125 
Q 64.75 56 71.09375 56 
Q 79.640625 56 84.28125 50.015625 
Q 88.921875 44.046875 88.921875 33.015625 
L 88.921875 0 
L 79.890625 0 
L 79.890625 32.71875 
Q 79.890625 40.578125 77.09375 44.375 
Q 74.3125 48.1875 68.609375 48.1875 
Q 61.625 48.1875 57.5625 43.546875 
Q 53.515625 38.921875 53.515625 30.90625 
L 53.515625 0 
L 44.484375 0 
L 44.484375 32.71875 
Q 44.484375 40.625 41.703125 44.40625 
Q 38.921875 48.1875 33.109375 48.1875 
Q 26.21875 48.1875 22.15625 43.53125 
Q 18.109375 38.875 18.109375 30.90625 
L 18.109375 0 
L 9.078125 0 
L 9.078125 54.6875 
L 18.109375 54.6875 
L 18.109375 46.1875 
Q 21.1875 51.21875 25.484375 53.609375 
Q 29.78125 56 35.6875 56 
Q 41.65625 56 45.828125 52.96875 
Q 50 49.953125 52 44.1875 
" id="BitstreamVeraSans-Roman-6d"/>
      <path d="M 9.8125 72.90625 
L 23.09375 72.90625 
L 55.421875 11.921875 
L 55.421875 72.90625 
L 64.984375 72.90625 
L 64.984375 0 
L 51.703125 0 
L 19.390625 60.984375 
L 19.390625 0 
L 9.8125 0 
z
" id="BitstreamVeraSans-Roman-4e"/>
      <path d="M 18.3125 70.21875 
L 18.3125 54.6875 
L 36.8125 54.6875 
L 36.8125 47.703125 
L 18.3125 47.703125 
L 18.3125 18.015625 
Q 18.3125 11.328125 20.140625 9.421875 
Q 21.96875 7.515625 27.59375 7.515625 
L 36.8125 7.515625 
L 36.8125 0 
L 27.59375 0 
Q 17.1875 0 13.234375 3.875 
Q 9.28125 7.765625 9.28125 18.015625 
L 9.28125 47.703125 
L 2.6875 47.703125 
L 2.6875 54.6875 
L 9.28125 54.6875 
L 9.28125 70.21875 
z
" id="BitstreamVeraSans-Roman-74"/>
      <path d="M 48.78125 52.59375 
L 48.78125 44.1875 
Q 44.96875 46.296875 41.140625 47.34375 
Q 37.3125 48.390625 33.40625 48.390625 
Q 24.65625 48.390625 19.8125 42.84375 
Q 14.984375 37.3125 14.984375 27.296875 
Q 14.984375 17.28125 19.8125 11.734375 
Q 24.65625 6.203125 33.40625 6.203125 
Q 37.3125 6.203125 41.140625 7.25 
Q 44.96875 8.296875 48.78125 10.40625 
L 48.78125 2.09375 
Q 45.015625 0.34375 40.984375 -0.53125 
Q 36.96875 -1.421875 32.421875 -1.421875 
Q 20.0625 -1.421875 12.78125 6.34375 
Q 5.515625 14.109375 5.515625 27.296875 
Q 5.515625 40.671875 12.859375 48.328125 
Q 20.21875 56 33.015625 56 
Q 37.15625 56 41.109375 55.140625 
Q 45.0625 54.296875 48.78125 52.59375 
" id="BitstreamVeraSans-Roman-63"/>
      <path d="M 54.890625 33.015625 
L 54.890625 0 
L 45.90625 0 
L 45.90625 32.71875 
Q 45.90625 40.484375 42.875 44.328125 
Q 39.84375 48.1875 33.796875 48.1875 
Q 26.515625 48.1875 22.3125 43.546875 
Q 18.109375 38.921875 18.109375 30.90625 
L 18.109375 0 
L 9.078125 0 
L 9.078125 75.984375 
L 18.109375 75.984375 
L 18.109375 46.1875 
Q 21.34375 51.125 25.703125 53.5625 
Q 30.078125 56 35.796875 56 
Q 45.21875 56 50.046875 50.171875 
Q 54.890625 44.34375 54.890625 33.015625 
" id="BitstreamVeraSans-Roman-68"/>
     </defs>
     <g style="fill:#555555;" transform="translate(1164.20383929 329.638125)rotate(-90.0)scale(0.12 -0.12)">
      <use xlink:href="#BitstreamVeraSans-Roman-4e"/>
      <use x="74.8046875" xlink:href="#BitstreamVeraSans-Roman-6f"/>
      <use x="135.986328125" xlink:href="#BitstreamVeraSans-Roman-72"/>
      <use x="177.099609375" xlink:href="#BitstreamVeraSans-Roman-74"/>
      <use x="216.30859375" xlink:href="#BitstreamVeraSans-Roman-68"/>
      <use x="279.6875" xlink:href="#BitstreamVeraSans-Roman-20"/>
      <use x="311.474609375" xlink:href="#BitstreamVeraSans-Roman-41"/>
      <use x="379.8828125" xlink:href="#BitstreamVeraSans-Roman-6d"/>
      <use x="477.294921875" xlink:href="#BitstreamVeraSans-Roman-65"/>
      <use x="538.818359375" xlink:href="#BitstreamVeraSans-Roman-72"/>
      <use x="579.931640625" xlink:href="#BitstreamVeraSans-Roman-69"/>
      <use x="607.71484375" xlink:href="#BitstreamVeraSans-Roman-63"/>
      <use x="662.6953125" xlink:href="#BitstreamVeraSans-Roman-61"/>
     </g>
    </g>
   </g>
   <g id="patch_12">
    <path d="M 1602.156607 286.2 
C 1602.156607 241.577547 1590.686772 197.964013 1569.23579 161.020064 
C 1547.784807 124.076115 1517.322696 95.472367 1481.803179 78.921342 
L 1410.842321 286.2 
L 1602.156607 286.2 
z
" style="fill:#0000ff;stroke:#eeeeee;stroke-linejoin:miter;stroke-width:0.5;"/>
   </g>
   <g id="patch_13">
    <path d="M 1481.803179 78.921342 
C 1462.91453 70.1198 1442.943078 64.888552 1422.642292 63.424957 
C 1402.341507 61.961362 1381.969936 64.284062 1362.296146 70.305426 
C 1342.622356 76.32679 1323.89691 85.970132 1306.826268 98.871634 
C 1289.755626 111.773135 1274.557198 127.768484 1261.804382 146.254219 
C 1249.051565 164.739955 1238.906778 185.480643 1231.752755 207.693794 
C 1224.598733 229.906945 1220.526588 253.309654 1219.689953 277.019 
C 1218.853317 300.728346 1221.262846 324.442368 1226.827634 347.2664 
C 1232.392422 370.090433 1241.041597 391.73379 1252.448848 411.379927 
C 1263.856099 431.026065 1277.876145 448.424769 1293.980047 462.919636 
C 1310.083949 477.414503 1328.066609 488.820925 1347.24959 496.708571 
C 1366.43257 504.596216 1386.571559 508.864627 1406.906765 509.352769 
C 1427.241972 509.840911 1447.514409 506.542566 1466.959252 499.582173 
C 1486.404095 492.621779 1504.773696 482.087984 1521.375019 468.378198 
C 1537.976343 454.668413 1552.597955 437.957244 1564.688223 418.875159 
C 1576.778491 399.793074 1586.183434 378.583102 1592.548228 356.045436 
C 1598.913022 333.50777 1602.156605 309.92945 1602.156607 286.200021 
L 1410.842321 286.2 
L 1481.803179 78.921342 
z
" style="fill:#008000;stroke:#eeeeee;stroke-linejoin:miter;stroke-width:0.5;"/>
   </g>
   <g id="text_12">
    <!-- SSF subsidies -->
    <g transform="translate(1585.07513662 151.261445349)scale(0.1 -0.1)">
     <use xlink:href="#BitstreamVeraSans-Roman-53"/>
     <use x="63.4765625" xlink:href="#BitstreamVeraSans-Roman-53"/>
     <use x="126.953125" xlink:href="#BitstreamVeraSans-Roman-46"/>
     <use x="184.47265625" xlink:href="#BitstreamVeraSans-Roman-20"/>
     <use x="216.259765625" xlink:href="#BitstreamVeraSans-Roman-73"/>
     <use x="268.359375" xlink:href="#BitstreamVeraSans-Roman-75"/>
     <use x="331.73828125" xlink:href="#BitstreamVeraSans-Roman-62"/>
     <use x="395.21484375" xlink:href="#BitstreamVeraSans-Roman-73"/>
     <use x="447.314453125" xlink:href="#BitstreamVeraSans-Roman-69"/>
     <use x="475.09765625" xlink:href="#BitstreamVeraSans-Roman-64"/>
     <use x="538.57421875" xlink:href="#BitstreamVeraSans-Roman-69"/>
     <use x="566.357421875" xlink:href="#BitstreamVeraSans-Roman-65"/>
     <use x="627.880859375" xlink:href="#BitstreamVeraSans-Roman-73"/>
    </g>
   </g>
   <g id="text_13">
    <!-- LSF subsidies -->
    <g transform="translate(1169.38762572 426.657295135)scale(0.1 -0.1)">
     <use xlink:href="#BitstreamVeraSans-Roman-4c"/>
     <use x="55.712890625" xlink:href="#BitstreamVeraSans-Roman-53"/>
     <use x="119.189453125" xlink:href="#BitstreamVeraSans-Roman-46"/>
     <use x="176.708984375" xlink:href="#BitstreamVeraSans-Roman-20"/>
     <use x="208.49609375" xlink:href="#BitstreamVeraSans-Roman-73"/>
     <use x="260.595703125" xlink:href="#BitstreamVeraSans-Roman-75"/>
     <use x="323.974609375" xlink:href="#BitstreamVeraSans-Roman-62"/>
     <use x="387.451171875" xlink:href="#BitstreamVeraSans-Roman-73"/>
     <use x="439.55078125" xlink:href="#BitstreamVeraSans-Roman-69"/>
     <use x="467.333984375" xlink:href="#BitstreamVeraSans-Roman-64"/>
     <use x="530.810546875" xlink:href="#BitstreamVeraSans-Roman-69"/>
     <use x="558.59375" xlink:href="#BitstreamVeraSans-Roman-65"/>
     <use x="620.1171875" xlink:href="#BitstreamVeraSans-Roman-73"/>
    </g>
   </g>
   <g id="legend_3">
    <g id="patch_14">
     <path d="M 1519.187054 52.0275 
L 1643.985179 52.0275 
L 1643.985179 13.2 
L 1519.187054 13.2 
z
" style="fill:#e5e5e5;stroke:#ffffff;stroke-linejoin:miter;stroke-width:0.5;"/>
    </g>
    <g id="patch_15">
     <path d="M 1523.987054 27.118125 
L 1547.987054 27.118125 
L 1547.987054 18.718125 
L 1523.987054 18.718125 
z
" style="fill:#0000ff;stroke:#eeeeee;stroke-linejoin:miter;stroke-width:0.5;"/>
    </g>
    <g id="text_14">
     <!-- SSF subsidies -->
     <g transform="translate(1557.58705357 27.118125)scale(0.12 -0.12)">
      <use xlink:href="#BitstreamVeraSans-Roman-53"/>
      <use x="63.4765625" xlink:href="#BitstreamVeraSans-Roman-53"/>
      <use x="126.953125" xlink:href="#BitstreamVeraSans-Roman-46"/>
      <use x="184.47265625" xlink:href="#BitstreamVeraSans-Roman-20"/>
      <use x="216.259765625" xlink:href="#BitstreamVeraSans-Roman-73"/>
      <use x="268.359375" xlink:href="#BitstreamVeraSans-Roman-75"/>
      <use x="331.73828125" xlink:href="#BitstreamVeraSans-Roman-62"/>
      <use x="395.21484375" xlink:href="#BitstreamVeraSans-Roman-73"/>
      <use x="447.314453125" xlink:href="#BitstreamVeraSans-Roman-69"/>
      <use x="475.09765625" xlink:href="#BitstreamVeraSans-Roman-64"/>
      <use x="538.57421875" xlink:href="#BitstreamVeraSans-Roman-69"/>
      <use x="566.357421875" xlink:href="#BitstreamVeraSans-Roman-65"/>
      <use x="627.880859375" xlink:href="#BitstreamVeraSans-Roman-73"/>
     </g>
    </g>
    <g id="patch_16">
     <path d="M 1523.987054 44.731875 
L 1547.987054 44.731875 
L 1547.987054 36.331875 
L 1523.987054 36.331875 
z
" style="fill:#008000;stroke:#eeeeee;stroke-linejoin:miter;stroke-width:0.5;"/>
    </g>
    <g id="text_15">
     <!-- LSF subsidies -->
     <g transform="translate(1557.58705357 44.731875)scale(0.12 -0.12)">
      <use xlink:href="#BitstreamVeraSans-Roman-4c"/>
      <use x="55.712890625" xlink:href="#BitstreamVeraSans-Roman-53"/>
      <use x="119.189453125" xlink:href="#BitstreamVeraSans-Roman-46"/>
      <use x="176.708984375" xlink:href="#BitstreamVeraSans-Roman-20"/>
      <use x="208.49609375" xlink:href="#BitstreamVeraSans-Roman-73"/>
      <use x="260.595703125" xlink:href="#BitstreamVeraSans-Roman-75"/>
      <use x="323.974609375" xlink:href="#BitstreamVeraSans-Roman-62"/>
      <use x="387.451171875" xlink:href="#BitstreamVeraSans-Roman-73"/>
      <use x="439.55078125" xlink:href="#BitstreamVeraSans-Roman-69"/>
      <use x="467.333984375" xlink:href="#BitstreamVeraSans-Roman-64"/>
      <use x="530.810546875" xlink:href="#BitstreamVeraSans-Roman-69"/>
      <use x="558.59375" xlink:href="#BitstreamVeraSans-Roman-65"/>
      <use x="620.1171875" xlink:href="#BitstreamVeraSans-Roman-73"/>
     </g>
    </g>
   </g>
  </g>
  <g id="axes_4">
   <g id="matplotlib.axis_7"/>
   <g id="matplotlib.axis_8">
    <g id="text_16">
     <!-- Oceania -->
     <defs>
      <path d="M 54.890625 33.015625 
L 54.890625 0 
L 45.90625 0 
L 45.90625 32.71875 
Q 45.90625 40.484375 42.875 44.328125 
Q 39.84375 48.1875 33.796875 48.1875 
Q 26.515625 48.1875 22.3125 43.546875 
Q 18.109375 38.921875 18.109375 30.90625 
L 18.109375 0 
L 9.078125 0 
L 9.078125 54.6875 
L 18.109375 54.6875 
L 18.109375 46.1875 
Q 21.34375 51.125 25.703125 53.5625 
Q 30.078125 56 35.796875 56 
Q 45.21875 56 50.046875 50.171875 
Q 54.890625 44.34375 54.890625 33.015625 
" id="BitstreamVeraSans-Roman-6e"/>
      <path d="M 39.40625 66.21875 
Q 28.65625 66.21875 22.328125 58.203125 
Q 16.015625 50.203125 16.015625 36.375 
Q 16.015625 22.609375 22.328125 14.59375 
Q 28.65625 6.59375 39.40625 6.59375 
Q 50.140625 6.59375 56.421875 14.59375 
Q 62.703125 22.609375 62.703125 36.375 
Q 62.703125 50.203125 56.421875 58.203125 
Q 50.140625 66.21875 39.40625 66.21875 
M 39.40625 74.21875 
Q 54.734375 74.21875 63.90625 63.9375 
Q 73.09375 53.65625 73.09375 36.375 
Q 73.09375 19.140625 63.90625 8.859375 
Q 54.734375 -1.421875 39.40625 -1.421875 
Q 24.03125 -1.421875 14.8125 8.828125 
Q 5.609375 19.09375 5.609375 36.375 
Q 5.609375 53.65625 14.8125 63.9375 
Q 24.03125 74.21875 39.40625 74.21875 
" id="BitstreamVeraSans-Roman-4f"/>
     </defs>
     <g style="fill:#555555;" transform="translate(1738.14669643 310.7371875)rotate(-90.0)scale(0.12 -0.12)">
      <use xlink:href="#BitstreamVeraSans-Roman-4f"/>
      <use x="78.7109375" xlink:href="#BitstreamVeraSans-Roman-63"/>
      <use x="133.69140625" xlink:href="#BitstreamVeraSans-Roman-65"/>
      <use x="195.21484375" xlink:href="#BitstreamVeraSans-Roman-61"/>
      <use x="256.494140625" xlink:href="#BitstreamVeraSans-Roman-6e"/>
      <use x="319.873046875" xlink:href="#BitstreamVeraSans-Roman-69"/>
      <use x="347.65625" xlink:href="#BitstreamVeraSans-Roman-61"/>
     </g>
    </g>
   </g>
   <g id="patch_17">
    <path d="M 2176.099464 286.2 
C 2176.099464 276.31533 2175.536638 266.441568 2174.414703 256.643945 
C 2173.292768 246.846322 2171.614201 237.146461 2169.390091 227.608446 
L 1984.785179 286.2 
L 2176.099464 286.2 
z
" style="fill:#0000ff;stroke:#eeeeee;stroke-linejoin:miter;stroke-width:0.5;"/>
   </g>
   <g id="patch_18">
    <path d="M 2169.390091 227.608446 
C 2163.07555 200.528762 2152.439632 175.079844 2138.04113 152.598738 
C 2123.642627 130.117631 2105.738194 111.00506 2085.268499 96.265168 
C 2064.798804 81.525276 2042.128719 71.4208 2018.449292 66.482613 
C 1994.769865 61.544426 1970.503182 61.860551 1946.924174 67.41438 
C 1923.345166 72.968208 1900.874128 83.660743 1880.691651 98.930217 
C 1860.509174 114.19969 1842.97501 133.773925 1829.010376 156.624521 
C 1815.045741 179.475118 1804.899555 205.194766 1799.10488 232.432199 
C 1793.310206 259.669631 1791.970333 287.93934 1795.155658 315.756084 
C 1798.340982 343.572827 1805.994724 370.440772 1817.71477 394.94832 
C 1829.434816 419.455869 1845.012256 441.166175 1863.628677 458.938615 
C 1882.245098 476.711055 1903.568663 490.228836 1926.479067 498.781756 
C 1949.389471 507.334676 1973.478337 510.77028 1997.480076 508.908066 
C 2021.481814 507.045853 2044.968596 499.919015 2066.706463 487.901987 
C 2088.44433 475.884958 2108.045807 459.191942 2124.481063 438.699961 
C 2140.91632 418.20798 2153.892399 394.282302 2162.727558 368.179945 
C 2171.562717 342.077588 2176.09947 314.263824 2176.099464 286.199943 
L 1984.785179 286.2 
L 2169.390091 227.608446 
z
" style="fill:#008000;stroke:#eeeeee;stroke-linejoin:miter;stroke-width:0.5;"/>
   </g>
   <g id="text_17">
    <!-- SSF subsidies -->
    <g transform="translate(2193.37765516 256.447714193)scale(0.1 -0.1)">
     <use xlink:href="#BitstreamVeraSans-Roman-53"/>
     <use x="63.4765625" xlink:href="#BitstreamVeraSans-Roman-53"/>
     <use x="126.953125" xlink:href="#BitstreamVeraSans-Roman-46"/>
     <use x="184.47265625" xlink:href="#BitstreamVeraSans-Roman-20"/>
     <use x="216.259765625" xlink:href="#BitstreamVeraSans-Roman-73"/>
     <use x="268.359375" xlink:href="#BitstreamVeraSans-Roman-75"/>
     <use x="331.73828125" xlink:href="#BitstreamVeraSans-Roman-62"/>
     <use x="395.21484375" xlink:href="#BitstreamVeraSans-Roman-73"/>
     <use x="447.314453125" xlink:href="#BitstreamVeraSans-Roman-69"/>
     <use x="475.09765625" xlink:href="#BitstreamVeraSans-Roman-64"/>
     <use x="538.57421875" xlink:href="#BitstreamVeraSans-Roman-69"/>
     <use x="566.357421875" xlink:href="#BitstreamVeraSans-Roman-65"/>
     <use x="627.880859375" xlink:href="#BitstreamVeraSans-Roman-73"/>
    </g>
   </g>
   <g id="text_18">
    <!-- LSF subsidies -->
    <g transform="translate(1708.97083057 321.471067136)scale(0.1 -0.1)">
     <use xlink:href="#BitstreamVeraSans-Roman-4c"/>
     <use x="55.712890625" xlink:href="#BitstreamVeraSans-Roman-53"/>
     <use x="119.189453125" xlink:href="#BitstreamVeraSans-Roman-46"/>
     <use x="176.708984375" xlink:href="#BitstreamVeraSans-Roman-20"/>
     <use x="208.49609375" xlink:href="#BitstreamVeraSans-Roman-73"/>
     <use x="260.595703125" xlink:href="#BitstreamVeraSans-Roman-75"/>
     <use x="323.974609375" xlink:href="#BitstreamVeraSans-Roman-62"/>
     <use x="387.451171875" xlink:href="#BitstreamVeraSans-Roman-73"/>
     <use x="439.55078125" xlink:href="#BitstreamVeraSans-Roman-69"/>
     <use x="467.333984375" xlink:href="#BitstreamVeraSans-Roman-64"/>
     <use x="530.810546875" xlink:href="#BitstreamVeraSans-Roman-69"/>
     <use x="558.59375" xlink:href="#BitstreamVeraSans-Roman-65"/>
     <use x="620.1171875" xlink:href="#BitstreamVeraSans-Roman-73"/>
    </g>
   </g>
   <g id="legend_4">
    <g id="patch_19">
     <path d="M 2093.129911 52.0275 
L 2217.928036 52.0275 
L 2217.928036 13.2 
L 2093.129911 13.2 
z
" style="fill:#e5e5e5;stroke:#ffffff;stroke-linejoin:miter;stroke-width:0.5;"/>
    </g>
    <g id="patch_20">
     <path d="M 2097.929911 27.118125 
L 2121.929911 27.118125 
L 2121.929911 18.718125 
L 2097.929911 18.718125 
z
" style="fill:#0000ff;stroke:#eeeeee;stroke-linejoin:miter;stroke-width:0.5;"/>
    </g>
    <g id="text_19">
     <!-- SSF subsidies -->
     <g transform="translate(2131.52991071 27.118125)scale(0.12 -0.12)">
      <use xlink:href="#BitstreamVeraSans-Roman-53"/>
      <use x="63.4765625" xlink:href="#BitstreamVeraSans-Roman-53"/>
      <use x="126.953125" xlink:href="#BitstreamVeraSans-Roman-46"/>
      <use x="184.47265625" xlink:href="#BitstreamVeraSans-Roman-20"/>
      <use x="216.259765625" xlink:href="#BitstreamVeraSans-Roman-73"/>
      <use x="268.359375" xlink:href="#BitstreamVeraSans-Roman-75"/>
      <use x="331.73828125" xlink:href="#BitstreamVeraSans-Roman-62"/>
      <use x="395.21484375" xlink:href="#BitstreamVeraSans-Roman-73"/>
      <use x="447.314453125" xlink:href="#BitstreamVeraSans-Roman-69"/>
      <use x="475.09765625" xlink:href="#BitstreamVeraSans-Roman-64"/>
      <use x="538.57421875" xlink:href="#BitstreamVeraSans-Roman-69"/>
      <use x="566.357421875" xlink:href="#BitstreamVeraSans-Roman-65"/>
      <use x="627.880859375" xlink:href="#BitstreamVeraSans-Roman-73"/>
     </g>
    </g>
    <g id="patch_21">
     <path d="M 2097.929911 44.731875 
L 2121.929911 44.731875 
L 2121.929911 36.331875 
L 2097.929911 36.331875 
z
" style="fill:#008000;stroke:#eeeeee;stroke-linejoin:miter;stroke-width:0.5;"/>
    </g>
    <g id="text_20">
     <!-- LSF subsidies -->
     <g transform="translate(2131.52991071 44.731875)scale(0.12 -0.12)">
      <use xlink:href="#BitstreamVeraSans-Roman-4c"/>
      <use x="55.712890625" xlink:href="#BitstreamVeraSans-Roman-53"/>
      <use x="119.189453125" xlink:href="#BitstreamVeraSans-Roman-46"/>
      <use x="176.708984375" xlink:href="#BitstreamVeraSans-Roman-20"/>
      <use x="208.49609375" xlink:href="#BitstreamVeraSans-Roman-73"/>
      <use x="260.595703125" xlink:href="#BitstreamVeraSans-Roman-75"/>
      <use x="323.974609375" xlink:href="#BitstreamVeraSans-Roman-62"/>
      <use x="387.451171875" xlink:href="#BitstreamVeraSans-Roman-73"/>
      <use x="439.55078125" xlink:href="#BitstreamVeraSans-Roman-69"/>
      <use x="467.333984375" xlink:href="#BitstreamVeraSans-Roman-64"/>
      <use x="530.810546875" xlink:href="#BitstreamVeraSans-Roman-69"/>
      <use x="558.59375" xlink:href="#BitstreamVeraSans-Roman-65"/>
      <use x="620.1171875" xlink:href="#BitstreamVeraSans-Roman-73"/>
     </g>
    </g>
   </g>
  </g>
  <g id="axes_5">
   <g id="matplotlib.axis_9"/>
   <g id="matplotlib.axis_10">
    <g id="text_21">
     <!-- South, Central America and Carribbean -->
     <defs>
      <path d="M 11.71875 12.40625 
L 22.015625 12.40625 
L 22.015625 4 
L 14.015625 -11.625 
L 7.71875 -11.625 
L 11.71875 4 
z
" id="BitstreamVeraSans-Roman-2c"/>
      <path d="M 64.40625 67.28125 
L 64.40625 56.890625 
Q 59.421875 61.53125 53.78125 63.8125 
Q 48.140625 66.109375 41.796875 66.109375 
Q 29.296875 66.109375 22.65625 58.46875 
Q 16.015625 50.828125 16.015625 36.375 
Q 16.015625 21.96875 22.65625 14.328125 
Q 29.296875 6.6875 41.796875 6.6875 
Q 48.140625 6.6875 53.78125 8.984375 
Q 59.421875 11.28125 64.40625 15.921875 
L 64.40625 5.609375 
Q 59.234375 2.09375 53.4375 0.328125 
Q 47.65625 -1.421875 41.21875 -1.421875 
Q 24.65625 -1.421875 15.125 8.703125 
Q 5.609375 18.84375 5.609375 36.375 
Q 5.609375 53.953125 15.125 64.078125 
Q 24.65625 74.21875 41.21875 74.21875 
Q 47.75 74.21875 53.53125 72.484375 
Q 59.328125 70.75 64.40625 67.28125 
" id="BitstreamVeraSans-Roman-43"/>
      <path d="M 9.421875 75.984375 
L 18.40625 75.984375 
L 18.40625 0 
L 9.421875 0 
z
" id="BitstreamVeraSans-Roman-6c"/>
     </defs>
     <g style="fill:#555555;" transform="translate(2312.08955357 404.311875)rotate(-90.0)scale(0.12 -0.12)">
      <use xlink:href="#BitstreamVeraSans-Roman-53"/>
      <use x="63.4765625" xlink:href="#BitstreamVeraSans-Roman-6f"/>
      <use x="124.658203125" xlink:href="#BitstreamVeraSans-Roman-75"/>
      <use x="188.037109375" xlink:href="#BitstreamVeraSans-Roman-74"/>
      <use x="227.24609375" xlink:href="#BitstreamVeraSans-Roman-68"/>
      <use x="290.625" xlink:href="#BitstreamVeraSans-Roman-2c"/>
      <use x="322.412109375" xlink:href="#BitstreamVeraSans-Roman-20"/>
      <use x="354.19921875" xlink:href="#BitstreamVeraSans-Roman-43"/>
      <use x="424.0234375" xlink:href="#BitstreamVeraSans-Roman-65"/>
      <use x="485.546875" xlink:href="#BitstreamVeraSans-Roman-6e"/>
      <use x="548.92578125" xlink:href="#BitstreamVeraSans-Roman-74"/>
      <use x="588.134765625" xlink:href="#BitstreamVeraSans-Roman-72"/>
      <use x="629.248046875" xlink:href="#BitstreamVeraSans-Roman-61"/>
      <use x="690.52734375" xlink:href="#BitstreamVeraSans-Roman-6c"/>
      <use x="718.310546875" xlink:href="#BitstreamVeraSans-Roman-20"/>
      <use x="750.09765625" xlink:href="#BitstreamVeraSans-Roman-41"/>
      <use x="818.505859375" xlink:href="#BitstreamVeraSans-Roman-6d"/>
      <use x="915.91796875" xlink:href="#BitstreamVeraSans-Roman-65"/>
      <use x="977.44140625" xlink:href="#BitstreamVeraSans-Roman-72"/>
      <use x="1018.5546875" xlink:href="#BitstreamVeraSans-Roman-69"/>
      <use x="1046.33789062" xlink:href="#BitstreamVeraSans-Roman-63"/>
      <use x="1101.31835938" xlink:href="#BitstreamVeraSans-Roman-61"/>
      <use x="1162.59765625" xlink:href="#BitstreamVeraSans-Roman-20"/>
      <use x="1194.38476562" xlink:href="#BitstreamVeraSans-Roman-61"/>
      <use x="1255.6640625" xlink:href="#BitstreamVeraSans-Roman-6e"/>
      <use x="1319.04296875" xlink:href="#BitstreamVeraSans-Roman-64"/>
      <use x="1382.51953125" xlink:href="#BitstreamVeraSans-Roman-20"/>
      <use x="1414.30664062" xlink:href="#BitstreamVeraSans-Roman-43"/>
      <use x="1484.13085938" xlink:href="#BitstreamVeraSans-Roman-61"/>
      <use x="1545.41015625" xlink:href="#BitstreamVeraSans-Roman-72"/>
      <use x="1586.5078125" xlink:href="#BitstreamVeraSans-Roman-72"/>
      <use x="1627.62109375" xlink:href="#BitstreamVeraSans-Roman-69"/>
      <use x="1655.40429688" xlink:href="#BitstreamVeraSans-Roman-62"/>
      <use x="1718.88085938" xlink:href="#BitstreamVeraSans-Roman-62"/>
      <use x="1782.35742188" xlink:href="#BitstreamVeraSans-Roman-65"/>
      <use x="1843.88085938" xlink:href="#BitstreamVeraSans-Roman-61"/>
      <use x="1905.16015625" xlink:href="#BitstreamVeraSans-Roman-6e"/>
     </g>
    </g>
   </g>
   <g id="patch_22">
    <path d="M 2750.042321 286.2 
C 2750.042321 251.99668 2743.303456 218.246654 2730.347746 187.564345 
C 2717.392035 156.882037 2698.562884 130.080707 2675.318878 109.236504 
C 2652.074872 88.3923 2625.032114 74.057716 2596.285455 67.343171 
C 2567.538795 60.628626 2537.850188 61.712094 2509.519442 70.509646 
L 2558.728036 286.2 
L 2750.042321 286.2 
z
" style="fill:#0000ff;stroke:#eeeeee;stroke-linejoin:miter;stroke-width:0.5;"/>
   </g>
   <g id="patch_23">
    <path d="M 2509.519442 70.509646 
C 2475.002992 81.228045 2443.739512 103.012582 2419.284941 133.385463 
C 2394.830369 163.758344 2378.148404 201.522642 2371.136468 242.383011 
C 2364.124533 283.243381 2367.058951 325.589606 2379.605959 364.605188 
C 2392.152968 403.62077 2413.818117 437.768192 2442.137194 463.163496 
C 2470.45627 488.5588 2504.313282 504.201213 2539.857302 508.311553 
C 2575.401322 512.421893 2611.23164 504.838181 2643.272883 486.422995 
C 2675.314125 468.007809 2702.303619 439.486849 2721.171553 404.104118 
C 2740.039488 368.721386 2750.042321 327.871235 2750.042321 286.2 
L 2558.728036 286.2 
L 2509.519442 70.509646 
z
" style="fill:#008000;stroke:#eeeeee;stroke-linejoin:miter;stroke-width:0.5;"/>
   </g>
   <g id="text_22">
    <!-- SSF subsidies -->
    <g transform="translate(2686.97796194 94.2995292871)scale(0.1 -0.1)">
     <use xlink:href="#BitstreamVeraSans-Roman-53"/>
     <use x="63.4765625" xlink:href="#BitstreamVeraSans-Roman-53"/>
     <use x="126.953125" xlink:href="#BitstreamVeraSans-Roman-46"/>
     <use x="184.47265625" xlink:href="#BitstreamVeraSans-Roman-20"/>
     <use x="216.259765625" xlink:href="#BitstreamVeraSans-Roman-73"/>
     <use x="268.359375" xlink:href="#BitstreamVeraSans-Roman-75"/>
     <use x="331.73828125" xlink:href="#BitstreamVeraSans-Roman-62"/>
     <use x="395.21484375" xlink:href="#BitstreamVeraSans-Roman-73"/>
     <use x="447.314453125" xlink:href="#BitstreamVeraSans-Roman-69"/>
     <use x="475.09765625" xlink:href="#BitstreamVeraSans-Roman-64"/>
     <use x="538.57421875" xlink:href="#BitstreamVeraSans-Roman-69"/>
     <use x="566.357421875" xlink:href="#BitstreamVeraSans-Roman-65"/>
     <use x="627.880859375" xlink:href="#BitstreamVeraSans-Roman-73"/>
    </g>
   </g>
   <g id="text_23">
    <!-- LSF subsidies -->
    <g transform="translate(2363.25623449 483.619220713)scale(0.1 -0.1)">
     <use xlink:href="#BitstreamVeraSans-Roman-4c"/>
     <use x="55.712890625" xlink:href="#BitstreamVeraSans-Roman-53"/>
     <use x="119.189453125" xlink:href="#BitstreamVeraSans-Roman-46"/>
     <use x="176.708984375" xlink:href="#BitstreamVeraSans-Roman-20"/>
     <use x="208.49609375" xlink:href="#BitstreamVeraSans-Roman-73"/>
     <use x="260.595703125" xlink:href="#BitstreamVeraSans-Roman-75"/>
     <use x="323.974609375" xlink:href="#BitstreamVeraSans-Roman-62"/>
     <use x="387.451171875" xlink:href="#BitstreamVeraSans-Roman-73"/>
     <use x="439.55078125" xlink:href="#BitstreamVeraSans-Roman-69"/>
     <use x="467.333984375" xlink:href="#BitstreamVeraSans-Roman-64"/>
     <use x="530.810546875" xlink:href="#BitstreamVeraSans-Roman-69"/>
     <use x="558.59375" xlink:href="#BitstreamVeraSans-Roman-65"/>
     <use x="620.1171875" xlink:href="#BitstreamVeraSans-Roman-73"/>
    </g>
   </g>
   <g id="legend_5">
    <g id="patch_24">
     <path d="M 2667.072768 52.0275 
L 2791.870893 52.0275 
L 2791.870893 13.2 
L 2667.072768 13.2 
z
" style="fill:#e5e5e5;stroke:#ffffff;stroke-linejoin:miter;stroke-width:0.5;"/>
    </g>
    <g id="patch_25">
     <path d="M 2671.872768 27.118125 
L 2695.872768 27.118125 
L 2695.872768 18.718125 
L 2671.872768 18.718125 
z
" style="fill:#0000ff;stroke:#eeeeee;stroke-linejoin:miter;stroke-width:0.5;"/>
    </g>
    <g id="text_24">
     <!-- SSF subsidies -->
     <g transform="translate(2705.47276786 27.118125)scale(0.12 -0.12)">
      <use xlink:href="#BitstreamVeraSans-Roman-53"/>
      <use x="63.4765625" xlink:href="#BitstreamVeraSans-Roman-53"/>
      <use x="126.953125" xlink:href="#BitstreamVeraSans-Roman-46"/>
      <use x="184.47265625" xlink:href="#BitstreamVeraSans-Roman-20"/>
      <use x="216.259765625" xlink:href="#BitstreamVeraSans-Roman-73"/>
      <use x="268.359375" xlink:href="#BitstreamVeraSans-Roman-75"/>
      <use x="331.73828125" xlink:href="#BitstreamVeraSans-Roman-62"/>
      <use x="395.21484375" xlink:href="#BitstreamVeraSans-Roman-73"/>
      <use x="447.314453125" xlink:href="#BitstreamVeraSans-Roman-69"/>
      <use x="475.09765625" xlink:href="#BitstreamVeraSans-Roman-64"/>
      <use x="538.57421875" xlink:href="#BitstreamVeraSans-Roman-69"/>
      <use x="566.357421875" xlink:href="#BitstreamVeraSans-Roman-65"/>
      <use x="627.880859375" xlink:href="#BitstreamVeraSans-Roman-73"/>
     </g>
    </g>
    <g id="patch_26">
     <path d="M 2671.872768 44.731875 
L 2695.872768 44.731875 
L 2695.872768 36.331875 
L 2671.872768 36.331875 
z
" style="fill:#008000;stroke:#eeeeee;stroke-linejoin:miter;stroke-width:0.5;"/>
    </g>
    <g id="text_25">
     <!-- LSF subsidies -->
     <g transform="translate(2705.47276786 44.731875)scale(0.12 -0.12)">
      <use xlink:href="#BitstreamVeraSans-Roman-4c"/>
      <use x="55.712890625" xlink:href="#BitstreamVeraSans-Roman-53"/>
      <use x="119.189453125" xlink:href="#BitstreamVeraSans-Roman-46"/>
      <use x="176.708984375" xlink:href="#BitstreamVeraSans-Roman-20"/>
      <use x="208.49609375" xlink:href="#BitstreamVeraSans-Roman-73"/>
      <use x="260.595703125" xlink:href="#BitstreamVeraSans-Roman-75"/>
      <use x="323.974609375" xlink:href="#BitstreamVeraSans-Roman-62"/>
      <use x="387.451171875" xlink:href="#BitstreamVeraSans-Roman-73"/>
      <use x="439.55078125" xlink:href="#BitstreamVeraSans-Roman-69"/>
      <use x="467.333984375" xlink:href="#BitstreamVeraSans-Roman-64"/>
      <use x="530.810546875" xlink:href="#BitstreamVeraSans-Roman-69"/>
      <use x="558.59375" xlink:href="#BitstreamVeraSans-Roman-65"/>
      <use x="620.1171875" xlink:href="#BitstreamVeraSans-Roman-73"/>
     </g>
    </g>
   </g>
  </g>
  <g id="axes_6">
   <g id="matplotlib.axis_11"/>
   <g id="matplotlib.axis_12">
    <g id="text_26">
     <!-- Africa -->
     <defs>
      <path d="M 37.109375 75.984375 
L 37.109375 68.5 
L 28.515625 68.5 
Q 23.6875 68.5 21.796875 66.546875 
Q 19.921875 64.59375 19.921875 59.515625 
L 19.921875 54.6875 
L 34.71875 54.6875 
L 34.71875 47.703125 
L 19.921875 47.703125 
L 19.921875 0 
L 10.890625 0 
L 10.890625 47.703125 
L 2.296875 47.703125 
L 2.296875 54.6875 
L 10.890625 54.6875 
L 10.890625 58.5 
Q 10.890625 67.625 15.140625 71.796875 
Q 19.390625 75.984375 28.609375 75.984375 
z
" id="BitstreamVeraSans-Roman-66"/>
     </defs>
     <g style="fill:#555555;" transform="translate(2886.03241071 303.523125)rotate(-90.0)scale(0.12 -0.12)">
      <use xlink:href="#BitstreamVeraSans-Roman-41"/>
      <use x="68.361328125" xlink:href="#BitstreamVeraSans-Roman-66"/>
      <use x="103.56640625" xlink:href="#BitstreamVeraSans-Roman-72"/>
      <use x="144.6796875" xlink:href="#BitstreamVeraSans-Roman-69"/>
      <use x="172.462890625" xlink:href="#BitstreamVeraSans-Roman-63"/>
      <use x="227.443359375" xlink:href="#BitstreamVeraSans-Roman-61"/>
     </g>
    </g>
   </g>
   <g id="patch_27">
    <path d="M 3323.985179 286.2 
C 3323.985179 227.524308 3304.153169 171.152139 3268.820519 129.395333 
C 3233.487868 87.638527 3185.428791 63.775708 3135.139529 63.018582 
L 3132.670893 286.2 
L 3323.985179 286.2 
z
" style="fill:#0000ff;stroke:#eeeeee;stroke-linejoin:miter;stroke-width:0.5;"/>
   </g>
   <g id="patch_28">
    <path d="M 3135.139529 63.018582 
C 3108.254718 62.613821 3081.596295 68.825689 3056.90743 81.247998 
C 3032.218566 93.670308 3010.049379 112.026264 2991.849496 135.115586 
C 2973.649612 158.204907 2959.824562 185.513117 2951.278353 215.254554 
C 2942.732145 244.995992 2939.655206 276.507955 2942.248735 307.729904 
C 2944.842263 338.951853 2953.048471 369.188099 2966.330759 396.461517 
C 2979.613048 423.734935 2997.675461 447.437819 3019.336913 466.020256 
C 3040.998365 484.602693 3065.776193 497.650628 3092.050197 504.310868 
C 3118.3242 510.971109 3145.50894 511.09525 3171.826829 504.675174 
L 3132.670893 286.2 
L 3135.139529 63.018582 
z
" style="fill:#008000;stroke:#eeeeee;stroke-linejoin:miter;stroke-width:0.5;"/>
   </g>
   <g id="text_27">
    <!-- SSF subsidies -->
    <g transform="translate(3282.43548125 116.474241223)scale(0.1 -0.1)">
     <use xlink:href="#BitstreamVeraSans-Roman-53"/>
     <use x="63.4765625" xlink:href="#BitstreamVeraSans-Roman-53"/>
     <use x="126.953125" xlink:href="#BitstreamVeraSans-Roman-46"/>
     <use x="184.47265625" xlink:href="#BitstreamVeraSans-Roman-20"/>
     <use x="216.259765625" xlink:href="#BitstreamVeraSans-Roman-73"/>
     <use x="268.359375" xlink:href="#BitstreamVeraSans-Roman-75"/>
     <use x="331.73828125" xlink:href="#BitstreamVeraSans-Roman-62"/>
     <use x="395.21484375" xlink:href="#BitstreamVeraSans-Roman-73"/>
     <use x="447.314453125" xlink:href="#BitstreamVeraSans-Roman-69"/>
     <use x="475.09765625" xlink:href="#BitstreamVeraSans-Roman-64"/>
     <use x="538.57421875" xlink:href="#BitstreamVeraSans-Roman-69"/>
     <use x="566.357421875" xlink:href="#BitstreamVeraSans-Roman-65"/>
     <use x="627.880859375" xlink:href="#BitstreamVeraSans-Roman-73"/>
    </g>
   </g>
   <g id="text_28">
    <!-- LSF subsidies -->
    <g transform="translate(2855.98464398 312.642269702)scale(0.1 -0.1)">
     <use xlink:href="#BitstreamVeraSans-Roman-4c"/>
     <use x="55.712890625" xlink:href="#BitstreamVeraSans-Roman-53"/>
     <use x="119.189453125" xlink:href="#BitstreamVeraSans-Roman-46"/>
     <use x="176.708984375" xlink:href="#BitstreamVeraSans-Roman-20"/>
     <use x="208.49609375" xlink:href="#BitstreamVeraSans-Roman-73"/>
     <use x="260.595703125" xlink:href="#BitstreamVeraSans-Roman-75"/>
     <use x="323.974609375" xlink:href="#BitstreamVeraSans-Roman-62"/>
     <use x="387.451171875" xlink:href="#BitstreamVeraSans-Roman-73"/>
     <use x="439.55078125" xlink:href="#BitstreamVeraSans-Roman-69"/>
     <use x="467.333984375" xlink:href="#BitstreamVeraSans-Roman-64"/>
     <use x="530.810546875" xlink:href="#BitstreamVeraSans-Roman-69"/>
     <use x="558.59375" xlink:href="#BitstreamVeraSans-Roman-65"/>
     <use x="620.1171875" xlink:href="#BitstreamVeraSans-Roman-73"/>
    </g>
   </g>
   <g id="legend_6">
    <g id="patch_29">
     <path d="M 3241.015625 52.0275 
L 3365.81375 52.0275 
L 3365.81375 13.2 
L 3241.015625 13.2 
z
" style="fill:#e5e5e5;stroke:#ffffff;stroke-linejoin:miter;stroke-width:0.5;"/>
    </g>
    <g id="patch_30">
     <path d="M 3245.815625 27.118125 
L 3269.815625 27.118125 
L 3269.815625 18.718125 
L 3245.815625 18.718125 
z
" style="fill:#0000ff;stroke:#eeeeee;stroke-linejoin:miter;stroke-width:0.5;"/>
    </g>
    <g id="text_29">
     <!-- SSF subsidies -->
     <g transform="translate(3279.415625 27.118125)scale(0.12 -0.12)">
      <use xlink:href="#BitstreamVeraSans-Roman-53"/>
      <use x="63.4765625" xlink:href="#BitstreamVeraSans-Roman-53"/>
      <use x="126.953125" xlink:href="#BitstreamVeraSans-Roman-46"/>
      <use x="184.47265625" xlink:href="#BitstreamVeraSans-Roman-20"/>
      <use x="216.259765625" xlink:href="#BitstreamVeraSans-Roman-73"/>
      <use x="268.359375" xlink:href="#BitstreamVeraSans-Roman-75"/>
      <use x="331.73828125" xlink:href="#BitstreamVeraSans-Roman-62"/>
      <use x="395.21484375" xlink:href="#BitstreamVeraSans-Roman-73"/>
      <use x="447.314453125" xlink:href="#BitstreamVeraSans-Roman-69"/>
      <use x="475.09765625" xlink:href="#BitstreamVeraSans-Roman-64"/>
      <use x="538.57421875" xlink:href="#BitstreamVeraSans-Roman-69"/>
      <use x="566.357421875" xlink:href="#BitstreamVeraSans-Roman-65"/>
      <use x="627.880859375" xlink:href="#BitstreamVeraSans-Roman-73"/>
     </g>
    </g>
    <g id="patch_31">
     <path d="M 3245.815625 44.731875 
L 3269.815625 44.731875 
L 3269.815625 36.331875 
L 3245.815625 36.331875 
z
" style="fill:#008000;stroke:#eeeeee;stroke-linejoin:miter;stroke-width:0.5;"/>
    </g>
    <g id="text_30">
     <!-- LSF subsidies -->
     <g transform="translate(3279.415625 44.731875)scale(0.12 -0.12)">
      <use xlink:href="#BitstreamVeraSans-Roman-4c"/>
      <use x="55.712890625" xlink:href="#BitstreamVeraSans-Roman-53"/>
      <use x="119.189453125" xlink:href="#BitstreamVeraSans-Roman-46"/>
      <use x="176.708984375" xlink:href="#BitstreamVeraSans-Roman-20"/>
      <use x="208.49609375" xlink:href="#BitstreamVeraSans-Roman-73"/>
      <use x="260.595703125" xlink:href="#BitstreamVeraSans-Roman-75"/>
      <use x="323.974609375" xlink:href="#BitstreamVeraSans-Roman-62"/>
      <use x="387.451171875" xlink:href="#BitstreamVeraSans-Roman-73"/>
      <use x="439.55078125" xlink:href="#BitstreamVeraSans-Roman-69"/>
      <use x="467.333984375" xlink:href="#BitstreamVeraSans-Roman-64"/>
      <use x="530.810546875" xlink:href="#BitstreamVeraSans-Roman-69"/>
      <use x="558.59375" xlink:href="#BitstreamVeraSans-Roman-65"/>
      <use x="620.1171875" xlink:href="#BitstreamVeraSans-Roman-73"/>
     </g>
    </g>
   </g>
  </g>
 </g>
</svg>
