<?xml version="1.0" encoding="utf-8" standalone="no"?>
<!DOCTYPE svg PUBLIC "-//W3C//DTD SVG 1.1//EN"
  "http://www.w3.org/Graphics/SVG/1.1/DTD/svg11.dtd">
<!-- Created with matplotlib (http://matplotlib.org/) -->
<svg height="572pt" version="1.1" viewBox="0 0 3379 572" width="3379pt" xmlns="http://www.w3.org/2000/svg" xmlns:xlink="http://www.w3.org/1999/xlink">
 <defs>
  <style type="text/css">
*{stroke-linecap:butt;stroke-linejoin:round;stroke-miterlimit:100000;}
  </style>
 </defs>
 <g id="figure_1">
  <g id="patch_1">
   <path d="M 0 572.4 
L 3379.01375 572.4 
L 3379.01375 0 
L 0 0 
z
" style="fill:#ffffff;"/>
  </g>
  <g id="axes_1">
   <g id="matplotlib.axis_1"/>
   <g id="matplotlib.axis_2">
    <g id="text_1">
     <!-- Asia -->
     <defs>
      <path d="M 34.28125 27.484375 
Q 23.390625 27.484375 19.1875 25 
Q 14.984375 22.515625 14.984375 16.5 
Q 14.984375 11.71875 18.140625 8.90625 
Q 21.296875 6.109375 26.703125 6.109375 
Q 34.1875 6.109375 38.703125 11.40625 
Q 43.21875 16.703125 43.21875 25.484375 
L 43.21875 27.484375 
z
M 52.203125 31.203125 
L 52.203125 0 
L 43.21875 0 
L 43.21875 8.296875 
Q 40.140625 3.328125 35.546875 0.953125 
Q 30.953125 -1.421875 24.3125 -1.421875 
Q 15.921875 -1.421875 10.953125 3.296875 
Q 6 8.015625 6 15.921875 
Q 6 25.140625 12.171875 29.828125 
Q 18.359375 34.515625 30.609375 34.515625 
L 43.21875 34.515625 
L 43.21875 35.40625 
Q 43.21875 41.609375 39.140625 45 
Q 35.0625 48.390625 27.6875 48.390625 
Q 23 48.390625 18.546875 47.265625 
Q 14.109375 46.140625 10.015625 43.890625 
L 10.015625 52.203125 
Q 14.9375 54.109375 19.578125 55.046875 
Q 24.21875 56 28.609375 56 
Q 40.484375 56 46.34375 49.84375 
Q 52.203125 43.703125 52.203125 31.203125 
" id="BitstreamVeraSans-Roman-61"/>
      <path d="M 9.421875 54.6875 
L 18.40625 54.6875 
L 18.40625 0 
L 9.421875 0 
z
M 9.421875 75.984375 
L 18.40625 75.984375 
L 18.40625 64.59375 
L 9.421875 64.59375 
z
" id="BitstreamVeraSans-Roman-69"/>
      <path d="M 44.28125 53.078125 
L 44.28125 44.578125 
Q 40.484375 46.53125 36.375 47.5 
Q 32.28125 48.484375 27.875 48.484375 
Q 21.1875 48.484375 17.84375 46.4375 
Q 14.5 44.390625 14.5 40.28125 
Q 14.5 37.15625 16.890625 35.375 
Q 19.28125 33.59375 26.515625 31.984375 
L 29.59375 31.296875 
Q 39.15625 29.25 43.1875 25.515625 
Q 47.21875 21.78125 47.21875 15.09375 
Q 47.21875 7.46875 41.1875 3.015625 
Q 35.15625 -1.421875 24.609375 -1.421875 
Q 20.21875 -1.421875 15.453125 -0.5625 
Q 10.6875 0.296875 5.421875 2 
L 5.421875 11.28125 
Q 10.40625 8.6875 15.234375 7.390625 
Q 20.0625 6.109375 24.8125 6.109375 
Q 31.15625 6.109375 34.5625 8.28125 
Q 37.984375 10.453125 37.984375 14.40625 
Q 37.984375 18.0625 35.515625 20.015625 
Q 33.0625 21.96875 24.703125 23.78125 
L 21.578125 24.515625 
Q 13.234375 26.265625 9.515625 29.90625 
Q 5.8125 33.546875 5.8125 39.890625 
Q 5.8125 47.609375 11.28125 51.796875 
Q 16.75 56 26.8125 56 
Q 31.78125 56 36.171875 55.265625 
Q 40.578125 54.546875 44.28125 53.078125 
" id="BitstreamVeraSans-Roman-73"/>
      <path d="M 34.1875 63.1875 
L 20.796875 26.90625 
L 47.609375 26.90625 
z
M 28.609375 72.90625 
L 39.796875 72.90625 
L 67.578125 0 
L 57.328125 0 
L 50.6875 18.703125 
L 17.828125 18.703125 
L 11.1875 0 
L 0.78125 0 
z
" id="BitstreamVeraSans-Roman-41"/>
     </defs>
     <g style="fill:#555555;" transform="translate(16.318125 298.77375)rotate(-90.0)scale(0.12 -0.12)">
      <use xlink:href="#BitstreamVeraSans-Roman-41"/>
      <use x="68.408203125" xlink:href="#BitstreamVeraSans-Roman-73"/>
      <use x="120.5078125" xlink:href="#BitstreamVeraSans-Roman-69"/>
      <use x="148.291015625" xlink:href="#BitstreamVeraSans-Roman-61"/>
     </g>
    </g>
   </g>
   <g id="patch_2">
    <path d="M 454.270893 286.2 
C 454.270893 242.443139 443.241729 199.637406 422.561896 163.132936 
C 401.882063 126.628467 372.450583 98.012232 337.945992 80.860873 
L 262.956607 286.2 
L 454.270893 286.2 
z
" style="fill:#0000ff;stroke:#eeeeee;stroke-linejoin:miter;stroke-width:0.5;"/>
   </g>
   <g id="patch_3">
    <path d="M 337.945992 80.860873 
C 319.150027 71.517874 299.192 65.747619 278.831579 63.769741 
C 258.471157 61.791864 237.969988 63.631781 218.108413 69.21946 
C 198.246837 74.807139 179.280093 84.070773 161.930116 96.657759 
C 144.580138 109.244746 129.069889 124.99333 115.989738 143.304072 
C 102.909587 161.614813 92.427625 182.252403 84.942829 204.431308 
C 77.458033 226.610213 73.066589 250.045416 71.93565 273.844898 
C 70.804711 297.64438 72.94881 321.502297 78.286336 344.510541 
C 83.623861 367.518785 92.086222 389.38168 103.351313 409.267055 
C 114.616405 429.152429 128.539461 446.80474 144.590525 461.552082 
C 160.641589 476.299424 178.614392 487.952283 197.824831 496.067112 
C 217.03527 504.181942 237.236475 508.65446 257.659524 509.314429 
C 278.082572 509.974398 298.46501 506.813335 318.031017 499.951563 
C 337.597024 493.08979 356.09516 482.615486 372.821327 468.927336 
C 389.547494 455.239187 404.286747 438.513096 416.478062 419.385713 
C 428.669376 400.258329 438.156085 378.975456 444.577092 356.347188 
C 450.9981 333.71892 454.270891 310.036049 454.270893 286.200021 
L 262.956607 286.2 
L 337.945992 80.860873 
z
" style="fill:#008000;stroke:#eeeeee;stroke-linejoin:miter;stroke-width:0.5;"/>
   </g>
   <g id="text_2">
    <!-- SSF subsidies -->
    <defs>
     <path id="BitstreamVeraSans-Roman-20"/>
     <path d="M 9.8125 72.90625 
L 51.703125 72.90625 
L 51.703125 64.59375 
L 19.671875 64.59375 
L 19.671875 43.109375 
L 48.578125 43.109375 
L 48.578125 34.8125 
L 19.671875 34.8125 
L 19.671875 0 
L 9.8125 0 
z
" id="BitstreamVeraSans-Roman-46"/>
     <path d="M 53.515625 70.515625 
L 53.515625 60.890625 
Q 47.90625 63.578125 42.921875 64.890625 
Q 37.9375 66.21875 33.296875 66.21875 
Q 25.25 66.21875 20.875 63.09375 
Q 16.5 59.96875 16.5 54.203125 
Q 16.5 49.359375 19.40625 46.890625 
Q 22.3125 44.4375 30.421875 42.921875 
L 36.375 41.703125 
Q 47.40625 39.59375 52.65625 34.296875 
Q 57.90625 29 57.90625 20.125 
Q 57.90625 9.515625 50.796875 4.046875 
Q 43.703125 -1.421875 29.984375 -1.421875 
Q 24.8125 -1.421875 18.96875 -0.25 
Q 13.140625 0.921875 6.890625 3.21875 
L 6.890625 13.375 
Q 12.890625 10.015625 18.65625 8.296875 
Q 24.421875 6.59375 29.984375 6.59375 
Q 38.421875 6.59375 43.015625 9.90625 
Q 47.609375 13.234375 47.609375 19.390625 
Q 47.609375 24.75 44.3125 27.78125 
Q 41.015625 30.8125 33.5 32.328125 
L 27.484375 33.5 
Q 16.453125 35.6875 11.515625 40.375 
Q 6.59375 45.0625 6.59375 53.421875 
Q 6.59375 63.09375 13.40625 68.65625 
Q 20.21875 74.21875 32.171875 74.21875 
Q 37.3125 74.21875 42.625 73.28125 
Q 47.953125 72.359375 53.515625 70.515625 
" id="BitstreamVeraSans-Roman-53"/>
     <path d="M 56.203125 29.59375 
L 56.203125 25.203125 
L 14.890625 25.203125 
Q 15.484375 15.921875 20.484375 11.0625 
Q 25.484375 6.203125 34.421875 6.203125 
Q 39.59375 6.203125 44.453125 7.46875 
Q 49.3125 8.734375 54.109375 11.28125 
L 54.109375 2.78125 
Q 49.265625 0.734375 44.1875 -0.34375 
Q 39.109375 -1.421875 33.890625 -1.421875 
Q 20.796875 -1.421875 13.15625 6.1875 
Q 5.515625 13.8125 5.515625 26.8125 
Q 5.515625 40.234375 12.765625 48.109375 
Q 20.015625 56 32.328125 56 
Q 43.359375 56 49.78125 48.890625 
Q 56.203125 41.796875 56.203125 29.59375 
M 47.21875 32.234375 
Q 47.125 39.59375 43.09375 43.984375 
Q 39.0625 48.390625 32.421875 48.390625 
Q 24.90625 48.390625 20.390625 44.140625 
Q 15.875 39.890625 15.1875 32.171875 
z
" id="BitstreamVeraSans-Roman-65"/>
     <path d="M 45.40625 46.390625 
L 45.40625 75.984375 
L 54.390625 75.984375 
L 54.390625 0 
L 45.40625 0 
L 45.40625 8.203125 
Q 42.578125 3.328125 38.25 0.953125 
Q 33.9375 -1.421875 27.875 -1.421875 
Q 17.96875 -1.421875 11.734375 6.484375 
Q 5.515625 14.40625 5.515625 27.296875 
Q 5.515625 40.1875 11.734375 48.09375 
Q 17.96875 56 27.875 56 
Q 33.9375 56 38.25 53.625 
Q 42.578125 51.265625 45.40625 46.390625 
M 14.796875 27.296875 
Q 14.796875 17.390625 18.875 11.75 
Q 22.953125 6.109375 30.078125 6.109375 
Q 37.203125 6.109375 41.296875 11.75 
Q 45.40625 17.390625 45.40625 27.296875 
Q 45.40625 37.203125 41.296875 42.84375 
Q 37.203125 48.484375 30.078125 48.484375 
Q 22.953125 48.484375 18.875 42.84375 
Q 14.796875 37.203125 14.796875 27.296875 
" id="BitstreamVeraSans-Roman-64"/>
     <path d="M 8.5 21.578125 
L 8.5 54.6875 
L 17.484375 54.6875 
L 17.484375 21.921875 
Q 17.484375 14.15625 20.5 10.265625 
Q 23.53125 6.390625 29.59375 6.390625 
Q 36.859375 6.390625 41.078125 11.03125 
Q 45.3125 15.671875 45.3125 23.6875 
L 45.3125 54.6875 
L 54.296875 54.6875 
L 54.296875 0 
L 45.3125 0 
L 45.3125 8.40625 
Q 42.046875 3.421875 37.71875 1 
Q 33.40625 -1.421875 27.6875 -1.421875 
Q 18.265625 -1.421875 13.375 4.4375 
Q 8.5 10.296875 8.5 21.578125 
" id="BitstreamVeraSans-Roman-75"/>
     <path d="M 48.6875 27.296875 
Q 48.6875 37.203125 44.609375 42.84375 
Q 40.53125 48.484375 33.40625 48.484375 
Q 26.265625 48.484375 22.1875 42.84375 
Q 18.109375 37.203125 18.109375 27.296875 
Q 18.109375 17.390625 22.1875 11.75 
Q 26.265625 6.109375 33.40625 6.109375 
Q 40.53125 6.109375 44.609375 11.75 
Q 48.6875 17.390625 48.6875 27.296875 
M 18.109375 46.390625 
Q 20.953125 51.265625 25.265625 53.625 
Q 29.59375 56 35.59375 56 
Q 45.5625 56 51.78125 48.09375 
Q 58.015625 40.1875 58.015625 27.296875 
Q 58.015625 14.40625 51.78125 6.484375 
Q 45.5625 -1.421875 35.59375 -1.421875 
Q 29.59375 -1.421875 25.265625 0.953125 
Q 20.953125 3.328125 18.109375 8.203125 
L 18.109375 0 
L 9.078125 0 
L 9.078125 75.984375 
L 18.109375 75.984375 
z
" id="BitstreamVeraSans-Roman-62"/>
    </defs>
    <g transform="translate(438.522424872 153.585605075)scale(0.1 -0.1)">
     <use xlink:href="#BitstreamVeraSans-Roman-53"/>
     <use x="63.4765625" xlink:href="#BitstreamVeraSans-Roman-53"/>
     <use x="126.953125" xlink:href="#BitstreamVeraSans-Roman-46"/>
     <use x="184.47265625" xlink:href="#BitstreamVeraSans-Roman-20"/>
     <use x="216.259765625" xlink:href="#BitstreamVeraSans-Roman-73"/>
     <use x="268.359375" xlink:href="#BitstreamVeraSans-Roman-75"/>
     <use x="331.73828125" xlink:href="#BitstreamVeraSans-Roman-62"/>
     <use x="395.21484375" xlink:href="#BitstreamVeraSans-Roman-73"/>
     <use x="447.314453125" xlink:href="#BitstreamVeraSans-Roman-69"/>
     <use x="475.09765625" xlink:href="#BitstreamVeraSans-Roman-64"/>
     <use x="538.57421875" xlink:href="#BitstreamVeraSans-Roman-69"/>
     <use x="566.357421875" xlink:href="#BitstreamVeraSans-Roman-65"/>
     <use x="627.880859375" xlink:href="#BitstreamVeraSans-Roman-73"/>
    </g>
   </g>
   <g id="text_3">
    <!-- LSF subsidies -->
    <defs>
     <path d="M 9.8125 72.90625 
L 19.671875 72.90625 
L 19.671875 8.296875 
L 55.171875 8.296875 
L 55.171875 0 
L 9.8125 0 
z
" id="BitstreamVeraSans-Roman-4c"/>
    </defs>
    <g transform="translate(20.168908982 424.333135336)scale(0.1 -0.1)">
     <use xlink:href="#BitstreamVeraSans-Roman-4c"/>
     <use x="55.712890625" xlink:href="#BitstreamVeraSans-Roman-53"/>
     <use x="119.189453125" xlink:href="#BitstreamVeraSans-Roman-46"/>
     <use x="176.708984375" xlink:href="#BitstreamVeraSans-Roman-20"/>
     <use x="208.49609375" xlink:href="#BitstreamVeraSans-Roman-73"/>
     <use x="260.595703125" xlink:href="#BitstreamVeraSans-Roman-75"/>
     <use x="323.974609375" xlink:href="#BitstreamVeraSans-Roman-62"/>
     <use x="387.451171875" xlink:href="#BitstreamVeraSans-Roman-73"/>
     <use x="439.55078125" xlink:href="#BitstreamVeraSans-Roman-69"/>
     <use x="467.333984375" xlink:href="#BitstreamVeraSans-Roman-64"/>
     <use x="530.810546875" xlink:href="#BitstreamVeraSans-Roman-69"/>
     <use x="558.59375" xlink:href="#BitstreamVeraSans-Roman-65"/>
     <use x="620.1171875" xlink:href="#BitstreamVeraSans-Roman-73"/>
    </g>
   </g>
   <g id="legend_1">
    <g id="patch_4">
     <path d="M 371.301339 52.0275 
L 496.099464 52.0275 
L 496.099464 13.2 
L 371.301339 13.2 
z
" style="fill:#e5e5e5;stroke:#ffffff;stroke-linejoin:miter;stroke-width:0.5;"/>
    </g>
    <g id="patch_5">
     <path d="M 376.101339 27.118125 
L 400.101339 27.118125 
L 400.101339 18.718125 
L 376.101339 18.718125 
z
" style="fill:#0000ff;stroke:#eeeeee;stroke-linejoin:miter;stroke-width:0.5;"/>
    </g>
    <g id="text_4">
     <!-- SSF subsidies -->
     <g transform="translate(409.701339286 27.118125)scale(0.12 -0.12)">
      <use xlink:href="#BitstreamVeraSans-Roman-53"/>
      <use x="63.4765625" xlink:href="#BitstreamVeraSans-Roman-53"/>
      <use x="126.953125" xlink:href="#BitstreamVeraSans-Roman-46"/>
      <use x="184.47265625" xlink:href="#BitstreamVeraSans-Roman-20"/>
      <use x="216.259765625" xlink:href="#BitstreamVeraSans-Roman-73"/>
      <use x="268.359375" xlink:href="#BitstreamVeraSans-Roman-75"/>
      <use x="331.73828125" xlink:href="#BitstreamVeraSans-Roman-62"/>
      <use x="395.21484375" xlink:href="#BitstreamVeraSans-Roman-73"/>
      <use x="447.314453125" xlink:href="#BitstreamVeraSans-Roman-69"/>
      <use x="475.09765625" xlink:href="#BitstreamVeraSans-Roman-64"/>
      <use x="538.57421875" xlink:href="#BitstreamVeraSans-Roman-69"/>
      <use x="566.357421875" xlink:href="#BitstreamVeraSans-Roman-65"/>
      <use x="627.880859375" xlink:href="#BitstreamVeraSans-Roman-73"/>
     </g>
    </g>
    <g id="patch_6">
     <path d="M 376.101339 44.731875 
L 400.101339 44.731875 
L 400.101339 36.331875 
L 376.101339 36.331875 
z
" style="fill:#008000;stroke:#eeeeee;stroke-linejoin:miter;stroke-width:0.5;"/>
    </g>
    <g id="text_5">
     <!-- LSF subsidies -->
     <g transform="translate(409.701339286 44.731875)scale(0.12 -0.12)">
      <use xlink:href="#BitstreamVeraSans-Roman-4c"/>
      <use x="55.712890625" xlink:href="#BitstreamVeraSans-Roman-53"/>
      <use x="119.189453125" xlink:href="#BitstreamVeraSans-Roman-46"/>
      <use x="176.708984375" xlink:href="#BitstreamVeraSans-Roman-20"/>
      <use x="208.49609375" xlink:href="#BitstreamVeraSans-Roman-73"/>
      <use x="260.595703125" xlink:href="#BitstreamVeraSans-Roman-75"/>
      <use x="323.974609375" xlink:href="#BitstreamVeraSans-Roman-62"/>
      <use x="387.451171875" xlink:href="#BitstreamVeraSans-Roman-73"/>
      <use x="439.55078125" xlink:href="#BitstreamVeraSans-Roman-69"/>
      <use x="467.333984375" xlink:href="#BitstreamVeraSans-Roman-64"/>
      <use x="530.810546875" xlink:href="#BitstreamVeraSans-Roman-69"/>
      <use x="558.59375" xlink:href="#BitstreamVeraSans-Roman-65"/>
      <use x="620.1171875" xlink:href="#BitstreamVeraSans-Roman-73"/>
     </g>
    </g>
   </g>
  </g>
  <g id="axes_2">
   <g id="matplotlib.axis_3"/>
   <g id="matplotlib.axis_4">
    <g id="text_6">
     <!-- Europe -->
     <defs>
      <path d="M 9.8125 72.90625 
L 55.90625 72.90625 
L 55.90625 64.59375 
L 19.671875 64.59375 
L 19.671875 43.015625 
L 54.390625 43.015625 
L 54.390625 34.71875 
L 19.671875 34.71875 
L 19.671875 8.296875 
L 56.78125 8.296875 
L 56.78125 0 
L 9.8125 0 
z
" id="BitstreamVeraSans-Roman-45"/>
      <path d="M 30.609375 48.390625 
Q 23.390625 48.390625 19.1875 42.75 
Q 14.984375 37.109375 14.984375 27.296875 
Q 14.984375 17.484375 19.15625 11.84375 
Q 23.34375 6.203125 30.609375 6.203125 
Q 37.796875 6.203125 41.984375 11.859375 
Q 46.1875 17.53125 46.1875 27.296875 
Q 46.1875 37.015625 41.984375 42.703125 
Q 37.796875 48.390625 30.609375 48.390625 
M 30.609375 56 
Q 42.328125 56 49.015625 48.375 
Q 55.71875 40.765625 55.71875 27.296875 
Q 55.71875 13.875 49.015625 6.21875 
Q 42.328125 -1.421875 30.609375 -1.421875 
Q 18.84375 -1.421875 12.171875 6.21875 
Q 5.515625 13.875 5.515625 27.296875 
Q 5.515625 40.765625 12.171875 48.375 
Q 18.84375 56 30.609375 56 
" id="BitstreamVeraSans-Roman-6f"/>
      <path d="M 41.109375 46.296875 
Q 39.59375 47.171875 37.8125 47.578125 
Q 36.03125 48 33.890625 48 
Q 26.265625 48 22.1875 43.046875 
Q 18.109375 38.09375 18.109375 28.8125 
L 18.109375 0 
L 9.078125 0 
L 9.078125 54.6875 
L 18.109375 54.6875 
L 18.109375 46.1875 
Q 20.953125 51.171875 25.484375 53.578125 
Q 30.03125 56 36.53125 56 
Q 37.453125 56 38.578125 55.875 
Q 39.703125 55.765625 41.0625 55.515625 
z
" id="BitstreamVeraSans-Roman-72"/>
      <path d="M 18.109375 8.203125 
L 18.109375 -20.796875 
L 9.078125 -20.796875 
L 9.078125 54.6875 
L 18.109375 54.6875 
L 18.109375 46.390625 
Q 20.953125 51.265625 25.265625 53.625 
Q 29.59375 56 35.59375 56 
Q 45.5625 56 51.78125 48.09375 
Q 58.015625 40.1875 58.015625 27.296875 
Q 58.015625 14.40625 51.78125 6.484375 
Q 45.5625 -1.421875 35.59375 -1.421875 
Q 29.59375 -1.421875 25.265625 0.953125 
Q 20.953125 3.328125 18.109375 8.203125 
M 48.6875 27.296875 
Q 48.6875 37.203125 44.609375 42.84375 
Q 40.53125 48.484375 33.40625 48.484375 
Q 26.265625 48.484375 22.1875 42.84375 
Q 18.109375 37.203125 18.109375 27.296875 
Q 18.109375 17.390625 22.1875 11.75 
Q 26.265625 6.109375 33.40625 6.109375 
Q 40.53125 6.109375 44.609375 11.75 
Q 48.6875 17.390625 48.6875 27.296875 
" id="BitstreamVeraSans-Roman-70"/>
     </defs>
     <g style="fill:#555555;" transform="translate(590.260982143 307.430625)rotate(-90.0)scale(0.12 -0.12)">
      <use xlink:href="#BitstreamVeraSans-Roman-45"/>
      <use x="63.18359375" xlink:href="#BitstreamVeraSans-Roman-75"/>
      <use x="126.5625" xlink:href="#BitstreamVeraSans-Roman-72"/>
      <use x="167.64453125" xlink:href="#BitstreamVeraSans-Roman-6f"/>
      <use x="228.826171875" xlink:href="#BitstreamVeraSans-Roman-70"/>
      <use x="292.302734375" xlink:href="#BitstreamVeraSans-Roman-65"/>
     </g>
    </g>
   </g>
   <g id="patch_7">
    <path d="M 1028.21375 286.2 
C 1028.21375 269.82016 1026.668248 253.489979 1023.605187 237.504713 
C 1020.542127 221.519447 1015.98008 205.97602 1010.00153 191.155464 
L 836.899464 286.2 
L 1028.21375 286.2 
z
" style="fill:#0000ff;stroke:#eeeeee;stroke-linejoin:miter;stroke-width:0.5;"/>
   </g>
   <g id="patch_8">
    <path d="M 1010.00153 191.155464 
C 1000.056651 166.502552 986.326011 144.181223 969.490195 125.297869 
C 952.654379 106.414515 932.996223 91.286374 911.490118 80.663296 
C 889.984012 70.040218 866.991255 64.100668 843.651519 63.139052 
C 820.311784 62.177435 797.017173 66.209906 774.922323 75.036589 
C 752.827474 83.863271 732.303573 97.335878 714.367924 114.786619 
C 696.432275 132.237359 681.386191 153.373064 669.975458 177.146106 
C 658.564724 200.919148 650.981039 226.930146 647.600299 253.889822 
C 644.219559 280.849498 645.098561 308.304934 650.193735 334.895257 
C 655.28891 361.485579 664.514658 386.764076 677.413692 409.477778 
C 690.312726 432.191479 706.668344 451.958799 725.669852 467.799937 
C 744.671361 483.641075 765.999538 495.289904 788.597219 502.169031 
C 811.194899 509.048157 834.682446 511.042013 857.89566 508.051769 
C 881.108875 505.061525 903.657779 497.137418 924.4247 484.672218 
C 945.191621 472.207018 963.827678 455.410138 979.409145 435.114144 
C 994.990611 414.81815 1007.255722 391.364009 1015.596536 365.914267 
C 1023.93735 340.464524 1028.213743 313.446728 1028.21375 286.200063 
L 836.899464 286.2 
L 1010.00153 191.155464 
z
" style="fill:#008000;stroke:#eeeeee;stroke-linejoin:miter;stroke-width:0.5;"/>
   </g>
   <g id="text_7">
    <!-- SSF subsidies -->
    <g transform="translate(1042.27575966 235.39455914)scale(0.1 -0.1)">
     <use xlink:href="#BitstreamVeraSans-Roman-53"/>
     <use x="63.4765625" xlink:href="#BitstreamVeraSans-Roman-53"/>
     <use x="126.953125" xlink:href="#BitstreamVeraSans-Roman-46"/>
     <use x="184.47265625" xlink:href="#BitstreamVeraSans-Roman-20"/>
     <use x="216.259765625" xlink:href="#BitstreamVeraSans-Roman-73"/>
     <use x="268.359375" xlink:href="#BitstreamVeraSans-Roman-75"/>
     <use x="331.73828125" xlink:href="#BitstreamVeraSans-Roman-62"/>
     <use x="395.21484375" xlink:href="#BitstreamVeraSans-Roman-73"/>
     <use x="447.314453125" xlink:href="#BitstreamVeraSans-Roman-69"/>
     <use x="475.09765625" xlink:href="#BitstreamVeraSans-Roman-64"/>
     <use x="538.57421875" xlink:href="#BitstreamVeraSans-Roman-69"/>
     <use x="566.357421875" xlink:href="#BitstreamVeraSans-Roman-65"/>
     <use x="627.880859375" xlink:href="#BitstreamVeraSans-Roman-73"/>
    </g>
   </g>
   <g id="text_8">
    <!-- LSF subsidies -->
    <g transform="translate(564.301287459 342.524157209)scale(0.1 -0.1)">
     <use xlink:href="#BitstreamVeraSans-Roman-4c"/>
     <use x="55.712890625" xlink:href="#BitstreamVeraSans-Roman-53"/>
     <use x="119.189453125" xlink:href="#BitstreamVeraSans-Roman-46"/>
     <use x="176.708984375" xlink:href="#BitstreamVeraSans-Roman-20"/>
     <use x="208.49609375" xlink:href="#BitstreamVeraSans-Roman-73"/>
     <use x="260.595703125" xlink:href="#BitstreamVeraSans-Roman-75"/>
     <use x="323.974609375" xlink:href="#BitstreamVeraSans-Roman-62"/>
     <use x="387.451171875" xlink:href="#BitstreamVeraSans-Roman-73"/>
     <use x="439.55078125" xlink:href="#BitstreamVeraSans-Roman-69"/>
     <use x="467.333984375" xlink:href="#BitstreamVeraSans-Roman-64"/>
     <use x="530.810546875" xlink:href="#BitstreamVeraSans-Roman-69"/>
     <use x="558.59375" xlink:href="#BitstreamVeraSans-Roman-65"/>
     <use x="620.1171875" xlink:href="#BitstreamVeraSans-Roman-73"/>
    </g>
   </g>
   <g id="legend_2">
    <g id="patch_9">
     <path d="M 945.244196 52.0275 
L 1070.042321 52.0275 
L 1070.042321 13.2 
L 945.244196 13.2 
z
" style="fill:#e5e5e5;stroke:#ffffff;stroke-linejoin:miter;stroke-width:0.5;"/>
    </g>
    <g id="patch_10">
     <path d="M 950.044196 27.118125 
L 974.044196 27.118125 
L 974.044196 18.718125 
L 950.044196 18.718125 
z
" style="fill:#0000ff;stroke:#eeeeee;stroke-linejoin:miter;stroke-width:0.5;"/>
    </g>
    <g id="text_9">
     <!-- SSF subsidies -->
     <g transform="translate(983.644196429 27.118125)scale(0.12 -0.12)">
      <use xlink:href="#BitstreamVeraSans-Roman-53"/>
      <use x="63.4765625" xlink:href="#BitstreamVeraSans-Roman-53"/>
      <use x="126.953125" xlink:href="#BitstreamVeraSans-Roman-46"/>
      <use x="184.47265625" xlink:href="#BitstreamVeraSans-Roman-20"/>
      <use x="216.259765625" xlink:href="#BitstreamVeraSans-Roman-73"/>
      <use x="268.359375" xlink:href="#BitstreamVeraSans-Roman-75"/>
      <use x="331.73828125" xlink:href="#BitstreamVeraSans-Roman-62"/>
      <use x="395.21484375" xlink:href="#BitstreamVeraSans-Roman-73"/>
      <use x="447.314453125" xlink:href="#BitstreamVeraSans-Roman-69"/>
      <use x="475.09765625" xlink:href="#BitstreamVeraSans-Roman-64"/>
      <use x="538.57421875" xlink:href="#BitstreamVeraSans-Roman-69"/>
      <use x="566.357421875" xlink:href="#BitstreamVeraSans-Roman-65"/>
      <use x="627.880859375" xlink:href="#BitstreamVeraSans-Roman-73"/>
     </g>
    </g>
    <g id="patch_11">
     <path d="M 950.044196 44.731875 
L 974.044196 44.731875 
L 974.044196 36.331875 
L 950.044196 36.331875 
z
" style="fill:#008000;stroke:#eeeeee;stroke-linejoin:miter;stroke-width:0.5;"/>
    </g>
    <g id="text_10">
     <!-- LSF subsidies -->
     <g transform="translate(983.644196429 44.731875)scale(0.12 -0.12)">
      <use xlink:href="#BitstreamVeraSans-Roman-4c"/>
      <use x="55.712890625" xlink:href="#BitstreamVeraSans-Roman-53"/>
      <use x="119.189453125" xlink:href="#BitstreamVeraSans-Roman-46"/>
      <use x="176.708984375" xlink:href="#BitstreamVeraSans-Roman-20"/>
      <use x="208.49609375" xlink:href="#BitstreamVeraSans-Roman-73"/>
      <use x="260.595703125" xlink:href="#BitstreamVeraSans-Roman-75"/>
      <use x="323.974609375" xlink:href="#BitstreamVeraSans-Roman-62"/>
      <use x="387.451171875" xlink:href="#BitstreamVeraSans-Roman-73"/>
      <use x="439.55078125" xlink:href="#BitstreamVeraSans-Roman-69"/>
      <use x="467.333984375" xlink:href="#BitstreamVeraSans-Roman-64"/>
      <use x="530.810546875" xlink:href="#BitstreamVeraSans-Roman-69"/>
      <use x="558.59375" xlink:href="#BitstreamVeraSans-Roman-65"/>
      <use x="620.1171875" xlink:href="#BitstreamVeraSans-Roman-73"/>
     </g>
    </g>
   </g>
  </g>
  <g id="axes_3">
   <g id="matplotlib.axis_5"/>
   <g id="matplotlib.axis_6">
    <g id="text_11">
     <!-- North America -->
     <defs>
      <path d="M 52 44.1875 
Q 55.375 50.25 60.0625 53.125 
Q 64.75 56 71.09375 56 
Q 79.640625 56 84.28125 50.015625 
Q 88.921875 44.046875 88.921875 33.015625 
L 88.921875 0 
L 79.890625 0 
L 79.890625 32.71875 
Q 79.890625 40.578125 77.09375 44.375 
Q 74.3125 48.1875 68.609375 48.1875 
Q 61.625 48.1875 57.5625 43.546875 
Q 53.515625 38.921875 53.515625 30.90625 
L 53.515625 0 
L 44.484375 0 
L 44.484375 32.71875 
Q 44.484375 40.625 41.703125 44.40625 
Q 38.921875 48.1875 33.109375 48.1875 
Q 26.21875 48.1875 22.15625 43.53125 
Q 18.109375 38.875 18.109375 30.90625 
L 18.109375 0 
L 9.078125 0 
L 9.078125 54.6875 
L 18.109375 54.6875 
L 18.109375 46.1875 
Q 21.1875 51.21875 25.484375 53.609375 
Q 29.78125 56 35.6875 56 
Q 41.65625 56 45.828125 52.96875 
Q 50 49.953125 52 44.1875 
" id="BitstreamVeraSans-Roman-6d"/>
      <path d="M 9.8125 72.90625 
L 23.09375 72.90625 
L 55.421875 11.921875 
L 55.421875 72.90625 
L 64.984375 72.90625 
L 64.984375 0 
L 51.703125 0 
L 19.390625 60.984375 
L 19.390625 0 
L 9.8125 0 
z
" id="BitstreamVeraSans-Roman-4e"/>
      <path d="M 18.3125 70.21875 
L 18.3125 54.6875 
L 36.8125 54.6875 
L 36.8125 47.703125 
L 18.3125 47.703125 
L 18.3125 18.015625 
Q 18.3125 11.328125 20.140625 9.421875 
Q 21.96875 7.515625 27.59375 7.515625 
L 36.8125 7.515625 
L 36.8125 0 
L 27.59375 0 
Q 17.1875 0 13.234375 3.875 
Q 9.28125 7.765625 9.28125 18.015625 
L 9.28125 47.703125 
L 2.6875 47.703125 
L 2.6875 54.6875 
L 9.28125 54.6875 
L 9.28125 70.21875 
z
" id="BitstreamVeraSans-Roman-74"/>
      <path d="M 48.78125 52.59375 
L 48.78125 44.1875 
Q 44.96875 46.296875 41.140625 47.34375 
Q 37.3125 48.390625 33.40625 48.390625 
Q 24.65625 48.390625 19.8125 42.84375 
Q 14.984375 37.3125 14.984375 27.296875 
Q 14.984375 17.28125 19.8125 11.734375 
Q 24.65625 6.203125 33.40625 6.203125 
Q 37.3125 6.203125 41.140625 7.25 
Q 44.96875 8.296875 48.78125 10.40625 
L 48.78125 2.09375 
Q 45.015625 0.34375 40.984375 -0.53125 
Q 36.96875 -1.421875 32.421875 -1.421875 
Q 20.0625 -1.421875 12.78125 6.34375 
Q 5.515625 14.109375 5.515625 27.296875 
Q 5.515625 40.671875 12.859375 48.328125 
Q 20.21875 56 33.015625 56 
Q 37.15625 56 41.109375 55.140625 
Q 45.0625 54.296875 48.78125 52.59375 
" id="BitstreamVeraSans-Roman-63"/>
      <path d="M 54.890625 33.015625 
L 54.890625 0 
L 45.90625 0 
L 45.90625 32.71875 
Q 45.90625 40.484375 42.875 44.328125 
Q 39.84375 48.1875 33.796875 48.1875 
Q 26.515625 48.1875 22.3125 43.546875 
Q 18.109375 38.921875 18.109375 30.90625 
L 18.109375 0 
L 9.078125 0 
L 9.078125 75.984375 
L 18.109375 75.984375 
L 18.109375 46.1875 
Q 21.34375 51.125 25.703125 53.5625 
Q 30.078125 56 35.796875 56 
Q 45.21875 56 50.046875 50.171875 
Q 54.890625 44.34375 54.890625 33.015625 
" id="BitstreamVeraSans-Roman-68"/>
     </defs>
     <g style="fill:#555555;" transform="translate(1164.20383929 329.638125)rotate(-90.0)scale(0.12 -0.12)">
      <use xlink:href="#BitstreamVeraSans-Roman-4e"/>
      <use x="74.8046875" xlink:href="#BitstreamVeraSans-Roman-6f"/>
      <use x="135.986328125" xlink:href="#BitstreamVeraSans-Roman-72"/>
      <use x="177.099609375" xlink:href="#BitstreamVeraSans-Roman-74"/>
      <use x="216.30859375" xlink:href="#BitstreamVeraSans-Roman-68"/>
      <use x="279.6875" xlink:href="#BitstreamVeraSans-Roman-20"/>
      <use x="311.474609375" xlink:href="#BitstreamVeraSans-Roman-41"/>
      <use x="379.8828125" xlink:href="#BitstreamVeraSans-Roman-6d"/>
      <use x="477.294921875" xlink:href="#BitstreamVeraSans-Roman-65"/>
      <use x="538.818359375" xlink:href="#BitstreamVeraSans-Roman-72"/>
      <use x="579.931640625" xlink:href="#BitstreamVeraSans-Roman-69"/>
      <use x="607.71484375" xlink:href="#BitstreamVeraSans-Roman-63"/>
      <use x="662.6953125" xlink:href="#BitstreamVeraSans-Roman-61"/>
     </g>
    </g>
   </g>
   <g id="patch_12">
    <path d="M 1602.156607 286.2 
C 1602.156607 242.016947 1590.911548 198.813191 1569.853402 162.090397 
C 1548.795256 125.367603 1518.857512 96.753659 1483.852509 79.892331 
L 1410.842321 286.2 
L 1602.156607 286.2 
z
" style="fill:#0000ff;stroke:#eeeeee;stroke-linejoin:miter;stroke-width:0.5;"/>
   </g>
   <g id="patch_13">
    <path d="M 1483.852509 79.892331 
C 1465.009479 70.815957 1445.04351 65.311395 1424.711263 63.587256 
C 1404.379016 61.863117 1383.940625 63.94146 1364.170658 69.74352 
C 1344.400691 75.54558 1325.552087 84.997125 1308.339164 97.739963 
C 1291.126241 110.482802 1275.769224 126.3539 1262.850107 144.751781 
C 1249.930989 163.149662 1239.615061 183.83894 1232.293272 206.035541 
C 1224.971483 228.232142 1220.737509 251.652079 1219.751807 275.407792 
C 1218.766105 299.163505 1221.041286 322.951059 1226.491127 345.868963 
C 1231.940968 368.786866 1240.495743 390.541904 1251.831245 410.309612 
C 1263.166748 430.07732 1277.13795 447.604786 1293.215376 462.227762 
C 1309.292802 476.850737 1327.270755 488.382133 1346.467913 496.384937 
C 1365.665071 504.387741 1385.835823 508.759564 1406.215745 509.334724 
C 1426.595667 509.909884 1446.924015 506.681023 1466.430393 499.770505 
C 1485.936771 492.859988 1504.371611 482.35623 1521.036276 468.657298 
C 1537.700941 454.958367 1552.382222 438.239528 1564.523731 419.134386 
C 1576.665241 400.029243 1586.111639 378.782233 1592.504931 356.198565 
C 1598.898222 333.614897 1602.156609 309.98351 1602.156607 286.199979 
L 1410.842321 286.2 
L 1483.852509 79.892331 
z
" style="fill:#008000;stroke:#eeeeee;stroke-linejoin:miter;stroke-width:0.5;"/>
   </g>
   <g id="text_12">
    <!-- SSF subsidies -->
    <g transform="translate(1585.75451054 152.438811496)scale(0.1 -0.1)">
     <use xlink:href="#BitstreamVeraSans-Roman-53"/>
     <use x="63.4765625" xlink:href="#BitstreamVeraSans-Roman-53"/>
     <use x="126.953125" xlink:href="#BitstreamVeraSans-Roman-46"/>
     <use x="184.47265625" xlink:href="#BitstreamVeraSans-Roman-20"/>
     <use x="216.259765625" xlink:href="#BitstreamVeraSans-Roman-73"/>
     <use x="268.359375" xlink:href="#BitstreamVeraSans-Roman-75"/>
     <use x="331.73828125" xlink:href="#BitstreamVeraSans-Roman-62"/>
     <use x="395.21484375" xlink:href="#BitstreamVeraSans-Roman-73"/>
     <use x="447.314453125" xlink:href="#BitstreamVeraSans-Roman-69"/>
     <use x="475.09765625" xlink:href="#BitstreamVeraSans-Roman-64"/>
     <use x="538.57421875" xlink:href="#BitstreamVeraSans-Roman-69"/>
     <use x="566.357421875" xlink:href="#BitstreamVeraSans-Roman-65"/>
     <use x="627.880859375" xlink:href="#BitstreamVeraSans-Roman-73"/>
    </g>
   </g>
   <g id="text_13">
    <!-- LSF subsidies -->
    <g transform="translate(1168.7082628 425.479948057)scale(0.1 -0.1)">
     <use xlink:href="#BitstreamVeraSans-Roman-4c"/>
     <use x="55.712890625" xlink:href="#BitstreamVeraSans-Roman-53"/>
     <use x="119.189453125" xlink:href="#BitstreamVeraSans-Roman-46"/>
     <use x="176.708984375" xlink:href="#BitstreamVeraSans-Roman-20"/>
     <use x="208.49609375" xlink:href="#BitstreamVeraSans-Roman-73"/>
     <use x="260.595703125" xlink:href="#BitstreamVeraSans-Roman-75"/>
     <use x="323.974609375" xlink:href="#BitstreamVeraSans-Roman-62"/>
     <use x="387.451171875" xlink:href="#BitstreamVeraSans-Roman-73"/>
     <use x="439.55078125" xlink:href="#BitstreamVeraSans-Roman-69"/>
     <use x="467.333984375" xlink:href="#BitstreamVeraSans-Roman-64"/>
     <use x="530.810546875" xlink:href="#BitstreamVeraSans-Roman-69"/>
     <use x="558.59375" xlink:href="#BitstreamVeraSans-Roman-65"/>
     <use x="620.1171875" xlink:href="#BitstreamVeraSans-Roman-73"/>
    </g>
   </g>
   <g id="legend_3">
    <g id="patch_14">
     <path d="M 1519.187054 52.0275 
L 1643.985179 52.0275 
L 1643.985179 13.2 
L 1519.187054 13.2 
z
" style="fill:#e5e5e5;stroke:#ffffff;stroke-linejoin:miter;stroke-width:0.5;"/>
    </g>
    <g id="patch_15">
     <path d="M 1523.987054 27.118125 
L 1547.987054 27.118125 
L 1547.987054 18.718125 
L 1523.987054 18.718125 
z
" style="fill:#0000ff;stroke:#eeeeee;stroke-linejoin:miter;stroke-width:0.5;"/>
    </g>
    <g id="text_14">
     <!-- SSF subsidies -->
     <g transform="translate(1557.58705357 27.118125)scale(0.12 -0.12)">
      <use xlink:href="#BitstreamVeraSans-Roman-53"/>
      <use x="63.4765625" xlink:href="#BitstreamVeraSans-Roman-53"/>
      <use x="126.953125" xlink:href="#BitstreamVeraSans-Roman-46"/>
      <use x="184.47265625" xlink:href="#BitstreamVeraSans-Roman-20"/>
      <use x="216.259765625" xlink:href="#BitstreamVeraSans-Roman-73"/>
      <use x="268.359375" xlink:href="#BitstreamVeraSans-Roman-75"/>
      <use x="331.73828125" xlink:href="#BitstreamVeraSans-Roman-62"/>
      <use x="395.21484375" xlink:href="#BitstreamVeraSans-Roman-73"/>
      <use x="447.314453125" xlink:href="#BitstreamVeraSans-Roman-69"/>
      <use x="475.09765625" xlink:href="#BitstreamVeraSans-Roman-64"/>
      <use x="538.57421875" xlink:href="#BitstreamVeraSans-Roman-69"/>
      <use x="566.357421875" xlink:href="#BitstreamVeraSans-Roman-65"/>
      <use x="627.880859375" xlink:href="#BitstreamVeraSans-Roman-73"/>
     </g>
    </g>
    <g id="patch_16">
     <path d="M 1523.987054 44.731875 
L 1547.987054 44.731875 
L 1547.987054 36.331875 
L 1523.987054 36.331875 
z
" style="fill:#008000;stroke:#eeeeee;stroke-linejoin:miter;stroke-width:0.5;"/>
    </g>
    <g id="text_15">
     <!-- LSF subsidies -->
     <g transform="translate(1557.58705357 44.731875)scale(0.12 -0.12)">
      <use xlink:href="#BitstreamVeraSans-Roman-4c"/>
      <use x="55.712890625" xlink:href="#BitstreamVeraSans-Roman-53"/>
      <use x="119.189453125" xlink:href="#BitstreamVeraSans-Roman-46"/>
      <use x="176.708984375" xlink:href="#BitstreamVeraSans-Roman-20"/>
      <use x="208.49609375" xlink:href="#BitstreamVeraSans-Roman-73"/>
      <use x="260.595703125" xlink:href="#BitstreamVeraSans-Roman-75"/>
      <use x="323.974609375" xlink:href="#BitstreamVeraSans-Roman-62"/>
      <use x="387.451171875" xlink:href="#BitstreamVeraSans-Roman-73"/>
      <use x="439.55078125" xlink:href="#BitstreamVeraSans-Roman-69"/>
      <use x="467.333984375" xlink:href="#BitstreamVeraSans-Roman-64"/>
      <use x="530.810546875" xlink:href="#BitstreamVeraSans-Roman-69"/>
      <use x="558.59375" xlink:href="#BitstreamVeraSans-Roman-65"/>
      <use x="620.1171875" xlink:href="#BitstreamVeraSans-Roman-73"/>
     </g>
    </g>
   </g>
  </g>
  <g id="axes_4">
   <g id="matplotlib.axis_7"/>
   <g id="matplotlib.axis_8">
    <g id="text_16">
     <!-- Oceania -->
     <defs>
      <path d="M 54.890625 33.015625 
L 54.890625 0 
L 45.90625 0 
L 45.90625 32.71875 
Q 45.90625 40.484375 42.875 44.328125 
Q 39.84375 48.1875 33.796875 48.1875 
Q 26.515625 48.1875 22.3125 43.546875 
Q 18.109375 38.921875 18.109375 30.90625 
L 18.109375 0 
L 9.078125 0 
L 9.078125 54.6875 
L 18.109375 54.6875 
L 18.109375 46.1875 
Q 21.34375 51.125 25.703125 53.5625 
Q 30.078125 56 35.796875 56 
Q 45.21875 56 50.046875 50.171875 
Q 54.890625 44.34375 54.890625 33.015625 
" id="BitstreamVeraSans-Roman-6e"/>
      <path d="M 39.40625 66.21875 
Q 28.65625 66.21875 22.328125 58.203125 
Q 16.015625 50.203125 16.015625 36.375 
Q 16.015625 22.609375 22.328125 14.59375 
Q 28.65625 6.59375 39.40625 6.59375 
Q 50.140625 6.59375 56.421875 14.59375 
Q 62.703125 22.609375 62.703125 36.375 
Q 62.703125 50.203125 56.421875 58.203125 
Q 50.140625 66.21875 39.40625 66.21875 
M 39.40625 74.21875 
Q 54.734375 74.21875 63.90625 63.9375 
Q 73.09375 53.65625 73.09375 36.375 
Q 73.09375 19.140625 63.90625 8.859375 
Q 54.734375 -1.421875 39.40625 -1.421875 
Q 24.03125 -1.421875 14.8125 8.828125 
Q 5.609375 19.09375 5.609375 36.375 
Q 5.609375 53.65625 14.8125 63.9375 
Q 24.03125 74.21875 39.40625 74.21875 
" id="BitstreamVeraSans-Roman-4f"/>
     </defs>
     <g style="fill:#555555;" transform="translate(1738.14669643 310.7371875)rotate(-90.0)scale(0.12 -0.12)">
      <use xlink:href="#BitstreamVeraSans-Roman-4f"/>
      <use x="78.7109375" xlink:href="#BitstreamVeraSans-Roman-63"/>
      <use x="133.69140625" xlink:href="#BitstreamVeraSans-Roman-65"/>
      <use x="195.21484375" xlink:href="#BitstreamVeraSans-Roman-61"/>
      <use x="256.494140625" xlink:href="#BitstreamVeraSans-Roman-6e"/>
      <use x="319.873046875" xlink:href="#BitstreamVeraSans-Roman-69"/>
      <use x="347.65625" xlink:href="#BitstreamVeraSans-Roman-61"/>
     </g>
    </g>
   </g>
   <g id="patch_17">
    <path d="M 2176.099464 286.2 
C 2176.099464 276.278646 2175.532452 266.368321 2174.402202 256.534985 
C 2173.271952 246.701649 2171.580977 236.967165 2169.340531 227.396322 
L 1984.785179 286.2 
L 2176.099464 286.2 
z
" style="fill:#0000ff;stroke:#eeeeee;stroke-linejoin:miter;stroke-width:0.5;"/>
   </g>
   <g id="patch_18">
    <path d="M 2169.340531 227.396322 
C 2163.004173 200.328367 2152.34923 174.895565 2137.935313 152.433681 
C 2123.521397 129.971797 2105.60535 110.88108 2085.128146 96.1642 
C 2064.650943 81.44732 2041.977468 71.366518 2018.298562 66.451252 
C 1994.619656 61.535985 1970.357255 61.873839 1946.785653 67.447069 
C 1923.214051 73.0203 1900.753271 83.729596 1880.582984 99.012492 
C 1860.412696 114.295389 1842.892317 133.879558 1828.942039 156.736414 
C 1814.991762 179.59327 1804.860166 205.315524 1799.079378 232.552211 
C 1793.29859 259.788897 1791.971617 288.054683 1795.168155 315.865012 
C 1798.364692 343.675341 1806.027779 370.534659 1817.754942 395.03228 
C 1829.482105 419.5299 1845.064375 441.229298 1863.683352 458.990792 
C 1882.302329 476.752286 1903.62624 490.259383 1926.535125 498.802673 
C 1949.444009 507.345962 1973.529652 510.773211 1997.527045 508.904415 
C 2021.524437 507.03562 2045.005967 499.904079 2066.738354 487.884353 
C 2088.470741 475.864626 2108.066734 459.170894 2124.497125 438.679932 
C 2140.927517 418.18897 2153.899533 394.265909 2162.731865 368.167219 
C 2171.564198 342.068529 2176.099464 314.259265 2176.099464 286.200005 
L 1984.785179 286.2 
L 2169.340531 227.396322 
z
" style="fill:#008000;stroke:#eeeeee;stroke-linejoin:miter;stroke-width:0.5;"/>
   </g>
   <g id="text_17">
    <!-- SSF subsidies -->
    <g transform="translate(2193.36390464 256.327858649)scale(0.1 -0.1)">
     <use xlink:href="#BitstreamVeraSans-Roman-53"/>
     <use x="63.4765625" xlink:href="#BitstreamVeraSans-Roman-53"/>
     <use x="126.953125" xlink:href="#BitstreamVeraSans-Roman-46"/>
     <use x="184.47265625" xlink:href="#BitstreamVeraSans-Roman-20"/>
     <use x="216.259765625" xlink:href="#BitstreamVeraSans-Roman-73"/>
     <use x="268.359375" xlink:href="#BitstreamVeraSans-Roman-75"/>
     <use x="331.73828125" xlink:href="#BitstreamVeraSans-Roman-62"/>
     <use x="395.21484375" xlink:href="#BitstreamVeraSans-Roman-73"/>
     <use x="447.314453125" xlink:href="#BitstreamVeraSans-Roman-69"/>
     <use x="475.09765625" xlink:href="#BitstreamVeraSans-Roman-64"/>
     <use x="538.57421875" xlink:href="#BitstreamVeraSans-Roman-69"/>
     <use x="566.357421875" xlink:href="#BitstreamVeraSans-Roman-65"/>
     <use x="627.880859375" xlink:href="#BitstreamVeraSans-Roman-73"/>
    </g>
   </g>
   <g id="text_18">
    <!-- LSF subsidies -->
    <g transform="translate(1708.98457717 321.590888503)scale(0.1 -0.1)">
     <use xlink:href="#BitstreamVeraSans-Roman-4c"/>
     <use x="55.712890625" xlink:href="#BitstreamVeraSans-Roman-53"/>
     <use x="119.189453125" xlink:href="#BitstreamVeraSans-Roman-46"/>
     <use x="176.708984375" xlink:href="#BitstreamVeraSans-Roman-20"/>
     <use x="208.49609375" xlink:href="#BitstreamVeraSans-Roman-73"/>
     <use x="260.595703125" xlink:href="#BitstreamVeraSans-Roman-75"/>
     <use x="323.974609375" xlink:href="#BitstreamVeraSans-Roman-62"/>
     <use x="387.451171875" xlink:href="#BitstreamVeraSans-Roman-73"/>
     <use x="439.55078125" xlink:href="#BitstreamVeraSans-Roman-69"/>
     <use x="467.333984375" xlink:href="#BitstreamVeraSans-Roman-64"/>
     <use x="530.810546875" xlink:href="#BitstreamVeraSans-Roman-69"/>
     <use x="558.59375" xlink:href="#BitstreamVeraSans-Roman-65"/>
     <use x="620.1171875" xlink:href="#BitstreamVeraSans-Roman-73"/>
    </g>
   </g>
   <g id="legend_4">
    <g id="patch_19">
     <path d="M 2093.129911 52.0275 
L 2217.928036 52.0275 
L 2217.928036 13.2 
L 2093.129911 13.2 
z
" style="fill:#e5e5e5;stroke:#ffffff;stroke-linejoin:miter;stroke-width:0.5;"/>
    </g>
    <g id="patch_20">
     <path d="M 2097.929911 27.118125 
L 2121.929911 27.118125 
L 2121.929911 18.718125 
L 2097.929911 18.718125 
z
" style="fill:#0000ff;stroke:#eeeeee;stroke-linejoin:miter;stroke-width:0.5;"/>
    </g>
    <g id="text_19">
     <!-- SSF subsidies -->
     <g transform="translate(2131.52991071 27.118125)scale(0.12 -0.12)">
      <use xlink:href="#BitstreamVeraSans-Roman-53"/>
      <use x="63.4765625" xlink:href="#BitstreamVeraSans-Roman-53"/>
      <use x="126.953125" xlink:href="#BitstreamVeraSans-Roman-46"/>
      <use x="184.47265625" xlink:href="#BitstreamVeraSans-Roman-20"/>
      <use x="216.259765625" xlink:href="#BitstreamVeraSans-Roman-73"/>
      <use x="268.359375" xlink:href="#BitstreamVeraSans-Roman-75"/>
      <use x="331.73828125" xlink:href="#BitstreamVeraSans-Roman-62"/>
      <use x="395.21484375" xlink:href="#BitstreamVeraSans-Roman-73"/>
      <use x="447.314453125" xlink:href="#BitstreamVeraSans-Roman-69"/>
      <use x="475.09765625" xlink:href="#BitstreamVeraSans-Roman-64"/>
      <use x="538.57421875" xlink:href="#BitstreamVeraSans-Roman-69"/>
      <use x="566.357421875" xlink:href="#BitstreamVeraSans-Roman-65"/>
      <use x="627.880859375" xlink:href="#BitstreamVeraSans-Roman-73"/>
     </g>
    </g>
    <g id="patch_21">
     <path d="M 2097.929911 44.731875 
L 2121.929911 44.731875 
L 2121.929911 36.331875 
L 2097.929911 36.331875 
z
" style="fill:#008000;stroke:#eeeeee;stroke-linejoin:miter;stroke-width:0.5;"/>
    </g>
    <g id="text_20">
     <!-- LSF subsidies -->
     <g transform="translate(2131.52991071 44.731875)scale(0.12 -0.12)">
      <use xlink:href="#BitstreamVeraSans-Roman-4c"/>
      <use x="55.712890625" xlink:href="#BitstreamVeraSans-Roman-53"/>
      <use x="119.189453125" xlink:href="#BitstreamVeraSans-Roman-46"/>
      <use x="176.708984375" xlink:href="#BitstreamVeraSans-Roman-20"/>
      <use x="208.49609375" xlink:href="#BitstreamVeraSans-Roman-73"/>
      <use x="260.595703125" xlink:href="#BitstreamVeraSans-Roman-75"/>
      <use x="323.974609375" xlink:href="#BitstreamVeraSans-Roman-62"/>
      <use x="387.451171875" xlink:href="#BitstreamVeraSans-Roman-73"/>
      <use x="439.55078125" xlink:href="#BitstreamVeraSans-Roman-69"/>
      <use x="467.333984375" xlink:href="#BitstreamVeraSans-Roman-64"/>
      <use x="530.810546875" xlink:href="#BitstreamVeraSans-Roman-69"/>
      <use x="558.59375" xlink:href="#BitstreamVeraSans-Roman-65"/>
      <use x="620.1171875" xlink:href="#BitstreamVeraSans-Roman-73"/>
     </g>
    </g>
   </g>
  </g>
  <g id="axes_5">
   <g id="matplotlib.axis_9"/>
   <g id="matplotlib.axis_10">
    <g id="text_21">
     <!-- South, Central America and Carribbean -->
     <defs>
      <path d="M 11.71875 12.40625 
L 22.015625 12.40625 
L 22.015625 4 
L 14.015625 -11.625 
L 7.71875 -11.625 
L 11.71875 4 
z
" id="BitstreamVeraSans-Roman-2c"/>
      <path d="M 64.40625 67.28125 
L 64.40625 56.890625 
Q 59.421875 61.53125 53.78125 63.8125 
Q 48.140625 66.109375 41.796875 66.109375 
Q 29.296875 66.109375 22.65625 58.46875 
Q 16.015625 50.828125 16.015625 36.375 
Q 16.015625 21.96875 22.65625 14.328125 
Q 29.296875 6.6875 41.796875 6.6875 
Q 48.140625 6.6875 53.78125 8.984375 
Q 59.421875 11.28125 64.40625 15.921875 
L 64.40625 5.609375 
Q 59.234375 2.09375 53.4375 0.328125 
Q 47.65625 -1.421875 41.21875 -1.421875 
Q 24.65625 -1.421875 15.125 8.703125 
Q 5.609375 18.84375 5.609375 36.375 
Q 5.609375 53.953125 15.125 64.078125 
Q 24.65625 74.21875 41.21875 74.21875 
Q 47.75 74.21875 53.53125 72.484375 
Q 59.328125 70.75 64.40625 67.28125 
" id="BitstreamVeraSans-Roman-43"/>
      <path d="M 9.421875 75.984375 
L 18.40625 75.984375 
L 18.40625 0 
L 9.421875 0 
z
" id="BitstreamVeraSans-Roman-6c"/>
     </defs>
     <g style="fill:#555555;" transform="translate(2312.08955357 404.311875)rotate(-90.0)scale(0.12 -0.12)">
      <use xlink:href="#BitstreamVeraSans-Roman-53"/>
      <use x="63.4765625" xlink:href="#BitstreamVeraSans-Roman-6f"/>
      <use x="124.658203125" xlink:href="#BitstreamVeraSans-Roman-75"/>
      <use x="188.037109375" xlink:href="#BitstreamVeraSans-Roman-74"/>
      <use x="227.24609375" xlink:href="#BitstreamVeraSans-Roman-68"/>
      <use x="290.625" xlink:href="#BitstreamVeraSans-Roman-2c"/>
      <use x="322.412109375" xlink:href="#BitstreamVeraSans-Roman-20"/>
      <use x="354.19921875" xlink:href="#BitstreamVeraSans-Roman-43"/>
      <use x="424.0234375" xlink:href="#BitstreamVeraSans-Roman-65"/>
      <use x="485.546875" xlink:href="#BitstreamVeraSans-Roman-6e"/>
      <use x="548.92578125" xlink:href="#BitstreamVeraSans-Roman-74"/>
      <use x="588.134765625" xlink:href="#BitstreamVeraSans-Roman-72"/>
      <use x="629.248046875" xlink:href="#BitstreamVeraSans-Roman-61"/>
      <use x="690.52734375" xlink:href="#BitstreamVeraSans-Roman-6c"/>
      <use x="718.310546875" xlink:href="#BitstreamVeraSans-Roman-20"/>
      <use x="750.09765625" xlink:href="#BitstreamVeraSans-Roman-41"/>
      <use x="818.505859375" xlink:href="#BitstreamVeraSans-Roman-6d"/>
      <use x="915.91796875" xlink:href="#BitstreamVeraSans-Roman-65"/>
      <use x="977.44140625" xlink:href="#BitstreamVeraSans-Roman-72"/>
      <use x="1018.5546875" xlink:href="#BitstreamVeraSans-Roman-69"/>
      <use x="1046.33789062" xlink:href="#BitstreamVeraSans-Roman-63"/>
      <use x="1101.31835938" xlink:href="#BitstreamVeraSans-Roman-61"/>
      <use x="1162.59765625" xlink:href="#BitstreamVeraSans-Roman-20"/>
      <use x="1194.38476562" xlink:href="#BitstreamVeraSans-Roman-61"/>
      <use x="1255.6640625" xlink:href="#BitstreamVeraSans-Roman-6e"/>
      <use x="1319.04296875" xlink:href="#BitstreamVeraSans-Roman-64"/>
      <use x="1382.51953125" xlink:href="#BitstreamVeraSans-Roman-20"/>
      <use x="1414.30664062" xlink:href="#BitstreamVeraSans-Roman-43"/>
      <use x="1484.13085938" xlink:href="#BitstreamVeraSans-Roman-61"/>
      <use x="1545.41015625" xlink:href="#BitstreamVeraSans-Roman-72"/>
      <use x="1586.5078125" xlink:href="#BitstreamVeraSans-Roman-72"/>
      <use x="1627.62109375" xlink:href="#BitstreamVeraSans-Roman-69"/>
      <use x="1655.40429688" xlink:href="#BitstreamVeraSans-Roman-62"/>
      <use x="1718.88085938" xlink:href="#BitstreamVeraSans-Roman-62"/>
      <use x="1782.35742188" xlink:href="#BitstreamVeraSans-Roman-65"/>
      <use x="1843.88085938" xlink:href="#BitstreamVeraSans-Roman-61"/>
      <use x="1905.16015625" xlink:href="#BitstreamVeraSans-Roman-6e"/>
     </g>
    </g>
   </g>
   <g id="patch_22">
    <path d="M 2750.042321 286.2 
C 2750.042321 249.66518 2742.353421 213.683075 2727.65305 181.42388 
C 2712.952679 149.164685 2691.685624 121.604461 2665.725614 101.171396 
C 2639.765604 80.738331 2609.898107 68.050665 2578.754592 64.226243 
C 2547.611078 60.401821 2516.133851 65.556357 2487.096205 79.235712 
L 2558.728036 286.2 
L 2750.042321 286.2 
z
" style="fill:#0000ff;stroke:#eeeeee;stroke-linejoin:miter;stroke-width:0.5;"/>
   </g>
   <g id="patch_23">
    <path d="M 2487.096205 79.235712 
C 2454.907019 94.399727 2426.854461 119.502966 2405.957966 151.843444 
C 2385.061471 184.183923 2372.098671 222.558138 2368.464816 262.835684 
C 2364.83096 303.11323 2370.661278 343.79524 2385.328223 380.502907 
C 2399.995168 417.210574 2422.952932 448.577879 2451.730458 471.228604 
C 2480.507984 493.879329 2514.03436 506.970562 2548.700976 509.093228 
C 2583.367592 511.215895 2617.884384 502.291003 2648.536139 483.279184 
C 2679.187893 464.267364 2704.833952 435.876113 2722.713902 401.16132 
C 2740.593853 366.446527 2750.042321 326.70005 2750.042321 286.2 
L 2558.728036 286.2 
L 2487.096205 79.235712 
z
" style="fill:#008000;stroke:#eeeeee;stroke-linejoin:miter;stroke-width:0.5;"/>
   </g>
   <g id="text_22">
    <!-- SSF subsidies -->
    <g transform="translate(2676.42537154 85.4279104478)scale(0.1 -0.1)">
     <use xlink:href="#BitstreamVeraSans-Roman-53"/>
     <use x="63.4765625" xlink:href="#BitstreamVeraSans-Roman-53"/>
     <use x="126.953125" xlink:href="#BitstreamVeraSans-Roman-46"/>
     <use x="184.47265625" xlink:href="#BitstreamVeraSans-Roman-20"/>
     <use x="216.259765625" xlink:href="#BitstreamVeraSans-Roman-73"/>
     <use x="268.359375" xlink:href="#BitstreamVeraSans-Roman-75"/>
     <use x="331.73828125" xlink:href="#BitstreamVeraSans-Roman-62"/>
     <use x="395.21484375" xlink:href="#BitstreamVeraSans-Roman-73"/>
     <use x="447.314453125" xlink:href="#BitstreamVeraSans-Roman-69"/>
     <use x="475.09765625" xlink:href="#BitstreamVeraSans-Roman-64"/>
     <use x="538.57421875" xlink:href="#BitstreamVeraSans-Roman-69"/>
     <use x="566.357421875" xlink:href="#BitstreamVeraSans-Roman-65"/>
     <use x="627.880859375" xlink:href="#BitstreamVeraSans-Roman-73"/>
    </g>
   </g>
   <g id="text_23">
    <!-- LSF subsidies -->
    <g transform="translate(2373.80882489 492.490839552)scale(0.1 -0.1)">
     <use xlink:href="#BitstreamVeraSans-Roman-4c"/>
     <use x="55.712890625" xlink:href="#BitstreamVeraSans-Roman-53"/>
     <use x="119.189453125" xlink:href="#BitstreamVeraSans-Roman-46"/>
     <use x="176.708984375" xlink:href="#BitstreamVeraSans-Roman-20"/>
     <use x="208.49609375" xlink:href="#BitstreamVeraSans-Roman-73"/>
     <use x="260.595703125" xlink:href="#BitstreamVeraSans-Roman-75"/>
     <use x="323.974609375" xlink:href="#BitstreamVeraSans-Roman-62"/>
     <use x="387.451171875" xlink:href="#BitstreamVeraSans-Roman-73"/>
     <use x="439.55078125" xlink:href="#BitstreamVeraSans-Roman-69"/>
     <use x="467.333984375" xlink:href="#BitstreamVeraSans-Roman-64"/>
     <use x="530.810546875" xlink:href="#BitstreamVeraSans-Roman-69"/>
     <use x="558.59375" xlink:href="#BitstreamVeraSans-Roman-65"/>
     <use x="620.1171875" xlink:href="#BitstreamVeraSans-Roman-73"/>
    </g>
   </g>
   <g id="legend_5">
    <g id="patch_24">
     <path d="M 2667.072768 52.0275 
L 2791.870893 52.0275 
L 2791.870893 13.2 
L 2667.072768 13.2 
z
" style="fill:#e5e5e5;stroke:#ffffff;stroke-linejoin:miter;stroke-width:0.5;"/>
    </g>
    <g id="patch_25">
     <path d="M 2671.872768 27.118125 
L 2695.872768 27.118125 
L 2695.872768 18.718125 
L 2671.872768 18.718125 
z
" style="fill:#0000ff;stroke:#eeeeee;stroke-linejoin:miter;stroke-width:0.5;"/>
    </g>
    <g id="text_24">
     <!-- SSF subsidies -->
     <g transform="translate(2705.47276786 27.118125)scale(0.12 -0.12)">
      <use xlink:href="#BitstreamVeraSans-Roman-53"/>
      <use x="63.4765625" xlink:href="#BitstreamVeraSans-Roman-53"/>
      <use x="126.953125" xlink:href="#BitstreamVeraSans-Roman-46"/>
      <use x="184.47265625" xlink:href="#BitstreamVeraSans-Roman-20"/>
      <use x="216.259765625" xlink:href="#BitstreamVeraSans-Roman-73"/>
      <use x="268.359375" xlink:href="#BitstreamVeraSans-Roman-75"/>
      <use x="331.73828125" xlink:href="#BitstreamVeraSans-Roman-62"/>
      <use x="395.21484375" xlink:href="#BitstreamVeraSans-Roman-73"/>
      <use x="447.314453125" xlink:href="#BitstreamVeraSans-Roman-69"/>
      <use x="475.09765625" xlink:href="#BitstreamVeraSans-Roman-64"/>
      <use x="538.57421875" xlink:href="#BitstreamVeraSans-Roman-69"/>
      <use x="566.357421875" xlink:href="#BitstreamVeraSans-Roman-65"/>
      <use x="627.880859375" xlink:href="#BitstreamVeraSans-Roman-73"/>
     </g>
    </g>
    <g id="patch_26">
     <path d="M 2671.872768 44.731875 
L 2695.872768 44.731875 
L 2695.872768 36.331875 
L 2671.872768 36.331875 
z
" style="fill:#008000;stroke:#eeeeee;stroke-linejoin:miter;stroke-width:0.5;"/>
    </g>
    <g id="text_25">
     <!-- LSF subsidies -->
     <g transform="translate(2705.47276786 44.731875)scale(0.12 -0.12)">
      <use xlink:href="#BitstreamVeraSans-Roman-4c"/>
      <use x="55.712890625" xlink:href="#BitstreamVeraSans-Roman-53"/>
      <use x="119.189453125" xlink:href="#BitstreamVeraSans-Roman-46"/>
      <use x="176.708984375" xlink:href="#BitstreamVeraSans-Roman-20"/>
      <use x="208.49609375" xlink:href="#BitstreamVeraSans-Roman-73"/>
      <use x="260.595703125" xlink:href="#BitstreamVeraSans-Roman-75"/>
      <use x="323.974609375" xlink:href="#BitstreamVeraSans-Roman-62"/>
      <use x="387.451171875" xlink:href="#BitstreamVeraSans-Roman-73"/>
      <use x="439.55078125" xlink:href="#BitstreamVeraSans-Roman-69"/>
      <use x="467.333984375" xlink:href="#BitstreamVeraSans-Roman-64"/>
      <use x="530.810546875" xlink:href="#BitstreamVeraSans-Roman-69"/>
      <use x="558.59375" xlink:href="#BitstreamVeraSans-Roman-65"/>
      <use x="620.1171875" xlink:href="#BitstreamVeraSans-Roman-73"/>
     </g>
    </g>
   </g>
  </g>
  <g id="axes_6">
   <g id="matplotlib.axis_11"/>
   <g id="matplotlib.axis_12">
    <g id="text_26">
     <!-- Africa -->
     <defs>
      <path d="M 37.109375 75.984375 
L 37.109375 68.5 
L 28.515625 68.5 
Q 23.6875 68.5 21.796875 66.546875 
Q 19.921875 64.59375 19.921875 59.515625 
L 19.921875 54.6875 
L 34.71875 54.6875 
L 34.71875 47.703125 
L 19.921875 47.703125 
L 19.921875 0 
L 10.890625 0 
L 10.890625 47.703125 
L 2.296875 47.703125 
L 2.296875 54.6875 
L 10.890625 54.6875 
L 10.890625 58.5 
Q 10.890625 67.625 15.140625 71.796875 
Q 19.390625 75.984375 28.609375 75.984375 
z
" id="BitstreamVeraSans-Roman-66"/>
     </defs>
     <g style="fill:#555555;" transform="translate(2886.03241071 303.523125)rotate(-90.0)scale(0.12 -0.12)">
      <use xlink:href="#BitstreamVeraSans-Roman-41"/>
      <use x="68.361328125" xlink:href="#BitstreamVeraSans-Roman-66"/>
      <use x="103.56640625" xlink:href="#BitstreamVeraSans-Roman-72"/>
      <use x="144.6796875" xlink:href="#BitstreamVeraSans-Roman-69"/>
      <use x="172.462890625" xlink:href="#BitstreamVeraSans-Roman-63"/>
      <use x="227.443359375" xlink:href="#BitstreamVeraSans-Roman-61"/>
     </g>
    </g>
   </g>
   <g id="patch_27">
    <path d="M 3323.985179 286.2 
C 3323.985179 252.441007 3317.420262 219.117834 3304.786137 188.746672 
C 3292.152012 158.37551 3273.774884 131.740525 3251.04239 110.852893 
C 3228.309895 89.96526 3201.808972 75.364287 3173.540675 68.152475 
C 3145.272377 60.940664 3115.966575 61.304217 3087.836115 69.215686 
L 3132.670893 286.2 
L 3323.985179 286.2 
z
" style="fill:#0000ff;stroke:#eeeeee;stroke-linejoin:miter;stroke-width:0.5;"/>
   </g>
   <g id="patch_28">
    <path d="M 3087.836115 69.215686 
C 3058.289291 77.525495 3030.860752 93.931355 3007.830224 117.069692 
C 2984.799696 140.208028 2966.823421 169.419525 2955.395499 202.276267 
C 2943.967578 235.133009 2939.413642 270.698761 2942.112193 306.01747 
C 2944.810744 341.336179 2954.684889 375.401458 2970.913935 405.381967 
C 2987.142982 435.362477 3009.264493 460.403938 3035.439837 478.425028 
C 3061.61518 496.446117 3091.098504 506.933333 3121.439298 509.01503 
C 3151.780092 511.096727 3182.113812 504.713587 3209.919267 490.396147 
C 3237.724722 476.078706 3262.20961 454.234933 3281.338868 426.680374 
L 3132.670893 286.2 
L 3087.836115 69.215686 
z
" style="fill:#008000;stroke:#eeeeee;stroke-linejoin:miter;stroke-width:0.5;"/>
   </g>
   <g id="text_27">
    <!-- SSF subsidies -->
    <g transform="translate(3262.8795392 96.0775569193)scale(0.1 -0.1)">
     <use xlink:href="#BitstreamVeraSans-Roman-53"/>
     <use x="63.4765625" xlink:href="#BitstreamVeraSans-Roman-53"/>
     <use x="126.953125" xlink:href="#BitstreamVeraSans-Roman-46"/>
     <use x="184.47265625" xlink:href="#BitstreamVeraSans-Roman-20"/>
     <use x="216.259765625" xlink:href="#BitstreamVeraSans-Roman-73"/>
     <use x="268.359375" xlink:href="#BitstreamVeraSans-Roman-75"/>
     <use x="331.73828125" xlink:href="#BitstreamVeraSans-Roman-62"/>
     <use x="395.21484375" xlink:href="#BitstreamVeraSans-Roman-73"/>
     <use x="447.314453125" xlink:href="#BitstreamVeraSans-Roman-69"/>
     <use x="475.09765625" xlink:href="#BitstreamVeraSans-Roman-64"/>
     <use x="538.57421875" xlink:href="#BitstreamVeraSans-Roman-69"/>
     <use x="566.357421875" xlink:href="#BitstreamVeraSans-Roman-65"/>
     <use x="627.880859375" xlink:href="#BitstreamVeraSans-Roman-73"/>
    </g>
   </g>
   <g id="text_28">
    <!-- LSF subsidies -->
    <g transform="translate(2887.51636452 420.059538929)scale(0.1 -0.1)">
     <use xlink:href="#BitstreamVeraSans-Roman-4c"/>
     <use x="55.712890625" xlink:href="#BitstreamVeraSans-Roman-53"/>
     <use x="119.189453125" xlink:href="#BitstreamVeraSans-Roman-46"/>
     <use x="176.708984375" xlink:href="#BitstreamVeraSans-Roman-20"/>
     <use x="208.49609375" xlink:href="#BitstreamVeraSans-Roman-73"/>
     <use x="260.595703125" xlink:href="#BitstreamVeraSans-Roman-75"/>
     <use x="323.974609375" xlink:href="#BitstreamVeraSans-Roman-62"/>
     <use x="387.451171875" xlink:href="#BitstreamVeraSans-Roman-73"/>
     <use x="439.55078125" xlink:href="#BitstreamVeraSans-Roman-69"/>
     <use x="467.333984375" xlink:href="#BitstreamVeraSans-Roman-64"/>
     <use x="530.810546875" xlink:href="#BitstreamVeraSans-Roman-69"/>
     <use x="558.59375" xlink:href="#BitstreamVeraSans-Roman-65"/>
     <use x="620.1171875" xlink:href="#BitstreamVeraSans-Roman-73"/>
    </g>
   </g>
   <g id="legend_6">
    <g id="patch_29">
     <path d="M 3241.015625 52.0275 
L 3365.81375 52.0275 
L 3365.81375 13.2 
L 3241.015625 13.2 
z
" style="fill:#e5e5e5;stroke:#ffffff;stroke-linejoin:miter;stroke-width:0.5;"/>
    </g>
    <g id="patch_30">
     <path d="M 3245.815625 27.118125 
L 3269.815625 27.118125 
L 3269.815625 18.718125 
L 3245.815625 18.718125 
z
" style="fill:#0000ff;stroke:#eeeeee;stroke-linejoin:miter;stroke-width:0.5;"/>
    </g>
    <g id="text_29">
     <!-- SSF subsidies -->
     <g transform="translate(3279.415625 27.118125)scale(0.12 -0.12)">
      <use xlink:href="#BitstreamVeraSans-Roman-53"/>
      <use x="63.4765625" xlink:href="#BitstreamVeraSans-Roman-53"/>
      <use x="126.953125" xlink:href="#BitstreamVeraSans-Roman-46"/>
      <use x="184.47265625" xlink:href="#BitstreamVeraSans-Roman-20"/>
      <use x="216.259765625" xlink:href="#BitstreamVeraSans-Roman-73"/>
      <use x="268.359375" xlink:href="#BitstreamVeraSans-Roman-75"/>
      <use x="331.73828125" xlink:href="#BitstreamVeraSans-Roman-62"/>
      <use x="395.21484375" xlink:href="#BitstreamVeraSans-Roman-73"/>
      <use x="447.314453125" xlink:href="#BitstreamVeraSans-Roman-69"/>
      <use x="475.09765625" xlink:href="#BitstreamVeraSans-Roman-64"/>
      <use x="538.57421875" xlink:href="#BitstreamVeraSans-Roman-69"/>
      <use x="566.357421875" xlink:href="#BitstreamVeraSans-Roman-65"/>
      <use x="627.880859375" xlink:href="#BitstreamVeraSans-Roman-73"/>
     </g>
    </g>
    <g id="patch_31">
     <path d="M 3245.815625 44.731875 
L 3269.815625 44.731875 
L 3269.815625 36.331875 
L 3245.815625 36.331875 
z
" style="fill:#008000;stroke:#eeeeee;stroke-linejoin:miter;stroke-width:0.5;"/>
    </g>
    <g id="text_30">
     <!-- LSF subsidies -->
     <g transform="translate(3279.415625 44.731875)scale(0.12 -0.12)">
      <use xlink:href="#BitstreamVeraSans-Roman-4c"/>
      <use x="55.712890625" xlink:href="#BitstreamVeraSans-Roman-53"/>
      <use x="119.189453125" xlink:href="#BitstreamVeraSans-Roman-46"/>
      <use x="176.708984375" xlink:href="#BitstreamVeraSans-Roman-20"/>
      <use x="208.49609375" xlink:href="#BitstreamVeraSans-Roman-73"/>
      <use x="260.595703125" xlink:href="#BitstreamVeraSans-Roman-75"/>
      <use x="323.974609375" xlink:href="#BitstreamVeraSans-Roman-62"/>
      <use x="387.451171875" xlink:href="#BitstreamVeraSans-Roman-73"/>
      <use x="439.55078125" xlink:href="#BitstreamVeraSans-Roman-69"/>
      <use x="467.333984375" xlink:href="#BitstreamVeraSans-Roman-64"/>
      <use x="530.810546875" xlink:href="#BitstreamVeraSans-Roman-69"/>
      <use x="558.59375" xlink:href="#BitstreamVeraSans-Roman-65"/>
      <use x="620.1171875" xlink:href="#BitstreamVeraSans-Roman-73"/>
     </g>
    </g>
   </g>
  </g>
 </g>
</svg>
