<?xml version="1.0" encoding="utf-8" standalone="no"?>
<!DOCTYPE svg PUBLIC "-//W3C//DTD SVG 1.1//EN"
  "http://www.w3.org/Graphics/SVG/1.1/DTD/svg11.dtd">
<!-- Created with matplotlib (http://matplotlib.org/) -->
<svg height="797pt" version="1.1" viewBox="0 0 961 797" width="961pt" xmlns="http://www.w3.org/2000/svg" xmlns:xlink="http://www.w3.org/1999/xlink">
 <defs>
  <style type="text/css">
*{stroke-linecap:butt;stroke-linejoin:round;stroke-miterlimit:100000;}
  </style>
 </defs>
 <g id="figure_1">
  <g id="patch_1">
   <path d="M 0 797.6925 
L 961.988125 797.6925 
L 961.988125 0 
L 0 0 
z
" style="fill:#ffffff;"/>
  </g>
  <g id="axes_1">
   <g id="patch_2">
    <path d="M 117.788125 583.877187 
L 954.788125 583.877187 
L 954.788125 25.877187 
L 117.788125 25.877187 
z
" style="fill:#e5e5e5;"/>
   </g>
   <g id="matplotlib.axis_1">
    <g id="xtick_1">
     <g id="line2d_1">
      <path clip-path="url(#p15cc67d55f)" d="M 152.663125 583.877187 
L 152.663125 25.877187 
" style="fill:none;stroke:#ffffff;stroke-linecap:square;stroke-width:0.5;"/>
     </g>
     <g id="line2d_2">
      <defs>
       <path d="M 0 0 
L 0 4 
" id="m068ce7ec69" style="stroke:#555555;stroke-width:0.5;"/>
      </defs>
      <g>
       <use style="fill:#555555;stroke:#555555;stroke-width:0.5;" x="152.663125" xlink:href="#m068ce7ec69" y="583.8771875"/>
      </g>
     </g>
     <g id="line2d_3">
      <defs>
       <path d="M 0 0 
L 0 -4 
" id="md40862a759" style="stroke:#555555;stroke-width:0.5;"/>
      </defs>
      <g>
       <use style="fill:#555555;stroke:#555555;stroke-width:0.5;" x="152.663125" xlink:href="#md40862a759" y="25.8771875"/>
      </g>
     </g>
     <g id="text_1">
      <!-- Fisher assistance -->
      <defs>
       <path id="BitstreamVeraSans-Roman-20"/>
       <path d="M 54.890625 33.015625 
L 54.890625 0 
L 45.90625 0 
L 45.90625 32.71875 
Q 45.90625 40.484375 42.875 44.328125 
Q 39.84375 48.1875 33.796875 48.1875 
Q 26.515625 48.1875 22.3125 43.546875 
Q 18.109375 38.921875 18.109375 30.90625 
L 18.109375 0 
L 9.078125 0 
L 9.078125 54.6875 
L 18.109375 54.6875 
L 18.109375 46.1875 
Q 21.34375 51.125 25.703125 53.5625 
Q 30.078125 56 35.796875 56 
Q 45.21875 56 50.046875 50.171875 
Q 54.890625 44.34375 54.890625 33.015625 
" id="BitstreamVeraSans-Roman-6e"/>
       <path d="M 34.28125 27.484375 
Q 23.390625 27.484375 19.1875 25 
Q 14.984375 22.515625 14.984375 16.5 
Q 14.984375 11.71875 18.140625 8.90625 
Q 21.296875 6.109375 26.703125 6.109375 
Q 34.1875 6.109375 38.703125 11.40625 
Q 43.21875 16.703125 43.21875 25.484375 
L 43.21875 27.484375 
z
M 52.203125 31.203125 
L 52.203125 0 
L 43.21875 0 
L 43.21875 8.296875 
Q 40.140625 3.328125 35.546875 0.953125 
Q 30.953125 -1.421875 24.3125 -1.421875 
Q 15.921875 -1.421875 10.953125 3.296875 
Q 6 8.015625 6 15.921875 
Q 6 25.140625 12.171875 29.828125 
Q 18.359375 34.515625 30.609375 34.515625 
L 43.21875 34.515625 
L 43.21875 35.40625 
Q 43.21875 41.609375 39.140625 45 
Q 35.0625 48.390625 27.6875 48.390625 
Q 23 48.390625 18.546875 47.265625 
Q 14.109375 46.140625 10.015625 43.890625 
L 10.015625 52.203125 
Q 14.9375 54.109375 19.578125 55.046875 
Q 24.21875 56 28.609375 56 
Q 40.484375 56 46.34375 49.84375 
Q 52.203125 43.703125 52.203125 31.203125 
" id="BitstreamVeraSans-Roman-61"/>
       <path d="M 9.8125 72.90625 
L 51.703125 72.90625 
L 51.703125 64.59375 
L 19.671875 64.59375 
L 19.671875 43.109375 
L 48.578125 43.109375 
L 48.578125 34.8125 
L 19.671875 34.8125 
L 19.671875 0 
L 9.8125 0 
z
" id="BitstreamVeraSans-Roman-46"/>
       <path d="M 9.421875 54.6875 
L 18.40625 54.6875 
L 18.40625 0 
L 9.421875 0 
z
M 9.421875 75.984375 
L 18.40625 75.984375 
L 18.40625 64.59375 
L 9.421875 64.59375 
z
" id="BitstreamVeraSans-Roman-69"/>
       <path d="M 54.890625 33.015625 
L 54.890625 0 
L 45.90625 0 
L 45.90625 32.71875 
Q 45.90625 40.484375 42.875 44.328125 
Q 39.84375 48.1875 33.796875 48.1875 
Q 26.515625 48.1875 22.3125 43.546875 
Q 18.109375 38.921875 18.109375 30.90625 
L 18.109375 0 
L 9.078125 0 
L 9.078125 75.984375 
L 18.109375 75.984375 
L 18.109375 46.1875 
Q 21.34375 51.125 25.703125 53.5625 
Q 30.078125 56 35.796875 56 
Q 45.21875 56 50.046875 50.171875 
Q 54.890625 44.34375 54.890625 33.015625 
" id="BitstreamVeraSans-Roman-68"/>
       <path d="M 56.203125 29.59375 
L 56.203125 25.203125 
L 14.890625 25.203125 
Q 15.484375 15.921875 20.484375 11.0625 
Q 25.484375 6.203125 34.421875 6.203125 
Q 39.59375 6.203125 44.453125 7.46875 
Q 49.3125 8.734375 54.109375 11.28125 
L 54.109375 2.78125 
Q 49.265625 0.734375 44.1875 -0.34375 
Q 39.109375 -1.421875 33.890625 -1.421875 
Q 20.796875 -1.421875 13.15625 6.1875 
Q 5.515625 13.8125 5.515625 26.8125 
Q 5.515625 40.234375 12.765625 48.109375 
Q 20.015625 56 32.328125 56 
Q 43.359375 56 49.78125 48.890625 
Q 56.203125 41.796875 56.203125 29.59375 
M 47.21875 32.234375 
Q 47.125 39.59375 43.09375 43.984375 
Q 39.0625 48.390625 32.421875 48.390625 
Q 24.90625 48.390625 20.390625 44.140625 
Q 15.875 39.890625 15.1875 32.171875 
z
" id="BitstreamVeraSans-Roman-65"/>
       <path d="M 18.3125 70.21875 
L 18.3125 54.6875 
L 36.8125 54.6875 
L 36.8125 47.703125 
L 18.3125 47.703125 
L 18.3125 18.015625 
Q 18.3125 11.328125 20.140625 9.421875 
Q 21.96875 7.515625 27.59375 7.515625 
L 36.8125 7.515625 
L 36.8125 0 
L 27.59375 0 
Q 17.1875 0 13.234375 3.875 
Q 9.28125 7.765625 9.28125 18.015625 
L 9.28125 47.703125 
L 2.6875 47.703125 
L 2.6875 54.6875 
L 9.28125 54.6875 
L 9.28125 70.21875 
z
" id="BitstreamVeraSans-Roman-74"/>
       <path d="M 41.109375 46.296875 
Q 39.59375 47.171875 37.8125 47.578125 
Q 36.03125 48 33.890625 48 
Q 26.265625 48 22.1875 43.046875 
Q 18.109375 38.09375 18.109375 28.8125 
L 18.109375 0 
L 9.078125 0 
L 9.078125 54.6875 
L 18.109375 54.6875 
L 18.109375 46.1875 
Q 20.953125 51.171875 25.484375 53.578125 
Q 30.03125 56 36.53125 56 
Q 37.453125 56 38.578125 55.875 
Q 39.703125 55.765625 41.0625 55.515625 
z
" id="BitstreamVeraSans-Roman-72"/>
       <path d="M 44.28125 53.078125 
L 44.28125 44.578125 
Q 40.484375 46.53125 36.375 47.5 
Q 32.28125 48.484375 27.875 48.484375 
Q 21.1875 48.484375 17.84375 46.4375 
Q 14.5 44.390625 14.5 40.28125 
Q 14.5 37.15625 16.890625 35.375 
Q 19.28125 33.59375 26.515625 31.984375 
L 29.59375 31.296875 
Q 39.15625 29.25 43.1875 25.515625 
Q 47.21875 21.78125 47.21875 15.09375 
Q 47.21875 7.46875 41.1875 3.015625 
Q 35.15625 -1.421875 24.609375 -1.421875 
Q 20.21875 -1.421875 15.453125 -0.5625 
Q 10.6875 0.296875 5.421875 2 
L 5.421875 11.28125 
Q 10.40625 8.6875 15.234375 7.390625 
Q 20.0625 6.109375 24.8125 6.109375 
Q 31.15625 6.109375 34.5625 8.28125 
Q 37.984375 10.453125 37.984375 14.40625 
Q 37.984375 18.0625 35.515625 20.015625 
Q 33.0625 21.96875 24.703125 23.78125 
L 21.578125 24.515625 
Q 13.234375 26.265625 9.515625 29.90625 
Q 5.8125 33.546875 5.8125 39.890625 
Q 5.8125 47.609375 11.28125 51.796875 
Q 16.75 56 26.8125 56 
Q 31.78125 56 36.171875 55.265625 
Q 40.578125 54.546875 44.28125 53.078125 
" id="BitstreamVeraSans-Roman-73"/>
       <path d="M 48.78125 52.59375 
L 48.78125 44.1875 
Q 44.96875 46.296875 41.140625 47.34375 
Q 37.3125 48.390625 33.40625 48.390625 
Q 24.65625 48.390625 19.8125 42.84375 
Q 14.984375 37.3125 14.984375 27.296875 
Q 14.984375 17.28125 19.8125 11.734375 
Q 24.65625 6.203125 33.40625 6.203125 
Q 37.3125 6.203125 41.140625 7.25 
Q 44.96875 8.296875 48.78125 10.40625 
L 48.78125 2.09375 
Q 45.015625 0.34375 40.984375 -0.53125 
Q 36.96875 -1.421875 32.421875 -1.421875 
Q 20.0625 -1.421875 12.78125 6.34375 
Q 5.515625 14.109375 5.515625 27.296875 
Q 5.515625 40.671875 12.859375 48.328125 
Q 20.21875 56 33.015625 56 
Q 37.15625 56 41.109375 55.140625 
Q 45.0625 54.296875 48.78125 52.59375 
" id="BitstreamVeraSans-Roman-63"/>
      </defs>
      <g style="fill:#555555;" transform="translate(157.63 746.820625)rotate(-90.0)scale(0.18 -0.18)">
       <use xlink:href="#BitstreamVeraSans-Roman-46"/>
       <use x="57.41015625" xlink:href="#BitstreamVeraSans-Roman-69"/>
       <use x="85.193359375" xlink:href="#BitstreamVeraSans-Roman-73"/>
       <use x="137.29296875" xlink:href="#BitstreamVeraSans-Roman-68"/>
       <use x="200.671875" xlink:href="#BitstreamVeraSans-Roman-65"/>
       <use x="262.1953125" xlink:href="#BitstreamVeraSans-Roman-72"/>
       <use x="303.30859375" xlink:href="#BitstreamVeraSans-Roman-20"/>
       <use x="335.095703125" xlink:href="#BitstreamVeraSans-Roman-61"/>
       <use x="396.375" xlink:href="#BitstreamVeraSans-Roman-73"/>
       <use x="448.474609375" xlink:href="#BitstreamVeraSans-Roman-73"/>
       <use x="500.57421875" xlink:href="#BitstreamVeraSans-Roman-69"/>
       <use x="528.357421875" xlink:href="#BitstreamVeraSans-Roman-73"/>
       <use x="580.45703125" xlink:href="#BitstreamVeraSans-Roman-74"/>
       <use x="619.666015625" xlink:href="#BitstreamVeraSans-Roman-61"/>
       <use x="680.9453125" xlink:href="#BitstreamVeraSans-Roman-6e"/>
       <use x="744.32421875" xlink:href="#BitstreamVeraSans-Roman-63"/>
       <use x="799.3046875" xlink:href="#BitstreamVeraSans-Roman-65"/>
      </g>
     </g>
    </g>
    <g id="xtick_2">
     <g id="line2d_4">
      <path clip-path="url(#p15cc67d55f)" d="M 222.413125 583.877187 
L 222.413125 25.877187 
" style="fill:none;stroke:#ffffff;stroke-linecap:square;stroke-width:0.5;"/>
     </g>
     <g id="line2d_5">
      <g>
       <use style="fill:#555555;stroke:#555555;stroke-width:0.5;" x="222.413125" xlink:href="#m068ce7ec69" y="583.8771875"/>
      </g>
     </g>
     <g id="line2d_6">
      <g>
       <use style="fill:#555555;stroke:#555555;stroke-width:0.5;" x="222.413125" xlink:href="#md40862a759" y="25.8771875"/>
      </g>
     </g>
     <g id="text_2">
      <!-- Rural communities -->
      <defs>
       <path d="M 52 44.1875 
Q 55.375 50.25 60.0625 53.125 
Q 64.75 56 71.09375 56 
Q 79.640625 56 84.28125 50.015625 
Q 88.921875 44.046875 88.921875 33.015625 
L 88.921875 0 
L 79.890625 0 
L 79.890625 32.71875 
Q 79.890625 40.578125 77.09375 44.375 
Q 74.3125 48.1875 68.609375 48.1875 
Q 61.625 48.1875 57.5625 43.546875 
Q 53.515625 38.921875 53.515625 30.90625 
L 53.515625 0 
L 44.484375 0 
L 44.484375 32.71875 
Q 44.484375 40.625 41.703125 44.40625 
Q 38.921875 48.1875 33.109375 48.1875 
Q 26.21875 48.1875 22.15625 43.53125 
Q 18.109375 38.875 18.109375 30.90625 
L 18.109375 0 
L 9.078125 0 
L 9.078125 54.6875 
L 18.109375 54.6875 
L 18.109375 46.1875 
Q 21.1875 51.21875 25.484375 53.609375 
Q 29.78125 56 35.6875 56 
Q 41.65625 56 45.828125 52.96875 
Q 50 49.953125 52 44.1875 
" id="BitstreamVeraSans-Roman-6d"/>
       <path d="M 44.390625 34.1875 
Q 47.5625 33.109375 50.5625 29.59375 
Q 53.5625 26.078125 56.59375 19.921875 
L 66.609375 0 
L 56 0 
L 46.6875 18.703125 
Q 43.0625 26.03125 39.671875 28.421875 
Q 36.28125 30.8125 30.421875 30.8125 
L 19.671875 30.8125 
L 19.671875 0 
L 9.8125 0 
L 9.8125 72.90625 
L 32.078125 72.90625 
Q 44.578125 72.90625 50.734375 67.671875 
Q 56.890625 62.453125 56.890625 51.90625 
Q 56.890625 45.015625 53.6875 40.46875 
Q 50.484375 35.9375 44.390625 34.1875 
M 19.671875 64.796875 
L 19.671875 38.921875 
L 32.078125 38.921875 
Q 39.203125 38.921875 42.84375 42.21875 
Q 46.484375 45.515625 46.484375 51.90625 
Q 46.484375 58.296875 42.84375 61.546875 
Q 39.203125 64.796875 32.078125 64.796875 
z
" id="BitstreamVeraSans-Roman-52"/>
       <path d="M 8.5 21.578125 
L 8.5 54.6875 
L 17.484375 54.6875 
L 17.484375 21.921875 
Q 17.484375 14.15625 20.5 10.265625 
Q 23.53125 6.390625 29.59375 6.390625 
Q 36.859375 6.390625 41.078125 11.03125 
Q 45.3125 15.671875 45.3125 23.6875 
L 45.3125 54.6875 
L 54.296875 54.6875 
L 54.296875 0 
L 45.3125 0 
L 45.3125 8.40625 
Q 42.046875 3.421875 37.71875 1 
Q 33.40625 -1.421875 27.6875 -1.421875 
Q 18.265625 -1.421875 13.375 4.4375 
Q 8.5 10.296875 8.5 21.578125 
" id="BitstreamVeraSans-Roman-75"/>
       <path d="M 30.609375 48.390625 
Q 23.390625 48.390625 19.1875 42.75 
Q 14.984375 37.109375 14.984375 27.296875 
Q 14.984375 17.484375 19.15625 11.84375 
Q 23.34375 6.203125 30.609375 6.203125 
Q 37.796875 6.203125 41.984375 11.859375 
Q 46.1875 17.53125 46.1875 27.296875 
Q 46.1875 37.015625 41.984375 42.703125 
Q 37.796875 48.390625 30.609375 48.390625 
M 30.609375 56 
Q 42.328125 56 49.015625 48.375 
Q 55.71875 40.765625 55.71875 27.296875 
Q 55.71875 13.875 49.015625 6.21875 
Q 42.328125 -1.421875 30.609375 -1.421875 
Q 18.84375 -1.421875 12.171875 6.21875 
Q 5.515625 13.875 5.515625 27.296875 
Q 5.515625 40.765625 12.171875 48.375 
Q 18.84375 56 30.609375 56 
" id="BitstreamVeraSans-Roman-6f"/>
       <path d="M 9.421875 75.984375 
L 18.40625 75.984375 
L 18.40625 0 
L 9.421875 0 
z
" id="BitstreamVeraSans-Roman-6c"/>
      </defs>
      <g style="fill:#555555;" transform="translate(227.38 761.2346875)rotate(-90.0)scale(0.18 -0.18)">
       <use xlink:href="#BitstreamVeraSans-Roman-52"/>
       <use x="69.419921875" xlink:href="#BitstreamVeraSans-Roman-75"/>
       <use x="132.798828125" xlink:href="#BitstreamVeraSans-Roman-72"/>
       <use x="173.912109375" xlink:href="#BitstreamVeraSans-Roman-61"/>
       <use x="235.19140625" xlink:href="#BitstreamVeraSans-Roman-6c"/>
       <use x="262.974609375" xlink:href="#BitstreamVeraSans-Roman-20"/>
       <use x="294.76171875" xlink:href="#BitstreamVeraSans-Roman-63"/>
       <use x="349.7421875" xlink:href="#BitstreamVeraSans-Roman-6f"/>
       <use x="410.923828125" xlink:href="#BitstreamVeraSans-Roman-6d"/>
       <use x="508.3359375" xlink:href="#BitstreamVeraSans-Roman-6d"/>
       <use x="605.748046875" xlink:href="#BitstreamVeraSans-Roman-75"/>
       <use x="669.126953125" xlink:href="#BitstreamVeraSans-Roman-6e"/>
       <use x="732.505859375" xlink:href="#BitstreamVeraSans-Roman-69"/>
       <use x="760.2890625" xlink:href="#BitstreamVeraSans-Roman-74"/>
       <use x="799.498046875" xlink:href="#BitstreamVeraSans-Roman-69"/>
       <use x="827.28125" xlink:href="#BitstreamVeraSans-Roman-65"/>
       <use x="888.8046875" xlink:href="#BitstreamVeraSans-Roman-73"/>
      </g>
     </g>
    </g>
    <g id="xtick_3">
     <g id="line2d_7">
      <path clip-path="url(#p15cc67d55f)" d="M 292.163125 583.877187 
L 292.163125 25.877187 
" style="fill:none;stroke:#ffffff;stroke-linecap:square;stroke-width:0.5;"/>
     </g>
     <g id="line2d_8">
      <g>
       <use style="fill:#555555;stroke:#555555;stroke-width:0.5;" x="292.163125" xlink:href="#m068ce7ec69" y="583.8771875"/>
      </g>
     </g>
     <g id="line2d_9">
      <g>
       <use style="fill:#555555;stroke:#555555;stroke-width:0.5;" x="292.163125" xlink:href="#md40862a759" y="25.8771875"/>
      </g>
     </g>
     <g id="text_3">
      <!-- Vessel buyback -->
      <defs>
       <path d="M 32.171875 -5.078125 
Q 28.375 -14.84375 24.75 -17.8125 
Q 21.140625 -20.796875 15.09375 -20.796875 
L 7.90625 -20.796875 
L 7.90625 -13.28125 
L 13.1875 -13.28125 
Q 16.890625 -13.28125 18.9375 -11.515625 
Q 21 -9.765625 23.484375 -3.21875 
L 25.09375 0.875 
L 2.984375 54.6875 
L 12.5 54.6875 
L 29.59375 11.921875 
L 46.6875 54.6875 
L 56.203125 54.6875 
z
" id="BitstreamVeraSans-Roman-79"/>
       <path d="M 9.078125 75.984375 
L 18.109375 75.984375 
L 18.109375 31.109375 
L 44.921875 54.6875 
L 56.390625 54.6875 
L 27.390625 29.109375 
L 57.625 0 
L 45.90625 0 
L 18.109375 26.703125 
L 18.109375 0 
L 9.078125 0 
z
" id="BitstreamVeraSans-Roman-6b"/>
       <path d="M 28.609375 0 
L 0.78125 72.90625 
L 11.078125 72.90625 
L 34.1875 11.53125 
L 57.328125 72.90625 
L 67.578125 72.90625 
L 39.796875 0 
z
" id="BitstreamVeraSans-Roman-56"/>
       <path d="M 48.6875 27.296875 
Q 48.6875 37.203125 44.609375 42.84375 
Q 40.53125 48.484375 33.40625 48.484375 
Q 26.265625 48.484375 22.1875 42.84375 
Q 18.109375 37.203125 18.109375 27.296875 
Q 18.109375 17.390625 22.1875 11.75 
Q 26.265625 6.109375 33.40625 6.109375 
Q 40.53125 6.109375 44.609375 11.75 
Q 48.6875 17.390625 48.6875 27.296875 
M 18.109375 46.390625 
Q 20.953125 51.265625 25.265625 53.625 
Q 29.59375 56 35.59375 56 
Q 45.5625 56 51.78125 48.09375 
Q 58.015625 40.1875 58.015625 27.296875 
Q 58.015625 14.40625 51.78125 6.484375 
Q 45.5625 -1.421875 35.59375 -1.421875 
Q 29.59375 -1.421875 25.265625 0.953125 
Q 20.953125 3.328125 18.109375 8.203125 
L 18.109375 0 
L 9.078125 0 
L 9.078125 75.984375 
L 18.109375 75.984375 
z
" id="BitstreamVeraSans-Roman-62"/>
      </defs>
      <g style="fill:#555555;" transform="translate(297.13 732.0634375)rotate(-90.0)scale(0.18 -0.18)">
       <use xlink:href="#BitstreamVeraSans-Roman-56"/>
       <use x="68.298828125" xlink:href="#BitstreamVeraSans-Roman-65"/>
       <use x="129.822265625" xlink:href="#BitstreamVeraSans-Roman-73"/>
       <use x="181.921875" xlink:href="#BitstreamVeraSans-Roman-73"/>
       <use x="234.021484375" xlink:href="#BitstreamVeraSans-Roman-65"/>
       <use x="295.544921875" xlink:href="#BitstreamVeraSans-Roman-6c"/>
       <use x="323.328125" xlink:href="#BitstreamVeraSans-Roman-20"/>
       <use x="355.115234375" xlink:href="#BitstreamVeraSans-Roman-62"/>
       <use x="418.591796875" xlink:href="#BitstreamVeraSans-Roman-75"/>
       <use x="481.970703125" xlink:href="#BitstreamVeraSans-Roman-79"/>
       <use x="541.150390625" xlink:href="#BitstreamVeraSans-Roman-62"/>
       <use x="604.626953125" xlink:href="#BitstreamVeraSans-Roman-61"/>
       <use x="665.90625" xlink:href="#BitstreamVeraSans-Roman-63"/>
       <use x="720.88671875" xlink:href="#BitstreamVeraSans-Roman-6b"/>
      </g>
     </g>
    </g>
    <g id="xtick_4">
     <g id="line2d_10">
      <path clip-path="url(#p15cc67d55f)" d="M 361.913125 583.877187 
L 361.913125 25.877187 
" style="fill:none;stroke:#ffffff;stroke-linecap:square;stroke-width:0.5;"/>
     </g>
     <g id="line2d_11">
      <g>
       <use style="fill:#555555;stroke:#555555;stroke-width:0.5;" x="361.913125" xlink:href="#m068ce7ec69" y="583.8771875"/>
      </g>
     </g>
     <g id="line2d_12">
      <g>
       <use style="fill:#555555;stroke:#555555;stroke-width:0.5;" x="361.913125" xlink:href="#md40862a759" y="25.8771875"/>
      </g>
     </g>
     <g id="text_4">
      <!-- Management -->
      <defs>
       <path d="M 45.40625 27.984375 
Q 45.40625 37.75 41.375 43.109375 
Q 37.359375 48.484375 30.078125 48.484375 
Q 22.859375 48.484375 18.828125 43.109375 
Q 14.796875 37.75 14.796875 27.984375 
Q 14.796875 18.265625 18.828125 12.890625 
Q 22.859375 7.515625 30.078125 7.515625 
Q 37.359375 7.515625 41.375 12.890625 
Q 45.40625 18.265625 45.40625 27.984375 
M 54.390625 6.78125 
Q 54.390625 -7.171875 48.1875 -13.984375 
Q 42 -20.796875 29.203125 -20.796875 
Q 24.46875 -20.796875 20.265625 -20.09375 
Q 16.0625 -19.390625 12.109375 -17.921875 
L 12.109375 -9.1875 
Q 16.0625 -11.328125 19.921875 -12.34375 
Q 23.78125 -13.375 27.78125 -13.375 
Q 36.625 -13.375 41.015625 -8.765625 
Q 45.40625 -4.15625 45.40625 5.171875 
L 45.40625 9.625 
Q 42.625 4.78125 38.28125 2.390625 
Q 33.9375 0 27.875 0 
Q 17.828125 0 11.671875 7.65625 
Q 5.515625 15.328125 5.515625 27.984375 
Q 5.515625 40.671875 11.671875 48.328125 
Q 17.828125 56 27.875 56 
Q 33.9375 56 38.28125 53.609375 
Q 42.625 51.21875 45.40625 46.390625 
L 45.40625 54.6875 
L 54.390625 54.6875 
z
" id="BitstreamVeraSans-Roman-67"/>
       <path d="M 9.8125 72.90625 
L 24.515625 72.90625 
L 43.109375 23.296875 
L 61.8125 72.90625 
L 76.515625 72.90625 
L 76.515625 0 
L 66.890625 0 
L 66.890625 64.015625 
L 48.09375 14.015625 
L 38.1875 14.015625 
L 19.390625 64.015625 
L 19.390625 0 
L 9.8125 0 
z
" id="BitstreamVeraSans-Roman-4d"/>
      </defs>
      <g style="fill:#555555;" transform="translate(366.88 710.4521875)rotate(-90.0)scale(0.18 -0.18)">
       <use xlink:href="#BitstreamVeraSans-Roman-4d"/>
       <use x="86.279296875" xlink:href="#BitstreamVeraSans-Roman-61"/>
       <use x="147.55859375" xlink:href="#BitstreamVeraSans-Roman-6e"/>
       <use x="210.9375" xlink:href="#BitstreamVeraSans-Roman-61"/>
       <use x="272.216796875" xlink:href="#BitstreamVeraSans-Roman-67"/>
       <use x="335.693359375" xlink:href="#BitstreamVeraSans-Roman-65"/>
       <use x="397.216796875" xlink:href="#BitstreamVeraSans-Roman-6d"/>
       <use x="494.62890625" xlink:href="#BitstreamVeraSans-Roman-65"/>
       <use x="556.15234375" xlink:href="#BitstreamVeraSans-Roman-6e"/>
       <use x="619.53125" xlink:href="#BitstreamVeraSans-Roman-74"/>
      </g>
     </g>
    </g>
    <g id="xtick_5">
     <g id="line2d_13">
      <path clip-path="url(#p15cc67d55f)" d="M 431.663125 583.877187 
L 431.663125 25.877187 
" style="fill:none;stroke:#ffffff;stroke-linecap:square;stroke-width:0.5;"/>
     </g>
     <g id="line2d_14">
      <g>
       <use style="fill:#555555;stroke:#555555;stroke-width:0.5;" x="431.663125" xlink:href="#m068ce7ec69" y="583.8771875"/>
      </g>
     </g>
     <g id="line2d_15">
      <g>
       <use style="fill:#555555;stroke:#555555;stroke-width:0.5;" x="431.663125" xlink:href="#md40862a759" y="25.8771875"/>
      </g>
     </g>
     <g id="text_5">
      <!-- Research -->
      <g style="fill:#555555;" transform="translate(436.63 675.630625)rotate(-90.0)scale(0.18 -0.18)">
       <use xlink:href="#BitstreamVeraSans-Roman-52"/>
       <use x="69.419921875" xlink:href="#BitstreamVeraSans-Roman-65"/>
       <use x="130.943359375" xlink:href="#BitstreamVeraSans-Roman-73"/>
       <use x="183.04296875" xlink:href="#BitstreamVeraSans-Roman-65"/>
       <use x="244.56640625" xlink:href="#BitstreamVeraSans-Roman-61"/>
       <use x="305.845703125" xlink:href="#BitstreamVeraSans-Roman-72"/>
       <use x="346.927734375" xlink:href="#BitstreamVeraSans-Roman-63"/>
       <use x="401.908203125" xlink:href="#BitstreamVeraSans-Roman-68"/>
      </g>
     </g>
    </g>
    <g id="xtick_6">
     <g id="line2d_16">
      <path clip-path="url(#p15cc67d55f)" d="M 501.413125 583.877187 
L 501.413125 25.877187 
" style="fill:none;stroke:#ffffff;stroke-linecap:square;stroke-width:0.5;"/>
     </g>
     <g id="line2d_17">
      <g>
       <use style="fill:#555555;stroke:#555555;stroke-width:0.5;" x="501.413125" xlink:href="#m068ce7ec69" y="583.8771875"/>
      </g>
     </g>
     <g id="line2d_18">
      <g>
       <use style="fill:#555555;stroke:#555555;stroke-width:0.5;" x="501.413125" xlink:href="#md40862a759" y="25.8771875"/>
      </g>
     </g>
     <g id="text_6">
      <!-- MPAs -->
      <defs>
       <path d="M 19.671875 64.796875 
L 19.671875 37.40625 
L 32.078125 37.40625 
Q 38.96875 37.40625 42.71875 40.96875 
Q 46.484375 44.53125 46.484375 51.125 
Q 46.484375 57.671875 42.71875 61.234375 
Q 38.96875 64.796875 32.078125 64.796875 
z
M 9.8125 72.90625 
L 32.078125 72.90625 
Q 44.34375 72.90625 50.609375 67.359375 
Q 56.890625 61.8125 56.890625 51.125 
Q 56.890625 40.328125 50.609375 34.8125 
Q 44.34375 29.296875 32.078125 29.296875 
L 19.671875 29.296875 
L 19.671875 0 
L 9.8125 0 
z
" id="BitstreamVeraSans-Roman-50"/>
       <path d="M 34.1875 63.1875 
L 20.796875 26.90625 
L 47.609375 26.90625 
z
M 28.609375 72.90625 
L 39.796875 72.90625 
L 67.578125 0 
L 57.328125 0 
L 50.6875 18.703125 
L 17.828125 18.703125 
L 11.1875 0 
L 0.78125 0 
z
" id="BitstreamVeraSans-Roman-41"/>
      </defs>
      <g style="fill:#555555;" transform="translate(506.38 639.934375)rotate(-90.0)scale(0.18 -0.18)">
       <use xlink:href="#BitstreamVeraSans-Roman-4d"/>
       <use x="86.279296875" xlink:href="#BitstreamVeraSans-Roman-50"/>
       <use x="146.48828125" xlink:href="#BitstreamVeraSans-Roman-41"/>
       <use x="214.896484375" xlink:href="#BitstreamVeraSans-Roman-73"/>
      </g>
     </g>
    </g>
    <g id="xtick_7">
     <g id="line2d_19">
      <path clip-path="url(#p15cc67d55f)" d="M 571.163125 583.877187 
L 571.163125 25.877187 
" style="fill:none;stroke:#ffffff;stroke-linecap:square;stroke-width:0.5;"/>
     </g>
     <g id="line2d_20">
      <g>
       <use style="fill:#555555;stroke:#555555;stroke-width:0.5;" x="571.163125" xlink:href="#m068ce7ec69" y="583.8771875"/>
      </g>
     </g>
     <g id="line2d_21">
      <g>
       <use style="fill:#555555;stroke:#555555;stroke-width:0.5;" x="571.163125" xlink:href="#md40862a759" y="25.8771875"/>
      </g>
     </g>
     <g id="text_7">
      <!-- Boat construct. -->
      <defs>
       <path d="M 10.6875 12.40625 
L 21 12.40625 
L 21 0 
L 10.6875 0 
z
" id="BitstreamVeraSans-Roman-2e"/>
       <path d="M 19.671875 34.8125 
L 19.671875 8.109375 
L 35.5 8.109375 
Q 43.453125 8.109375 47.28125 11.40625 
Q 51.125 14.703125 51.125 21.484375 
Q 51.125 28.328125 47.28125 31.5625 
Q 43.453125 34.8125 35.5 34.8125 
z
M 19.671875 64.796875 
L 19.671875 42.828125 
L 34.28125 42.828125 
Q 41.5 42.828125 45.03125 45.53125 
Q 48.578125 48.25 48.578125 53.8125 
Q 48.578125 59.328125 45.03125 62.0625 
Q 41.5 64.796875 34.28125 64.796875 
z
M 9.8125 72.90625 
L 35.015625 72.90625 
Q 46.296875 72.90625 52.390625 68.21875 
Q 58.5 63.53125 58.5 54.890625 
Q 58.5 48.1875 55.375 44.234375 
Q 52.25 40.28125 46.1875 39.3125 
Q 53.46875 37.75 57.5 32.78125 
Q 61.53125 27.828125 61.53125 20.40625 
Q 61.53125 10.640625 54.890625 5.3125 
Q 48.25 0 35.984375 0 
L 9.8125 0 
z
" id="BitstreamVeraSans-Roman-42"/>
      </defs>
      <g style="fill:#555555;" transform="translate(576.13 729.281875)rotate(-90.0)scale(0.18 -0.18)">
       <use xlink:href="#BitstreamVeraSans-Roman-42"/>
       <use x="68.603515625" xlink:href="#BitstreamVeraSans-Roman-6f"/>
       <use x="129.78515625" xlink:href="#BitstreamVeraSans-Roman-61"/>
       <use x="191.064453125" xlink:href="#BitstreamVeraSans-Roman-74"/>
       <use x="230.2734375" xlink:href="#BitstreamVeraSans-Roman-20"/>
       <use x="262.060546875" xlink:href="#BitstreamVeraSans-Roman-63"/>
       <use x="317.041015625" xlink:href="#BitstreamVeraSans-Roman-6f"/>
       <use x="378.22265625" xlink:href="#BitstreamVeraSans-Roman-6e"/>
       <use x="441.6015625" xlink:href="#BitstreamVeraSans-Roman-73"/>
       <use x="493.701171875" xlink:href="#BitstreamVeraSans-Roman-74"/>
       <use x="532.91015625" xlink:href="#BitstreamVeraSans-Roman-72"/>
       <use x="574.0234375" xlink:href="#BitstreamVeraSans-Roman-75"/>
       <use x="637.40234375" xlink:href="#BitstreamVeraSans-Roman-63"/>
       <use x="692.3828125" xlink:href="#BitstreamVeraSans-Roman-74"/>
       <use x="731.591796875" xlink:href="#BitstreamVeraSans-Roman-2e"/>
      </g>
     </g>
    </g>
    <g id="xtick_8">
     <g id="line2d_22">
      <path clip-path="url(#p15cc67d55f)" d="M 640.913125 583.877187 
L 640.913125 25.877187 
" style="fill:none;stroke:#ffffff;stroke-linecap:square;stroke-width:0.5;"/>
     </g>
     <g id="line2d_23">
      <g>
       <use style="fill:#555555;stroke:#555555;stroke-width:0.5;" x="640.913125" xlink:href="#m068ce7ec69" y="583.8771875"/>
      </g>
     </g>
     <g id="line2d_24">
      <g>
       <use style="fill:#555555;stroke:#555555;stroke-width:0.5;" x="640.913125" xlink:href="#md40862a759" y="25.8771875"/>
      </g>
     </g>
     <g id="text_8">
      <!-- Develop. project -->
      <defs>
       <path d="M 2.984375 54.6875 
L 12.5 54.6875 
L 29.59375 8.796875 
L 46.6875 54.6875 
L 56.203125 54.6875 
L 35.6875 0 
L 23.484375 0 
z
" id="BitstreamVeraSans-Roman-76"/>
       <path d="M 19.671875 64.796875 
L 19.671875 8.109375 
L 31.59375 8.109375 
Q 46.6875 8.109375 53.6875 14.9375 
Q 60.6875 21.78125 60.6875 36.53125 
Q 60.6875 51.171875 53.6875 57.984375 
Q 46.6875 64.796875 31.59375 64.796875 
z
M 9.8125 72.90625 
L 30.078125 72.90625 
Q 51.265625 72.90625 61.171875 64.09375 
Q 71.09375 55.28125 71.09375 36.53125 
Q 71.09375 17.671875 61.125 8.828125 
Q 51.171875 0 30.078125 0 
L 9.8125 0 
z
" id="BitstreamVeraSans-Roman-44"/>
       <path d="M 9.421875 54.6875 
L 18.40625 54.6875 
L 18.40625 -0.984375 
Q 18.40625 -11.421875 14.421875 -16.109375 
Q 10.453125 -20.796875 1.609375 -20.796875 
L -1.8125 -20.796875 
L -1.8125 -13.1875 
L 0.59375 -13.1875 
Q 5.71875 -13.1875 7.5625 -10.8125 
Q 9.421875 -8.453125 9.421875 -0.984375 
z
M 9.421875 75.984375 
L 18.40625 75.984375 
L 18.40625 64.59375 
L 9.421875 64.59375 
z
" id="BitstreamVeraSans-Roman-6a"/>
       <path d="M 18.109375 8.203125 
L 18.109375 -20.796875 
L 9.078125 -20.796875 
L 9.078125 54.6875 
L 18.109375 54.6875 
L 18.109375 46.390625 
Q 20.953125 51.265625 25.265625 53.625 
Q 29.59375 56 35.59375 56 
Q 45.5625 56 51.78125 48.09375 
Q 58.015625 40.1875 58.015625 27.296875 
Q 58.015625 14.40625 51.78125 6.484375 
Q 45.5625 -1.421875 35.59375 -1.421875 
Q 29.59375 -1.421875 25.265625 0.953125 
Q 20.953125 3.328125 18.109375 8.203125 
M 48.6875 27.296875 
Q 48.6875 37.203125 44.609375 42.84375 
Q 40.53125 48.484375 33.40625 48.484375 
Q 26.265625 48.484375 22.1875 42.84375 
Q 18.109375 37.203125 18.109375 27.296875 
Q 18.109375 17.390625 22.1875 11.75 
Q 26.265625 6.109375 33.40625 6.109375 
Q 40.53125 6.109375 44.609375 11.75 
Q 48.6875 17.390625 48.6875 27.296875 
" id="BitstreamVeraSans-Roman-70"/>
      </defs>
      <g style="fill:#555555;" transform="translate(645.88 740.29)rotate(-90.0)scale(0.18 -0.18)">
       <use xlink:href="#BitstreamVeraSans-Roman-44"/>
       <use x="77.001953125" xlink:href="#BitstreamVeraSans-Roman-65"/>
       <use x="138.525390625" xlink:href="#BitstreamVeraSans-Roman-76"/>
       <use x="197.705078125" xlink:href="#BitstreamVeraSans-Roman-65"/>
       <use x="259.228515625" xlink:href="#BitstreamVeraSans-Roman-6c"/>
       <use x="287.01171875" xlink:href="#BitstreamVeraSans-Roman-6f"/>
       <use x="348.193359375" xlink:href="#BitstreamVeraSans-Roman-70"/>
       <use x="411.669921875" xlink:href="#BitstreamVeraSans-Roman-2e"/>
       <use x="443.45703125" xlink:href="#BitstreamVeraSans-Roman-20"/>
       <use x="475.244140625" xlink:href="#BitstreamVeraSans-Roman-70"/>
       <use x="538.720703125" xlink:href="#BitstreamVeraSans-Roman-72"/>
       <use x="579.802734375" xlink:href="#BitstreamVeraSans-Roman-6f"/>
       <use x="640.984375" xlink:href="#BitstreamVeraSans-Roman-6a"/>
       <use x="668.767578125" xlink:href="#BitstreamVeraSans-Roman-65"/>
       <use x="730.291015625" xlink:href="#BitstreamVeraSans-Roman-63"/>
       <use x="785.271484375" xlink:href="#BitstreamVeraSans-Roman-74"/>
      </g>
     </g>
    </g>
    <g id="xtick_9">
     <g id="line2d_25">
      <path clip-path="url(#p15cc67d55f)" d="M 710.663125 583.877187 
L 710.663125 25.877187 
" style="fill:none;stroke:#ffffff;stroke-linecap:square;stroke-width:0.5;"/>
     </g>
     <g id="line2d_26">
      <g>
       <use style="fill:#555555;stroke:#555555;stroke-width:0.5;" x="710.663125" xlink:href="#m068ce7ec69" y="583.8771875"/>
      </g>
     </g>
     <g id="line2d_27">
      <g>
       <use style="fill:#555555;stroke:#555555;stroke-width:0.5;" x="710.663125" xlink:href="#md40862a759" y="25.8771875"/>
      </g>
     </g>
     <g id="text_9">
      <!-- Fishing access -->
      <g style="fill:#555555;" transform="translate(715.63 722.205625)rotate(-90.0)scale(0.18 -0.18)">
       <use xlink:href="#BitstreamVeraSans-Roman-46"/>
       <use x="57.41015625" xlink:href="#BitstreamVeraSans-Roman-69"/>
       <use x="85.193359375" xlink:href="#BitstreamVeraSans-Roman-73"/>
       <use x="137.29296875" xlink:href="#BitstreamVeraSans-Roman-68"/>
       <use x="200.671875" xlink:href="#BitstreamVeraSans-Roman-69"/>
       <use x="228.455078125" xlink:href="#BitstreamVeraSans-Roman-6e"/>
       <use x="291.833984375" xlink:href="#BitstreamVeraSans-Roman-67"/>
       <use x="355.310546875" xlink:href="#BitstreamVeraSans-Roman-20"/>
       <use x="387.09765625" xlink:href="#BitstreamVeraSans-Roman-61"/>
       <use x="448.376953125" xlink:href="#BitstreamVeraSans-Roman-63"/>
       <use x="503.357421875" xlink:href="#BitstreamVeraSans-Roman-63"/>
       <use x="558.337890625" xlink:href="#BitstreamVeraSans-Roman-65"/>
       <use x="619.861328125" xlink:href="#BitstreamVeraSans-Roman-73"/>
       <use x="671.9609375" xlink:href="#BitstreamVeraSans-Roman-73"/>
      </g>
     </g>
    </g>
    <g id="xtick_10">
     <g id="line2d_28">
      <path clip-path="url(#p15cc67d55f)" d="M 780.413125 583.877187 
L 780.413125 25.877187 
" style="fill:none;stroke:#ffffff;stroke-linecap:square;stroke-width:0.5;"/>
     </g>
     <g id="line2d_29">
      <g>
       <use style="fill:#555555;stroke:#555555;stroke-width:0.5;" x="780.413125" xlink:href="#m068ce7ec69" y="583.8771875"/>
      </g>
     </g>
     <g id="line2d_30">
      <g>
       <use style="fill:#555555;stroke:#555555;stroke-width:0.5;" x="780.413125" xlink:href="#md40862a759" y="25.8771875"/>
      </g>
     </g>
     <g id="text_10">
      <!-- Port Develop. -->
      <g style="fill:#555555;" transform="translate(785.38 713.74)rotate(-90.0)scale(0.18 -0.18)">
       <use xlink:href="#BitstreamVeraSans-Roman-50"/>
       <use x="60.255859375" xlink:href="#BitstreamVeraSans-Roman-6f"/>
       <use x="121.4375" xlink:href="#BitstreamVeraSans-Roman-72"/>
       <use x="162.55078125" xlink:href="#BitstreamVeraSans-Roman-74"/>
       <use x="201.759765625" xlink:href="#BitstreamVeraSans-Roman-20"/>
       <use x="233.546875" xlink:href="#BitstreamVeraSans-Roman-44"/>
       <use x="310.548828125" xlink:href="#BitstreamVeraSans-Roman-65"/>
       <use x="372.072265625" xlink:href="#BitstreamVeraSans-Roman-76"/>
       <use x="431.251953125" xlink:href="#BitstreamVeraSans-Roman-65"/>
       <use x="492.775390625" xlink:href="#BitstreamVeraSans-Roman-6c"/>
       <use x="520.55859375" xlink:href="#BitstreamVeraSans-Roman-6f"/>
       <use x="581.740234375" xlink:href="#BitstreamVeraSans-Roman-70"/>
       <use x="645.216796875" xlink:href="#BitstreamVeraSans-Roman-2e"/>
      </g>
     </g>
    </g>
    <g id="xtick_11">
     <g id="line2d_31">
      <path clip-path="url(#p15cc67d55f)" d="M 850.163125 583.877187 
L 850.163125 25.877187 
" style="fill:none;stroke:#ffffff;stroke-linecap:square;stroke-width:0.5;"/>
     </g>
     <g id="line2d_32">
      <g>
       <use style="fill:#555555;stroke:#555555;stroke-width:0.5;" x="850.163125" xlink:href="#m068ce7ec69" y="583.8771875"/>
      </g>
     </g>
     <g id="line2d_33">
      <g>
       <use style="fill:#555555;stroke:#555555;stroke-width:0.5;" x="850.163125" xlink:href="#md40862a759" y="25.8771875"/>
      </g>
     </g>
     <g id="text_11">
      <!-- Market and storage -->
      <defs>
       <path d="M 45.40625 46.390625 
L 45.40625 75.984375 
L 54.390625 75.984375 
L 54.390625 0 
L 45.40625 0 
L 45.40625 8.203125 
Q 42.578125 3.328125 38.25 0.953125 
Q 33.9375 -1.421875 27.875 -1.421875 
Q 17.96875 -1.421875 11.734375 6.484375 
Q 5.515625 14.40625 5.515625 27.296875 
Q 5.515625 40.1875 11.734375 48.09375 
Q 17.96875 56 27.875 56 
Q 33.9375 56 38.25 53.625 
Q 42.578125 51.265625 45.40625 46.390625 
M 14.796875 27.296875 
Q 14.796875 17.390625 18.875 11.75 
Q 22.953125 6.109375 30.078125 6.109375 
Q 37.203125 6.109375 41.296875 11.75 
Q 45.40625 17.390625 45.40625 27.296875 
Q 45.40625 37.203125 41.296875 42.84375 
Q 37.203125 48.484375 30.078125 48.484375 
Q 22.953125 48.484375 18.875 42.84375 
Q 14.796875 37.203125 14.796875 27.296875 
" id="BitstreamVeraSans-Roman-64"/>
      </defs>
      <g style="fill:#555555;" transform="translate(855.13 768.071875)rotate(-90.0)scale(0.18 -0.18)">
       <use xlink:href="#BitstreamVeraSans-Roman-4d"/>
       <use x="86.279296875" xlink:href="#BitstreamVeraSans-Roman-61"/>
       <use x="147.55859375" xlink:href="#BitstreamVeraSans-Roman-72"/>
       <use x="188.671875" xlink:href="#BitstreamVeraSans-Roman-6b"/>
       <use x="246.53515625" xlink:href="#BitstreamVeraSans-Roman-65"/>
       <use x="308.05859375" xlink:href="#BitstreamVeraSans-Roman-74"/>
       <use x="347.267578125" xlink:href="#BitstreamVeraSans-Roman-20"/>
       <use x="379.0546875" xlink:href="#BitstreamVeraSans-Roman-61"/>
       <use x="440.333984375" xlink:href="#BitstreamVeraSans-Roman-6e"/>
       <use x="503.712890625" xlink:href="#BitstreamVeraSans-Roman-64"/>
       <use x="567.189453125" xlink:href="#BitstreamVeraSans-Roman-20"/>
       <use x="598.9765625" xlink:href="#BitstreamVeraSans-Roman-73"/>
       <use x="651.076171875" xlink:href="#BitstreamVeraSans-Roman-74"/>
       <use x="690.28515625" xlink:href="#BitstreamVeraSans-Roman-6f"/>
       <use x="751.466796875" xlink:href="#BitstreamVeraSans-Roman-72"/>
       <use x="792.580078125" xlink:href="#BitstreamVeraSans-Roman-61"/>
       <use x="853.859375" xlink:href="#BitstreamVeraSans-Roman-67"/>
       <use x="917.3359375" xlink:href="#BitstreamVeraSans-Roman-65"/>
      </g>
     </g>
    </g>
    <g id="xtick_12">
     <g id="line2d_34">
      <path clip-path="url(#p15cc67d55f)" d="M 919.913125 583.877187 
L 919.913125 25.877187 
" style="fill:none;stroke:#ffffff;stroke-linecap:square;stroke-width:0.5;"/>
     </g>
     <g id="line2d_35">
      <g>
       <use style="fill:#555555;stroke:#555555;stroke-width:0.5;" x="919.913125" xlink:href="#m068ce7ec69" y="583.8771875"/>
      </g>
     </g>
     <g id="line2d_36">
      <g>
       <use style="fill:#555555;stroke:#555555;stroke-width:0.5;" x="919.913125" xlink:href="#md40862a759" y="25.8771875"/>
      </g>
     </g>
     <g id="text_12">
      <!-- Tax exemption -->
      <defs>
       <path d="M -0.296875 72.90625 
L 61.375 72.90625 
L 61.375 64.59375 
L 35.5 64.59375 
L 35.5 0 
L 25.59375 0 
L 25.59375 64.59375 
L -0.296875 64.59375 
z
" id="BitstreamVeraSans-Roman-54"/>
       <path d="M 54.890625 54.6875 
L 35.109375 28.078125 
L 55.90625 0 
L 45.3125 0 
L 29.390625 21.484375 
L 13.484375 0 
L 2.875 0 
L 24.125 28.609375 
L 4.6875 54.6875 
L 15.28125 54.6875 
L 29.78125 35.203125 
L 44.28125 54.6875 
z
" id="BitstreamVeraSans-Roman-78"/>
      </defs>
      <g style="fill:#555555;" transform="translate(924.88 726.46375)rotate(-90.0)scale(0.18 -0.18)">
       <use xlink:href="#BitstreamVeraSans-Roman-54"/>
       <use x="60.833984375" xlink:href="#BitstreamVeraSans-Roman-61"/>
       <use x="122.11328125" xlink:href="#BitstreamVeraSans-Roman-78"/>
       <use x="181.29296875" xlink:href="#BitstreamVeraSans-Roman-20"/>
       <use x="213.080078125" xlink:href="#BitstreamVeraSans-Roman-65"/>
       <use x="274.587890625" xlink:href="#BitstreamVeraSans-Roman-78"/>
       <use x="333.720703125" xlink:href="#BitstreamVeraSans-Roman-65"/>
       <use x="395.244140625" xlink:href="#BitstreamVeraSans-Roman-6d"/>
       <use x="492.65625" xlink:href="#BitstreamVeraSans-Roman-70"/>
       <use x="556.1328125" xlink:href="#BitstreamVeraSans-Roman-74"/>
       <use x="595.341796875" xlink:href="#BitstreamVeraSans-Roman-69"/>
       <use x="623.125" xlink:href="#BitstreamVeraSans-Roman-6f"/>
       <use x="684.306640625" xlink:href="#BitstreamVeraSans-Roman-6e"/>
      </g>
     </g>
    </g>
    <g id="text_13">
     <!-- Ambiguous                   Beneficial                               Capacity-enhancing           -->
     <defs>
      <path d="M 37.109375 75.984375 
L 37.109375 68.5 
L 28.515625 68.5 
Q 23.6875 68.5 21.796875 66.546875 
Q 19.921875 64.59375 19.921875 59.515625 
L 19.921875 54.6875 
L 34.71875 54.6875 
L 34.71875 47.703125 
L 19.921875 47.703125 
L 19.921875 0 
L 10.890625 0 
L 10.890625 47.703125 
L 2.296875 47.703125 
L 2.296875 54.6875 
L 10.890625 54.6875 
L 10.890625 58.5 
Q 10.890625 67.625 15.140625 71.796875 
Q 19.390625 75.984375 28.609375 75.984375 
z
" id="BitstreamVeraSans-Roman-66"/>
      <path d="M 64.40625 67.28125 
L 64.40625 56.890625 
Q 59.421875 61.53125 53.78125 63.8125 
Q 48.140625 66.109375 41.796875 66.109375 
Q 29.296875 66.109375 22.65625 58.46875 
Q 16.015625 50.828125 16.015625 36.375 
Q 16.015625 21.96875 22.65625 14.328125 
Q 29.296875 6.6875 41.796875 6.6875 
Q 48.140625 6.6875 53.78125 8.984375 
Q 59.421875 11.28125 64.40625 15.921875 
L 64.40625 5.609375 
Q 59.234375 2.09375 53.4375 0.328125 
Q 47.65625 -1.421875 41.21875 -1.421875 
Q 24.65625 -1.421875 15.125 8.703125 
Q 5.609375 18.84375 5.609375 36.375 
Q 5.609375 53.953125 15.125 64.078125 
Q 24.65625 74.21875 41.21875 74.21875 
Q 47.75 74.21875 53.53125 72.484375 
Q 59.328125 70.75 64.40625 67.28125 
" id="BitstreamVeraSans-Roman-43"/>
      <path d="M 4.890625 31.390625 
L 31.203125 31.390625 
L 31.203125 23.390625 
L 4.890625 23.390625 
z
" id="BitstreamVeraSans-Roman-2d"/>
     </defs>
     <g style="fill:#555555;" transform="translate(180.51953125 786.7490625)scale(0.18 -0.18)">
      <use xlink:href="#BitstreamVeraSans-Roman-41"/>
      <use x="68.408203125" xlink:href="#BitstreamVeraSans-Roman-6d"/>
      <use x="165.8203125" xlink:href="#BitstreamVeraSans-Roman-62"/>
      <use x="229.296875" xlink:href="#BitstreamVeraSans-Roman-69"/>
      <use x="257.080078125" xlink:href="#BitstreamVeraSans-Roman-67"/>
      <use x="320.556640625" xlink:href="#BitstreamVeraSans-Roman-75"/>
      <use x="383.935546875" xlink:href="#BitstreamVeraSans-Roman-6f"/>
      <use x="445.1171875" xlink:href="#BitstreamVeraSans-Roman-75"/>
      <use x="508.49609375" xlink:href="#BitstreamVeraSans-Roman-73"/>
      <use x="560.595703125" xlink:href="#BitstreamVeraSans-Roman-20"/>
      <use x="592.3828125" xlink:href="#BitstreamVeraSans-Roman-20"/>
      <use x="624.169921875" xlink:href="#BitstreamVeraSans-Roman-20"/>
      <use x="655.95703125" xlink:href="#BitstreamVeraSans-Roman-20"/>
      <use x="687.744140625" xlink:href="#BitstreamVeraSans-Roman-20"/>
      <use x="719.53125" xlink:href="#BitstreamVeraSans-Roman-20"/>
      <use x="751.318359375" xlink:href="#BitstreamVeraSans-Roman-20"/>
      <use x="783.10546875" xlink:href="#BitstreamVeraSans-Roman-20"/>
      <use x="814.892578125" xlink:href="#BitstreamVeraSans-Roman-20"/>
      <use x="846.6796875" xlink:href="#BitstreamVeraSans-Roman-20"/>
      <use x="878.466796875" xlink:href="#BitstreamVeraSans-Roman-20"/>
      <use x="910.25390625" xlink:href="#BitstreamVeraSans-Roman-20"/>
      <use x="942.041015625" xlink:href="#BitstreamVeraSans-Roman-20"/>
      <use x="973.828125" xlink:href="#BitstreamVeraSans-Roman-20"/>
      <use x="1005.61523438" xlink:href="#BitstreamVeraSans-Roman-20"/>
      <use x="1037.40234375" xlink:href="#BitstreamVeraSans-Roman-20"/>
      <use x="1069.18945312" xlink:href="#BitstreamVeraSans-Roman-20"/>
      <use x="1100.9765625" xlink:href="#BitstreamVeraSans-Roman-20"/>
      <use x="1132.76367188" xlink:href="#BitstreamVeraSans-Roman-20"/>
      <use x="1164.55078125" xlink:href="#BitstreamVeraSans-Roman-42"/>
      <use x="1233.15429688" xlink:href="#BitstreamVeraSans-Roman-65"/>
      <use x="1294.67773438" xlink:href="#BitstreamVeraSans-Roman-6e"/>
      <use x="1358.05664062" xlink:href="#BitstreamVeraSans-Roman-65"/>
      <use x="1419.58007812" xlink:href="#BitstreamVeraSans-Roman-66"/>
      <use x="1454.78515625" xlink:href="#BitstreamVeraSans-Roman-69"/>
      <use x="1482.56835938" xlink:href="#BitstreamVeraSans-Roman-63"/>
      <use x="1537.54882812" xlink:href="#BitstreamVeraSans-Roman-69"/>
      <use x="1565.33203125" xlink:href="#BitstreamVeraSans-Roman-61"/>
      <use x="1626.61132812" xlink:href="#BitstreamVeraSans-Roman-6c"/>
      <use x="1654.39453125" xlink:href="#BitstreamVeraSans-Roman-20"/>
      <use x="1686.18164062" xlink:href="#BitstreamVeraSans-Roman-20"/>
      <use x="1717.96875" xlink:href="#BitstreamVeraSans-Roman-20"/>
      <use x="1749.75585938" xlink:href="#BitstreamVeraSans-Roman-20"/>
      <use x="1781.54296875" xlink:href="#BitstreamVeraSans-Roman-20"/>
      <use x="1813.33007812" xlink:href="#BitstreamVeraSans-Roman-20"/>
      <use x="1845.1171875" xlink:href="#BitstreamVeraSans-Roman-20"/>
      <use x="1876.90429688" xlink:href="#BitstreamVeraSans-Roman-20"/>
      <use x="1908.69140625" xlink:href="#BitstreamVeraSans-Roman-20"/>
      <use x="1940.47851562" xlink:href="#BitstreamVeraSans-Roman-20"/>
      <use x="1972.265625" xlink:href="#BitstreamVeraSans-Roman-20"/>
      <use x="2004.05273438" xlink:href="#BitstreamVeraSans-Roman-20"/>
      <use x="2035.83984375" xlink:href="#BitstreamVeraSans-Roman-20"/>
      <use x="2067.62695312" xlink:href="#BitstreamVeraSans-Roman-20"/>
      <use x="2099.4140625" xlink:href="#BitstreamVeraSans-Roman-20"/>
      <use x="2131.20117188" xlink:href="#BitstreamVeraSans-Roman-20"/>
      <use x="2162.98828125" xlink:href="#BitstreamVeraSans-Roman-20"/>
      <use x="2194.77539062" xlink:href="#BitstreamVeraSans-Roman-20"/>
      <use x="2226.5625" xlink:href="#BitstreamVeraSans-Roman-20"/>
      <use x="2258.34960938" xlink:href="#BitstreamVeraSans-Roman-20"/>
      <use x="2290.13671875" xlink:href="#BitstreamVeraSans-Roman-20"/>
      <use x="2321.92382812" xlink:href="#BitstreamVeraSans-Roman-20"/>
      <use x="2353.7109375" xlink:href="#BitstreamVeraSans-Roman-20"/>
      <use x="2385.49804688" xlink:href="#BitstreamVeraSans-Roman-20"/>
      <use x="2417.28515625" xlink:href="#BitstreamVeraSans-Roman-20"/>
      <use x="2449.07226562" xlink:href="#BitstreamVeraSans-Roman-20"/>
      <use x="2480.859375" xlink:href="#BitstreamVeraSans-Roman-20"/>
      <use x="2512.64648438" xlink:href="#BitstreamVeraSans-Roman-20"/>
      <use x="2544.43359375" xlink:href="#BitstreamVeraSans-Roman-20"/>
      <use x="2576.22070312" xlink:href="#BitstreamVeraSans-Roman-20"/>
      <use x="2608.0078125" xlink:href="#BitstreamVeraSans-Roman-20"/>
      <use x="2639.79492188" xlink:href="#BitstreamVeraSans-Roman-43"/>
      <use x="2709.61914062" xlink:href="#BitstreamVeraSans-Roman-61"/>
      <use x="2770.8984375" xlink:href="#BitstreamVeraSans-Roman-70"/>
      <use x="2834.375" xlink:href="#BitstreamVeraSans-Roman-61"/>
      <use x="2895.65429688" xlink:href="#BitstreamVeraSans-Roman-63"/>
      <use x="2950.63476562" xlink:href="#BitstreamVeraSans-Roman-69"/>
      <use x="2978.41796875" xlink:href="#BitstreamVeraSans-Roman-74"/>
      <use x="3017.62695312" xlink:href="#BitstreamVeraSans-Roman-79"/>
      <use x="3076.79101562" xlink:href="#BitstreamVeraSans-Roman-2d"/>
      <use x="3112.875" xlink:href="#BitstreamVeraSans-Roman-65"/>
      <use x="3174.3984375" xlink:href="#BitstreamVeraSans-Roman-6e"/>
      <use x="3237.77734375" xlink:href="#BitstreamVeraSans-Roman-68"/>
      <use x="3301.15625" xlink:href="#BitstreamVeraSans-Roman-61"/>
      <use x="3362.43554688" xlink:href="#BitstreamVeraSans-Roman-6e"/>
      <use x="3425.81445312" xlink:href="#BitstreamVeraSans-Roman-63"/>
      <use x="3480.79492188" xlink:href="#BitstreamVeraSans-Roman-69"/>
      <use x="3508.578125" xlink:href="#BitstreamVeraSans-Roman-6e"/>
      <use x="3571.95703125" xlink:href="#BitstreamVeraSans-Roman-67"/>
      <use x="3635.43359375" xlink:href="#BitstreamVeraSans-Roman-20"/>
      <use x="3667.22070312" xlink:href="#BitstreamVeraSans-Roman-20"/>
      <use x="3699.0078125" xlink:href="#BitstreamVeraSans-Roman-20"/>
      <use x="3730.79492188" xlink:href="#BitstreamVeraSans-Roman-20"/>
      <use x="3762.58203125" xlink:href="#BitstreamVeraSans-Roman-20"/>
      <use x="3794.36914062" xlink:href="#BitstreamVeraSans-Roman-20"/>
      <use x="3826.15625" xlink:href="#BitstreamVeraSans-Roman-20"/>
      <use x="3857.94335938" xlink:href="#BitstreamVeraSans-Roman-20"/>
      <use x="3889.73046875" xlink:href="#BitstreamVeraSans-Roman-20"/>
      <use x="3921.51757812" xlink:href="#BitstreamVeraSans-Roman-20"/>
     </g>
    </g>
   </g>
   <g id="matplotlib.axis_2">
    <g id="ytick_1">
     <g id="line2d_37">
      <path clip-path="url(#p15cc67d55f)" d="M 117.788125 583.877187 
L 954.788125 583.877187 
" style="fill:none;stroke:#ffffff;stroke-linecap:square;stroke-width:0.5;"/>
     </g>
     <g id="line2d_38">
      <defs>
       <path d="M 0 0 
L -4 0 
" id="m99816d3a03" style="stroke:#555555;stroke-width:0.5;"/>
      </defs>
      <g>
       <use style="fill:#555555;stroke:#555555;stroke-width:0.5;" x="117.788125" xlink:href="#m99816d3a03" y="583.8771875"/>
      </g>
     </g>
     <g id="line2d_39">
      <defs>
       <path d="M 0 0 
L 4 0 
" id="m40043ead09" style="stroke:#555555;stroke-width:0.5;"/>
      </defs>
      <g>
       <use style="fill:#555555;stroke:#555555;stroke-width:0.5;" x="954.788125" xlink:href="#m40043ead09" y="583.8771875"/>
      </g>
     </g>
     <g id="text_14">
      <!-- 0 -->
      <defs>
       <path d="M 31.78125 66.40625 
Q 24.171875 66.40625 20.328125 58.90625 
Q 16.5 51.421875 16.5 36.375 
Q 16.5 21.390625 20.328125 13.890625 
Q 24.171875 6.390625 31.78125 6.390625 
Q 39.453125 6.390625 43.28125 13.890625 
Q 47.125 21.390625 47.125 36.375 
Q 47.125 51.421875 43.28125 58.90625 
Q 39.453125 66.40625 31.78125 66.40625 
M 31.78125 74.21875 
Q 44.046875 74.21875 50.515625 64.515625 
Q 56.984375 54.828125 56.984375 36.375 
Q 56.984375 17.96875 50.515625 8.265625 
Q 44.046875 -1.421875 31.78125 -1.421875 
Q 19.53125 -1.421875 13.0625 8.265625 
Q 6.59375 17.96875 6.59375 36.375 
Q 6.59375 54.828125 13.0625 64.515625 
Q 19.53125 74.21875 31.78125 74.21875 
" id="BitstreamVeraSans-Roman-30"/>
      </defs>
      <g style="fill:#555555;" transform="translate(98.335625 588.8440625)scale(0.18 -0.18)">
       <use xlink:href="#BitstreamVeraSans-Roman-30"/>
      </g>
     </g>
    </g>
    <g id="ytick_2">
     <g id="line2d_40">
      <path clip-path="url(#p15cc67d55f)" d="M 117.788125 514.127187 
L 954.788125 514.127187 
" style="fill:none;stroke:#ffffff;stroke-linecap:square;stroke-width:0.5;"/>
     </g>
     <g id="line2d_41">
      <g>
       <use style="fill:#555555;stroke:#555555;stroke-width:0.5;" x="117.788125" xlink:href="#m99816d3a03" y="514.1271875"/>
      </g>
     </g>
     <g id="line2d_42">
      <g>
       <use style="fill:#555555;stroke:#555555;stroke-width:0.5;" x="954.788125" xlink:href="#m40043ead09" y="514.1271875"/>
      </g>
     </g>
     <g id="text_15">
      <!-- 1000000 -->
      <defs>
       <path d="M 12.40625 8.296875 
L 28.515625 8.296875 
L 28.515625 63.921875 
L 10.984375 60.40625 
L 10.984375 69.390625 
L 28.421875 72.90625 
L 38.28125 72.90625 
L 38.28125 8.296875 
L 54.390625 8.296875 
L 54.390625 0 
L 12.40625 0 
z
" id="BitstreamVeraSans-Roman-31"/>
      </defs>
      <g style="fill:#555555;" transform="translate(29.620625 519.0940625)scale(0.18 -0.18)">
       <use xlink:href="#BitstreamVeraSans-Roman-31"/>
       <use x="63.623046875" xlink:href="#BitstreamVeraSans-Roman-30"/>
       <use x="127.24609375" xlink:href="#BitstreamVeraSans-Roman-30"/>
       <use x="190.869140625" xlink:href="#BitstreamVeraSans-Roman-30"/>
       <use x="254.4921875" xlink:href="#BitstreamVeraSans-Roman-30"/>
       <use x="318.115234375" xlink:href="#BitstreamVeraSans-Roman-30"/>
       <use x="381.73828125" xlink:href="#BitstreamVeraSans-Roman-30"/>
      </g>
     </g>
    </g>
    <g id="ytick_3">
     <g id="line2d_43">
      <path clip-path="url(#p15cc67d55f)" d="M 117.788125 444.377187 
L 954.788125 444.377187 
" style="fill:none;stroke:#ffffff;stroke-linecap:square;stroke-width:0.5;"/>
     </g>
     <g id="line2d_44">
      <g>
       <use style="fill:#555555;stroke:#555555;stroke-width:0.5;" x="117.788125" xlink:href="#m99816d3a03" y="444.3771875"/>
      </g>
     </g>
     <g id="line2d_45">
      <g>
       <use style="fill:#555555;stroke:#555555;stroke-width:0.5;" x="954.788125" xlink:href="#m40043ead09" y="444.3771875"/>
      </g>
     </g>
     <g id="text_16">
      <!-- 2000000 -->
      <defs>
       <path d="M 19.1875 8.296875 
L 53.609375 8.296875 
L 53.609375 0 
L 7.328125 0 
L 7.328125 8.296875 
Q 12.9375 14.109375 22.625 23.890625 
Q 32.328125 33.6875 34.8125 36.53125 
Q 39.546875 41.84375 41.421875 45.53125 
Q 43.3125 49.21875 43.3125 52.78125 
Q 43.3125 58.59375 39.234375 62.25 
Q 35.15625 65.921875 28.609375 65.921875 
Q 23.96875 65.921875 18.8125 64.3125 
Q 13.671875 62.703125 7.8125 59.421875 
L 7.8125 69.390625 
Q 13.765625 71.78125 18.9375 73 
Q 24.125 74.21875 28.421875 74.21875 
Q 39.75 74.21875 46.484375 68.546875 
Q 53.21875 62.890625 53.21875 53.421875 
Q 53.21875 48.921875 51.53125 44.890625 
Q 49.859375 40.875 45.40625 35.40625 
Q 44.1875 33.984375 37.640625 27.21875 
Q 31.109375 20.453125 19.1875 8.296875 
" id="BitstreamVeraSans-Roman-32"/>
      </defs>
      <g style="fill:#555555;" transform="translate(29.620625 449.3440625)scale(0.18 -0.18)">
       <use xlink:href="#BitstreamVeraSans-Roman-32"/>
       <use x="63.623046875" xlink:href="#BitstreamVeraSans-Roman-30"/>
       <use x="127.24609375" xlink:href="#BitstreamVeraSans-Roman-30"/>
       <use x="190.869140625" xlink:href="#BitstreamVeraSans-Roman-30"/>
       <use x="254.4921875" xlink:href="#BitstreamVeraSans-Roman-30"/>
       <use x="318.115234375" xlink:href="#BitstreamVeraSans-Roman-30"/>
       <use x="381.73828125" xlink:href="#BitstreamVeraSans-Roman-30"/>
      </g>
     </g>
    </g>
    <g id="ytick_4">
     <g id="line2d_46">
      <path clip-path="url(#p15cc67d55f)" d="M 117.788125 374.627187 
L 954.788125 374.627187 
" style="fill:none;stroke:#ffffff;stroke-linecap:square;stroke-width:0.5;"/>
     </g>
     <g id="line2d_47">
      <g>
       <use style="fill:#555555;stroke:#555555;stroke-width:0.5;" x="117.788125" xlink:href="#m99816d3a03" y="374.6271875"/>
      </g>
     </g>
     <g id="line2d_48">
      <g>
       <use style="fill:#555555;stroke:#555555;stroke-width:0.5;" x="954.788125" xlink:href="#m40043ead09" y="374.6271875"/>
      </g>
     </g>
     <g id="text_17">
      <!-- 3000000 -->
      <defs>
       <path d="M 40.578125 39.3125 
Q 47.65625 37.796875 51.625 33 
Q 55.609375 28.21875 55.609375 21.1875 
Q 55.609375 10.40625 48.1875 4.484375 
Q 40.765625 -1.421875 27.09375 -1.421875 
Q 22.515625 -1.421875 17.65625 -0.515625 
Q 12.796875 0.390625 7.625 2.203125 
L 7.625 11.71875 
Q 11.71875 9.328125 16.59375 8.109375 
Q 21.484375 6.890625 26.8125 6.890625 
Q 36.078125 6.890625 40.9375 10.546875 
Q 45.796875 14.203125 45.796875 21.1875 
Q 45.796875 27.640625 41.28125 31.265625 
Q 36.765625 34.90625 28.71875 34.90625 
L 20.21875 34.90625 
L 20.21875 43.015625 
L 29.109375 43.015625 
Q 36.375 43.015625 40.234375 45.921875 
Q 44.09375 48.828125 44.09375 54.296875 
Q 44.09375 59.90625 40.109375 62.90625 
Q 36.140625 65.921875 28.71875 65.921875 
Q 24.65625 65.921875 20.015625 65.03125 
Q 15.375 64.15625 9.8125 62.3125 
L 9.8125 71.09375 
Q 15.4375 72.65625 20.34375 73.4375 
Q 25.25 74.21875 29.59375 74.21875 
Q 40.828125 74.21875 47.359375 69.109375 
Q 53.90625 64.015625 53.90625 55.328125 
Q 53.90625 49.265625 50.4375 45.09375 
Q 46.96875 40.921875 40.578125 39.3125 
" id="BitstreamVeraSans-Roman-33"/>
      </defs>
      <g style="fill:#555555;" transform="translate(29.620625 379.5940625)scale(0.18 -0.18)">
       <use xlink:href="#BitstreamVeraSans-Roman-33"/>
       <use x="63.623046875" xlink:href="#BitstreamVeraSans-Roman-30"/>
       <use x="127.24609375" xlink:href="#BitstreamVeraSans-Roman-30"/>
       <use x="190.869140625" xlink:href="#BitstreamVeraSans-Roman-30"/>
       <use x="254.4921875" xlink:href="#BitstreamVeraSans-Roman-30"/>
       <use x="318.115234375" xlink:href="#BitstreamVeraSans-Roman-30"/>
       <use x="381.73828125" xlink:href="#BitstreamVeraSans-Roman-30"/>
      </g>
     </g>
    </g>
    <g id="ytick_5">
     <g id="line2d_49">
      <path clip-path="url(#p15cc67d55f)" d="M 117.788125 304.877187 
L 954.788125 304.877187 
" style="fill:none;stroke:#ffffff;stroke-linecap:square;stroke-width:0.5;"/>
     </g>
     <g id="line2d_50">
      <g>
       <use style="fill:#555555;stroke:#555555;stroke-width:0.5;" x="117.788125" xlink:href="#m99816d3a03" y="304.8771875"/>
      </g>
     </g>
     <g id="line2d_51">
      <g>
       <use style="fill:#555555;stroke:#555555;stroke-width:0.5;" x="954.788125" xlink:href="#m40043ead09" y="304.8771875"/>
      </g>
     </g>
     <g id="text_18">
      <!-- 4000000 -->
      <defs>
       <path d="M 37.796875 64.3125 
L 12.890625 25.390625 
L 37.796875 25.390625 
z
M 35.203125 72.90625 
L 47.609375 72.90625 
L 47.609375 25.390625 
L 58.015625 25.390625 
L 58.015625 17.1875 
L 47.609375 17.1875 
L 47.609375 0 
L 37.796875 0 
L 37.796875 17.1875 
L 4.890625 17.1875 
L 4.890625 26.703125 
z
" id="BitstreamVeraSans-Roman-34"/>
      </defs>
      <g style="fill:#555555;" transform="translate(29.620625 309.8440625)scale(0.18 -0.18)">
       <use xlink:href="#BitstreamVeraSans-Roman-34"/>
       <use x="63.623046875" xlink:href="#BitstreamVeraSans-Roman-30"/>
       <use x="127.24609375" xlink:href="#BitstreamVeraSans-Roman-30"/>
       <use x="190.869140625" xlink:href="#BitstreamVeraSans-Roman-30"/>
       <use x="254.4921875" xlink:href="#BitstreamVeraSans-Roman-30"/>
       <use x="318.115234375" xlink:href="#BitstreamVeraSans-Roman-30"/>
       <use x="381.73828125" xlink:href="#BitstreamVeraSans-Roman-30"/>
      </g>
     </g>
    </g>
    <g id="ytick_6">
     <g id="line2d_52">
      <path clip-path="url(#p15cc67d55f)" d="M 117.788125 235.127187 
L 954.788125 235.127187 
" style="fill:none;stroke:#ffffff;stroke-linecap:square;stroke-width:0.5;"/>
     </g>
     <g id="line2d_53">
      <g>
       <use style="fill:#555555;stroke:#555555;stroke-width:0.5;" x="117.788125" xlink:href="#m99816d3a03" y="235.1271875"/>
      </g>
     </g>
     <g id="line2d_54">
      <g>
       <use style="fill:#555555;stroke:#555555;stroke-width:0.5;" x="954.788125" xlink:href="#m40043ead09" y="235.1271875"/>
      </g>
     </g>
     <g id="text_19">
      <!-- 5000000 -->
      <defs>
       <path d="M 10.796875 72.90625 
L 49.515625 72.90625 
L 49.515625 64.59375 
L 19.828125 64.59375 
L 19.828125 46.734375 
Q 21.96875 47.46875 24.109375 47.828125 
Q 26.265625 48.1875 28.421875 48.1875 
Q 40.625 48.1875 47.75 41.5 
Q 54.890625 34.8125 54.890625 23.390625 
Q 54.890625 11.625 47.5625 5.09375 
Q 40.234375 -1.421875 26.90625 -1.421875 
Q 22.3125 -1.421875 17.546875 -0.640625 
Q 12.796875 0.140625 7.71875 1.703125 
L 7.71875 11.625 
Q 12.109375 9.234375 16.796875 8.0625 
Q 21.484375 6.890625 26.703125 6.890625 
Q 35.15625 6.890625 40.078125 11.328125 
Q 45.015625 15.765625 45.015625 23.390625 
Q 45.015625 31 40.078125 35.4375 
Q 35.15625 39.890625 26.703125 39.890625 
Q 22.75 39.890625 18.8125 39.015625 
Q 14.890625 38.140625 10.796875 36.28125 
z
" id="BitstreamVeraSans-Roman-35"/>
      </defs>
      <g style="fill:#555555;" transform="translate(29.620625 240.0940625)scale(0.18 -0.18)">
       <use xlink:href="#BitstreamVeraSans-Roman-35"/>
       <use x="63.623046875" xlink:href="#BitstreamVeraSans-Roman-30"/>
       <use x="127.24609375" xlink:href="#BitstreamVeraSans-Roman-30"/>
       <use x="190.869140625" xlink:href="#BitstreamVeraSans-Roman-30"/>
       <use x="254.4921875" xlink:href="#BitstreamVeraSans-Roman-30"/>
       <use x="318.115234375" xlink:href="#BitstreamVeraSans-Roman-30"/>
       <use x="381.73828125" xlink:href="#BitstreamVeraSans-Roman-30"/>
      </g>
     </g>
    </g>
    <g id="ytick_7">
     <g id="line2d_55">
      <path clip-path="url(#p15cc67d55f)" d="M 117.788125 165.377187 
L 954.788125 165.377187 
" style="fill:none;stroke:#ffffff;stroke-linecap:square;stroke-width:0.5;"/>
     </g>
     <g id="line2d_56">
      <g>
       <use style="fill:#555555;stroke:#555555;stroke-width:0.5;" x="117.788125" xlink:href="#m99816d3a03" y="165.3771875"/>
      </g>
     </g>
     <g id="line2d_57">
      <g>
       <use style="fill:#555555;stroke:#555555;stroke-width:0.5;" x="954.788125" xlink:href="#m40043ead09" y="165.3771875"/>
      </g>
     </g>
     <g id="text_20">
      <!-- 6000000 -->
      <defs>
       <path d="M 33.015625 40.375 
Q 26.375 40.375 22.484375 35.828125 
Q 18.609375 31.296875 18.609375 23.390625 
Q 18.609375 15.53125 22.484375 10.953125 
Q 26.375 6.390625 33.015625 6.390625 
Q 39.65625 6.390625 43.53125 10.953125 
Q 47.40625 15.53125 47.40625 23.390625 
Q 47.40625 31.296875 43.53125 35.828125 
Q 39.65625 40.375 33.015625 40.375 
M 52.59375 71.296875 
L 52.59375 62.3125 
Q 48.875 64.0625 45.09375 64.984375 
Q 41.3125 65.921875 37.59375 65.921875 
Q 27.828125 65.921875 22.671875 59.328125 
Q 17.53125 52.734375 16.796875 39.40625 
Q 19.671875 43.65625 24.015625 45.921875 
Q 28.375 48.1875 33.59375 48.1875 
Q 44.578125 48.1875 50.953125 41.515625 
Q 57.328125 34.859375 57.328125 23.390625 
Q 57.328125 12.15625 50.6875 5.359375 
Q 44.046875 -1.421875 33.015625 -1.421875 
Q 20.359375 -1.421875 13.671875 8.265625 
Q 6.984375 17.96875 6.984375 36.375 
Q 6.984375 53.65625 15.1875 63.9375 
Q 23.390625 74.21875 37.203125 74.21875 
Q 40.921875 74.21875 44.703125 73.484375 
Q 48.484375 72.75 52.59375 71.296875 
" id="BitstreamVeraSans-Roman-36"/>
      </defs>
      <g style="fill:#555555;" transform="translate(29.620625 170.3440625)scale(0.18 -0.18)">
       <use xlink:href="#BitstreamVeraSans-Roman-36"/>
       <use x="63.623046875" xlink:href="#BitstreamVeraSans-Roman-30"/>
       <use x="127.24609375" xlink:href="#BitstreamVeraSans-Roman-30"/>
       <use x="190.869140625" xlink:href="#BitstreamVeraSans-Roman-30"/>
       <use x="254.4921875" xlink:href="#BitstreamVeraSans-Roman-30"/>
       <use x="318.115234375" xlink:href="#BitstreamVeraSans-Roman-30"/>
       <use x="381.73828125" xlink:href="#BitstreamVeraSans-Roman-30"/>
      </g>
     </g>
    </g>
    <g id="ytick_8">
     <g id="line2d_58">
      <path clip-path="url(#p15cc67d55f)" d="M 117.788125 95.627187 
L 954.788125 95.627187 
" style="fill:none;stroke:#ffffff;stroke-linecap:square;stroke-width:0.5;"/>
     </g>
     <g id="line2d_59">
      <g>
       <use style="fill:#555555;stroke:#555555;stroke-width:0.5;" x="117.788125" xlink:href="#m99816d3a03" y="95.6271875"/>
      </g>
     </g>
     <g id="line2d_60">
      <g>
       <use style="fill:#555555;stroke:#555555;stroke-width:0.5;" x="954.788125" xlink:href="#m40043ead09" y="95.6271875"/>
      </g>
     </g>
     <g id="text_21">
      <!-- 7000000 -->
      <defs>
       <path d="M 8.203125 72.90625 
L 55.078125 72.90625 
L 55.078125 68.703125 
L 28.609375 0 
L 18.3125 0 
L 43.21875 64.59375 
L 8.203125 64.59375 
z
" id="BitstreamVeraSans-Roman-37"/>
      </defs>
      <g style="fill:#555555;" transform="translate(29.620625 100.5940625)scale(0.18 -0.18)">
       <use xlink:href="#BitstreamVeraSans-Roman-37"/>
       <use x="63.623046875" xlink:href="#BitstreamVeraSans-Roman-30"/>
       <use x="127.24609375" xlink:href="#BitstreamVeraSans-Roman-30"/>
       <use x="190.869140625" xlink:href="#BitstreamVeraSans-Roman-30"/>
       <use x="254.4921875" xlink:href="#BitstreamVeraSans-Roman-30"/>
       <use x="318.115234375" xlink:href="#BitstreamVeraSans-Roman-30"/>
       <use x="381.73828125" xlink:href="#BitstreamVeraSans-Roman-30"/>
      </g>
     </g>
    </g>
    <g id="ytick_9">
     <g id="line2d_61">
      <path clip-path="url(#p15cc67d55f)" d="M 117.788125 25.877187 
L 954.788125 25.877187 
" style="fill:none;stroke:#ffffff;stroke-linecap:square;stroke-width:0.5;"/>
     </g>
     <g id="line2d_62">
      <g>
       <use style="fill:#555555;stroke:#555555;stroke-width:0.5;" x="117.788125" xlink:href="#m99816d3a03" y="25.8771875"/>
      </g>
     </g>
     <g id="line2d_63">
      <g>
       <use style="fill:#555555;stroke:#555555;stroke-width:0.5;" x="954.788125" xlink:href="#m40043ead09" y="25.8771875"/>
      </g>
     </g>
     <g id="text_22">
      <!-- 8000000 -->
      <defs>
       <path d="M 31.78125 34.625 
Q 24.75 34.625 20.71875 30.859375 
Q 16.703125 27.09375 16.703125 20.515625 
Q 16.703125 13.921875 20.71875 10.15625 
Q 24.75 6.390625 31.78125 6.390625 
Q 38.8125 6.390625 42.859375 10.171875 
Q 46.921875 13.96875 46.921875 20.515625 
Q 46.921875 27.09375 42.890625 30.859375 
Q 38.875 34.625 31.78125 34.625 
M 21.921875 38.8125 
Q 15.578125 40.375 12.03125 44.71875 
Q 8.5 49.078125 8.5 55.328125 
Q 8.5 64.0625 14.71875 69.140625 
Q 20.953125 74.21875 31.78125 74.21875 
Q 42.671875 74.21875 48.875 69.140625 
Q 55.078125 64.0625 55.078125 55.328125 
Q 55.078125 49.078125 51.53125 44.71875 
Q 48 40.375 41.703125 38.8125 
Q 48.828125 37.15625 52.796875 32.3125 
Q 56.78125 27.484375 56.78125 20.515625 
Q 56.78125 9.90625 50.3125 4.234375 
Q 43.84375 -1.421875 31.78125 -1.421875 
Q 19.734375 -1.421875 13.25 4.234375 
Q 6.78125 9.90625 6.78125 20.515625 
Q 6.78125 27.484375 10.78125 32.3125 
Q 14.796875 37.15625 21.921875 38.8125 
M 18.3125 54.390625 
Q 18.3125 48.734375 21.84375 45.5625 
Q 25.390625 42.390625 31.78125 42.390625 
Q 38.140625 42.390625 41.71875 45.5625 
Q 45.3125 48.734375 45.3125 54.390625 
Q 45.3125 60.0625 41.71875 63.234375 
Q 38.140625 66.40625 31.78125 66.40625 
Q 25.390625 66.40625 21.84375 63.234375 
Q 18.3125 60.0625 18.3125 54.390625 
" id="BitstreamVeraSans-Roman-38"/>
      </defs>
      <g style="fill:#555555;" transform="translate(29.620625 30.8440625)scale(0.18 -0.18)">
       <use xlink:href="#BitstreamVeraSans-Roman-38"/>
       <use x="63.623046875" xlink:href="#BitstreamVeraSans-Roman-30"/>
       <use x="127.24609375" xlink:href="#BitstreamVeraSans-Roman-30"/>
       <use x="190.869140625" xlink:href="#BitstreamVeraSans-Roman-30"/>
       <use x="254.4921875" xlink:href="#BitstreamVeraSans-Roman-30"/>
       <use x="318.115234375" xlink:href="#BitstreamVeraSans-Roman-30"/>
       <use x="381.73828125" xlink:href="#BitstreamVeraSans-Roman-30"/>
      </g>
     </g>
    </g>
    <g id="text_23">
     <!-- USD -->
     <defs>
      <path d="M 53.515625 70.515625 
L 53.515625 60.890625 
Q 47.90625 63.578125 42.921875 64.890625 
Q 37.9375 66.21875 33.296875 66.21875 
Q 25.25 66.21875 20.875 63.09375 
Q 16.5 59.96875 16.5 54.203125 
Q 16.5 49.359375 19.40625 46.890625 
Q 22.3125 44.4375 30.421875 42.921875 
L 36.375 41.703125 
Q 47.40625 39.59375 52.65625 34.296875 
Q 57.90625 29 57.90625 20.125 
Q 57.90625 9.515625 50.796875 4.046875 
Q 43.703125 -1.421875 29.984375 -1.421875 
Q 24.8125 -1.421875 18.96875 -0.25 
Q 13.140625 0.921875 6.890625 3.21875 
L 6.890625 13.375 
Q 12.890625 10.015625 18.65625 8.296875 
Q 24.421875 6.59375 29.984375 6.59375 
Q 38.421875 6.59375 43.015625 9.90625 
Q 47.609375 13.234375 47.609375 19.390625 
Q 47.609375 24.75 44.3125 27.78125 
Q 41.015625 30.8125 33.5 32.328125 
L 27.484375 33.5 
Q 16.453125 35.6875 11.515625 40.375 
Q 6.59375 45.0625 6.59375 53.421875 
Q 6.59375 63.09375 13.40625 68.65625 
Q 20.21875 74.21875 32.171875 74.21875 
Q 37.3125 74.21875 42.625 73.28125 
Q 47.953125 72.359375 53.515625 70.515625 
" id="BitstreamVeraSans-Roman-53"/>
      <path d="M 8.6875 72.90625 
L 18.609375 72.90625 
L 18.609375 28.609375 
Q 18.609375 16.890625 22.84375 11.734375 
Q 27.09375 6.59375 36.625 6.59375 
Q 46.09375 6.59375 50.34375 11.734375 
Q 54.59375 16.890625 54.59375 28.609375 
L 54.59375 72.90625 
L 64.5 72.90625 
L 64.5 27.390625 
Q 64.5 13.140625 57.4375 5.859375 
Q 50.390625 -1.421875 36.625 -1.421875 
Q 22.796875 -1.421875 15.734375 5.859375 
Q 8.6875 13.140625 8.6875 27.390625 
z
" id="BitstreamVeraSans-Roman-55"/>
     </defs>
     <g style="fill:#555555;" transform="translate(20.8771875 324.10765625)rotate(-90.0)scale(0.18 -0.18)">
      <use xlink:href="#BitstreamVeraSans-Roman-55"/>
      <use x="73.193359375" xlink:href="#BitstreamVeraSans-Roman-53"/>
      <use x="136.669921875" xlink:href="#BitstreamVeraSans-Roman-44"/>
     </g>
    </g>
   </g>
   <g id="patch_3">
    <path clip-path="url(#p15cc67d55f)" d="M 135.225625 583.877187 
L 170.100625 583.877187 
L 170.100625 481.9043 
L 135.225625 481.9043 
z
" style="fill:#0000ff;stroke:#eeeeee;stroke-linejoin:miter;stroke-width:0.5;"/>
   </g>
   <g id="patch_4">
    <path clip-path="url(#p15cc67d55f)" d="M 204.975625 583.877187 
L 239.850625 583.877187 
L 239.850625 582.539927 
L 204.975625 582.539927 
z
" style="fill:#0000ff;stroke:#eeeeee;stroke-linejoin:miter;stroke-width:0.5;"/>
   </g>
   <g id="patch_5">
    <path clip-path="url(#p15cc67d55f)" d="M 274.725625 583.877187 
L 309.600625 583.877187 
L 309.600625 439.184227 
L 274.725625 439.184227 
z
" style="fill:#0000ff;stroke:#eeeeee;stroke-linejoin:miter;stroke-width:0.5;"/>
   </g>
   <g id="patch_6">
    <path clip-path="url(#p15cc67d55f)" d="M 344.475625 583.877187 
L 379.350625 583.877187 
L 379.350625 214.825307 
L 344.475625 214.825307 
z
" style="fill:#0000ff;stroke:#eeeeee;stroke-linejoin:miter;stroke-width:0.5;"/>
   </g>
   <g id="patch_7">
    <path clip-path="url(#p15cc67d55f)" d="M 414.225625 583.877187 
L 449.100625 583.877187 
L 449.100625 436.683674 
L 414.225625 436.683674 
z
" style="fill:#0000ff;stroke:#eeeeee;stroke-linejoin:miter;stroke-width:0.5;"/>
   </g>
   <g id="patch_8">
    <path clip-path="url(#p15cc67d55f)" d="M 483.975625 583.877187 
L 518.850625 583.877187 
L 518.850625 517.151298 
L 483.975625 517.151298 
z
" style="fill:#0000ff;stroke:#eeeeee;stroke-linejoin:miter;stroke-width:0.5;"/>
   </g>
   <g id="patch_9">
    <path clip-path="url(#p15cc67d55f)" d="M 553.725625 583.877187 
L 588.600625 583.877187 
L 588.600625 391.868956 
L 553.725625 391.868956 
z
" style="fill:#0000ff;stroke:#eeeeee;stroke-linejoin:miter;stroke-width:0.5;"/>
   </g>
   <g id="patch_10">
    <path clip-path="url(#p15cc67d55f)" d="M 623.475625 583.877187 
L 658.350625 583.877187 
L 658.350625 530.443836 
L 623.475625 530.443836 
z
" style="fill:#0000ff;stroke:#eeeeee;stroke-linejoin:miter;stroke-width:0.5;"/>
   </g>
   <g id="patch_11">
    <path clip-path="url(#p15cc67d55f)" d="M 693.225625 583.877187 
L 728.100625 583.877187 
L 728.100625 518.695397 
L 693.225625 518.695397 
z
" style="fill:#0000ff;stroke:#eeeeee;stroke-linejoin:miter;stroke-width:0.5;"/>
   </g>
   <g id="patch_12">
    <path clip-path="url(#p15cc67d55f)" d="M 762.975625 583.877187 
L 797.850625 583.877187 
L 797.850625 393.021735 
L 762.975625 393.021735 
z
" style="fill:#0000ff;stroke:#eeeeee;stroke-linejoin:miter;stroke-width:0.5;"/>
   </g>
   <g id="patch_13">
    <path clip-path="url(#p15cc67d55f)" d="M 832.725625 583.877187 
L 867.600625 583.877187 
L 867.600625 410.623715 
L 832.725625 410.623715 
z
" style="fill:#0000ff;stroke:#eeeeee;stroke-linejoin:miter;stroke-width:0.5;"/>
   </g>
   <g id="patch_14">
    <path clip-path="url(#p15cc67d55f)" d="M 902.475625 583.877187 
L 937.350625 583.877187 
L 937.350625 518.232627 
L 902.475625 518.232627 
z
" style="fill:#0000ff;stroke:#eeeeee;stroke-linejoin:miter;stroke-width:0.5;"/>
   </g>
   <g id="patch_15">
    <path clip-path="url(#p15cc67d55f)" d="M 135.225625 481.9043 
L 170.100625 481.9043 
L 170.100625 448.55161 
L 135.225625 448.55161 
z
" style="fill:#008000;stroke:#eeeeee;stroke-linejoin:miter;stroke-width:0.5;"/>
   </g>
   <g id="patch_16">
    <path clip-path="url(#p15cc67d55f)" d="M 204.975625 582.539927 
L 239.850625 582.539927 
L 239.850625 572.757321 
L 204.975625 572.757321 
z
" style="fill:#008000;stroke:#eeeeee;stroke-linejoin:miter;stroke-width:0.5;"/>
   </g>
   <g id="patch_17">
    <path clip-path="url(#p15cc67d55f)" d="M 274.725625 439.184227 
L 309.600625 439.184227 
L 309.600625 438.941276 
L 274.725625 438.941276 
z
" style="fill:#008000;stroke:#eeeeee;stroke-linejoin:miter;stroke-width:0.5;"/>
   </g>
   <g id="patch_18">
    <path clip-path="url(#p15cc67d55f)" d="M 344.475625 214.825307 
L 379.350625 214.825307 
L 379.350625 86.564147 
L 344.475625 86.564147 
z
" style="fill:#008000;stroke:#eeeeee;stroke-linejoin:miter;stroke-width:0.5;"/>
   </g>
   <g id="patch_19">
    <path clip-path="url(#p15cc67d55f)" d="M 414.225625 436.683674 
L 449.100625 436.683674 
L 449.100625 395.779451 
L 414.225625 395.779451 
z
" style="fill:#008000;stroke:#eeeeee;stroke-linejoin:miter;stroke-width:0.5;"/>
   </g>
   <g id="patch_20">
    <path clip-path="url(#p15cc67d55f)" d="M 483.975625 517.151298 
L 518.850625 517.151298 
L 518.850625 498.246294 
L 483.975625 498.246294 
z
" style="fill:#008000;stroke:#eeeeee;stroke-linejoin:miter;stroke-width:0.5;"/>
   </g>
   <g id="patch_21">
    <path clip-path="url(#p15cc67d55f)" d="M 553.725625 391.868956 
L 588.600625 391.868956 
L 588.600625 356.82148 
L 553.725625 356.82148 
z
" style="fill:#008000;stroke:#eeeeee;stroke-linejoin:miter;stroke-width:0.5;"/>
   </g>
   <g id="patch_22">
    <path clip-path="url(#p15cc67d55f)" d="M 623.475625 530.443836 
L 658.350625 530.443836 
L 658.350625 511.505615 
L 623.475625 511.505615 
z
" style="fill:#008000;stroke:#eeeeee;stroke-linejoin:miter;stroke-width:0.5;"/>
   </g>
   <g id="patch_23">
    <path clip-path="url(#p15cc67d55f)" d="M 693.225625 518.695397 
L 728.100625 518.695397 
L 728.100625 518.502001 
L 693.225625 518.502001 
z
" style="fill:#008000;stroke:#eeeeee;stroke-linejoin:miter;stroke-width:0.5;"/>
   </g>
   <g id="patch_24">
    <path clip-path="url(#p15cc67d55f)" d="M 762.975625 393.021735 
L 797.850625 393.021735 
L 797.850625 342.693529 
L 762.975625 342.693529 
z
" style="fill:#008000;stroke:#eeeeee;stroke-linejoin:miter;stroke-width:0.5;"/>
   </g>
   <g id="patch_25">
    <path clip-path="url(#p15cc67d55f)" d="M 832.725625 410.623715 
L 867.600625 410.623715 
L 867.600625 397.892125 
L 832.725625 397.892125 
z
" style="fill:#008000;stroke:#eeeeee;stroke-linejoin:miter;stroke-width:0.5;"/>
   </g>
   <g id="patch_26">
    <path clip-path="url(#p15cc67d55f)" d="M 902.475625 518.232627 
L 937.350625 518.232627 
L 937.350625 507.96789 
L 902.475625 507.96789 
z
" style="fill:#008000;stroke:#eeeeee;stroke-linejoin:miter;stroke-width:0.5;"/>
   </g>
   <g id="patch_27">
    <path d="M 117.788125 25.877187 
L 954.788125 25.877187 
" style="fill:none;stroke:#ffffff;stroke-linecap:square;stroke-linejoin:miter;"/>
   </g>
   <g id="patch_28">
    <path d="M 954.788125 583.877187 
L 954.788125 25.877187 
" style="fill:none;stroke:#ffffff;stroke-linecap:square;stroke-linejoin:miter;"/>
   </g>
   <g id="patch_29">
    <path d="M 117.788125 583.877187 
L 954.788125 583.877187 
" style="fill:none;stroke:#ffffff;stroke-linecap:square;stroke-linejoin:miter;"/>
   </g>
   <g id="patch_30">
    <path d="M 117.788125 583.877187 
L 117.788125 25.877187 
" style="fill:none;stroke:#ffffff;stroke-linecap:square;stroke-linejoin:miter;"/>
   </g>
   <g id="text_24">
    <!-- Global fisheries subsidies per subtype (2009) -->
    <defs>
     <path d="M 59.515625 10.40625 
L 59.515625 29.984375 
L 43.40625 29.984375 
L 43.40625 38.09375 
L 69.28125 38.09375 
L 69.28125 6.78125 
Q 63.578125 2.734375 56.6875 0.65625 
Q 49.8125 -1.421875 42 -1.421875 
Q 24.90625 -1.421875 15.25 8.5625 
Q 5.609375 18.5625 5.609375 36.375 
Q 5.609375 54.25 15.25 64.234375 
Q 24.90625 74.21875 42 74.21875 
Q 49.125 74.21875 55.546875 72.453125 
Q 61.96875 70.703125 67.390625 67.28125 
L 67.390625 56.78125 
Q 61.921875 61.421875 55.765625 63.765625 
Q 49.609375 66.109375 42.828125 66.109375 
Q 29.4375 66.109375 22.71875 58.640625 
Q 16.015625 51.171875 16.015625 36.375 
Q 16.015625 21.625 22.71875 14.15625 
Q 29.4375 6.6875 42.828125 6.6875 
Q 48.046875 6.6875 52.140625 7.59375 
Q 56.25 8.5 59.515625 10.40625 
" id="BitstreamVeraSans-Roman-47"/>
     <path d="M 31 75.875 
Q 24.46875 64.65625 21.28125 53.65625 
Q 18.109375 42.671875 18.109375 31.390625 
Q 18.109375 20.125 21.3125 9.0625 
Q 24.515625 -2 31 -13.1875 
L 23.1875 -13.1875 
Q 15.875 -1.703125 12.234375 9.375 
Q 8.59375 20.453125 8.59375 31.390625 
Q 8.59375 42.28125 12.203125 53.3125 
Q 15.828125 64.359375 23.1875 75.875 
z
" id="BitstreamVeraSans-Roman-28"/>
     <path d="M 8.015625 75.875 
L 15.828125 75.875 
Q 23.140625 64.359375 26.78125 53.3125 
Q 30.421875 42.28125 30.421875 31.390625 
Q 30.421875 20.453125 26.78125 9.375 
Q 23.140625 -1.703125 15.828125 -13.1875 
L 8.015625 -13.1875 
Q 14.5 -2 17.703125 9.0625 
Q 20.90625 20.125 20.90625 31.390625 
Q 20.90625 42.671875 17.703125 53.65625 
Q 14.5 64.65625 8.015625 75.875 
" id="BitstreamVeraSans-Roman-29"/>
     <path d="M 10.984375 1.515625 
L 10.984375 10.5 
Q 14.703125 8.734375 18.5 7.8125 
Q 22.3125 6.890625 25.984375 6.890625 
Q 35.75 6.890625 40.890625 13.453125 
Q 46.046875 20.015625 46.78125 33.40625 
Q 43.953125 29.203125 39.59375 26.953125 
Q 35.25 24.703125 29.984375 24.703125 
Q 19.046875 24.703125 12.671875 31.3125 
Q 6.296875 37.9375 6.296875 49.421875 
Q 6.296875 60.640625 12.9375 67.421875 
Q 19.578125 74.21875 30.609375 74.21875 
Q 43.265625 74.21875 49.921875 64.515625 
Q 56.59375 54.828125 56.59375 36.375 
Q 56.59375 19.140625 48.40625 8.859375 
Q 40.234375 -1.421875 26.421875 -1.421875 
Q 22.703125 -1.421875 18.890625 -0.6875 
Q 15.09375 0.046875 10.984375 1.515625 
M 30.609375 32.421875 
Q 37.25 32.421875 41.125 36.953125 
Q 45.015625 41.5 45.015625 49.421875 
Q 45.015625 57.28125 41.125 61.84375 
Q 37.25 66.40625 30.609375 66.40625 
Q 23.96875 66.40625 20.09375 61.84375 
Q 16.21875 57.28125 16.21875 49.421875 
Q 16.21875 41.5 20.09375 36.953125 
Q 23.96875 32.421875 30.609375 32.421875 
" id="BitstreamVeraSans-Roman-39"/>
    </defs>
    <g transform="translate(332.42546875 20.8771875)scale(0.18 -0.18)">
     <use xlink:href="#BitstreamVeraSans-Roman-47"/>
     <use x="77.490234375" xlink:href="#BitstreamVeraSans-Roman-6c"/>
     <use x="105.2734375" xlink:href="#BitstreamVeraSans-Roman-6f"/>
     <use x="166.455078125" xlink:href="#BitstreamVeraSans-Roman-62"/>
     <use x="229.931640625" xlink:href="#BitstreamVeraSans-Roman-61"/>
     <use x="291.2109375" xlink:href="#BitstreamVeraSans-Roman-6c"/>
     <use x="318.994140625" xlink:href="#BitstreamVeraSans-Roman-20"/>
     <use x="350.78125" xlink:href="#BitstreamVeraSans-Roman-66"/>
     <use x="385.986328125" xlink:href="#BitstreamVeraSans-Roman-69"/>
     <use x="413.76953125" xlink:href="#BitstreamVeraSans-Roman-73"/>
     <use x="465.869140625" xlink:href="#BitstreamVeraSans-Roman-68"/>
     <use x="529.248046875" xlink:href="#BitstreamVeraSans-Roman-65"/>
     <use x="590.771484375" xlink:href="#BitstreamVeraSans-Roman-72"/>
     <use x="631.884765625" xlink:href="#BitstreamVeraSans-Roman-69"/>
     <use x="659.66796875" xlink:href="#BitstreamVeraSans-Roman-65"/>
     <use x="721.19140625" xlink:href="#BitstreamVeraSans-Roman-73"/>
     <use x="773.291015625" xlink:href="#BitstreamVeraSans-Roman-20"/>
     <use x="805.078125" xlink:href="#BitstreamVeraSans-Roman-73"/>
     <use x="857.177734375" xlink:href="#BitstreamVeraSans-Roman-75"/>
     <use x="920.556640625" xlink:href="#BitstreamVeraSans-Roman-62"/>
     <use x="984.033203125" xlink:href="#BitstreamVeraSans-Roman-73"/>
     <use x="1036.1328125" xlink:href="#BitstreamVeraSans-Roman-69"/>
     <use x="1063.91601562" xlink:href="#BitstreamVeraSans-Roman-64"/>
     <use x="1127.39257812" xlink:href="#BitstreamVeraSans-Roman-69"/>
     <use x="1155.17578125" xlink:href="#BitstreamVeraSans-Roman-65"/>
     <use x="1216.69921875" xlink:href="#BitstreamVeraSans-Roman-73"/>
     <use x="1268.79882812" xlink:href="#BitstreamVeraSans-Roman-20"/>
     <use x="1300.5859375" xlink:href="#BitstreamVeraSans-Roman-70"/>
     <use x="1364.0625" xlink:href="#BitstreamVeraSans-Roman-65"/>
     <use x="1425.5859375" xlink:href="#BitstreamVeraSans-Roman-72"/>
     <use x="1466.69921875" xlink:href="#BitstreamVeraSans-Roman-20"/>
     <use x="1498.48632812" xlink:href="#BitstreamVeraSans-Roman-73"/>
     <use x="1550.5859375" xlink:href="#BitstreamVeraSans-Roman-75"/>
     <use x="1613.96484375" xlink:href="#BitstreamVeraSans-Roman-62"/>
     <use x="1677.44140625" xlink:href="#BitstreamVeraSans-Roman-74"/>
     <use x="1716.65039062" xlink:href="#BitstreamVeraSans-Roman-79"/>
     <use x="1775.83007812" xlink:href="#BitstreamVeraSans-Roman-70"/>
     <use x="1839.30664062" xlink:href="#BitstreamVeraSans-Roman-65"/>
     <use x="1900.83007812" xlink:href="#BitstreamVeraSans-Roman-20"/>
     <use x="1932.6171875" xlink:href="#BitstreamVeraSans-Roman-28"/>
     <use x="1971.63085938" xlink:href="#BitstreamVeraSans-Roman-32"/>
     <use x="2035.25390625" xlink:href="#BitstreamVeraSans-Roman-30"/>
     <use x="2098.87695312" xlink:href="#BitstreamVeraSans-Roman-30"/>
     <use x="2162.5" xlink:href="#BitstreamVeraSans-Roman-39"/>
     <use x="2226.12304688" xlink:href="#BitstreamVeraSans-Roman-29"/>
    </g>
   </g>
   <g id="legend_1">
    <g id="patch_31">
     <path d="M 758.590937 93.118437 
L 945.788125 93.118437 
L 945.788125 34.877187 
L 758.590937 34.877187 
z
" style="fill:#e5e5e5;stroke:#ffffff;stroke-linejoin:miter;stroke-width:0.5;"/>
    </g>
    <g id="patch_32">
     <path d="M 765.790938 55.754375 
L 801.790938 55.754375 
L 801.790938 43.154375 
L 765.790938 43.154375 
z
" style="fill:#0000ff;stroke:#eeeeee;stroke-linejoin:miter;stroke-width:0.5;"/>
    </g>
    <g id="text_25">
     <!-- LSF subsidies -->
     <defs>
      <path d="M 9.8125 72.90625 
L 19.671875 72.90625 
L 19.671875 8.296875 
L 55.171875 8.296875 
L 55.171875 0 
L 9.8125 0 
z
" id="BitstreamVeraSans-Roman-4c"/>
     </defs>
     <g transform="translate(816.1909375 55.754375)scale(0.18 -0.18)">
      <use xlink:href="#BitstreamVeraSans-Roman-4c"/>
      <use x="55.712890625" xlink:href="#BitstreamVeraSans-Roman-53"/>
      <use x="119.189453125" xlink:href="#BitstreamVeraSans-Roman-46"/>
      <use x="176.708984375" xlink:href="#BitstreamVeraSans-Roman-20"/>
      <use x="208.49609375" xlink:href="#BitstreamVeraSans-Roman-73"/>
      <use x="260.595703125" xlink:href="#BitstreamVeraSans-Roman-75"/>
      <use x="323.974609375" xlink:href="#BitstreamVeraSans-Roman-62"/>
      <use x="387.451171875" xlink:href="#BitstreamVeraSans-Roman-73"/>
      <use x="439.55078125" xlink:href="#BitstreamVeraSans-Roman-69"/>
      <use x="467.333984375" xlink:href="#BitstreamVeraSans-Roman-64"/>
      <use x="530.810546875" xlink:href="#BitstreamVeraSans-Roman-69"/>
      <use x="558.59375" xlink:href="#BitstreamVeraSans-Roman-65"/>
      <use x="620.1171875" xlink:href="#BitstreamVeraSans-Roman-73"/>
     </g>
    </g>
    <g id="patch_33">
     <path d="M 765.790938 82.175 
L 801.790938 82.175 
L 801.790938 69.575 
L 765.790938 69.575 
z
" style="fill:#008000;stroke:#eeeeee;stroke-linejoin:miter;stroke-width:0.5;"/>
    </g>
    <g id="text_26">
     <!-- SSF subsidies -->
     <g transform="translate(816.1909375 82.175)scale(0.18 -0.18)">
      <use xlink:href="#BitstreamVeraSans-Roman-53"/>
      <use x="63.4765625" xlink:href="#BitstreamVeraSans-Roman-53"/>
      <use x="126.953125" xlink:href="#BitstreamVeraSans-Roman-46"/>
      <use x="184.47265625" xlink:href="#BitstreamVeraSans-Roman-20"/>
      <use x="216.259765625" xlink:href="#BitstreamVeraSans-Roman-73"/>
      <use x="268.359375" xlink:href="#BitstreamVeraSans-Roman-75"/>
      <use x="331.73828125" xlink:href="#BitstreamVeraSans-Roman-62"/>
      <use x="395.21484375" xlink:href="#BitstreamVeraSans-Roman-73"/>
      <use x="447.314453125" xlink:href="#BitstreamVeraSans-Roman-69"/>
      <use x="475.09765625" xlink:href="#BitstreamVeraSans-Roman-64"/>
      <use x="538.57421875" xlink:href="#BitstreamVeraSans-Roman-69"/>
      <use x="566.357421875" xlink:href="#BitstreamVeraSans-Roman-65"/>
      <use x="627.880859375" xlink:href="#BitstreamVeraSans-Roman-73"/>
     </g>
    </g>
   </g>
  </g>
 </g>
 <defs>
  <clipPath id="p15cc67d55f">
   <rect height="558.0" width="837.0" x="117.788125" y="25.8771875"/>
  </clipPath>
 </defs>
</svg>
