<?xml version="1.0" encoding="utf-8" standalone="no"?>
<!DOCTYPE svg PUBLIC "-//W3C//DTD SVG 1.1//EN"
  "http://www.w3.org/Graphics/SVG/1.1/DTD/svg11.dtd">
<!-- Created with matplotlib (http://matplotlib.org/) -->
<svg height="1287pt" version="1.1" viewBox="0 0 2073 1287" width="2073pt" xmlns="http://www.w3.org/2000/svg" xmlns:xlink="http://www.w3.org/1999/xlink">
 <defs>
  <style type="text/css">
*{stroke-linecap:butt;stroke-linejoin:round;stroke-miterlimit:100000;}
  </style>
 </defs>
 <g id="figure_1">
  <g id="patch_1">
   <path d="M 0 1287.674671 
L 2073.180645 1287.674671 
L 2073.180645 0 
L 0 0 
z
" style="fill:#ffffff;"/>
  </g>
  <g id="axes_1">
   <g id="patch_2">
    <path d="M 99.738125 860.652812 
L 2052.738125 860.652812 
L 2052.738125 23.652812 
L 99.738125 23.652812 
z
" style="fill:#ffffff;"/>
   </g>
   <g id="matplotlib.axis_1">
    <g id="xtick_1">
     <g id="line2d_1">
      <path clip-path="url(#peba3872631)" d="M 174.85351 860.652812 
L 174.85351 23.652812 
" style="fill:none;stroke:#ffffff;stroke-linecap:square;stroke-width:0.5;"/>
     </g>
     <g id="line2d_2">
      <defs>
       <path d="M 0 0 
L 0 4 
" id="m711d8e0352" style="stroke:#555555;stroke-width:0.5;"/>
      </defs>
      <g>
       <use style="fill:#555555;stroke:#555555;stroke-width:0.5;" x="174.853509615" xlink:href="#m711d8e0352" y="860.6528125"/>
      </g>
     </g>
     <g id="line2d_3">
      <defs>
       <path d="M 0 0 
L 0 -4 
" id="m2641eee7fa" style="stroke:#555555;stroke-width:0.5;"/>
      </defs>
      <g>
       <use style="fill:#555555;stroke:#555555;stroke-width:0.5;" x="174.853509615" xlink:href="#m2641eee7fa" y="23.6528125"/>
      </g>
     </g>
     <g id="text_1">
      <!-- Fuel -->
      <defs>
       <path d="M 56.203125 29.59375 
L 56.203125 25.203125 
L 14.890625 25.203125 
Q 15.484375 15.921875 20.484375 11.0625 
Q 25.484375 6.203125 34.421875 6.203125 
Q 39.59375 6.203125 44.453125 7.46875 
Q 49.3125 8.734375 54.109375 11.28125 
L 54.109375 2.78125 
Q 49.265625 0.734375 44.1875 -0.34375 
Q 39.109375 -1.421875 33.890625 -1.421875 
Q 20.796875 -1.421875 13.15625 6.1875 
Q 5.515625 13.8125 5.515625 26.8125 
Q 5.515625 40.234375 12.765625 48.109375 
Q 20.015625 56 32.328125 56 
Q 43.359375 56 49.78125 48.890625 
Q 56.203125 41.796875 56.203125 29.59375 
M 47.21875 32.234375 
Q 47.125 39.59375 43.09375 43.984375 
Q 39.0625 48.390625 32.421875 48.390625 
Q 24.90625 48.390625 20.390625 44.140625 
Q 15.875 39.890625 15.1875 32.171875 
z
" id="BitstreamVeraSans-Roman-65"/>
       <path d="M 9.8125 72.90625 
L 51.703125 72.90625 
L 51.703125 64.59375 
L 19.671875 64.59375 
L 19.671875 43.109375 
L 48.578125 43.109375 
L 48.578125 34.8125 
L 19.671875 34.8125 
L 19.671875 0 
L 9.8125 0 
z
" id="BitstreamVeraSans-Roman-46"/>
       <path d="M 8.5 21.578125 
L 8.5 54.6875 
L 17.484375 54.6875 
L 17.484375 21.921875 
Q 17.484375 14.15625 20.5 10.265625 
Q 23.53125 6.390625 29.59375 6.390625 
Q 36.859375 6.390625 41.078125 11.03125 
Q 45.3125 15.671875 45.3125 23.6875 
L 45.3125 54.6875 
L 54.296875 54.6875 
L 54.296875 0 
L 45.3125 0 
L 45.3125 8.40625 
Q 42.046875 3.421875 37.71875 1 
Q 33.40625 -1.421875 27.6875 -1.421875 
Q 18.265625 -1.421875 13.375 4.4375 
Q 8.5 10.296875 8.5 21.578125 
" id="BitstreamVeraSans-Roman-75"/>
       <path d="M 9.421875 75.984375 
L 18.40625 75.984375 
L 18.40625 0 
L 9.421875 0 
z
" id="BitstreamVeraSans-Roman-6c"/>
      </defs>
      <g style="fill:#555555;" transform="translate(171.452201277 944.622786082)rotate(-70.0)scale(0.34 -0.34)">
       <use xlink:href="#BitstreamVeraSans-Roman-46"/>
       <use x="57.44140625" xlink:href="#BitstreamVeraSans-Roman-75"/>
       <use x="120.8203125" xlink:href="#BitstreamVeraSans-Roman-65"/>
       <use x="182.34375" xlink:href="#BitstreamVeraSans-Roman-6c"/>
      </g>
     </g>
    </g>
    <g id="xtick_2">
     <g id="line2d_4">
      <path clip-path="url(#peba3872631)" d="M 325.084279 860.652812 
L 325.084279 23.652812 
" style="fill:none;stroke:#ffffff;stroke-linecap:square;stroke-width:0.5;"/>
     </g>
     <g id="line2d_5">
      <g>
       <use style="fill:#555555;stroke:#555555;stroke-width:0.5;" x="325.084278846" xlink:href="#m711d8e0352" y="860.6528125"/>
      </g>
     </g>
     <g id="line2d_6">
      <g>
       <use style="fill:#555555;stroke:#555555;stroke-width:0.5;" x="325.084278846" xlink:href="#m2641eee7fa" y="23.6528125"/>
      </g>
     </g>
     <g id="text_2">
      <!-- Management -->
      <defs>
       <path d="M 9.8125 72.90625 
L 24.515625 72.90625 
L 43.109375 23.296875 
L 61.8125 72.90625 
L 76.515625 72.90625 
L 76.515625 0 
L 66.890625 0 
L 66.890625 64.015625 
L 48.09375 14.015625 
L 38.1875 14.015625 
L 19.390625 64.015625 
L 19.390625 0 
L 9.8125 0 
z
" id="BitstreamVeraSans-Roman-4d"/>
       <path d="M 54.890625 33.015625 
L 54.890625 0 
L 45.90625 0 
L 45.90625 32.71875 
Q 45.90625 40.484375 42.875 44.328125 
Q 39.84375 48.1875 33.796875 48.1875 
Q 26.515625 48.1875 22.3125 43.546875 
Q 18.109375 38.921875 18.109375 30.90625 
L 18.109375 0 
L 9.078125 0 
L 9.078125 54.6875 
L 18.109375 54.6875 
L 18.109375 46.1875 
Q 21.34375 51.125 25.703125 53.5625 
Q 30.078125 56 35.796875 56 
Q 45.21875 56 50.046875 50.171875 
Q 54.890625 44.34375 54.890625 33.015625 
" id="BitstreamVeraSans-Roman-6e"/>
       <path d="M 52 44.1875 
Q 55.375 50.25 60.0625 53.125 
Q 64.75 56 71.09375 56 
Q 79.640625 56 84.28125 50.015625 
Q 88.921875 44.046875 88.921875 33.015625 
L 88.921875 0 
L 79.890625 0 
L 79.890625 32.71875 
Q 79.890625 40.578125 77.09375 44.375 
Q 74.3125 48.1875 68.609375 48.1875 
Q 61.625 48.1875 57.5625 43.546875 
Q 53.515625 38.921875 53.515625 30.90625 
L 53.515625 0 
L 44.484375 0 
L 44.484375 32.71875 
Q 44.484375 40.625 41.703125 44.40625 
Q 38.921875 48.1875 33.109375 48.1875 
Q 26.21875 48.1875 22.15625 43.53125 
Q 18.109375 38.875 18.109375 30.90625 
L 18.109375 0 
L 9.078125 0 
L 9.078125 54.6875 
L 18.109375 54.6875 
L 18.109375 46.1875 
Q 21.1875 51.21875 25.484375 53.609375 
Q 29.78125 56 35.6875 56 
Q 41.65625 56 45.828125 52.96875 
Q 50 49.953125 52 44.1875 
" id="BitstreamVeraSans-Roman-6d"/>
       <path d="M 45.40625 27.984375 
Q 45.40625 37.75 41.375 43.109375 
Q 37.359375 48.484375 30.078125 48.484375 
Q 22.859375 48.484375 18.828125 43.109375 
Q 14.796875 37.75 14.796875 27.984375 
Q 14.796875 18.265625 18.828125 12.890625 
Q 22.859375 7.515625 30.078125 7.515625 
Q 37.359375 7.515625 41.375 12.890625 
Q 45.40625 18.265625 45.40625 27.984375 
M 54.390625 6.78125 
Q 54.390625 -7.171875 48.1875 -13.984375 
Q 42 -20.796875 29.203125 -20.796875 
Q 24.46875 -20.796875 20.265625 -20.09375 
Q 16.0625 -19.390625 12.109375 -17.921875 
L 12.109375 -9.1875 
Q 16.0625 -11.328125 19.921875 -12.34375 
Q 23.78125 -13.375 27.78125 -13.375 
Q 36.625 -13.375 41.015625 -8.765625 
Q 45.40625 -4.15625 45.40625 5.171875 
L 45.40625 9.625 
Q 42.625 4.78125 38.28125 2.390625 
Q 33.9375 0 27.875 0 
Q 17.828125 0 11.671875 7.65625 
Q 5.515625 15.328125 5.515625 27.984375 
Q 5.515625 40.671875 11.671875 48.328125 
Q 17.828125 56 27.875 56 
Q 33.9375 56 38.28125 53.609375 
Q 42.625 51.21875 45.40625 46.390625 
L 45.40625 54.6875 
L 54.390625 54.6875 
z
" id="BitstreamVeraSans-Roman-67"/>
       <path d="M 34.28125 27.484375 
Q 23.390625 27.484375 19.1875 25 
Q 14.984375 22.515625 14.984375 16.5 
Q 14.984375 11.71875 18.140625 8.90625 
Q 21.296875 6.109375 26.703125 6.109375 
Q 34.1875 6.109375 38.703125 11.40625 
Q 43.21875 16.703125 43.21875 25.484375 
L 43.21875 27.484375 
z
M 52.203125 31.203125 
L 52.203125 0 
L 43.21875 0 
L 43.21875 8.296875 
Q 40.140625 3.328125 35.546875 0.953125 
Q 30.953125 -1.421875 24.3125 -1.421875 
Q 15.921875 -1.421875 10.953125 3.296875 
Q 6 8.015625 6 15.921875 
Q 6 25.140625 12.171875 29.828125 
Q 18.359375 34.515625 30.609375 34.515625 
L 43.21875 34.515625 
L 43.21875 35.40625 
Q 43.21875 41.609375 39.140625 45 
Q 35.0625 48.390625 27.6875 48.390625 
Q 23 48.390625 18.546875 47.265625 
Q 14.109375 46.140625 10.015625 43.890625 
L 10.015625 52.203125 
Q 14.9375 54.109375 19.578125 55.046875 
Q 24.21875 56 28.609375 56 
Q 40.484375 56 46.34375 49.84375 
Q 52.203125 43.703125 52.203125 31.203125 
" id="BitstreamVeraSans-Roman-61"/>
       <path d="M 18.3125 70.21875 
L 18.3125 54.6875 
L 36.8125 54.6875 
L 36.8125 47.703125 
L 18.3125 47.703125 
L 18.3125 18.015625 
Q 18.3125 11.328125 20.140625 9.421875 
Q 21.96875 7.515625 27.59375 7.515625 
L 36.8125 7.515625 
L 36.8125 0 
L 27.59375 0 
Q 17.1875 0 13.234375 3.875 
Q 9.28125 7.765625 9.28125 18.015625 
L 9.28125 47.703125 
L 2.6875 47.703125 
L 2.6875 54.6875 
L 9.28125 54.6875 
L 9.28125 70.21875 
z
" id="BitstreamVeraSans-Roman-74"/>
      </defs>
      <g style="fill:#555555;" transform="translate(295.598376752 1087.95645076)rotate(-70.0)scale(0.34 -0.34)">
       <use xlink:href="#BitstreamVeraSans-Roman-4d"/>
       <use x="86.279296875" xlink:href="#BitstreamVeraSans-Roman-61"/>
       <use x="147.55859375" xlink:href="#BitstreamVeraSans-Roman-6e"/>
       <use x="210.9375" xlink:href="#BitstreamVeraSans-Roman-61"/>
       <use x="272.216796875" xlink:href="#BitstreamVeraSans-Roman-67"/>
       <use x="335.693359375" xlink:href="#BitstreamVeraSans-Roman-65"/>
       <use x="397.216796875" xlink:href="#BitstreamVeraSans-Roman-6d"/>
       <use x="494.62890625" xlink:href="#BitstreamVeraSans-Roman-65"/>
       <use x="556.15234375" xlink:href="#BitstreamVeraSans-Roman-6e"/>
       <use x="619.53125" xlink:href="#BitstreamVeraSans-Roman-74"/>
      </g>
     </g>
    </g>
    <g id="xtick_3">
     <g id="line2d_7">
      <path clip-path="url(#peba3872631)" d="M 475.315048 860.652812 
L 475.315048 23.652812 
" style="fill:none;stroke:#ffffff;stroke-linecap:square;stroke-width:0.5;"/>
     </g>
     <g id="line2d_8">
      <g>
       <use style="fill:#555555;stroke:#555555;stroke-width:0.5;" x="475.315048077" xlink:href="#m711d8e0352" y="860.6528125"/>
      </g>
     </g>
     <g id="line2d_9">
      <g>
       <use style="fill:#555555;stroke:#555555;stroke-width:0.5;" x="475.315048077" xlink:href="#m2641eee7fa" y="23.6528125"/>
      </g>
     </g>
     <g id="text_3">
      <!-- Port Develop -->
      <defs>
       <path id="BitstreamVeraSans-Roman-20"/>
       <path d="M 30.609375 48.390625 
Q 23.390625 48.390625 19.1875 42.75 
Q 14.984375 37.109375 14.984375 27.296875 
Q 14.984375 17.484375 19.15625 11.84375 
Q 23.34375 6.203125 30.609375 6.203125 
Q 37.796875 6.203125 41.984375 11.859375 
Q 46.1875 17.53125 46.1875 27.296875 
Q 46.1875 37.015625 41.984375 42.703125 
Q 37.796875 48.390625 30.609375 48.390625 
M 30.609375 56 
Q 42.328125 56 49.015625 48.375 
Q 55.71875 40.765625 55.71875 27.296875 
Q 55.71875 13.875 49.015625 6.21875 
Q 42.328125 -1.421875 30.609375 -1.421875 
Q 18.84375 -1.421875 12.171875 6.21875 
Q 5.515625 13.875 5.515625 27.296875 
Q 5.515625 40.765625 12.171875 48.375 
Q 18.84375 56 30.609375 56 
" id="BitstreamVeraSans-Roman-6f"/>
       <path d="M 19.671875 64.796875 
L 19.671875 37.40625 
L 32.078125 37.40625 
Q 38.96875 37.40625 42.71875 40.96875 
Q 46.484375 44.53125 46.484375 51.125 
Q 46.484375 57.671875 42.71875 61.234375 
Q 38.96875 64.796875 32.078125 64.796875 
z
M 9.8125 72.90625 
L 32.078125 72.90625 
Q 44.34375 72.90625 50.609375 67.359375 
Q 56.890625 61.8125 56.890625 51.125 
Q 56.890625 40.328125 50.609375 34.8125 
Q 44.34375 29.296875 32.078125 29.296875 
L 19.671875 29.296875 
L 19.671875 0 
L 9.8125 0 
z
" id="BitstreamVeraSans-Roman-50"/>
       <path d="M 19.671875 64.796875 
L 19.671875 8.109375 
L 31.59375 8.109375 
Q 46.6875 8.109375 53.6875 14.9375 
Q 60.6875 21.78125 60.6875 36.53125 
Q 60.6875 51.171875 53.6875 57.984375 
Q 46.6875 64.796875 31.59375 64.796875 
z
M 9.8125 72.90625 
L 30.078125 72.90625 
Q 51.265625 72.90625 61.171875 64.09375 
Q 71.09375 55.28125 71.09375 36.53125 
Q 71.09375 17.671875 61.125 8.828125 
Q 51.171875 0 30.078125 0 
L 9.8125 0 
z
" id="BitstreamVeraSans-Roman-44"/>
       <path d="M 2.984375 54.6875 
L 12.5 54.6875 
L 29.59375 8.796875 
L 46.6875 54.6875 
L 56.203125 54.6875 
L 35.6875 0 
L 23.484375 0 
z
" id="BitstreamVeraSans-Roman-76"/>
       <path d="M 41.109375 46.296875 
Q 39.59375 47.171875 37.8125 47.578125 
Q 36.03125 48 33.890625 48 
Q 26.265625 48 22.1875 43.046875 
Q 18.109375 38.09375 18.109375 28.8125 
L 18.109375 0 
L 9.078125 0 
L 9.078125 54.6875 
L 18.109375 54.6875 
L 18.109375 46.1875 
Q 20.953125 51.171875 25.484375 53.578125 
Q 30.03125 56 36.53125 56 
Q 37.453125 56 38.578125 55.875 
Q 39.703125 55.765625 41.0625 55.515625 
z
" id="BitstreamVeraSans-Roman-72"/>
       <path d="M 18.109375 8.203125 
L 18.109375 -20.796875 
L 9.078125 -20.796875 
L 9.078125 54.6875 
L 18.109375 54.6875 
L 18.109375 46.390625 
Q 20.953125 51.265625 25.265625 53.625 
Q 29.59375 56 35.59375 56 
Q 45.5625 56 51.78125 48.09375 
Q 58.015625 40.1875 58.015625 27.296875 
Q 58.015625 14.40625 51.78125 6.484375 
Q 45.5625 -1.421875 35.59375 -1.421875 
Q 29.59375 -1.421875 25.265625 0.953125 
Q 20.953125 3.328125 18.109375 8.203125 
M 48.6875 27.296875 
Q 48.6875 37.203125 44.609375 42.84375 
Q 40.53125 48.484375 33.40625 48.484375 
Q 26.265625 48.484375 22.1875 42.84375 
Q 18.109375 37.203125 18.109375 27.296875 
Q 18.109375 17.390625 22.1875 11.75 
Q 26.265625 6.109375 33.40625 6.109375 
Q 40.53125 6.109375 44.609375 11.75 
Q 48.6875 17.390625 48.6875 27.296875 
" id="BitstreamVeraSans-Roman-70"/>
      </defs>
      <g style="fill:#555555;" transform="translate(446.614990703 1083.63826952)rotate(-70.0)scale(0.34 -0.34)">
       <use xlink:href="#BitstreamVeraSans-Roman-50"/>
       <use x="60.255859375" xlink:href="#BitstreamVeraSans-Roman-6f"/>
       <use x="121.4375" xlink:href="#BitstreamVeraSans-Roman-72"/>
       <use x="162.55078125" xlink:href="#BitstreamVeraSans-Roman-74"/>
       <use x="201.759765625" xlink:href="#BitstreamVeraSans-Roman-20"/>
       <use x="233.546875" xlink:href="#BitstreamVeraSans-Roman-44"/>
       <use x="310.548828125" xlink:href="#BitstreamVeraSans-Roman-65"/>
       <use x="372.072265625" xlink:href="#BitstreamVeraSans-Roman-76"/>
       <use x="431.251953125" xlink:href="#BitstreamVeraSans-Roman-65"/>
       <use x="492.775390625" xlink:href="#BitstreamVeraSans-Roman-6c"/>
       <use x="520.55859375" xlink:href="#BitstreamVeraSans-Roman-6f"/>
       <use x="581.740234375" xlink:href="#BitstreamVeraSans-Roman-70"/>
      </g>
     </g>
    </g>
    <g id="xtick_4">
     <g id="line2d_10">
      <path clip-path="url(#peba3872631)" d="M 625.545817 860.652812 
L 625.545817 23.652812 
" style="fill:none;stroke:#ffffff;stroke-linecap:square;stroke-width:0.5;"/>
     </g>
     <g id="line2d_11">
      <g>
       <use style="fill:#555555;stroke:#555555;stroke-width:0.5;" x="625.545817308" xlink:href="#m711d8e0352" y="860.6528125"/>
      </g>
     </g>
     <g id="line2d_12">
      <g>
       <use style="fill:#555555;stroke:#555555;stroke-width:0.5;" x="625.545817308" xlink:href="#m2641eee7fa" y="23.6528125"/>
      </g>
     </g>
     <g id="text_4">
      <!-- Boat construct -->
      <defs>
       <path d="M 19.671875 34.8125 
L 19.671875 8.109375 
L 35.5 8.109375 
Q 43.453125 8.109375 47.28125 11.40625 
Q 51.125 14.703125 51.125 21.484375 
Q 51.125 28.328125 47.28125 31.5625 
Q 43.453125 34.8125 35.5 34.8125 
z
M 19.671875 64.796875 
L 19.671875 42.828125 
L 34.28125 42.828125 
Q 41.5 42.828125 45.03125 45.53125 
Q 48.578125 48.25 48.578125 53.8125 
Q 48.578125 59.328125 45.03125 62.0625 
Q 41.5 64.796875 34.28125 64.796875 
z
M 9.8125 72.90625 
L 35.015625 72.90625 
Q 46.296875 72.90625 52.390625 68.21875 
Q 58.5 63.53125 58.5 54.890625 
Q 58.5 48.1875 55.375 44.234375 
Q 52.25 40.28125 46.1875 39.3125 
Q 53.46875 37.75 57.5 32.78125 
Q 61.53125 27.828125 61.53125 20.40625 
Q 61.53125 10.640625 54.890625 5.3125 
Q 48.25 0 35.984375 0 
L 9.8125 0 
z
" id="BitstreamVeraSans-Roman-42"/>
       <path d="M 48.78125 52.59375 
L 48.78125 44.1875 
Q 44.96875 46.296875 41.140625 47.34375 
Q 37.3125 48.390625 33.40625 48.390625 
Q 24.65625 48.390625 19.8125 42.84375 
Q 14.984375 37.3125 14.984375 27.296875 
Q 14.984375 17.28125 19.8125 11.734375 
Q 24.65625 6.203125 33.40625 6.203125 
Q 37.3125 6.203125 41.140625 7.25 
Q 44.96875 8.296875 48.78125 10.40625 
L 48.78125 2.09375 
Q 45.015625 0.34375 40.984375 -0.53125 
Q 36.96875 -1.421875 32.421875 -1.421875 
Q 20.0625 -1.421875 12.78125 6.34375 
Q 5.515625 14.109375 5.515625 27.296875 
Q 5.515625 40.671875 12.859375 48.328125 
Q 20.21875 56 33.015625 56 
Q 37.15625 56 41.109375 55.140625 
Q 45.0625 54.296875 48.78125 52.59375 
" id="BitstreamVeraSans-Roman-63"/>
       <path d="M 44.28125 53.078125 
L 44.28125 44.578125 
Q 40.484375 46.53125 36.375 47.5 
Q 32.28125 48.484375 27.875 48.484375 
Q 21.1875 48.484375 17.84375 46.4375 
Q 14.5 44.390625 14.5 40.28125 
Q 14.5 37.15625 16.890625 35.375 
Q 19.28125 33.59375 26.515625 31.984375 
L 29.59375 31.296875 
Q 39.15625 29.25 43.1875 25.515625 
Q 47.21875 21.78125 47.21875 15.09375 
Q 47.21875 7.46875 41.1875 3.015625 
Q 35.15625 -1.421875 24.609375 -1.421875 
Q 20.21875 -1.421875 15.453125 -0.5625 
Q 10.6875 0.296875 5.421875 2 
L 5.421875 11.28125 
Q 10.40625 8.6875 15.234375 7.390625 
Q 20.0625 6.109375 24.8125 6.109375 
Q 31.15625 6.109375 34.5625 8.28125 
Q 37.984375 10.453125 37.984375 14.40625 
Q 37.984375 18.0625 35.515625 20.015625 
Q 33.0625 21.96875 24.703125 23.78125 
L 21.578125 24.515625 
Q 13.234375 26.265625 9.515625 29.90625 
Q 5.8125 33.546875 5.8125 39.890625 
Q 5.8125 47.609375 11.28125 51.796875 
Q 16.75 56 26.8125 56 
Q 31.78125 56 36.171875 55.265625 
Q 40.578125 54.546875 44.28125 53.078125 
" id="BitstreamVeraSans-Roman-73"/>
      </defs>
      <g style="fill:#555555;" transform="translate(591.825438636 1111.22470832)rotate(-70.0)scale(0.34 -0.34)">
       <use xlink:href="#BitstreamVeraSans-Roman-42"/>
       <use x="68.603515625" xlink:href="#BitstreamVeraSans-Roman-6f"/>
       <use x="129.78515625" xlink:href="#BitstreamVeraSans-Roman-61"/>
       <use x="191.064453125" xlink:href="#BitstreamVeraSans-Roman-74"/>
       <use x="230.2734375" xlink:href="#BitstreamVeraSans-Roman-20"/>
       <use x="262.060546875" xlink:href="#BitstreamVeraSans-Roman-63"/>
       <use x="317.041015625" xlink:href="#BitstreamVeraSans-Roman-6f"/>
       <use x="378.22265625" xlink:href="#BitstreamVeraSans-Roman-6e"/>
       <use x="441.6015625" xlink:href="#BitstreamVeraSans-Roman-73"/>
       <use x="493.701171875" xlink:href="#BitstreamVeraSans-Roman-74"/>
       <use x="532.91015625" xlink:href="#BitstreamVeraSans-Roman-72"/>
       <use x="574.0234375" xlink:href="#BitstreamVeraSans-Roman-75"/>
       <use x="637.40234375" xlink:href="#BitstreamVeraSans-Roman-63"/>
       <use x="692.3828125" xlink:href="#BitstreamVeraSans-Roman-74"/>
      </g>
     </g>
    </g>
    <g id="xtick_5">
     <g id="line2d_13">
      <path clip-path="url(#peba3872631)" d="M 775.776587 860.652812 
L 775.776587 23.652812 
" style="fill:none;stroke:#ffffff;stroke-linecap:square;stroke-width:0.5;"/>
     </g>
     <g id="line2d_14">
      <g>
       <use style="fill:#555555;stroke:#555555;stroke-width:0.5;" x="775.776586538" xlink:href="#m711d8e0352" y="860.6528125"/>
      </g>
     </g>
     <g id="line2d_15">
      <g>
       <use style="fill:#555555;stroke:#555555;stroke-width:0.5;" x="775.776586538" xlink:href="#m2641eee7fa" y="23.6528125"/>
      </g>
     </g>
     <g id="text_5">
      <!-- Research and Develop -->
      <defs>
       <path d="M 45.40625 46.390625 
L 45.40625 75.984375 
L 54.390625 75.984375 
L 54.390625 0 
L 45.40625 0 
L 45.40625 8.203125 
Q 42.578125 3.328125 38.25 0.953125 
Q 33.9375 -1.421875 27.875 -1.421875 
Q 17.96875 -1.421875 11.734375 6.484375 
Q 5.515625 14.40625 5.515625 27.296875 
Q 5.515625 40.1875 11.734375 48.09375 
Q 17.96875 56 27.875 56 
Q 33.9375 56 38.25 53.625 
Q 42.578125 51.265625 45.40625 46.390625 
M 14.796875 27.296875 
Q 14.796875 17.390625 18.875 11.75 
Q 22.953125 6.109375 30.078125 6.109375 
Q 37.203125 6.109375 41.296875 11.75 
Q 45.40625 17.390625 45.40625 27.296875 
Q 45.40625 37.203125 41.296875 42.84375 
Q 37.203125 48.484375 30.078125 48.484375 
Q 22.953125 48.484375 18.875 42.84375 
Q 14.796875 37.203125 14.796875 27.296875 
" id="BitstreamVeraSans-Roman-64"/>
       <path d="M 44.390625 34.1875 
Q 47.5625 33.109375 50.5625 29.59375 
Q 53.5625 26.078125 56.59375 19.921875 
L 66.609375 0 
L 56 0 
L 46.6875 18.703125 
Q 43.0625 26.03125 39.671875 28.421875 
Q 36.28125 30.8125 30.421875 30.8125 
L 19.671875 30.8125 
L 19.671875 0 
L 9.8125 0 
L 9.8125 72.90625 
L 32.078125 72.90625 
Q 44.578125 72.90625 50.734375 67.671875 
Q 56.890625 62.453125 56.890625 51.90625 
Q 56.890625 45.015625 53.6875 40.46875 
Q 50.484375 35.9375 44.390625 34.1875 
M 19.671875 64.796875 
L 19.671875 38.921875 
L 32.078125 38.921875 
Q 39.203125 38.921875 42.84375 42.21875 
Q 46.484375 45.515625 46.484375 51.90625 
Q 46.484375 58.296875 42.84375 61.546875 
Q 39.203125 64.796875 32.078125 64.796875 
z
" id="BitstreamVeraSans-Roman-52"/>
       <path d="M 54.890625 33.015625 
L 54.890625 0 
L 45.90625 0 
L 45.90625 32.71875 
Q 45.90625 40.484375 42.875 44.328125 
Q 39.84375 48.1875 33.796875 48.1875 
Q 26.515625 48.1875 22.3125 43.546875 
Q 18.109375 38.921875 18.109375 30.90625 
L 18.109375 0 
L 9.078125 0 
L 9.078125 75.984375 
L 18.109375 75.984375 
L 18.109375 46.1875 
Q 21.34375 51.125 25.703125 53.5625 
Q 30.078125 56 35.796875 56 
Q 45.21875 56 50.046875 50.171875 
Q 54.890625 44.34375 54.890625 33.015625 
" id="BitstreamVeraSans-Roman-68"/>
      </defs>
      <g style="fill:#555555;" transform="translate(718.966000466 1238.10435521)rotate(-70.0)scale(0.34 -0.34)">
       <use xlink:href="#BitstreamVeraSans-Roman-52"/>
       <use x="69.419921875" xlink:href="#BitstreamVeraSans-Roman-65"/>
       <use x="130.943359375" xlink:href="#BitstreamVeraSans-Roman-73"/>
       <use x="183.04296875" xlink:href="#BitstreamVeraSans-Roman-65"/>
       <use x="244.56640625" xlink:href="#BitstreamVeraSans-Roman-61"/>
       <use x="305.845703125" xlink:href="#BitstreamVeraSans-Roman-72"/>
       <use x="346.927734375" xlink:href="#BitstreamVeraSans-Roman-63"/>
       <use x="401.908203125" xlink:href="#BitstreamVeraSans-Roman-68"/>
       <use x="465.287109375" xlink:href="#BitstreamVeraSans-Roman-20"/>
       <use x="497.07421875" xlink:href="#BitstreamVeraSans-Roman-61"/>
       <use x="558.353515625" xlink:href="#BitstreamVeraSans-Roman-6e"/>
       <use x="621.732421875" xlink:href="#BitstreamVeraSans-Roman-64"/>
       <use x="685.208984375" xlink:href="#BitstreamVeraSans-Roman-20"/>
       <use x="716.99609375" xlink:href="#BitstreamVeraSans-Roman-44"/>
       <use x="793.998046875" xlink:href="#BitstreamVeraSans-Roman-65"/>
       <use x="855.521484375" xlink:href="#BitstreamVeraSans-Roman-76"/>
       <use x="914.701171875" xlink:href="#BitstreamVeraSans-Roman-65"/>
       <use x="976.224609375" xlink:href="#BitstreamVeraSans-Roman-6c"/>
       <use x="1004.0078125" xlink:href="#BitstreamVeraSans-Roman-6f"/>
       <use x="1065.18945312" xlink:href="#BitstreamVeraSans-Roman-70"/>
      </g>
     </g>
    </g>
    <g id="xtick_6">
     <g id="line2d_16">
      <path clip-path="url(#peba3872631)" d="M 926.007356 860.652812 
L 926.007356 23.652812 
" style="fill:none;stroke:#ffffff;stroke-linecap:square;stroke-width:0.5;"/>
     </g>
     <g id="line2d_17">
      <g>
       <use style="fill:#555555;stroke:#555555;stroke-width:0.5;" x="926.007355769" xlink:href="#m711d8e0352" y="860.6528125"/>
      </g>
     </g>
     <g id="line2d_18">
      <g>
       <use style="fill:#555555;stroke:#555555;stroke-width:0.5;" x="926.007355769" xlink:href="#m2641eee7fa" y="23.6528125"/>
      </g>
     </g>
     <g id="text_6">
      <!-- Market and storage -->
      <defs>
       <path d="M 9.078125 75.984375 
L 18.109375 75.984375 
L 18.109375 31.109375 
L 44.921875 54.6875 
L 56.390625 54.6875 
L 27.390625 29.109375 
L 57.625 0 
L 45.90625 0 
L 18.109375 26.703125 
L 18.109375 0 
L 9.078125 0 
z
" id="BitstreamVeraSans-Roman-6b"/>
      </defs>
      <g style="fill:#555555;" transform="translate(877.909198441 1190.22995272)rotate(-70.0)scale(0.34 -0.34)">
       <use xlink:href="#BitstreamVeraSans-Roman-4d"/>
       <use x="86.279296875" xlink:href="#BitstreamVeraSans-Roman-61"/>
       <use x="147.55859375" xlink:href="#BitstreamVeraSans-Roman-72"/>
       <use x="188.671875" xlink:href="#BitstreamVeraSans-Roman-6b"/>
       <use x="246.53515625" xlink:href="#BitstreamVeraSans-Roman-65"/>
       <use x="308.05859375" xlink:href="#BitstreamVeraSans-Roman-74"/>
       <use x="347.267578125" xlink:href="#BitstreamVeraSans-Roman-20"/>
       <use x="379.0546875" xlink:href="#BitstreamVeraSans-Roman-61"/>
       <use x="440.333984375" xlink:href="#BitstreamVeraSans-Roman-6e"/>
       <use x="503.712890625" xlink:href="#BitstreamVeraSans-Roman-64"/>
       <use x="567.189453125" xlink:href="#BitstreamVeraSans-Roman-20"/>
       <use x="598.9765625" xlink:href="#BitstreamVeraSans-Roman-73"/>
       <use x="651.076171875" xlink:href="#BitstreamVeraSans-Roman-74"/>
       <use x="690.28515625" xlink:href="#BitstreamVeraSans-Roman-6f"/>
       <use x="751.466796875" xlink:href="#BitstreamVeraSans-Roman-72"/>
       <use x="792.580078125" xlink:href="#BitstreamVeraSans-Roman-61"/>
       <use x="853.859375" xlink:href="#BitstreamVeraSans-Roman-67"/>
       <use x="917.3359375" xlink:href="#BitstreamVeraSans-Roman-65"/>
      </g>
     </g>
    </g>
    <g id="xtick_7">
     <g id="line2d_19">
      <path clip-path="url(#peba3872631)" d="M 1076.238125 860.652812 
L 1076.238125 23.652812 
" style="fill:none;stroke:#ffffff;stroke-linecap:square;stroke-width:0.5;"/>
     </g>
     <g id="line2d_20">
      <g>
       <use style="fill:#555555;stroke:#555555;stroke-width:0.5;" x="1076.238125" xlink:href="#m711d8e0352" y="860.6528125"/>
      </g>
     </g>
     <g id="line2d_21">
      <g>
       <use style="fill:#555555;stroke:#555555;stroke-width:0.5;" x="1076.238125" xlink:href="#m2641eee7fa" y="23.6528125"/>
      </g>
     </g>
     <g id="text_7">
      <!-- Vessel buyback -->
      <defs>
       <path d="M 32.171875 -5.078125 
Q 28.375 -14.84375 24.75 -17.8125 
Q 21.140625 -20.796875 15.09375 -20.796875 
L 7.90625 -20.796875 
L 7.90625 -13.28125 
L 13.1875 -13.28125 
Q 16.890625 -13.28125 18.9375 -11.515625 
Q 21 -9.765625 23.484375 -3.21875 
L 25.09375 0.875 
L 2.984375 54.6875 
L 12.5 54.6875 
L 29.59375 11.921875 
L 46.6875 54.6875 
L 56.203125 54.6875 
z
" id="BitstreamVeraSans-Roman-79"/>
       <path d="M 28.609375 0 
L 0.78125 72.90625 
L 11.078125 72.90625 
L 34.1875 11.53125 
L 57.328125 72.90625 
L 67.578125 72.90625 
L 39.796875 0 
z
" id="BitstreamVeraSans-Roman-56"/>
       <path d="M 48.6875 27.296875 
Q 48.6875 37.203125 44.609375 42.84375 
Q 40.53125 48.484375 33.40625 48.484375 
Q 26.265625 48.484375 22.1875 42.84375 
Q 18.109375 37.203125 18.109375 27.296875 
Q 18.109375 17.390625 22.1875 11.75 
Q 26.265625 6.109375 33.40625 6.109375 
Q 40.53125 6.109375 44.609375 11.75 
Q 48.6875 17.390625 48.6875 27.296875 
M 18.109375 46.390625 
Q 20.953125 51.265625 25.265625 53.625 
Q 29.59375 56 35.59375 56 
Q 45.5625 56 51.78125 48.09375 
Q 58.015625 40.1875 58.015625 27.296875 
Q 58.015625 14.40625 51.78125 6.484375 
Q 45.5625 -1.421875 35.59375 -1.421875 
Q 29.59375 -1.421875 25.265625 0.953125 
Q 20.953125 3.328125 18.109375 8.203125 
L 18.109375 0 
L 9.078125 0 
L 9.078125 75.984375 
L 18.109375 75.984375 
z
" id="BitstreamVeraSans-Roman-62"/>
      </defs>
      <g style="fill:#555555;" transform="translate(1039.77137802 1126.31587816)rotate(-70.0)scale(0.34 -0.34)">
       <use xlink:href="#BitstreamVeraSans-Roman-56"/>
       <use x="68.298828125" xlink:href="#BitstreamVeraSans-Roman-65"/>
       <use x="129.822265625" xlink:href="#BitstreamVeraSans-Roman-73"/>
       <use x="181.921875" xlink:href="#BitstreamVeraSans-Roman-73"/>
       <use x="234.021484375" xlink:href="#BitstreamVeraSans-Roman-65"/>
       <use x="295.544921875" xlink:href="#BitstreamVeraSans-Roman-6c"/>
       <use x="323.328125" xlink:href="#BitstreamVeraSans-Roman-20"/>
       <use x="355.115234375" xlink:href="#BitstreamVeraSans-Roman-62"/>
       <use x="418.591796875" xlink:href="#BitstreamVeraSans-Roman-75"/>
       <use x="481.970703125" xlink:href="#BitstreamVeraSans-Roman-79"/>
       <use x="541.150390625" xlink:href="#BitstreamVeraSans-Roman-62"/>
       <use x="604.626953125" xlink:href="#BitstreamVeraSans-Roman-61"/>
       <use x="665.90625" xlink:href="#BitstreamVeraSans-Roman-63"/>
       <use x="720.88671875" xlink:href="#BitstreamVeraSans-Roman-6b"/>
      </g>
     </g>
    </g>
    <g id="xtick_8">
     <g id="line2d_22">
      <path clip-path="url(#peba3872631)" d="M 1226.468894 860.652812 
L 1226.468894 23.652812 
" style="fill:none;stroke:#ffffff;stroke-linecap:square;stroke-width:0.5;"/>
     </g>
     <g id="line2d_23">
      <g>
       <use style="fill:#555555;stroke:#555555;stroke-width:0.5;" x="1226.46889423" xlink:href="#m711d8e0352" y="860.6528125"/>
      </g>
     </g>
     <g id="line2d_24">
      <g>
       <use style="fill:#555555;stroke:#555555;stroke-width:0.5;" x="1226.46889423" xlink:href="#m2641eee7fa" y="23.6528125"/>
      </g>
     </g>
     <g id="text_8">
      <!-- Fisher assistance -->
      <defs>
       <path d="M 9.421875 54.6875 
L 18.40625 54.6875 
L 18.40625 0 
L 9.421875 0 
z
M 9.421875 75.984375 
L 18.40625 75.984375 
L 18.40625 64.59375 
L 9.421875 64.59375 
z
" id="BitstreamVeraSans-Roman-69"/>
      </defs>
      <g style="fill:#555555;" transform="translate(1185.23529494 1152.50951631)rotate(-70.0)scale(0.34 -0.34)">
       <use xlink:href="#BitstreamVeraSans-Roman-46"/>
       <use x="57.41015625" xlink:href="#BitstreamVeraSans-Roman-69"/>
       <use x="85.193359375" xlink:href="#BitstreamVeraSans-Roman-73"/>
       <use x="137.29296875" xlink:href="#BitstreamVeraSans-Roman-68"/>
       <use x="200.671875" xlink:href="#BitstreamVeraSans-Roman-65"/>
       <use x="262.1953125" xlink:href="#BitstreamVeraSans-Roman-72"/>
       <use x="303.30859375" xlink:href="#BitstreamVeraSans-Roman-20"/>
       <use x="335.095703125" xlink:href="#BitstreamVeraSans-Roman-61"/>
       <use x="396.375" xlink:href="#BitstreamVeraSans-Roman-73"/>
       <use x="448.474609375" xlink:href="#BitstreamVeraSans-Roman-73"/>
       <use x="500.57421875" xlink:href="#BitstreamVeraSans-Roman-69"/>
       <use x="528.357421875" xlink:href="#BitstreamVeraSans-Roman-73"/>
       <use x="580.45703125" xlink:href="#BitstreamVeraSans-Roman-74"/>
       <use x="619.666015625" xlink:href="#BitstreamVeraSans-Roman-61"/>
       <use x="680.9453125" xlink:href="#BitstreamVeraSans-Roman-6e"/>
       <use x="744.32421875" xlink:href="#BitstreamVeraSans-Roman-63"/>
       <use x="799.3046875" xlink:href="#BitstreamVeraSans-Roman-65"/>
      </g>
     </g>
    </g>
    <g id="xtick_9">
     <g id="line2d_25">
      <path clip-path="url(#peba3872631)" d="M 1376.699663 860.652812 
L 1376.699663 23.652812 
" style="fill:none;stroke:#ffffff;stroke-linecap:square;stroke-width:0.5;"/>
     </g>
     <g id="line2d_26">
      <g>
       <use style="fill:#555555;stroke:#555555;stroke-width:0.5;" x="1376.69966346" xlink:href="#m711d8e0352" y="860.6528125"/>
      </g>
     </g>
     <g id="line2d_27">
      <g>
       <use style="fill:#555555;stroke:#555555;stroke-width:0.5;" x="1376.69966346" xlink:href="#m2641eee7fa" y="23.6528125"/>
      </g>
     </g>
     <g id="text_9">
      <!-- MPAs -->
      <defs>
       <path d="M 34.1875 63.1875 
L 20.796875 26.90625 
L 47.609375 26.90625 
z
M 28.609375 72.90625 
L 39.796875 72.90625 
L 67.578125 0 
L 57.328125 0 
L 50.6875 18.703125 
L 17.828125 18.703125 
L 11.1875 0 
L 0.78125 0 
z
" id="BitstreamVeraSans-Roman-41"/>
      </defs>
      <g style="fill:#555555;" transform="translate(1369.99235635 962.789100019)rotate(-70.0)scale(0.34 -0.34)">
       <use xlink:href="#BitstreamVeraSans-Roman-4d"/>
       <use x="86.279296875" xlink:href="#BitstreamVeraSans-Roman-50"/>
       <use x="146.48828125" xlink:href="#BitstreamVeraSans-Roman-41"/>
       <use x="214.896484375" xlink:href="#BitstreamVeraSans-Roman-73"/>
      </g>
     </g>
    </g>
    <g id="xtick_10">
     <g id="line2d_28">
      <path clip-path="url(#peba3872631)" d="M 1526.930433 860.652812 
L 1526.930433 23.652812 
" style="fill:none;stroke:#ffffff;stroke-linecap:square;stroke-width:0.5;"/>
     </g>
     <g id="line2d_29">
      <g>
       <use style="fill:#555555;stroke:#555555;stroke-width:0.5;" x="1526.93043269" xlink:href="#m711d8e0352" y="860.6528125"/>
      </g>
     </g>
     <g id="line2d_30">
      <g>
       <use style="fill:#555555;stroke:#555555;stroke-width:0.5;" x="1526.93043269" xlink:href="#m2641eee7fa" y="23.6528125"/>
      </g>
     </g>
     <g id="text_10">
      <!-- Tax exemption -->
      <defs>
       <path d="M -0.296875 72.90625 
L 61.375 72.90625 
L 61.375 64.59375 
L 35.5 64.59375 
L 35.5 0 
L 25.59375 0 
L 25.59375 64.59375 
L -0.296875 64.59375 
z
" id="BitstreamVeraSans-Roman-54"/>
       <path d="M 54.890625 54.6875 
L 35.109375 28.078125 
L 55.90625 0 
L 45.3125 0 
L 29.390625 21.484375 
L 13.484375 0 
L 2.875 0 
L 24.125 28.609375 
L 4.6875 54.6875 
L 15.28125 54.6875 
L 29.78125 35.203125 
L 44.28125 54.6875 
z
" id="BitstreamVeraSans-Roman-78"/>
      </defs>
      <g style="fill:#555555;" transform="translate(1492.2724913 1116.37657312)rotate(-70.0)scale(0.34 -0.34)">
       <use xlink:href="#BitstreamVeraSans-Roman-54"/>
       <use x="60.833984375" xlink:href="#BitstreamVeraSans-Roman-61"/>
       <use x="122.11328125" xlink:href="#BitstreamVeraSans-Roman-78"/>
       <use x="181.29296875" xlink:href="#BitstreamVeraSans-Roman-20"/>
       <use x="213.080078125" xlink:href="#BitstreamVeraSans-Roman-65"/>
       <use x="274.587890625" xlink:href="#BitstreamVeraSans-Roman-78"/>
       <use x="333.720703125" xlink:href="#BitstreamVeraSans-Roman-65"/>
       <use x="395.244140625" xlink:href="#BitstreamVeraSans-Roman-6d"/>
       <use x="492.65625" xlink:href="#BitstreamVeraSans-Roman-70"/>
       <use x="556.1328125" xlink:href="#BitstreamVeraSans-Roman-74"/>
       <use x="595.341796875" xlink:href="#BitstreamVeraSans-Roman-69"/>
       <use x="623.125" xlink:href="#BitstreamVeraSans-Roman-6f"/>
       <use x="684.306640625" xlink:href="#BitstreamVeraSans-Roman-6e"/>
      </g>
     </g>
    </g>
    <g id="xtick_11">
     <g id="line2d_31">
      <path clip-path="url(#peba3872631)" d="M 1677.161202 860.652812 
L 1677.161202 23.652812 
" style="fill:none;stroke:#ffffff;stroke-linecap:square;stroke-width:0.5;"/>
     </g>
     <g id="line2d_32">
      <g>
       <use style="fill:#555555;stroke:#555555;stroke-width:0.5;" x="1677.16120192" xlink:href="#m711d8e0352" y="860.6528125"/>
      </g>
     </g>
     <g id="line2d_33">
      <g>
       <use style="fill:#555555;stroke:#555555;stroke-width:0.5;" x="1677.16120192" xlink:href="#m2641eee7fa" y="23.6528125"/>
      </g>
     </g>
     <g id="text_11">
      <!-- Develop project -->
      <defs>
       <path d="M 9.421875 54.6875 
L 18.40625 54.6875 
L 18.40625 -0.984375 
Q 18.40625 -11.421875 14.421875 -16.109375 
Q 10.453125 -20.796875 1.609375 -20.796875 
L -1.8125 -20.796875 
L -1.8125 -13.1875 
L 0.59375 -13.1875 
Q 5.71875 -13.1875 7.5625 -10.8125 
Q 9.421875 -8.453125 9.421875 -0.984375 
z
M 9.421875 75.984375 
L 18.40625 75.984375 
L 18.40625 64.59375 
L 9.421875 64.59375 
z
" id="BitstreamVeraSans-Roman-6a"/>
      </defs>
      <g style="fill:#555555;" transform="translate(1639.88498946 1130.76385445)rotate(-70.0)scale(0.34 -0.34)">
       <use xlink:href="#BitstreamVeraSans-Roman-44"/>
       <use x="77.001953125" xlink:href="#BitstreamVeraSans-Roman-65"/>
       <use x="138.525390625" xlink:href="#BitstreamVeraSans-Roman-76"/>
       <use x="197.705078125" xlink:href="#BitstreamVeraSans-Roman-65"/>
       <use x="259.228515625" xlink:href="#BitstreamVeraSans-Roman-6c"/>
       <use x="287.01171875" xlink:href="#BitstreamVeraSans-Roman-6f"/>
       <use x="348.193359375" xlink:href="#BitstreamVeraSans-Roman-70"/>
       <use x="411.669921875" xlink:href="#BitstreamVeraSans-Roman-20"/>
       <use x="443.45703125" xlink:href="#BitstreamVeraSans-Roman-70"/>
       <use x="506.93359375" xlink:href="#BitstreamVeraSans-Roman-72"/>
       <use x="548.015625" xlink:href="#BitstreamVeraSans-Roman-6f"/>
       <use x="609.197265625" xlink:href="#BitstreamVeraSans-Roman-6a"/>
       <use x="636.98046875" xlink:href="#BitstreamVeraSans-Roman-65"/>
       <use x="698.50390625" xlink:href="#BitstreamVeraSans-Roman-63"/>
       <use x="753.484375" xlink:href="#BitstreamVeraSans-Roman-74"/>
      </g>
     </g>
    </g>
    <g id="xtick_12">
     <g id="line2d_34">
      <path clip-path="url(#peba3872631)" d="M 1827.391971 860.652812 
L 1827.391971 23.652812 
" style="fill:none;stroke:#ffffff;stroke-linecap:square;stroke-width:0.5;"/>
     </g>
     <g id="line2d_35">
      <g>
       <use style="fill:#555555;stroke:#555555;stroke-width:0.5;" x="1827.39197115" xlink:href="#m711d8e0352" y="860.6528125"/>
      </g>
     </g>
     <g id="line2d_36">
      <g>
       <use style="fill:#555555;stroke:#555555;stroke-width:0.5;" x="1827.39197115" xlink:href="#m2641eee7fa" y="23.6528125"/>
      </g>
     </g>
     <g id="text_12">
      <!-- Fishing access -->
      <g style="fill:#555555;" transform="translate(1794.10948515 1108.81850791)rotate(-70.0)scale(0.34 -0.34)">
       <use xlink:href="#BitstreamVeraSans-Roman-46"/>
       <use x="57.41015625" xlink:href="#BitstreamVeraSans-Roman-69"/>
       <use x="85.193359375" xlink:href="#BitstreamVeraSans-Roman-73"/>
       <use x="137.29296875" xlink:href="#BitstreamVeraSans-Roman-68"/>
       <use x="200.671875" xlink:href="#BitstreamVeraSans-Roman-69"/>
       <use x="228.455078125" xlink:href="#BitstreamVeraSans-Roman-6e"/>
       <use x="291.833984375" xlink:href="#BitstreamVeraSans-Roman-67"/>
       <use x="355.310546875" xlink:href="#BitstreamVeraSans-Roman-20"/>
       <use x="387.09765625" xlink:href="#BitstreamVeraSans-Roman-61"/>
       <use x="448.376953125" xlink:href="#BitstreamVeraSans-Roman-63"/>
       <use x="503.357421875" xlink:href="#BitstreamVeraSans-Roman-63"/>
       <use x="558.337890625" xlink:href="#BitstreamVeraSans-Roman-65"/>
       <use x="619.861328125" xlink:href="#BitstreamVeraSans-Roman-73"/>
       <use x="671.9609375" xlink:href="#BitstreamVeraSans-Roman-73"/>
      </g>
     </g>
    </g>
    <g id="xtick_13">
     <g id="line2d_37">
      <path clip-path="url(#peba3872631)" d="M 1977.62274 860.652812 
L 1977.62274 23.652812 
" style="fill:none;stroke:#ffffff;stroke-linecap:square;stroke-width:0.5;"/>
     </g>
     <g id="line2d_38">
      <g>
       <use style="fill:#555555;stroke:#555555;stroke-width:0.5;" x="1977.62274038" xlink:href="#m711d8e0352" y="860.6528125"/>
      </g>
     </g>
     <g id="line2d_39">
      <g>
       <use style="fill:#555555;stroke:#555555;stroke-width:0.5;" x="1977.62274038" xlink:href="#m2641eee7fa" y="23.6528125"/>
      </g>
     </g>
     <g id="text_13">
      <!-- Rural fisher communities -->
      <defs>
       <path d="M 37.109375 75.984375 
L 37.109375 68.5 
L 28.515625 68.5 
Q 23.6875 68.5 21.796875 66.546875 
Q 19.921875 64.59375 19.921875 59.515625 
L 19.921875 54.6875 
L 34.71875 54.6875 
L 34.71875 47.703125 
L 19.921875 47.703125 
L 19.921875 0 
L 10.890625 0 
L 10.890625 47.703125 
L 2.296875 47.703125 
L 2.296875 54.6875 
L 10.890625 54.6875 
L 10.890625 58.5 
Q 10.890625 67.625 15.140625 71.796875 
Q 19.390625 75.984375 28.609375 75.984375 
z
" id="BitstreamVeraSans-Roman-66"/>
      </defs>
      <g style="fill:#555555;" transform="translate(1913.54150079 1278.05626795)rotate(-70.0)scale(0.34 -0.34)">
       <use xlink:href="#BitstreamVeraSans-Roman-52"/>
       <use x="69.419921875" xlink:href="#BitstreamVeraSans-Roman-75"/>
       <use x="132.798828125" xlink:href="#BitstreamVeraSans-Roman-72"/>
       <use x="173.912109375" xlink:href="#BitstreamVeraSans-Roman-61"/>
       <use x="235.19140625" xlink:href="#BitstreamVeraSans-Roman-6c"/>
       <use x="262.974609375" xlink:href="#BitstreamVeraSans-Roman-20"/>
       <use x="294.76171875" xlink:href="#BitstreamVeraSans-Roman-66"/>
       <use x="329.966796875" xlink:href="#BitstreamVeraSans-Roman-69"/>
       <use x="357.75" xlink:href="#BitstreamVeraSans-Roman-73"/>
       <use x="409.849609375" xlink:href="#BitstreamVeraSans-Roman-68"/>
       <use x="473.228515625" xlink:href="#BitstreamVeraSans-Roman-65"/>
       <use x="534.751953125" xlink:href="#BitstreamVeraSans-Roman-72"/>
       <use x="575.865234375" xlink:href="#BitstreamVeraSans-Roman-20"/>
       <use x="607.65234375" xlink:href="#BitstreamVeraSans-Roman-63"/>
       <use x="662.6328125" xlink:href="#BitstreamVeraSans-Roman-6f"/>
       <use x="723.814453125" xlink:href="#BitstreamVeraSans-Roman-6d"/>
       <use x="821.2265625" xlink:href="#BitstreamVeraSans-Roman-6d"/>
       <use x="918.638671875" xlink:href="#BitstreamVeraSans-Roman-75"/>
       <use x="982.017578125" xlink:href="#BitstreamVeraSans-Roman-6e"/>
       <use x="1045.39648438" xlink:href="#BitstreamVeraSans-Roman-69"/>
       <use x="1073.1796875" xlink:href="#BitstreamVeraSans-Roman-74"/>
       <use x="1112.38867188" xlink:href="#BitstreamVeraSans-Roman-69"/>
       <use x="1140.171875" xlink:href="#BitstreamVeraSans-Roman-65"/>
       <use x="1201.6953125" xlink:href="#BitstreamVeraSans-Roman-73"/>
      </g>
     </g>
    </g>
   </g>
   <g id="matplotlib.axis_2">
    <g id="ytick_1">
     <g id="line2d_40">
      <path clip-path="url(#peba3872631)" d="M 99.738125 860.652812 
L 2052.738125 860.652812 
" style="fill:none;stroke:#ffffff;stroke-linecap:square;stroke-width:0.5;"/>
     </g>
     <g id="line2d_41">
      <defs>
       <path d="M 0 0 
L -4 0 
" id="meda9afa6ae" style="stroke:#555555;stroke-width:0.5;"/>
      </defs>
      <g>
       <use style="fill:#555555;stroke:#555555;stroke-width:0.5;" x="99.738125" xlink:href="#meda9afa6ae" y="860.6528125"/>
      </g>
     </g>
     <g id="line2d_42">
      <defs>
       <path d="M 0 0 
L 4 0 
" id="m4701ec45e5" style="stroke:#555555;stroke-width:0.5;"/>
      </defs>
      <g>
       <use style="fill:#555555;stroke:#555555;stroke-width:0.5;" x="2052.738125" xlink:href="#m4701ec45e5" y="860.6528125"/>
      </g>
     </g>
     <g id="text_14">
      <!-- 0 -->
      <defs>
       <path d="M 31.78125 66.40625 
Q 24.171875 66.40625 20.328125 58.90625 
Q 16.5 51.421875 16.5 36.375 
Q 16.5 21.390625 20.328125 13.890625 
Q 24.171875 6.390625 31.78125 6.390625 
Q 39.453125 6.390625 43.28125 13.890625 
Q 47.125 21.390625 47.125 36.375 
Q 47.125 51.421875 43.28125 58.90625 
Q 39.453125 66.40625 31.78125 66.40625 
M 31.78125 74.21875 
Q 44.046875 74.21875 50.515625 64.515625 
Q 56.984375 54.828125 56.984375 36.375 
Q 56.984375 17.96875 50.515625 8.265625 
Q 44.046875 -1.421875 31.78125 -1.421875 
Q 19.53125 -1.421875 13.0625 8.265625 
Q 6.59375 17.96875 6.59375 36.375 
Q 6.59375 54.828125 13.0625 64.515625 
Q 19.53125 74.21875 31.78125 74.21875 
" id="BitstreamVeraSans-Roman-30"/>
      </defs>
      <g style="fill:#555555;" transform="translate(70.105625 870.0346875)scale(0.34 -0.34)">
       <use xlink:href="#BitstreamVeraSans-Roman-30"/>
      </g>
     </g>
    </g>
    <g id="ytick_2">
     <g id="line2d_43">
      <path clip-path="url(#peba3872631)" d="M 99.738125 756.027812 
L 2052.738125 756.027812 
" style="fill:none;stroke:#ffffff;stroke-linecap:square;stroke-width:0.5;"/>
     </g>
     <g id="line2d_44">
      <g>
       <use style="fill:#555555;stroke:#555555;stroke-width:0.5;" x="99.738125" xlink:href="#meda9afa6ae" y="756.0278125"/>
      </g>
     </g>
     <g id="line2d_45">
      <g>
       <use style="fill:#555555;stroke:#555555;stroke-width:0.5;" x="2052.738125" xlink:href="#m4701ec45e5" y="756.0278125"/>
      </g>
     </g>
     <g id="text_15">
      <!-- 1 -->
      <defs>
       <path d="M 12.40625 8.296875 
L 28.515625 8.296875 
L 28.515625 63.921875 
L 10.984375 60.40625 
L 10.984375 69.390625 
L 28.421875 72.90625 
L 38.28125 72.90625 
L 38.28125 8.296875 
L 54.390625 8.296875 
L 54.390625 0 
L 12.40625 0 
z
" id="BitstreamVeraSans-Roman-31"/>
      </defs>
      <g style="fill:#555555;" transform="translate(70.105625 765.4096875)scale(0.34 -0.34)">
       <use xlink:href="#BitstreamVeraSans-Roman-31"/>
      </g>
     </g>
    </g>
    <g id="ytick_3">
     <g id="line2d_46">
      <path clip-path="url(#peba3872631)" d="M 99.738125 651.402812 
L 2052.738125 651.402812 
" style="fill:none;stroke:#ffffff;stroke-linecap:square;stroke-width:0.5;"/>
     </g>
     <g id="line2d_47">
      <g>
       <use style="fill:#555555;stroke:#555555;stroke-width:0.5;" x="99.738125" xlink:href="#meda9afa6ae" y="651.4028125"/>
      </g>
     </g>
     <g id="line2d_48">
      <g>
       <use style="fill:#555555;stroke:#555555;stroke-width:0.5;" x="2052.738125" xlink:href="#m4701ec45e5" y="651.4028125"/>
      </g>
     </g>
     <g id="text_16">
      <!-- 2 -->
      <defs>
       <path d="M 19.1875 8.296875 
L 53.609375 8.296875 
L 53.609375 0 
L 7.328125 0 
L 7.328125 8.296875 
Q 12.9375 14.109375 22.625 23.890625 
Q 32.328125 33.6875 34.8125 36.53125 
Q 39.546875 41.84375 41.421875 45.53125 
Q 43.3125 49.21875 43.3125 52.78125 
Q 43.3125 58.59375 39.234375 62.25 
Q 35.15625 65.921875 28.609375 65.921875 
Q 23.96875 65.921875 18.8125 64.3125 
Q 13.671875 62.703125 7.8125 59.421875 
L 7.8125 69.390625 
Q 13.765625 71.78125 18.9375 73 
Q 24.125 74.21875 28.421875 74.21875 
Q 39.75 74.21875 46.484375 68.546875 
Q 53.21875 62.890625 53.21875 53.421875 
Q 53.21875 48.921875 51.53125 44.890625 
Q 49.859375 40.875 45.40625 35.40625 
Q 44.1875 33.984375 37.640625 27.21875 
Q 31.109375 20.453125 19.1875 8.296875 
" id="BitstreamVeraSans-Roman-32"/>
      </defs>
      <g style="fill:#555555;" transform="translate(70.105625 660.7846875)scale(0.34 -0.34)">
       <use xlink:href="#BitstreamVeraSans-Roman-32"/>
      </g>
     </g>
    </g>
    <g id="ytick_4">
     <g id="line2d_49">
      <path clip-path="url(#peba3872631)" d="M 99.738125 546.777812 
L 2052.738125 546.777812 
" style="fill:none;stroke:#ffffff;stroke-linecap:square;stroke-width:0.5;"/>
     </g>
     <g id="line2d_50">
      <g>
       <use style="fill:#555555;stroke:#555555;stroke-width:0.5;" x="99.738125" xlink:href="#meda9afa6ae" y="546.7778125"/>
      </g>
     </g>
     <g id="line2d_51">
      <g>
       <use style="fill:#555555;stroke:#555555;stroke-width:0.5;" x="2052.738125" xlink:href="#m4701ec45e5" y="546.7778125"/>
      </g>
     </g>
     <g id="text_17">
      <!-- 3 -->
      <defs>
       <path d="M 40.578125 39.3125 
Q 47.65625 37.796875 51.625 33 
Q 55.609375 28.21875 55.609375 21.1875 
Q 55.609375 10.40625 48.1875 4.484375 
Q 40.765625 -1.421875 27.09375 -1.421875 
Q 22.515625 -1.421875 17.65625 -0.515625 
Q 12.796875 0.390625 7.625 2.203125 
L 7.625 11.71875 
Q 11.71875 9.328125 16.59375 8.109375 
Q 21.484375 6.890625 26.8125 6.890625 
Q 36.078125 6.890625 40.9375 10.546875 
Q 45.796875 14.203125 45.796875 21.1875 
Q 45.796875 27.640625 41.28125 31.265625 
Q 36.765625 34.90625 28.71875 34.90625 
L 20.21875 34.90625 
L 20.21875 43.015625 
L 29.109375 43.015625 
Q 36.375 43.015625 40.234375 45.921875 
Q 44.09375 48.828125 44.09375 54.296875 
Q 44.09375 59.90625 40.109375 62.90625 
Q 36.140625 65.921875 28.71875 65.921875 
Q 24.65625 65.921875 20.015625 65.03125 
Q 15.375 64.15625 9.8125 62.3125 
L 9.8125 71.09375 
Q 15.4375 72.65625 20.34375 73.4375 
Q 25.25 74.21875 29.59375 74.21875 
Q 40.828125 74.21875 47.359375 69.109375 
Q 53.90625 64.015625 53.90625 55.328125 
Q 53.90625 49.265625 50.4375 45.09375 
Q 46.96875 40.921875 40.578125 39.3125 
" id="BitstreamVeraSans-Roman-33"/>
      </defs>
      <g style="fill:#555555;" transform="translate(70.105625 556.1596875)scale(0.34 -0.34)">
       <use xlink:href="#BitstreamVeraSans-Roman-33"/>
      </g>
     </g>
    </g>
    <g id="ytick_5">
     <g id="line2d_52">
      <path clip-path="url(#peba3872631)" d="M 99.738125 442.152812 
L 2052.738125 442.152812 
" style="fill:none;stroke:#ffffff;stroke-linecap:square;stroke-width:0.5;"/>
     </g>
     <g id="line2d_53">
      <g>
       <use style="fill:#555555;stroke:#555555;stroke-width:0.5;" x="99.738125" xlink:href="#meda9afa6ae" y="442.1528125"/>
      </g>
     </g>
     <g id="line2d_54">
      <g>
       <use style="fill:#555555;stroke:#555555;stroke-width:0.5;" x="2052.738125" xlink:href="#m4701ec45e5" y="442.1528125"/>
      </g>
     </g>
     <g id="text_18">
      <!-- 4 -->
      <defs>
       <path d="M 37.796875 64.3125 
L 12.890625 25.390625 
L 37.796875 25.390625 
z
M 35.203125 72.90625 
L 47.609375 72.90625 
L 47.609375 25.390625 
L 58.015625 25.390625 
L 58.015625 17.1875 
L 47.609375 17.1875 
L 47.609375 0 
L 37.796875 0 
L 37.796875 17.1875 
L 4.890625 17.1875 
L 4.890625 26.703125 
z
" id="BitstreamVeraSans-Roman-34"/>
      </defs>
      <g style="fill:#555555;" transform="translate(70.105625 451.5346875)scale(0.34 -0.34)">
       <use xlink:href="#BitstreamVeraSans-Roman-34"/>
      </g>
     </g>
    </g>
    <g id="ytick_6">
     <g id="line2d_55">
      <path clip-path="url(#peba3872631)" d="M 99.738125 337.527812 
L 2052.738125 337.527812 
" style="fill:none;stroke:#ffffff;stroke-linecap:square;stroke-width:0.5;"/>
     </g>
     <g id="line2d_56">
      <g>
       <use style="fill:#555555;stroke:#555555;stroke-width:0.5;" x="99.738125" xlink:href="#meda9afa6ae" y="337.5278125"/>
      </g>
     </g>
     <g id="line2d_57">
      <g>
       <use style="fill:#555555;stroke:#555555;stroke-width:0.5;" x="2052.738125" xlink:href="#m4701ec45e5" y="337.5278125"/>
      </g>
     </g>
     <g id="text_19">
      <!-- 5 -->
      <defs>
       <path d="M 10.796875 72.90625 
L 49.515625 72.90625 
L 49.515625 64.59375 
L 19.828125 64.59375 
L 19.828125 46.734375 
Q 21.96875 47.46875 24.109375 47.828125 
Q 26.265625 48.1875 28.421875 48.1875 
Q 40.625 48.1875 47.75 41.5 
Q 54.890625 34.8125 54.890625 23.390625 
Q 54.890625 11.625 47.5625 5.09375 
Q 40.234375 -1.421875 26.90625 -1.421875 
Q 22.3125 -1.421875 17.546875 -0.640625 
Q 12.796875 0.140625 7.71875 1.703125 
L 7.71875 11.625 
Q 12.109375 9.234375 16.796875 8.0625 
Q 21.484375 6.890625 26.703125 6.890625 
Q 35.15625 6.890625 40.078125 11.328125 
Q 45.015625 15.765625 45.015625 23.390625 
Q 45.015625 31 40.078125 35.4375 
Q 35.15625 39.890625 26.703125 39.890625 
Q 22.75 39.890625 18.8125 39.015625 
Q 14.890625 38.140625 10.796875 36.28125 
z
" id="BitstreamVeraSans-Roman-35"/>
      </defs>
      <g style="fill:#555555;" transform="translate(70.105625 346.9096875)scale(0.34 -0.34)">
       <use xlink:href="#BitstreamVeraSans-Roman-35"/>
      </g>
     </g>
    </g>
    <g id="ytick_7">
     <g id="line2d_58">
      <path clip-path="url(#peba3872631)" d="M 99.738125 232.902812 
L 2052.738125 232.902812 
" style="fill:none;stroke:#ffffff;stroke-linecap:square;stroke-width:0.5;"/>
     </g>
     <g id="line2d_59">
      <g>
       <use style="fill:#555555;stroke:#555555;stroke-width:0.5;" x="99.738125" xlink:href="#meda9afa6ae" y="232.9028125"/>
      </g>
     </g>
     <g id="line2d_60">
      <g>
       <use style="fill:#555555;stroke:#555555;stroke-width:0.5;" x="2052.738125" xlink:href="#m4701ec45e5" y="232.9028125"/>
      </g>
     </g>
     <g id="text_20">
      <!-- 6 -->
      <defs>
       <path d="M 33.015625 40.375 
Q 26.375 40.375 22.484375 35.828125 
Q 18.609375 31.296875 18.609375 23.390625 
Q 18.609375 15.53125 22.484375 10.953125 
Q 26.375 6.390625 33.015625 6.390625 
Q 39.65625 6.390625 43.53125 10.953125 
Q 47.40625 15.53125 47.40625 23.390625 
Q 47.40625 31.296875 43.53125 35.828125 
Q 39.65625 40.375 33.015625 40.375 
M 52.59375 71.296875 
L 52.59375 62.3125 
Q 48.875 64.0625 45.09375 64.984375 
Q 41.3125 65.921875 37.59375 65.921875 
Q 27.828125 65.921875 22.671875 59.328125 
Q 17.53125 52.734375 16.796875 39.40625 
Q 19.671875 43.65625 24.015625 45.921875 
Q 28.375 48.1875 33.59375 48.1875 
Q 44.578125 48.1875 50.953125 41.515625 
Q 57.328125 34.859375 57.328125 23.390625 
Q 57.328125 12.15625 50.6875 5.359375 
Q 44.046875 -1.421875 33.015625 -1.421875 
Q 20.359375 -1.421875 13.671875 8.265625 
Q 6.984375 17.96875 6.984375 36.375 
Q 6.984375 53.65625 15.1875 63.9375 
Q 23.390625 74.21875 37.203125 74.21875 
Q 40.921875 74.21875 44.703125 73.484375 
Q 48.484375 72.75 52.59375 71.296875 
" id="BitstreamVeraSans-Roman-36"/>
      </defs>
      <g style="fill:#555555;" transform="translate(70.105625 242.2846875)scale(0.34 -0.34)">
       <use xlink:href="#BitstreamVeraSans-Roman-36"/>
      </g>
     </g>
    </g>
    <g id="ytick_8">
     <g id="line2d_61">
      <path clip-path="url(#peba3872631)" d="M 99.738125 128.277812 
L 2052.738125 128.277812 
" style="fill:none;stroke:#ffffff;stroke-linecap:square;stroke-width:0.5;"/>
     </g>
     <g id="line2d_62">
      <g>
       <use style="fill:#555555;stroke:#555555;stroke-width:0.5;" x="99.738125" xlink:href="#meda9afa6ae" y="128.2778125"/>
      </g>
     </g>
     <g id="line2d_63">
      <g>
       <use style="fill:#555555;stroke:#555555;stroke-width:0.5;" x="2052.738125" xlink:href="#m4701ec45e5" y="128.2778125"/>
      </g>
     </g>
     <g id="text_21">
      <!-- 7 -->
      <defs>
       <path d="M 8.203125 72.90625 
L 55.078125 72.90625 
L 55.078125 68.703125 
L 28.609375 0 
L 18.3125 0 
L 43.21875 64.59375 
L 8.203125 64.59375 
z
" id="BitstreamVeraSans-Roman-37"/>
      </defs>
      <g style="fill:#555555;" transform="translate(70.105625 137.6596875)scale(0.34 -0.34)">
       <use xlink:href="#BitstreamVeraSans-Roman-37"/>
      </g>
     </g>
    </g>
    <g id="ytick_9">
     <g id="line2d_64">
      <path clip-path="url(#peba3872631)" d="M 99.738125 23.652812 
L 2052.738125 23.652812 
" style="fill:none;stroke:#ffffff;stroke-linecap:square;stroke-width:0.5;"/>
     </g>
     <g id="line2d_65">
      <g>
       <use style="fill:#555555;stroke:#555555;stroke-width:0.5;" x="99.738125" xlink:href="#meda9afa6ae" y="23.6528125"/>
      </g>
     </g>
     <g id="line2d_66">
      <g>
       <use style="fill:#555555;stroke:#555555;stroke-width:0.5;" x="2052.738125" xlink:href="#m4701ec45e5" y="23.6528125"/>
      </g>
     </g>
     <g id="text_22">
      <!-- 8 -->
      <defs>
       <path d="M 31.78125 34.625 
Q 24.75 34.625 20.71875 30.859375 
Q 16.703125 27.09375 16.703125 20.515625 
Q 16.703125 13.921875 20.71875 10.15625 
Q 24.75 6.390625 31.78125 6.390625 
Q 38.8125 6.390625 42.859375 10.171875 
Q 46.921875 13.96875 46.921875 20.515625 
Q 46.921875 27.09375 42.890625 30.859375 
Q 38.875 34.625 31.78125 34.625 
M 21.921875 38.8125 
Q 15.578125 40.375 12.03125 44.71875 
Q 8.5 49.078125 8.5 55.328125 
Q 8.5 64.0625 14.71875 69.140625 
Q 20.953125 74.21875 31.78125 74.21875 
Q 42.671875 74.21875 48.875 69.140625 
Q 55.078125 64.0625 55.078125 55.328125 
Q 55.078125 49.078125 51.53125 44.71875 
Q 48 40.375 41.703125 38.8125 
Q 48.828125 37.15625 52.796875 32.3125 
Q 56.78125 27.484375 56.78125 20.515625 
Q 56.78125 9.90625 50.3125 4.234375 
Q 43.84375 -1.421875 31.78125 -1.421875 
Q 19.734375 -1.421875 13.25 4.234375 
Q 6.78125 9.90625 6.78125 20.515625 
Q 6.78125 27.484375 10.78125 32.3125 
Q 14.796875 37.15625 21.921875 38.8125 
M 18.3125 54.390625 
Q 18.3125 48.734375 21.84375 45.5625 
Q 25.390625 42.390625 31.78125 42.390625 
Q 38.140625 42.390625 41.71875 45.5625 
Q 45.3125 48.734375 45.3125 54.390625 
Q 45.3125 60.0625 41.71875 63.234375 
Q 38.140625 66.40625 31.78125 66.40625 
Q 25.390625 66.40625 21.84375 63.234375 
Q 18.3125 60.0625 18.3125 54.390625 
" id="BitstreamVeraSans-Roman-38"/>
      </defs>
      <g style="fill:#555555;" transform="translate(70.105625 33.0346875)scale(0.34 -0.34)">
       <use xlink:href="#BitstreamVeraSans-Roman-38"/>
      </g>
     </g>
    </g>
    <g id="text_23">
     <!-- USD in billions -->
     <defs>
      <path d="M 53.515625 70.515625 
L 53.515625 60.890625 
Q 47.90625 63.578125 42.921875 64.890625 
Q 37.9375 66.21875 33.296875 66.21875 
Q 25.25 66.21875 20.875 63.09375 
Q 16.5 59.96875 16.5 54.203125 
Q 16.5 49.359375 19.40625 46.890625 
Q 22.3125 44.4375 30.421875 42.921875 
L 36.375 41.703125 
Q 47.40625 39.59375 52.65625 34.296875 
Q 57.90625 29 57.90625 20.125 
Q 57.90625 9.515625 50.796875 4.046875 
Q 43.703125 -1.421875 29.984375 -1.421875 
Q 24.8125 -1.421875 18.96875 -0.25 
Q 13.140625 0.921875 6.890625 3.21875 
L 6.890625 13.375 
Q 12.890625 10.015625 18.65625 8.296875 
Q 24.421875 6.59375 29.984375 6.59375 
Q 38.421875 6.59375 43.015625 9.90625 
Q 47.609375 13.234375 47.609375 19.390625 
Q 47.609375 24.75 44.3125 27.78125 
Q 41.015625 30.8125 33.5 32.328125 
L 27.484375 33.5 
Q 16.453125 35.6875 11.515625 40.375 
Q 6.59375 45.0625 6.59375 53.421875 
Q 6.59375 63.09375 13.40625 68.65625 
Q 20.21875 74.21875 32.171875 74.21875 
Q 37.3125 74.21875 42.625 73.28125 
Q 47.953125 72.359375 53.515625 70.515625 
" id="BitstreamVeraSans-Roman-53"/>
      <path d="M 8.6875 72.90625 
L 18.609375 72.90625 
L 18.609375 28.609375 
Q 18.609375 16.890625 22.84375 11.734375 
Q 27.09375 6.59375 36.625 6.59375 
Q 46.09375 6.59375 50.34375 11.734375 
Q 54.59375 16.890625 54.59375 28.609375 
L 54.59375 72.90625 
L 64.5 72.90625 
L 64.5 27.390625 
Q 64.5 13.140625 57.4375 5.859375 
Q 50.390625 -1.421875 36.625 -1.421875 
Q 22.796875 -1.421875 15.734375 5.859375 
Q 8.6875 13.140625 8.6875 27.390625 
z
" id="BitstreamVeraSans-Roman-55"/>
     </defs>
     <g style="fill:#555555;" transform="translate(33.0346875 564.494375)rotate(-90.0)scale(0.34 -0.34)">
      <use xlink:href="#BitstreamVeraSans-Roman-55"/>
      <use x="73.193359375" xlink:href="#BitstreamVeraSans-Roman-53"/>
      <use x="136.669921875" xlink:href="#BitstreamVeraSans-Roman-44"/>
      <use x="213.671875" xlink:href="#BitstreamVeraSans-Roman-20"/>
      <use x="245.458984375" xlink:href="#BitstreamVeraSans-Roman-69"/>
      <use x="273.2421875" xlink:href="#BitstreamVeraSans-Roman-6e"/>
      <use x="336.62109375" xlink:href="#BitstreamVeraSans-Roman-20"/>
      <use x="368.408203125" xlink:href="#BitstreamVeraSans-Roman-62"/>
      <use x="431.884765625" xlink:href="#BitstreamVeraSans-Roman-69"/>
      <use x="459.66796875" xlink:href="#BitstreamVeraSans-Roman-6c"/>
      <use x="487.451171875" xlink:href="#BitstreamVeraSans-Roman-6c"/>
      <use x="515.234375" xlink:href="#BitstreamVeraSans-Roman-69"/>
      <use x="543.017578125" xlink:href="#BitstreamVeraSans-Roman-6f"/>
      <use x="604.19921875" xlink:href="#BitstreamVeraSans-Roman-6e"/>
      <use x="667.578125" xlink:href="#BitstreamVeraSans-Roman-73"/>
     </g>
    </g>
   </g>
   <g id="patch_3">
    <path clip-path="url(#peba3872631)" d="M 137.295817 860.652812 
L 212.411202 860.652812 
L 212.411202 116.965321 
L 137.295817 116.965321 
z
" style="fill:#8bc34a;stroke:#eeeeee;stroke-linejoin:miter;stroke-width:0.5;"/>
   </g>
   <g id="patch_4">
    <path clip-path="url(#peba3872631)" d="M 287.526587 860.652812 
L 362.641971 860.652812 
L 362.641971 305.841676 
L 287.526587 305.841676 
z
" style="fill:#8bc34a;stroke:#eeeeee;stroke-linejoin:miter;stroke-width:0.5;"/>
   </g>
   <g id="patch_5">
    <path clip-path="url(#peba3872631)" d="M 437.757356 860.652812 
L 512.87274 860.652812 
L 512.87274 574.207054 
L 437.757356 574.207054 
z
" style="fill:#8bc34a;stroke:#eeeeee;stroke-linejoin:miter;stroke-width:0.5;"/>
   </g>
   <g id="patch_6">
    <path clip-path="url(#peba3872631)" d="M 587.988125 860.652812 
L 663.10351 860.652812 
L 663.10351 568.117449 
L 587.988125 568.117449 
z
" style="fill:#8bc34a;stroke:#eeeeee;stroke-linejoin:miter;stroke-width:0.5;"/>
   </g>
   <g id="patch_7">
    <path clip-path="url(#peba3872631)" d="M 738.218894 860.652812 
L 813.334279 860.652812 
L 813.334279 638.822995 
L 738.218894 638.822995 
z
" style="fill:#8bc34a;stroke:#eeeeee;stroke-linejoin:miter;stroke-width:0.5;"/>
   </g>
   <g id="patch_8">
    <path clip-path="url(#peba3872631)" d="M 888.449663 860.652812 
L 963.565048 860.652812 
L 963.565048 597.229363 
L 888.449663 597.229363 
z
" style="fill:#8bc34a;stroke:#eeeeee;stroke-linejoin:miter;stroke-width:0.5;"/>
   </g>
   <g id="patch_9">
    <path clip-path="url(#peba3872631)" d="M 1038.680433 860.652812 
L 1113.795817 860.652812 
L 1113.795817 643.434043 
L 1038.680433 643.434043 
z
" style="fill:#8bc34a;stroke:#eeeeee;stroke-linejoin:miter;stroke-width:0.5;"/>
   </g>
   <g id="patch_10">
    <path clip-path="url(#peba3872631)" d="M 1188.911202 860.652812 
L 1264.026587 860.652812 
L 1264.026587 707.603796 
L 1188.911202 707.603796 
z
" style="fill:#8bc34a;stroke:#eeeeee;stroke-linejoin:miter;stroke-width:0.5;"/>
   </g>
   <g id="patch_11">
    <path clip-path="url(#peba3872631)" d="M 1339.141971 860.652812 
L 1414.257356 860.652812 
L 1414.257356 760.387686 
L 1339.141971 760.387686 
z
" style="fill:#8bc34a;stroke:#eeeeee;stroke-linejoin:miter;stroke-width:0.5;"/>
   </g>
   <g id="patch_12">
    <path clip-path="url(#peba3872631)" d="M 1489.37274 860.652812 
L 1564.488125 860.652812 
L 1564.488125 761.450069 
L 1489.37274 761.450069 
z
" style="fill:#8bc34a;stroke:#eeeeee;stroke-linejoin:miter;stroke-width:0.5;"/>
   </g>
   <g id="patch_13">
    <path clip-path="url(#peba3872631)" d="M 1639.60351 860.652812 
L 1714.718894 860.652812 
L 1714.718894 779.571849 
L 1639.60351 779.571849 
z
" style="fill:#8bc34a;stroke:#eeeeee;stroke-linejoin:miter;stroke-width:0.5;"/>
   </g>
   <g id="patch_14">
    <path clip-path="url(#peba3872631)" d="M 1789.834279 860.652812 
L 1864.949663 860.652812 
L 1864.949663 762.590033 
L 1789.834279 762.590033 
z
" style="fill:#8bc34a;stroke:#eeeeee;stroke-linejoin:miter;stroke-width:0.5;"/>
   </g>
   <g id="patch_15">
    <path clip-path="url(#peba3872631)" d="M 1940.065048 860.652812 
L 2015.180433 860.652812 
L 2015.180433 857.938075 
L 1940.065048 857.938075 
z
" style="fill:#8bc34a;stroke:#eeeeee;stroke-linejoin:miter;stroke-width:0.5;"/>
   </g>
   <g id="patch_16">
    <path clip-path="url(#peba3872631)" d="M 137.295817 116.965321 
L 212.411202 116.965321 
L 212.411202 68.677202 
L 137.295817 68.677202 
z
" style="fill:#2f4f4f;stroke:#eeeeee;stroke-linejoin:miter;stroke-width:0.5;"/>
   </g>
   <g id="patch_17">
    <path clip-path="url(#peba3872631)" d="M 287.526587 305.841676 
L 362.641971 305.841676 
L 362.641971 113.89426 
L 287.526587 113.89426 
z
" style="fill:#2f4f4f;stroke:#eeeeee;stroke-linejoin:miter;stroke-width:0.5;"/>
   </g>
   <g id="patch_18">
    <path clip-path="url(#peba3872631)" d="M 437.757356 574.207054 
L 512.87274 574.207054 
L 512.87274 498.634716 
L 437.757356 498.634716 
z
" style="fill:#2f4f4f;stroke:#eeeeee;stroke-linejoin:miter;stroke-width:0.5;"/>
   </g>
   <g id="patch_19">
    <path clip-path="url(#peba3872631)" d="M 587.988125 568.117449 
L 663.10351 568.117449 
L 663.10351 515.525272 
L 587.988125 515.525272 
z
" style="fill:#2f4f4f;stroke:#eeeeee;stroke-linejoin:miter;stroke-width:0.5;"/>
   </g>
   <g id="patch_20">
    <path clip-path="url(#peba3872631)" d="M 738.218894 638.822995 
L 813.334279 638.822995 
L 813.334279 577.284405 
L 738.218894 577.284405 
z
" style="fill:#2f4f4f;stroke:#eeeeee;stroke-linejoin:miter;stroke-width:0.5;"/>
   </g>
   <g id="patch_21">
    <path clip-path="url(#peba3872631)" d="M 888.449663 597.229363 
L 963.565048 597.229363 
L 963.565048 577.729202 
L 888.449663 577.729202 
z
" style="fill:#2f4f4f;stroke:#eeeeee;stroke-linejoin:miter;stroke-width:0.5;"/>
   </g>
   <g id="patch_22">
    <path clip-path="url(#peba3872631)" d="M 1038.680433 643.434043 
L 1113.795817 643.434043 
L 1113.795817 643.069496 
L 1038.680433 643.069496 
z
" style="fill:#2f4f4f;stroke:#eeeeee;stroke-linejoin:miter;stroke-width:0.5;"/>
   </g>
   <g id="patch_23">
    <path clip-path="url(#peba3872631)" d="M 1188.911202 707.603796 
L 1264.026587 707.603796 
L 1264.026587 657.427992 
L 1188.911202 657.427992 
z
" style="fill:#2f4f4f;stroke:#eeeeee;stroke-linejoin:miter;stroke-width:0.5;"/>
   </g>
   <g id="patch_24">
    <path clip-path="url(#peba3872631)" d="M 1339.141971 760.387686 
L 1414.257356 760.387686 
L 1414.257356 732.074291 
L 1339.141971 732.074291 
z
" style="fill:#2f4f4f;stroke:#eeeeee;stroke-linejoin:miter;stroke-width:0.5;"/>
   </g>
   <g id="patch_25">
    <path clip-path="url(#peba3872631)" d="M 1489.37274 761.450069 
L 1564.488125 761.450069 
L 1564.488125 746.046981 
L 1489.37274 746.046981 
z
" style="fill:#2f4f4f;stroke:#eeeeee;stroke-linejoin:miter;stroke-width:0.5;"/>
   </g>
   <g id="patch_26">
    <path clip-path="url(#peba3872631)" d="M 1639.60351 779.571849 
L 1714.718894 779.571849 
L 1714.718894 751.287517 
L 1639.60351 751.287517 
z
" style="fill:#2f4f4f;stroke:#eeeeee;stroke-linejoin:miter;stroke-width:0.5;"/>
   </g>
   <g id="patch_27">
    <path clip-path="url(#peba3872631)" d="M 1789.834279 860.652812 
L 1864.949663 860.652812 
L 1864.949663 860.652812 
L 1789.834279 860.652812 
z
" style="fill:#2f4f4f;stroke:#eeeeee;stroke-linejoin:miter;stroke-width:0.5;"/>
   </g>
   <g id="patch_28">
    <path clip-path="url(#peba3872631)" d="M 1940.065048 857.938075 
L 2015.180433 857.938075 
L 2015.180433 843.542706 
L 1940.065048 843.542706 
z
" style="fill:#2f4f4f;stroke:#eeeeee;stroke-linejoin:miter;stroke-width:0.5;"/>
   </g>
   <g id="patch_29">
    <path d="M 99.738125 23.652812 
L 2052.738125 23.652812 
" style="fill:none;stroke:#ffffff;stroke-linecap:square;stroke-linejoin:miter;"/>
   </g>
   <g id="patch_30">
    <path d="M 2052.738125 860.652812 
L 2052.738125 23.652812 
" style="fill:none;stroke:#ffffff;stroke-linecap:square;stroke-linejoin:miter;"/>
   </g>
   <g id="patch_31">
    <path d="M 99.738125 860.652812 
L 2052.738125 860.652812 
" style="fill:none;stroke:#ffffff;stroke-linecap:square;stroke-linejoin:miter;"/>
   </g>
   <g id="patch_32">
    <path d="M 99.738125 860.652812 
L 99.738125 23.652812 
" style="fill:none;stroke:#ffffff;stroke-linecap:square;stroke-linejoin:miter;"/>
   </g>
   <g id="legend_1">
    <g id="patch_33">
     <path d="M 1682.143437 497.158437 
L 2035.738125 497.158437 
L 2035.738125 387.147187 
L 1682.143437 387.147187 
z
" style="fill:#ffffff;stroke:#ffffff;stroke-linejoin:miter;stroke-width:0.5;"/>
    </g>
    <g id="patch_34">
     <path d="M 1695.743437 426.581875 
L 1763.743437 426.581875 
L 1763.743437 402.781875 
L 1695.743437 402.781875 
z
" style="fill:#8bc34a;stroke:#eeeeee;stroke-linejoin:miter;stroke-width:0.5;"/>
    </g>
    <g id="text_24">
     <!-- LSF subsidies -->
     <defs>
      <path d="M 9.8125 72.90625 
L 19.671875 72.90625 
L 19.671875 8.296875 
L 55.171875 8.296875 
L 55.171875 0 
L 9.8125 0 
z
" id="BitstreamVeraSans-Roman-4c"/>
     </defs>
     <g transform="translate(1790.9434375 426.581875)scale(0.34 -0.34)">
      <use xlink:href="#BitstreamVeraSans-Roman-4c"/>
      <use x="55.712890625" xlink:href="#BitstreamVeraSans-Roman-53"/>
      <use x="119.189453125" xlink:href="#BitstreamVeraSans-Roman-46"/>
      <use x="176.708984375" xlink:href="#BitstreamVeraSans-Roman-20"/>
      <use x="208.49609375" xlink:href="#BitstreamVeraSans-Roman-73"/>
      <use x="260.595703125" xlink:href="#BitstreamVeraSans-Roman-75"/>
      <use x="323.974609375" xlink:href="#BitstreamVeraSans-Roman-62"/>
      <use x="387.451171875" xlink:href="#BitstreamVeraSans-Roman-73"/>
      <use x="439.55078125" xlink:href="#BitstreamVeraSans-Roman-69"/>
      <use x="467.333984375" xlink:href="#BitstreamVeraSans-Roman-64"/>
      <use x="530.810546875" xlink:href="#BitstreamVeraSans-Roman-69"/>
      <use x="558.59375" xlink:href="#BitstreamVeraSans-Roman-65"/>
      <use x="620.1171875" xlink:href="#BitstreamVeraSans-Roman-73"/>
     </g>
    </g>
    <g id="patch_35">
     <path d="M 1695.743437 476.4875 
L 1763.743437 476.4875 
L 1763.743437 452.6875 
L 1695.743437 452.6875 
z
" style="fill:#2f4f4f;stroke:#eeeeee;stroke-linejoin:miter;stroke-width:0.5;"/>
    </g>
    <g id="text_25">
     <!-- SSF subsidies -->
     <g transform="translate(1790.9434375 476.4875)scale(0.34 -0.34)">
      <use xlink:href="#BitstreamVeraSans-Roman-53"/>
      <use x="63.4765625" xlink:href="#BitstreamVeraSans-Roman-53"/>
      <use x="126.953125" xlink:href="#BitstreamVeraSans-Roman-46"/>
      <use x="184.47265625" xlink:href="#BitstreamVeraSans-Roman-20"/>
      <use x="216.259765625" xlink:href="#BitstreamVeraSans-Roman-73"/>
      <use x="268.359375" xlink:href="#BitstreamVeraSans-Roman-75"/>
      <use x="331.73828125" xlink:href="#BitstreamVeraSans-Roman-62"/>
      <use x="395.21484375" xlink:href="#BitstreamVeraSans-Roman-73"/>
      <use x="447.314453125" xlink:href="#BitstreamVeraSans-Roman-69"/>
      <use x="475.09765625" xlink:href="#BitstreamVeraSans-Roman-64"/>
      <use x="538.57421875" xlink:href="#BitstreamVeraSans-Roman-69"/>
      <use x="566.357421875" xlink:href="#BitstreamVeraSans-Roman-65"/>
      <use x="627.880859375" xlink:href="#BitstreamVeraSans-Roman-73"/>
     </g>
    </g>
   </g>
  </g>
 </g>
 <defs>
  <clipPath id="peba3872631">
   <rect height="837.0" width="1953.0" x="99.738125" y="23.6528125"/>
  </clipPath>
 </defs>
</svg>
