<?xml version="1.0" encoding="utf-8" standalone="no"?>
<!DOCTYPE svg PUBLIC "-//W3C//DTD SVG 1.1//EN"
  "http://www.w3.org/Graphics/SVG/1.1/DTD/svg11.dtd">
<!-- Created with matplotlib (http://matplotlib.org/) -->
<svg height="1242pt" version="1.1" viewBox="0 0 1258 1242" width="1258pt" xmlns="http://www.w3.org/2000/svg" xmlns:xlink="http://www.w3.org/1999/xlink">
 <defs>
  <style type="text/css">
*{stroke-linecap:butt;stroke-linejoin:round;stroke-miterlimit:100000;}
  </style>
 </defs>
 <g id="figure_1">
  <g id="patch_1">
   <path d="M 0 1242 
L 1258.61375 1242 
L 1258.61375 0 
L 0 0 
z
" style="fill:#ffffff;"/>
  </g>
  <g id="axes_1">
   <g id="matplotlib.axis_1"/>
   <g id="matplotlib.axis_2">
    <g id="text_1">
     <!-- SSF subsidies -->
     <defs>
      <path id="BitstreamVeraSans-Roman-20"/>
      <path d="M 9.8125 72.90625 
L 51.703125 72.90625 
L 51.703125 64.59375 
L 19.671875 64.59375 
L 19.671875 43.109375 
L 48.578125 43.109375 
L 48.578125 34.8125 
L 19.671875 34.8125 
L 19.671875 0 
L 9.8125 0 
z
" id="BitstreamVeraSans-Roman-46"/>
      <path d="M 53.515625 70.515625 
L 53.515625 60.890625 
Q 47.90625 63.578125 42.921875 64.890625 
Q 37.9375 66.21875 33.296875 66.21875 
Q 25.25 66.21875 20.875 63.09375 
Q 16.5 59.96875 16.5 54.203125 
Q 16.5 49.359375 19.40625 46.890625 
Q 22.3125 44.4375 30.421875 42.921875 
L 36.375 41.703125 
Q 47.40625 39.59375 52.65625 34.296875 
Q 57.90625 29 57.90625 20.125 
Q 57.90625 9.515625 50.796875 4.046875 
Q 43.703125 -1.421875 29.984375 -1.421875 
Q 24.8125 -1.421875 18.96875 -0.25 
Q 13.140625 0.921875 6.890625 3.21875 
L 6.890625 13.375 
Q 12.890625 10.015625 18.65625 8.296875 
Q 24.421875 6.59375 29.984375 6.59375 
Q 38.421875 6.59375 43.015625 9.90625 
Q 47.609375 13.234375 47.609375 19.390625 
Q 47.609375 24.75 44.3125 27.78125 
Q 41.015625 30.8125 33.5 32.328125 
L 27.484375 33.5 
Q 16.453125 35.6875 11.515625 40.375 
Q 6.59375 45.0625 6.59375 53.421875 
Q 6.59375 63.09375 13.40625 68.65625 
Q 20.21875 74.21875 32.171875 74.21875 
Q 37.3125 74.21875 42.625 73.28125 
Q 47.953125 72.359375 53.515625 70.515625 
" id="BitstreamVeraSans-Roman-53"/>
      <path d="M 9.421875 54.6875 
L 18.40625 54.6875 
L 18.40625 0 
L 9.421875 0 
z
M 9.421875 75.984375 
L 18.40625 75.984375 
L 18.40625 64.59375 
L 9.421875 64.59375 
z
" id="BitstreamVeraSans-Roman-69"/>
      <path d="M 56.203125 29.59375 
L 56.203125 25.203125 
L 14.890625 25.203125 
Q 15.484375 15.921875 20.484375 11.0625 
Q 25.484375 6.203125 34.421875 6.203125 
Q 39.59375 6.203125 44.453125 7.46875 
Q 49.3125 8.734375 54.109375 11.28125 
L 54.109375 2.78125 
Q 49.265625 0.734375 44.1875 -0.34375 
Q 39.109375 -1.421875 33.890625 -1.421875 
Q 20.796875 -1.421875 13.15625 6.1875 
Q 5.515625 13.8125 5.515625 26.8125 
Q 5.515625 40.234375 12.765625 48.109375 
Q 20.015625 56 32.328125 56 
Q 43.359375 56 49.78125 48.890625 
Q 56.203125 41.796875 56.203125 29.59375 
M 47.21875 32.234375 
Q 47.125 39.59375 43.09375 43.984375 
Q 39.0625 48.390625 32.421875 48.390625 
Q 24.90625 48.390625 20.390625 44.140625 
Q 15.875 39.890625 15.1875 32.171875 
z
" id="BitstreamVeraSans-Roman-65"/>
      <path d="M 45.40625 46.390625 
L 45.40625 75.984375 
L 54.390625 75.984375 
L 54.390625 0 
L 45.40625 0 
L 45.40625 8.203125 
Q 42.578125 3.328125 38.25 0.953125 
Q 33.9375 -1.421875 27.875 -1.421875 
Q 17.96875 -1.421875 11.734375 6.484375 
Q 5.515625 14.40625 5.515625 27.296875 
Q 5.515625 40.1875 11.734375 48.09375 
Q 17.96875 56 27.875 56 
Q 33.9375 56 38.25 53.625 
Q 42.578125 51.265625 45.40625 46.390625 
M 14.796875 27.296875 
Q 14.796875 17.390625 18.875 11.75 
Q 22.953125 6.109375 30.078125 6.109375 
Q 37.203125 6.109375 41.296875 11.75 
Q 45.40625 17.390625 45.40625 27.296875 
Q 45.40625 37.203125 41.296875 42.84375 
Q 37.203125 48.484375 30.078125 48.484375 
Q 22.953125 48.484375 18.875 42.84375 
Q 14.796875 37.203125 14.796875 27.296875 
" id="BitstreamVeraSans-Roman-64"/>
      <path d="M 8.5 21.578125 
L 8.5 54.6875 
L 17.484375 54.6875 
L 17.484375 21.921875 
Q 17.484375 14.15625 20.5 10.265625 
Q 23.53125 6.390625 29.59375 6.390625 
Q 36.859375 6.390625 41.078125 11.03125 
Q 45.3125 15.671875 45.3125 23.6875 
L 45.3125 54.6875 
L 54.296875 54.6875 
L 54.296875 0 
L 45.3125 0 
L 45.3125 8.40625 
Q 42.046875 3.421875 37.71875 1 
Q 33.40625 -1.421875 27.6875 -1.421875 
Q 18.265625 -1.421875 13.375 4.4375 
Q 8.5 10.296875 8.5 21.578125 
" id="BitstreamVeraSans-Roman-75"/>
      <path d="M 44.28125 53.078125 
L 44.28125 44.578125 
Q 40.484375 46.53125 36.375 47.5 
Q 32.28125 48.484375 27.875 48.484375 
Q 21.1875 48.484375 17.84375 46.4375 
Q 14.5 44.390625 14.5 40.28125 
Q 14.5 37.15625 16.890625 35.375 
Q 19.28125 33.59375 26.515625 31.984375 
L 29.59375 31.296875 
Q 39.15625 29.25 43.1875 25.515625 
Q 47.21875 21.78125 47.21875 15.09375 
Q 47.21875 7.46875 41.1875 3.015625 
Q 35.15625 -1.421875 24.609375 -1.421875 
Q 20.21875 -1.421875 15.453125 -0.5625 
Q 10.6875 0.296875 5.421875 2 
L 5.421875 11.28125 
Q 10.40625 8.6875 15.234375 7.390625 
Q 20.0625 6.109375 24.8125 6.109375 
Q 31.15625 6.109375 34.5625 8.28125 
Q 37.984375 10.453125 37.984375 14.40625 
Q 37.984375 18.0625 35.515625 20.015625 
Q 33.0625 21.96875 24.703125 23.78125 
L 21.578125 24.515625 
Q 13.234375 26.265625 9.515625 29.90625 
Q 5.8125 33.546875 5.8125 39.890625 
Q 5.8125 47.609375 11.28125 51.796875 
Q 16.75 56 26.8125 56 
Q 31.78125 56 36.171875 55.265625 
Q 40.578125 54.546875 44.28125 53.078125 
" id="BitstreamVeraSans-Roman-73"/>
      <path d="M 48.6875 27.296875 
Q 48.6875 37.203125 44.609375 42.84375 
Q 40.53125 48.484375 33.40625 48.484375 
Q 26.265625 48.484375 22.1875 42.84375 
Q 18.109375 37.203125 18.109375 27.296875 
Q 18.109375 17.390625 22.1875 11.75 
Q 26.265625 6.109375 33.40625 6.109375 
Q 40.53125 6.109375 44.609375 11.75 
Q 48.6875 17.390625 48.6875 27.296875 
M 18.109375 46.390625 
Q 20.953125 51.265625 25.265625 53.625 
Q 29.59375 56 35.59375 56 
Q 45.5625 56 51.78125 48.09375 
Q 58.015625 40.1875 58.015625 27.296875 
Q 58.015625 14.40625 51.78125 6.484375 
Q 45.5625 -1.421875 35.59375 -1.421875 
Q 29.59375 -1.421875 25.265625 0.953125 
Q 20.953125 3.328125 18.109375 8.203125 
L 18.109375 0 
L 9.078125 0 
L 9.078125 75.984375 
L 18.109375 75.984375 
z
" id="BitstreamVeraSans-Roman-62"/>
     </defs>
     <g style="fill:#555555;" transform="translate(16.318125 661.7990625)rotate(-90.0)scale(0.12 -0.12)">
      <use xlink:href="#BitstreamVeraSans-Roman-53"/>
      <use x="63.4765625" xlink:href="#BitstreamVeraSans-Roman-53"/>
      <use x="126.953125" xlink:href="#BitstreamVeraSans-Roman-46"/>
      <use x="184.47265625" xlink:href="#BitstreamVeraSans-Roman-20"/>
      <use x="216.259765625" xlink:href="#BitstreamVeraSans-Roman-73"/>
      <use x="268.359375" xlink:href="#BitstreamVeraSans-Roman-75"/>
      <use x="331.73828125" xlink:href="#BitstreamVeraSans-Roman-62"/>
      <use x="395.21484375" xlink:href="#BitstreamVeraSans-Roman-73"/>
      <use x="447.314453125" xlink:href="#BitstreamVeraSans-Roman-69"/>
      <use x="475.09765625" xlink:href="#BitstreamVeraSans-Roman-64"/>
      <use x="538.57421875" xlink:href="#BitstreamVeraSans-Roman-69"/>
      <use x="566.357421875" xlink:href="#BitstreamVeraSans-Roman-65"/>
      <use x="627.880859375" xlink:href="#BitstreamVeraSans-Roman-73"/>
     </g>
    </g>
   </g>
   <g id="patch_2">
    <path d="M 1141.324841 599.970398 
C 1141.324841 515.335802 1119.443686 432.121434 1077.812926 358.433615 
C 1036.182167 284.745795 976.19899 223.057592 903.706652 179.378354 
C 831.214314 135.699117 748.64576 111.494783 664.044397 109.123216 
C 579.443035 106.751648 495.648206 126.29244 420.822775 165.842027 
L 650.284841 599.970398 
L 1141.324841 599.970398 
z
" style="fill:#00b3b3;stroke:#eeeeee;stroke-linejoin:miter;stroke-width:0.5;"/>
   </g>
   <g id="patch_3">
    <path d="M 390.271013 170.04658 
C 342.471025 195.311651 299.170299 228.298709 262.119639 267.673971 
C 225.068978 307.049232 194.774569 352.274752 172.461323 401.521901 
L 619.733078 604.174951 
L 390.271013 170.04658 
z
" style="fill:#00b3b3;stroke:#eeeeee;stroke-linejoin:miter;stroke-width:0.5;"/>
   </g>
   <g id="patch_4">
    <path d="M 166.702711 411.714834 
C 156.437118 434.371831 147.907918 457.776134 141.188789 481.725564 
C 134.46966 505.674994 129.580006 530.10039 126.562067 554.790751 
L 613.974466 614.367884 
L 166.702711 411.714834 
z
" style="fill:#00b3b3;stroke:#eeeeee;stroke-linejoin:miter;stroke-width:0.5;"/>
   </g>
   <g id="patch_5">
    <path d="M 125.88048 564.783812 
C 120.730803 606.914344 121.065255 649.535314 126.875464 691.579842 
C 132.685673 733.62437 143.922751 774.738687 160.305413 813.893626 
L 613.292879 624.360945 
L 125.88048 564.783812 
z
" style="fill:#bf0000;stroke:#eeeeee;stroke-linejoin:miter;stroke-width:0.5;"/>
   </g>
   <g id="patch_6">
    <path d="M 167.537516 828.161484 
C 193.191104 889.47415 231.027815 944.94496 278.749617 991.204869 
C 326.47142 1037.464777 383.092216 1073.557893 445.173113 1097.292082 
L 620.524982 638.628803 
L 167.537516 828.161484 
z
" style="fill:#bf0000;stroke:#eeeeee;stroke-linejoin:miter;stroke-width:0.5;"/>
   </g>
   <g id="patch_7">
    <path d="M 460.22068 1104.130281 
C 503.395673 1120.636542 548.685859 1130.964192 594.748524 1134.807048 
C 640.811189 1138.649904 687.186585 1135.969611 732.499824 1126.845632 
L 635.572549 645.467002 
L 460.22068 1104.130281 
z
" style="fill:#bf0000;stroke:#eeeeee;stroke-linejoin:miter;stroke-width:0.5;"/>
   </g>
   <g id="patch_8">
    <path d="M 741.865784 1125.81255 
C 758.597906 1122.443478 775.142999 1118.204315 791.433677 1113.112325 
C 807.724356 1108.020335 823.738474 1102.082441 839.410812 1095.322825 
L 644.938508 644.43392 
L 741.865784 1125.81255 
z
" style="fill:#bf0000;stroke:#eeeeee;stroke-linejoin:miter;stroke-width:0.5;"/>
   </g>
   <g id="patch_9">
    <path d="M 843.632091 1093.556617 
C 856.017242 1088.214793 868.17704 1082.364939 880.080543 1076.021939 
C 891.984046 1069.678939 903.621149 1062.848178 914.962242 1055.547036 
L 649.159788 642.667711 
L 843.632091 1093.556617 
z
" style="fill:#bf0000;stroke:#eeeeee;stroke-linejoin:miter;stroke-width:0.5;"/>
   </g>
   <g id="patch_10">
    <path d="M 919.666664 1052.283761 
C 940.504228 1038.869004 960.296385 1023.896001 978.873416 1007.493145 
C 997.450447 991.090288 1014.759102 973.304598 1030.650957 954.288587 
L 653.86421 639.404435 
L 919.666664 1052.283761 
z
" style="fill:#bf0000;stroke:#eeeeee;stroke-linejoin:miter;stroke-width:0.5;"/>
   </g>
   <g id="patch_11">
    <path d="M 1033.239834 951.628359 
C 1033.239834 951.628359 1033.239834 951.628359 1033.239834 951.628359 
L 656.453087 636.744208 
L 1033.239834 951.628359 
z
" style="fill:#bf0000;stroke:#eeeeee;stroke-linejoin:miter;stroke-width:0.5;"/>
   </g>
   <g id="patch_12">
    <path d="M 1036.747016 946.054393 
C 1065.028252 912.213391 1088.621886 874.71601 1106.890637 834.575077 
C 1125.159389 794.434144 1137.93728 752.014354 1144.879174 708.46149 
L 659.960268 631.170242 
L 1036.747016 946.054393 
z
" style="fill:#e67300;stroke:#eeeeee;stroke-linejoin:miter;stroke-width:0.5;"/>
   </g>
   <g id="patch_13">
    <path d="M 1147.004728 700.270732 
C 1148.99777 687.766549 1150.506415 675.189954 1151.52728 662.569152 
C 1152.548144 649.94835 1153.080464 637.292783 1153.123046 624.630832 
L 662.085823 622.979483 
L 1147.004728 700.270732 
z
" style="fill:#e67300;stroke:#eeeeee;stroke-linejoin:miter;stroke-width:0.5;"/>
   </g>
   <g id="patch_14">
    <path d="M 1153.202939 622.692632 
C 1153.203864 622.417407 1153.204558 622.14218 1153.205021 621.866954 
C 1153.205484 621.591727 1153.205715 621.3165 1153.205715 621.041273 
L 662.165715 621.041284 
L 1153.202939 622.692632 
z
" style="fill:#e67300;stroke:#eeeeee;stroke-linejoin:miter;stroke-width:0.5;"/>
   </g>
  </g>
 </g>
</svg>
