<?xml version="1.0" encoding="utf-8" standalone="no"?>
<!DOCTYPE svg PUBLIC "-//W3C//DTD SVG 1.1//EN"
  "http://www.w3.org/Graphics/SVG/1.1/DTD/svg11.dtd">
<!-- Created with matplotlib (http://matplotlib.org/) -->
<svg height="762pt" version="1.1" viewBox="0 0 945 762" width="945pt" xmlns="http://www.w3.org/2000/svg" xmlns:xlink="http://www.w3.org/1999/xlink">
 <defs>
  <style type="text/css">
*{stroke-linecap:butt;stroke-linejoin:round;stroke-miterlimit:100000;}
  </style>
 </defs>
 <g id="figure_1">
  <g id="patch_1">
   <path d="M 0 762.687844 
L 945.723437 762.687844 
L 945.723437 -0 
L 0 -0 
z
" style="fill:#ffffff;"/>
  </g>
  <g id="axes_1">
   <g id="patch_2">
    <path d="M 101.523438 581.14175 
L 938.523438 581.14175 
L 938.523438 23.14175 
L 101.523438 23.14175 
z
" style="fill:#e5e5e5;"/>
   </g>
   <g id="matplotlib.axis_1">
    <g id="xtick_1">
     <g id="line2d_1">
      <path clip-path="url(#p1806cf4502)" d="M 136.398438 581.14175 
L 136.398438 23.14175 
" style="fill:none;stroke:#ffffff;stroke-linecap:square;stroke-width:0.5;"/>
     </g>
     <g id="line2d_2">
      <defs>
       <path d="M 0 0 
L 0 4 
" id="m3311e52e02" style="stroke:#555555;stroke-width:0.5;"/>
      </defs>
      <g>
       <use style="fill:#555555;stroke:#555555;stroke-width:0.5;" x="136.3984375" xlink:href="#m3311e52e02" y="581.14175"/>
      </g>
     </g>
     <g id="line2d_3">
      <defs>
       <path d="M 0 0 
L 0 -4 
" id="mcbc5fb8651" style="stroke:#555555;stroke-width:0.5;"/>
      </defs>
      <g>
       <use style="fill:#555555;stroke:#555555;stroke-width:0.5;" x="136.3984375" xlink:href="#mcbc5fb8651" y="23.14175"/>
      </g>
     </g>
     <g id="text_1">
      <!-- Fisher assistance -->
      <defs>
       <path id="BitstreamVeraSans-Roman-20"/>
       <path d="M 54.890625 33.015625 
L 54.890625 0 
L 45.90625 0 
L 45.90625 32.71875 
Q 45.90625 40.484375 42.875 44.328125 
Q 39.84375 48.1875 33.796875 48.1875 
Q 26.515625 48.1875 22.3125 43.546875 
Q 18.109375 38.921875 18.109375 30.90625 
L 18.109375 0 
L 9.078125 0 
L 9.078125 54.6875 
L 18.109375 54.6875 
L 18.109375 46.1875 
Q 21.34375 51.125 25.703125 53.5625 
Q 30.078125 56 35.796875 56 
Q 45.21875 56 50.046875 50.171875 
Q 54.890625 44.34375 54.890625 33.015625 
" id="BitstreamVeraSans-Roman-6e"/>
       <path d="M 34.28125 27.484375 
Q 23.390625 27.484375 19.1875 25 
Q 14.984375 22.515625 14.984375 16.5 
Q 14.984375 11.71875 18.140625 8.90625 
Q 21.296875 6.109375 26.703125 6.109375 
Q 34.1875 6.109375 38.703125 11.40625 
Q 43.21875 16.703125 43.21875 25.484375 
L 43.21875 27.484375 
z
M 52.203125 31.203125 
L 52.203125 0 
L 43.21875 0 
L 43.21875 8.296875 
Q 40.140625 3.328125 35.546875 0.953125 
Q 30.953125 -1.421875 24.3125 -1.421875 
Q 15.921875 -1.421875 10.953125 3.296875 
Q 6 8.015625 6 15.921875 
Q 6 25.140625 12.171875 29.828125 
Q 18.359375 34.515625 30.609375 34.515625 
L 43.21875 34.515625 
L 43.21875 35.40625 
Q 43.21875 41.609375 39.140625 45 
Q 35.0625 48.390625 27.6875 48.390625 
Q 23 48.390625 18.546875 47.265625 
Q 14.109375 46.140625 10.015625 43.890625 
L 10.015625 52.203125 
Q 14.9375 54.109375 19.578125 55.046875 
Q 24.21875 56 28.609375 56 
Q 40.484375 56 46.34375 49.84375 
Q 52.203125 43.703125 52.203125 31.203125 
" id="BitstreamVeraSans-Roman-61"/>
       <path d="M 9.8125 72.90625 
L 51.703125 72.90625 
L 51.703125 64.59375 
L 19.671875 64.59375 
L 19.671875 43.109375 
L 48.578125 43.109375 
L 48.578125 34.8125 
L 19.671875 34.8125 
L 19.671875 0 
L 9.8125 0 
z
" id="BitstreamVeraSans-Roman-46"/>
       <path d="M 9.421875 54.6875 
L 18.40625 54.6875 
L 18.40625 0 
L 9.421875 0 
z
M 9.421875 75.984375 
L 18.40625 75.984375 
L 18.40625 64.59375 
L 9.421875 64.59375 
z
" id="BitstreamVeraSans-Roman-69"/>
       <path d="M 54.890625 33.015625 
L 54.890625 0 
L 45.90625 0 
L 45.90625 32.71875 
Q 45.90625 40.484375 42.875 44.328125 
Q 39.84375 48.1875 33.796875 48.1875 
Q 26.515625 48.1875 22.3125 43.546875 
Q 18.109375 38.921875 18.109375 30.90625 
L 18.109375 0 
L 9.078125 0 
L 9.078125 75.984375 
L 18.109375 75.984375 
L 18.109375 46.1875 
Q 21.34375 51.125 25.703125 53.5625 
Q 30.078125 56 35.796875 56 
Q 45.21875 56 50.046875 50.171875 
Q 54.890625 44.34375 54.890625 33.015625 
" id="BitstreamVeraSans-Roman-68"/>
       <path d="M 56.203125 29.59375 
L 56.203125 25.203125 
L 14.890625 25.203125 
Q 15.484375 15.921875 20.484375 11.0625 
Q 25.484375 6.203125 34.421875 6.203125 
Q 39.59375 6.203125 44.453125 7.46875 
Q 49.3125 8.734375 54.109375 11.28125 
L 54.109375 2.78125 
Q 49.265625 0.734375 44.1875 -0.34375 
Q 39.109375 -1.421875 33.890625 -1.421875 
Q 20.796875 -1.421875 13.15625 6.1875 
Q 5.515625 13.8125 5.515625 26.8125 
Q 5.515625 40.234375 12.765625 48.109375 
Q 20.015625 56 32.328125 56 
Q 43.359375 56 49.78125 48.890625 
Q 56.203125 41.796875 56.203125 29.59375 
M 47.21875 32.234375 
Q 47.125 39.59375 43.09375 43.984375 
Q 39.0625 48.390625 32.421875 48.390625 
Q 24.90625 48.390625 20.390625 44.140625 
Q 15.875 39.890625 15.1875 32.171875 
z
" id="BitstreamVeraSans-Roman-65"/>
       <path d="M 18.3125 70.21875 
L 18.3125 54.6875 
L 36.8125 54.6875 
L 36.8125 47.703125 
L 18.3125 47.703125 
L 18.3125 18.015625 
Q 18.3125 11.328125 20.140625 9.421875 
Q 21.96875 7.515625 27.59375 7.515625 
L 36.8125 7.515625 
L 36.8125 0 
L 27.59375 0 
Q 17.1875 0 13.234375 3.875 
Q 9.28125 7.765625 9.28125 18.015625 
L 9.28125 47.703125 
L 2.6875 47.703125 
L 2.6875 54.6875 
L 9.28125 54.6875 
L 9.28125 70.21875 
z
" id="BitstreamVeraSans-Roman-74"/>
       <path d="M 41.109375 46.296875 
Q 39.59375 47.171875 37.8125 47.578125 
Q 36.03125 48 33.890625 48 
Q 26.265625 48 22.1875 43.046875 
Q 18.109375 38.09375 18.109375 28.8125 
L 18.109375 0 
L 9.078125 0 
L 9.078125 54.6875 
L 18.109375 54.6875 
L 18.109375 46.1875 
Q 20.953125 51.171875 25.484375 53.578125 
Q 30.03125 56 36.53125 56 
Q 37.453125 56 38.578125 55.875 
Q 39.703125 55.765625 41.0625 55.515625 
z
" id="BitstreamVeraSans-Roman-72"/>
       <path d="M 44.28125 53.078125 
L 44.28125 44.578125 
Q 40.484375 46.53125 36.375 47.5 
Q 32.28125 48.484375 27.875 48.484375 
Q 21.1875 48.484375 17.84375 46.4375 
Q 14.5 44.390625 14.5 40.28125 
Q 14.5 37.15625 16.890625 35.375 
Q 19.28125 33.59375 26.515625 31.984375 
L 29.59375 31.296875 
Q 39.15625 29.25 43.1875 25.515625 
Q 47.21875 21.78125 47.21875 15.09375 
Q 47.21875 7.46875 41.1875 3.015625 
Q 35.15625 -1.421875 24.609375 -1.421875 
Q 20.21875 -1.421875 15.453125 -0.5625 
Q 10.6875 0.296875 5.421875 2 
L 5.421875 11.28125 
Q 10.40625 8.6875 15.234375 7.390625 
Q 20.0625 6.109375 24.8125 6.109375 
Q 31.15625 6.109375 34.5625 8.28125 
Q 37.984375 10.453125 37.984375 14.40625 
Q 37.984375 18.0625 35.515625 20.015625 
Q 33.0625 21.96875 24.703125 23.78125 
L 21.578125 24.515625 
Q 13.234375 26.265625 9.515625 29.90625 
Q 5.8125 33.546875 5.8125 39.890625 
Q 5.8125 47.609375 11.28125 51.796875 
Q 16.75 56 26.8125 56 
Q 31.78125 56 36.171875 55.265625 
Q 40.578125 54.546875 44.28125 53.078125 
" id="BitstreamVeraSans-Roman-73"/>
       <path d="M 48.78125 52.59375 
L 48.78125 44.1875 
Q 44.96875 46.296875 41.140625 47.34375 
Q 37.3125 48.390625 33.40625 48.390625 
Q 24.65625 48.390625 19.8125 42.84375 
Q 14.984375 37.3125 14.984375 27.296875 
Q 14.984375 17.28125 19.8125 11.734375 
Q 24.65625 6.203125 33.40625 6.203125 
Q 37.3125 6.203125 41.140625 7.25 
Q 44.96875 8.296875 48.78125 10.40625 
L 48.78125 2.09375 
Q 45.015625 0.34375 40.984375 -0.53125 
Q 36.96875 -1.421875 32.421875 -1.421875 
Q 20.0625 -1.421875 12.78125 6.34375 
Q 5.515625 14.109375 5.515625 27.296875 
Q 5.515625 40.671875 12.859375 48.328125 
Q 20.21875 56 33.015625 56 
Q 37.15625 56 41.109375 55.140625 
Q 45.0625 54.296875 48.78125 52.59375 
" id="BitstreamVeraSans-Roman-63"/>
      </defs>
      <g style="fill:#555555;" transform="translate(140.5375 718.26128125)rotate(-90.0)scale(0.15 -0.15)">
       <use xlink:href="#BitstreamVeraSans-Roman-46"/>
       <use x="57.41015625" xlink:href="#BitstreamVeraSans-Roman-69"/>
       <use x="85.193359375" xlink:href="#BitstreamVeraSans-Roman-73"/>
       <use x="137.29296875" xlink:href="#BitstreamVeraSans-Roman-68"/>
       <use x="200.671875" xlink:href="#BitstreamVeraSans-Roman-65"/>
       <use x="262.1953125" xlink:href="#BitstreamVeraSans-Roman-72"/>
       <use x="303.30859375" xlink:href="#BitstreamVeraSans-Roman-20"/>
       <use x="335.095703125" xlink:href="#BitstreamVeraSans-Roman-61"/>
       <use x="396.375" xlink:href="#BitstreamVeraSans-Roman-73"/>
       <use x="448.474609375" xlink:href="#BitstreamVeraSans-Roman-73"/>
       <use x="500.57421875" xlink:href="#BitstreamVeraSans-Roman-69"/>
       <use x="528.357421875" xlink:href="#BitstreamVeraSans-Roman-73"/>
       <use x="580.45703125" xlink:href="#BitstreamVeraSans-Roman-74"/>
       <use x="619.666015625" xlink:href="#BitstreamVeraSans-Roman-61"/>
       <use x="680.9453125" xlink:href="#BitstreamVeraSans-Roman-6e"/>
       <use x="744.32421875" xlink:href="#BitstreamVeraSans-Roman-63"/>
       <use x="799.3046875" xlink:href="#BitstreamVeraSans-Roman-65"/>
      </g>
     </g>
    </g>
    <g id="xtick_2">
     <g id="line2d_4">
      <path clip-path="url(#p1806cf4502)" d="M 206.148438 581.14175 
L 206.148438 23.14175 
" style="fill:none;stroke:#ffffff;stroke-linecap:square;stroke-width:0.5;"/>
     </g>
     <g id="line2d_5">
      <g>
       <use style="fill:#555555;stroke:#555555;stroke-width:0.5;" x="206.1484375" xlink:href="#m3311e52e02" y="581.14175"/>
      </g>
     </g>
     <g id="line2d_6">
      <g>
       <use style="fill:#555555;stroke:#555555;stroke-width:0.5;" x="206.1484375" xlink:href="#mcbc5fb8651" y="23.14175"/>
      </g>
     </g>
     <g id="text_2">
      <!-- Rural communities -->
      <defs>
       <path d="M 52 44.1875 
Q 55.375 50.25 60.0625 53.125 
Q 64.75 56 71.09375 56 
Q 79.640625 56 84.28125 50.015625 
Q 88.921875 44.046875 88.921875 33.015625 
L 88.921875 0 
L 79.890625 0 
L 79.890625 32.71875 
Q 79.890625 40.578125 77.09375 44.375 
Q 74.3125 48.1875 68.609375 48.1875 
Q 61.625 48.1875 57.5625 43.546875 
Q 53.515625 38.921875 53.515625 30.90625 
L 53.515625 0 
L 44.484375 0 
L 44.484375 32.71875 
Q 44.484375 40.625 41.703125 44.40625 
Q 38.921875 48.1875 33.109375 48.1875 
Q 26.21875 48.1875 22.15625 43.53125 
Q 18.109375 38.875 18.109375 30.90625 
L 18.109375 0 
L 9.078125 0 
L 9.078125 54.6875 
L 18.109375 54.6875 
L 18.109375 46.1875 
Q 21.1875 51.21875 25.484375 53.609375 
Q 29.78125 56 35.6875 56 
Q 41.65625 56 45.828125 52.96875 
Q 50 49.953125 52 44.1875 
" id="BitstreamVeraSans-Roman-6d"/>
       <path d="M 44.390625 34.1875 
Q 47.5625 33.109375 50.5625 29.59375 
Q 53.5625 26.078125 56.59375 19.921875 
L 66.609375 0 
L 56 0 
L 46.6875 18.703125 
Q 43.0625 26.03125 39.671875 28.421875 
Q 36.28125 30.8125 30.421875 30.8125 
L 19.671875 30.8125 
L 19.671875 0 
L 9.8125 0 
L 9.8125 72.90625 
L 32.078125 72.90625 
Q 44.578125 72.90625 50.734375 67.671875 
Q 56.890625 62.453125 56.890625 51.90625 
Q 56.890625 45.015625 53.6875 40.46875 
Q 50.484375 35.9375 44.390625 34.1875 
M 19.671875 64.796875 
L 19.671875 38.921875 
L 32.078125 38.921875 
Q 39.203125 38.921875 42.84375 42.21875 
Q 46.484375 45.515625 46.484375 51.90625 
Q 46.484375 58.296875 42.84375 61.546875 
Q 39.203125 64.796875 32.078125 64.796875 
z
" id="BitstreamVeraSans-Roman-52"/>
       <path d="M 8.5 21.578125 
L 8.5 54.6875 
L 17.484375 54.6875 
L 17.484375 21.921875 
Q 17.484375 14.15625 20.5 10.265625 
Q 23.53125 6.390625 29.59375 6.390625 
Q 36.859375 6.390625 41.078125 11.03125 
Q 45.3125 15.671875 45.3125 23.6875 
L 45.3125 54.6875 
L 54.296875 54.6875 
L 54.296875 0 
L 45.3125 0 
L 45.3125 8.40625 
Q 42.046875 3.421875 37.71875 1 
Q 33.40625 -1.421875 27.6875 -1.421875 
Q 18.265625 -1.421875 13.375 4.4375 
Q 8.5 10.296875 8.5 21.578125 
" id="BitstreamVeraSans-Roman-75"/>
       <path d="M 30.609375 48.390625 
Q 23.390625 48.390625 19.1875 42.75 
Q 14.984375 37.109375 14.984375 27.296875 
Q 14.984375 17.484375 19.15625 11.84375 
Q 23.34375 6.203125 30.609375 6.203125 
Q 37.796875 6.203125 41.984375 11.859375 
Q 46.1875 17.53125 46.1875 27.296875 
Q 46.1875 37.015625 41.984375 42.703125 
Q 37.796875 48.390625 30.609375 48.390625 
M 30.609375 56 
Q 42.328125 56 49.015625 48.375 
Q 55.71875 40.765625 55.71875 27.296875 
Q 55.71875 13.875 49.015625 6.21875 
Q 42.328125 -1.421875 30.609375 -1.421875 
Q 18.84375 -1.421875 12.171875 6.21875 
Q 5.515625 13.875 5.515625 27.296875 
Q 5.515625 40.765625 12.171875 48.375 
Q 18.84375 56 30.609375 56 
" id="BitstreamVeraSans-Roman-6f"/>
       <path d="M 9.421875 75.984375 
L 18.40625 75.984375 
L 18.40625 0 
L 9.421875 0 
z
" id="BitstreamVeraSans-Roman-6c"/>
      </defs>
      <g style="fill:#555555;" transform="translate(210.2875 730.273)rotate(-90.0)scale(0.15 -0.15)">
       <use xlink:href="#BitstreamVeraSans-Roman-52"/>
       <use x="69.419921875" xlink:href="#BitstreamVeraSans-Roman-75"/>
       <use x="132.798828125" xlink:href="#BitstreamVeraSans-Roman-72"/>
       <use x="173.912109375" xlink:href="#BitstreamVeraSans-Roman-61"/>
       <use x="235.19140625" xlink:href="#BitstreamVeraSans-Roman-6c"/>
       <use x="262.974609375" xlink:href="#BitstreamVeraSans-Roman-20"/>
       <use x="294.76171875" xlink:href="#BitstreamVeraSans-Roman-63"/>
       <use x="349.7421875" xlink:href="#BitstreamVeraSans-Roman-6f"/>
       <use x="410.923828125" xlink:href="#BitstreamVeraSans-Roman-6d"/>
       <use x="508.3359375" xlink:href="#BitstreamVeraSans-Roman-6d"/>
       <use x="605.748046875" xlink:href="#BitstreamVeraSans-Roman-75"/>
       <use x="669.126953125" xlink:href="#BitstreamVeraSans-Roman-6e"/>
       <use x="732.505859375" xlink:href="#BitstreamVeraSans-Roman-69"/>
       <use x="760.2890625" xlink:href="#BitstreamVeraSans-Roman-74"/>
       <use x="799.498046875" xlink:href="#BitstreamVeraSans-Roman-69"/>
       <use x="827.28125" xlink:href="#BitstreamVeraSans-Roman-65"/>
       <use x="888.8046875" xlink:href="#BitstreamVeraSans-Roman-73"/>
      </g>
     </g>
    </g>
    <g id="xtick_3">
     <g id="line2d_7">
      <path clip-path="url(#p1806cf4502)" d="M 275.898438 581.14175 
L 275.898438 23.14175 
" style="fill:none;stroke:#ffffff;stroke-linecap:square;stroke-width:0.5;"/>
     </g>
     <g id="line2d_8">
      <g>
       <use style="fill:#555555;stroke:#555555;stroke-width:0.5;" x="275.8984375" xlink:href="#m3311e52e02" y="581.14175"/>
      </g>
     </g>
     <g id="line2d_9">
      <g>
       <use style="fill:#555555;stroke:#555555;stroke-width:0.5;" x="275.8984375" xlink:href="#mcbc5fb8651" y="23.14175"/>
      </g>
     </g>
     <g id="text_3">
      <!-- Vessel buyback -->
      <defs>
       <path d="M 32.171875 -5.078125 
Q 28.375 -14.84375 24.75 -17.8125 
Q 21.140625 -20.796875 15.09375 -20.796875 
L 7.90625 -20.796875 
L 7.90625 -13.28125 
L 13.1875 -13.28125 
Q 16.890625 -13.28125 18.9375 -11.515625 
Q 21 -9.765625 23.484375 -3.21875 
L 25.09375 0.875 
L 2.984375 54.6875 
L 12.5 54.6875 
L 29.59375 11.921875 
L 46.6875 54.6875 
L 56.203125 54.6875 
z
" id="BitstreamVeraSans-Roman-79"/>
       <path d="M 9.078125 75.984375 
L 18.109375 75.984375 
L 18.109375 31.109375 
L 44.921875 54.6875 
L 56.390625 54.6875 
L 27.390625 29.109375 
L 57.625 0 
L 45.90625 0 
L 18.109375 26.703125 
L 18.109375 0 
L 9.078125 0 
z
" id="BitstreamVeraSans-Roman-6b"/>
       <path d="M 28.609375 0 
L 0.78125 72.90625 
L 11.078125 72.90625 
L 34.1875 11.53125 
L 57.328125 72.90625 
L 67.578125 72.90625 
L 39.796875 0 
z
" id="BitstreamVeraSans-Roman-56"/>
       <path d="M 48.6875 27.296875 
Q 48.6875 37.203125 44.609375 42.84375 
Q 40.53125 48.484375 33.40625 48.484375 
Q 26.265625 48.484375 22.1875 42.84375 
Q 18.109375 37.203125 18.109375 27.296875 
Q 18.109375 17.390625 22.1875 11.75 
Q 26.265625 6.109375 33.40625 6.109375 
Q 40.53125 6.109375 44.609375 11.75 
Q 48.6875 17.390625 48.6875 27.296875 
M 18.109375 46.390625 
Q 20.953125 51.265625 25.265625 53.625 
Q 29.59375 56 35.59375 56 
Q 45.5625 56 51.78125 48.09375 
Q 58.015625 40.1875 58.015625 27.296875 
Q 58.015625 14.40625 51.78125 6.484375 
Q 45.5625 -1.421875 35.59375 -1.421875 
Q 29.59375 -1.421875 25.265625 0.953125 
Q 20.953125 3.328125 18.109375 8.203125 
L 18.109375 0 
L 9.078125 0 
L 9.078125 75.984375 
L 18.109375 75.984375 
z
" id="BitstreamVeraSans-Roman-62"/>
      </defs>
      <g style="fill:#555555;" transform="translate(280.0375 705.963625)rotate(-90.0)scale(0.15 -0.15)">
       <use xlink:href="#BitstreamVeraSans-Roman-56"/>
       <use x="68.298828125" xlink:href="#BitstreamVeraSans-Roman-65"/>
       <use x="129.822265625" xlink:href="#BitstreamVeraSans-Roman-73"/>
       <use x="181.921875" xlink:href="#BitstreamVeraSans-Roman-73"/>
       <use x="234.021484375" xlink:href="#BitstreamVeraSans-Roman-65"/>
       <use x="295.544921875" xlink:href="#BitstreamVeraSans-Roman-6c"/>
       <use x="323.328125" xlink:href="#BitstreamVeraSans-Roman-20"/>
       <use x="355.115234375" xlink:href="#BitstreamVeraSans-Roman-62"/>
       <use x="418.591796875" xlink:href="#BitstreamVeraSans-Roman-75"/>
       <use x="481.970703125" xlink:href="#BitstreamVeraSans-Roman-79"/>
       <use x="541.150390625" xlink:href="#BitstreamVeraSans-Roman-62"/>
       <use x="604.626953125" xlink:href="#BitstreamVeraSans-Roman-61"/>
       <use x="665.90625" xlink:href="#BitstreamVeraSans-Roman-63"/>
       <use x="720.88671875" xlink:href="#BitstreamVeraSans-Roman-6b"/>
      </g>
     </g>
    </g>
    <g id="xtick_4">
     <g id="line2d_10">
      <path clip-path="url(#p1806cf4502)" d="M 345.648438 581.14175 
L 345.648438 23.14175 
" style="fill:none;stroke:#ffffff;stroke-linecap:square;stroke-width:0.5;"/>
     </g>
     <g id="line2d_11">
      <g>
       <use style="fill:#555555;stroke:#555555;stroke-width:0.5;" x="345.6484375" xlink:href="#m3311e52e02" y="581.14175"/>
      </g>
     </g>
     <g id="line2d_12">
      <g>
       <use style="fill:#555555;stroke:#555555;stroke-width:0.5;" x="345.6484375" xlink:href="#mcbc5fb8651" y="23.14175"/>
      </g>
     </g>
     <g id="text_4">
      <!-- Management -->
      <defs>
       <path d="M 45.40625 27.984375 
Q 45.40625 37.75 41.375 43.109375 
Q 37.359375 48.484375 30.078125 48.484375 
Q 22.859375 48.484375 18.828125 43.109375 
Q 14.796875 37.75 14.796875 27.984375 
Q 14.796875 18.265625 18.828125 12.890625 
Q 22.859375 7.515625 30.078125 7.515625 
Q 37.359375 7.515625 41.375 12.890625 
Q 45.40625 18.265625 45.40625 27.984375 
M 54.390625 6.78125 
Q 54.390625 -7.171875 48.1875 -13.984375 
Q 42 -20.796875 29.203125 -20.796875 
Q 24.46875 -20.796875 20.265625 -20.09375 
Q 16.0625 -19.390625 12.109375 -17.921875 
L 12.109375 -9.1875 
Q 16.0625 -11.328125 19.921875 -12.34375 
Q 23.78125 -13.375 27.78125 -13.375 
Q 36.625 -13.375 41.015625 -8.765625 
Q 45.40625 -4.15625 45.40625 5.171875 
L 45.40625 9.625 
Q 42.625 4.78125 38.28125 2.390625 
Q 33.9375 0 27.875 0 
Q 17.828125 0 11.671875 7.65625 
Q 5.515625 15.328125 5.515625 27.984375 
Q 5.515625 40.671875 11.671875 48.328125 
Q 17.828125 56 27.875 56 
Q 33.9375 56 38.28125 53.609375 
Q 42.625 51.21875 45.40625 46.390625 
L 45.40625 54.6875 
L 54.390625 54.6875 
z
" id="BitstreamVeraSans-Roman-67"/>
       <path d="M 9.8125 72.90625 
L 24.515625 72.90625 
L 43.109375 23.296875 
L 61.8125 72.90625 
L 76.515625 72.90625 
L 76.515625 0 
L 66.890625 0 
L 66.890625 64.015625 
L 48.09375 14.015625 
L 38.1875 14.015625 
L 19.390625 64.015625 
L 19.390625 0 
L 9.8125 0 
z
" id="BitstreamVeraSans-Roman-4d"/>
      </defs>
      <g style="fill:#555555;" transform="translate(349.7875 687.95425)rotate(-90.0)scale(0.15 -0.15)">
       <use xlink:href="#BitstreamVeraSans-Roman-4d"/>
       <use x="86.279296875" xlink:href="#BitstreamVeraSans-Roman-61"/>
       <use x="147.55859375" xlink:href="#BitstreamVeraSans-Roman-6e"/>
       <use x="210.9375" xlink:href="#BitstreamVeraSans-Roman-61"/>
       <use x="272.216796875" xlink:href="#BitstreamVeraSans-Roman-67"/>
       <use x="335.693359375" xlink:href="#BitstreamVeraSans-Roman-65"/>
       <use x="397.216796875" xlink:href="#BitstreamVeraSans-Roman-6d"/>
       <use x="494.62890625" xlink:href="#BitstreamVeraSans-Roman-65"/>
       <use x="556.15234375" xlink:href="#BitstreamVeraSans-Roman-6e"/>
       <use x="619.53125" xlink:href="#BitstreamVeraSans-Roman-74"/>
      </g>
     </g>
    </g>
    <g id="xtick_5">
     <g id="line2d_13">
      <path clip-path="url(#p1806cf4502)" d="M 415.398438 581.14175 
L 415.398438 23.14175 
" style="fill:none;stroke:#ffffff;stroke-linecap:square;stroke-width:0.5;"/>
     </g>
     <g id="line2d_14">
      <g>
       <use style="fill:#555555;stroke:#555555;stroke-width:0.5;" x="415.3984375" xlink:href="#m3311e52e02" y="581.14175"/>
      </g>
     </g>
     <g id="line2d_15">
      <g>
       <use style="fill:#555555;stroke:#555555;stroke-width:0.5;" x="415.3984375" xlink:href="#mcbc5fb8651" y="23.14175"/>
      </g>
     </g>
     <g id="text_5">
      <!-- Research -->
      <g style="fill:#555555;" transform="translate(419.5375 658.93628125)rotate(-90.0)scale(0.15 -0.15)">
       <use xlink:href="#BitstreamVeraSans-Roman-52"/>
       <use x="69.419921875" xlink:href="#BitstreamVeraSans-Roman-65"/>
       <use x="130.943359375" xlink:href="#BitstreamVeraSans-Roman-73"/>
       <use x="183.04296875" xlink:href="#BitstreamVeraSans-Roman-65"/>
       <use x="244.56640625" xlink:href="#BitstreamVeraSans-Roman-61"/>
       <use x="305.845703125" xlink:href="#BitstreamVeraSans-Roman-72"/>
       <use x="346.927734375" xlink:href="#BitstreamVeraSans-Roman-63"/>
       <use x="401.908203125" xlink:href="#BitstreamVeraSans-Roman-68"/>
      </g>
     </g>
    </g>
    <g id="xtick_6">
     <g id="line2d_16">
      <path clip-path="url(#p1806cf4502)" d="M 485.148438 581.14175 
L 485.148438 23.14175 
" style="fill:none;stroke:#ffffff;stroke-linecap:square;stroke-width:0.5;"/>
     </g>
     <g id="line2d_17">
      <g>
       <use style="fill:#555555;stroke:#555555;stroke-width:0.5;" x="485.1484375" xlink:href="#m3311e52e02" y="581.14175"/>
      </g>
     </g>
     <g id="line2d_18">
      <g>
       <use style="fill:#555555;stroke:#555555;stroke-width:0.5;" x="485.1484375" xlink:href="#mcbc5fb8651" y="23.14175"/>
      </g>
     </g>
     <g id="text_6">
      <!-- MPAs -->
      <defs>
       <path d="M 19.671875 64.796875 
L 19.671875 37.40625 
L 32.078125 37.40625 
Q 38.96875 37.40625 42.71875 40.96875 
Q 46.484375 44.53125 46.484375 51.125 
Q 46.484375 57.671875 42.71875 61.234375 
Q 38.96875 64.796875 32.078125 64.796875 
z
M 9.8125 72.90625 
L 32.078125 72.90625 
Q 44.34375 72.90625 50.609375 67.359375 
Q 56.890625 61.8125 56.890625 51.125 
Q 56.890625 40.328125 50.609375 34.8125 
Q 44.34375 29.296875 32.078125 29.296875 
L 19.671875 29.296875 
L 19.671875 0 
L 9.8125 0 
z
" id="BitstreamVeraSans-Roman-50"/>
       <path d="M 34.1875 63.1875 
L 20.796875 26.90625 
L 47.609375 26.90625 
z
M 28.609375 72.90625 
L 39.796875 72.90625 
L 67.578125 0 
L 57.328125 0 
L 50.6875 18.703125 
L 17.828125 18.703125 
L 11.1875 0 
L 0.78125 0 
z
" id="BitstreamVeraSans-Roman-41"/>
      </defs>
      <g style="fill:#555555;" transform="translate(489.2875 629.18940625)rotate(-90.0)scale(0.15 -0.15)">
       <use xlink:href="#BitstreamVeraSans-Roman-4d"/>
       <use x="86.279296875" xlink:href="#BitstreamVeraSans-Roman-50"/>
       <use x="146.48828125" xlink:href="#BitstreamVeraSans-Roman-41"/>
       <use x="214.896484375" xlink:href="#BitstreamVeraSans-Roman-73"/>
      </g>
     </g>
    </g>
    <g id="xtick_7">
     <g id="line2d_19">
      <path clip-path="url(#p1806cf4502)" d="M 554.898438 581.14175 
L 554.898438 23.14175 
" style="fill:none;stroke:#ffffff;stroke-linecap:square;stroke-width:0.5;"/>
     </g>
     <g id="line2d_20">
      <g>
       <use style="fill:#555555;stroke:#555555;stroke-width:0.5;" x="554.8984375" xlink:href="#m3311e52e02" y="581.14175"/>
      </g>
     </g>
     <g id="line2d_21">
      <g>
       <use style="fill:#555555;stroke:#555555;stroke-width:0.5;" x="554.8984375" xlink:href="#mcbc5fb8651" y="23.14175"/>
      </g>
     </g>
     <g id="text_7">
      <!-- Boat construct. -->
      <defs>
       <path d="M 10.6875 12.40625 
L 21 12.40625 
L 21 0 
L 10.6875 0 
z
" id="BitstreamVeraSans-Roman-2e"/>
       <path d="M 19.671875 34.8125 
L 19.671875 8.109375 
L 35.5 8.109375 
Q 43.453125 8.109375 47.28125 11.40625 
Q 51.125 14.703125 51.125 21.484375 
Q 51.125 28.328125 47.28125 31.5625 
Q 43.453125 34.8125 35.5 34.8125 
z
M 19.671875 64.796875 
L 19.671875 42.828125 
L 34.28125 42.828125 
Q 41.5 42.828125 45.03125 45.53125 
Q 48.578125 48.25 48.578125 53.8125 
Q 48.578125 59.328125 45.03125 62.0625 
Q 41.5 64.796875 34.28125 64.796875 
z
M 9.8125 72.90625 
L 35.015625 72.90625 
Q 46.296875 72.90625 52.390625 68.21875 
Q 58.5 63.53125 58.5 54.890625 
Q 58.5 48.1875 55.375 44.234375 
Q 52.25 40.28125 46.1875 39.3125 
Q 53.46875 37.75 57.5 32.78125 
Q 61.53125 27.828125 61.53125 20.40625 
Q 61.53125 10.640625 54.890625 5.3125 
Q 48.25 0 35.984375 0 
L 9.8125 0 
z
" id="BitstreamVeraSans-Roman-42"/>
      </defs>
      <g style="fill:#555555;" transform="translate(559.0375 703.64565625)rotate(-90.0)scale(0.15 -0.15)">
       <use xlink:href="#BitstreamVeraSans-Roman-42"/>
       <use x="68.603515625" xlink:href="#BitstreamVeraSans-Roman-6f"/>
       <use x="129.78515625" xlink:href="#BitstreamVeraSans-Roman-61"/>
       <use x="191.064453125" xlink:href="#BitstreamVeraSans-Roman-74"/>
       <use x="230.2734375" xlink:href="#BitstreamVeraSans-Roman-20"/>
       <use x="262.060546875" xlink:href="#BitstreamVeraSans-Roman-63"/>
       <use x="317.041015625" xlink:href="#BitstreamVeraSans-Roman-6f"/>
       <use x="378.22265625" xlink:href="#BitstreamVeraSans-Roman-6e"/>
       <use x="441.6015625" xlink:href="#BitstreamVeraSans-Roman-73"/>
       <use x="493.701171875" xlink:href="#BitstreamVeraSans-Roman-74"/>
       <use x="532.91015625" xlink:href="#BitstreamVeraSans-Roman-72"/>
       <use x="574.0234375" xlink:href="#BitstreamVeraSans-Roman-75"/>
       <use x="637.40234375" xlink:href="#BitstreamVeraSans-Roman-63"/>
       <use x="692.3828125" xlink:href="#BitstreamVeraSans-Roman-74"/>
       <use x="731.591796875" xlink:href="#BitstreamVeraSans-Roman-2e"/>
      </g>
     </g>
    </g>
    <g id="xtick_8">
     <g id="line2d_22">
      <path clip-path="url(#p1806cf4502)" d="M 624.648438 581.14175 
L 624.648438 23.14175 
" style="fill:none;stroke:#ffffff;stroke-linecap:square;stroke-width:0.5;"/>
     </g>
     <g id="line2d_23">
      <g>
       <use style="fill:#555555;stroke:#555555;stroke-width:0.5;" x="624.6484375" xlink:href="#m3311e52e02" y="581.14175"/>
      </g>
     </g>
     <g id="line2d_24">
      <g>
       <use style="fill:#555555;stroke:#555555;stroke-width:0.5;" x="624.6484375" xlink:href="#mcbc5fb8651" y="23.14175"/>
      </g>
     </g>
     <g id="text_8">
      <!-- Develop. project -->
      <defs>
       <path d="M 2.984375 54.6875 
L 12.5 54.6875 
L 29.59375 8.796875 
L 46.6875 54.6875 
L 56.203125 54.6875 
L 35.6875 0 
L 23.484375 0 
z
" id="BitstreamVeraSans-Roman-76"/>
       <path d="M 19.671875 64.796875 
L 19.671875 8.109375 
L 31.59375 8.109375 
Q 46.6875 8.109375 53.6875 14.9375 
Q 60.6875 21.78125 60.6875 36.53125 
Q 60.6875 51.171875 53.6875 57.984375 
Q 46.6875 64.796875 31.59375 64.796875 
z
M 9.8125 72.90625 
L 30.078125 72.90625 
Q 51.265625 72.90625 61.171875 64.09375 
Q 71.09375 55.28125 71.09375 36.53125 
Q 71.09375 17.671875 61.125 8.828125 
Q 51.171875 0 30.078125 0 
L 9.8125 0 
z
" id="BitstreamVeraSans-Roman-44"/>
       <path d="M 9.421875 54.6875 
L 18.40625 54.6875 
L 18.40625 -0.984375 
Q 18.40625 -11.421875 14.421875 -16.109375 
Q 10.453125 -20.796875 1.609375 -20.796875 
L -1.8125 -20.796875 
L -1.8125 -13.1875 
L 0.59375 -13.1875 
Q 5.71875 -13.1875 7.5625 -10.8125 
Q 9.421875 -8.453125 9.421875 -0.984375 
z
M 9.421875 75.984375 
L 18.40625 75.984375 
L 18.40625 64.59375 
L 9.421875 64.59375 
z
" id="BitstreamVeraSans-Roman-6a"/>
       <path d="M 18.109375 8.203125 
L 18.109375 -20.796875 
L 9.078125 -20.796875 
L 9.078125 54.6875 
L 18.109375 54.6875 
L 18.109375 46.390625 
Q 20.953125 51.265625 25.265625 53.625 
Q 29.59375 56 35.59375 56 
Q 45.5625 56 51.78125 48.09375 
Q 58.015625 40.1875 58.015625 27.296875 
Q 58.015625 14.40625 51.78125 6.484375 
Q 45.5625 -1.421875 35.59375 -1.421875 
Q 29.59375 -1.421875 25.265625 0.953125 
Q 20.953125 3.328125 18.109375 8.203125 
M 48.6875 27.296875 
Q 48.6875 37.203125 44.609375 42.84375 
Q 40.53125 48.484375 33.40625 48.484375 
Q 26.265625 48.484375 22.1875 42.84375 
Q 18.109375 37.203125 18.109375 27.296875 
Q 18.109375 17.390625 22.1875 11.75 
Q 26.265625 6.109375 33.40625 6.109375 
Q 40.53125 6.109375 44.609375 11.75 
Q 48.6875 17.390625 48.6875 27.296875 
" id="BitstreamVeraSans-Roman-70"/>
      </defs>
      <g style="fill:#555555;" transform="translate(628.7875 712.81909375)rotate(-90.0)scale(0.15 -0.15)">
       <use xlink:href="#BitstreamVeraSans-Roman-44"/>
       <use x="77.001953125" xlink:href="#BitstreamVeraSans-Roman-65"/>
       <use x="138.525390625" xlink:href="#BitstreamVeraSans-Roman-76"/>
       <use x="197.705078125" xlink:href="#BitstreamVeraSans-Roman-65"/>
       <use x="259.228515625" xlink:href="#BitstreamVeraSans-Roman-6c"/>
       <use x="287.01171875" xlink:href="#BitstreamVeraSans-Roman-6f"/>
       <use x="348.193359375" xlink:href="#BitstreamVeraSans-Roman-70"/>
       <use x="411.669921875" xlink:href="#BitstreamVeraSans-Roman-2e"/>
       <use x="443.45703125" xlink:href="#BitstreamVeraSans-Roman-20"/>
       <use x="475.244140625" xlink:href="#BitstreamVeraSans-Roman-70"/>
       <use x="538.720703125" xlink:href="#BitstreamVeraSans-Roman-72"/>
       <use x="579.802734375" xlink:href="#BitstreamVeraSans-Roman-6f"/>
       <use x="640.984375" xlink:href="#BitstreamVeraSans-Roman-6a"/>
       <use x="668.767578125" xlink:href="#BitstreamVeraSans-Roman-65"/>
       <use x="730.291015625" xlink:href="#BitstreamVeraSans-Roman-63"/>
       <use x="785.271484375" xlink:href="#BitstreamVeraSans-Roman-74"/>
      </g>
     </g>
    </g>
    <g id="xtick_9">
     <g id="line2d_25">
      <path clip-path="url(#p1806cf4502)" d="M 694.398438 581.14175 
L 694.398438 23.14175 
" style="fill:none;stroke:#ffffff;stroke-linecap:square;stroke-width:0.5;"/>
     </g>
     <g id="line2d_26">
      <g>
       <use style="fill:#555555;stroke:#555555;stroke-width:0.5;" x="694.3984375" xlink:href="#m3311e52e02" y="581.14175"/>
      </g>
     </g>
     <g id="line2d_27">
      <g>
       <use style="fill:#555555;stroke:#555555;stroke-width:0.5;" x="694.3984375" xlink:href="#mcbc5fb8651" y="23.14175"/>
      </g>
     </g>
     <g id="text_9">
      <!-- Fishing access -->
      <g style="fill:#555555;" transform="translate(698.5375 697.74878125)rotate(-90.0)scale(0.15 -0.15)">
       <use xlink:href="#BitstreamVeraSans-Roman-46"/>
       <use x="57.41015625" xlink:href="#BitstreamVeraSans-Roman-69"/>
       <use x="85.193359375" xlink:href="#BitstreamVeraSans-Roman-73"/>
       <use x="137.29296875" xlink:href="#BitstreamVeraSans-Roman-68"/>
       <use x="200.671875" xlink:href="#BitstreamVeraSans-Roman-69"/>
       <use x="228.455078125" xlink:href="#BitstreamVeraSans-Roman-6e"/>
       <use x="291.833984375" xlink:href="#BitstreamVeraSans-Roman-67"/>
       <use x="355.310546875" xlink:href="#BitstreamVeraSans-Roman-20"/>
       <use x="387.09765625" xlink:href="#BitstreamVeraSans-Roman-61"/>
       <use x="448.376953125" xlink:href="#BitstreamVeraSans-Roman-63"/>
       <use x="503.357421875" xlink:href="#BitstreamVeraSans-Roman-63"/>
       <use x="558.337890625" xlink:href="#BitstreamVeraSans-Roman-65"/>
       <use x="619.861328125" xlink:href="#BitstreamVeraSans-Roman-73"/>
       <use x="671.9609375" xlink:href="#BitstreamVeraSans-Roman-73"/>
      </g>
     </g>
    </g>
    <g id="xtick_10">
     <g id="line2d_28">
      <path clip-path="url(#p1806cf4502)" d="M 764.148438 581.14175 
L 764.148438 23.14175 
" style="fill:none;stroke:#ffffff;stroke-linecap:square;stroke-width:0.5;"/>
     </g>
     <g id="line2d_29">
      <g>
       <use style="fill:#555555;stroke:#555555;stroke-width:0.5;" x="764.1484375" xlink:href="#m3311e52e02" y="581.14175"/>
      </g>
     </g>
     <g id="line2d_30">
      <g>
       <use style="fill:#555555;stroke:#555555;stroke-width:0.5;" x="764.1484375" xlink:href="#mcbc5fb8651" y="23.14175"/>
      </g>
     </g>
     <g id="text_10">
      <!-- Port Develop. -->
      <g style="fill:#555555;" transform="translate(768.2875 690.69409375)rotate(-90.0)scale(0.15 -0.15)">
       <use xlink:href="#BitstreamVeraSans-Roman-50"/>
       <use x="60.255859375" xlink:href="#BitstreamVeraSans-Roman-6f"/>
       <use x="121.4375" xlink:href="#BitstreamVeraSans-Roman-72"/>
       <use x="162.55078125" xlink:href="#BitstreamVeraSans-Roman-74"/>
       <use x="201.759765625" xlink:href="#BitstreamVeraSans-Roman-20"/>
       <use x="233.546875" xlink:href="#BitstreamVeraSans-Roman-44"/>
       <use x="310.548828125" xlink:href="#BitstreamVeraSans-Roman-65"/>
       <use x="372.072265625" xlink:href="#BitstreamVeraSans-Roman-76"/>
       <use x="431.251953125" xlink:href="#BitstreamVeraSans-Roman-65"/>
       <use x="492.775390625" xlink:href="#BitstreamVeraSans-Roman-6c"/>
       <use x="520.55859375" xlink:href="#BitstreamVeraSans-Roman-6f"/>
       <use x="581.740234375" xlink:href="#BitstreamVeraSans-Roman-70"/>
       <use x="645.216796875" xlink:href="#BitstreamVeraSans-Roman-2e"/>
      </g>
     </g>
    </g>
    <g id="xtick_11">
     <g id="line2d_31">
      <path clip-path="url(#p1806cf4502)" d="M 833.898438 581.14175 
L 833.898438 23.14175 
" style="fill:none;stroke:#ffffff;stroke-linecap:square;stroke-width:0.5;"/>
     </g>
     <g id="line2d_32">
      <g>
       <use style="fill:#555555;stroke:#555555;stroke-width:0.5;" x="833.8984375" xlink:href="#m3311e52e02" y="581.14175"/>
      </g>
     </g>
     <g id="line2d_33">
      <g>
       <use style="fill:#555555;stroke:#555555;stroke-width:0.5;" x="833.8984375" xlink:href="#mcbc5fb8651" y="23.14175"/>
      </g>
     </g>
     <g id="text_11">
      <!-- Market and storage -->
      <defs>
       <path d="M 45.40625 46.390625 
L 45.40625 75.984375 
L 54.390625 75.984375 
L 54.390625 0 
L 45.40625 0 
L 45.40625 8.203125 
Q 42.578125 3.328125 38.25 0.953125 
Q 33.9375 -1.421875 27.875 -1.421875 
Q 17.96875 -1.421875 11.734375 6.484375 
Q 5.515625 14.40625 5.515625 27.296875 
Q 5.515625 40.1875 11.734375 48.09375 
Q 17.96875 56 27.875 56 
Q 33.9375 56 38.25 53.625 
Q 42.578125 51.265625 45.40625 46.390625 
M 14.796875 27.296875 
Q 14.796875 17.390625 18.875 11.75 
Q 22.953125 6.109375 30.078125 6.109375 
Q 37.203125 6.109375 41.296875 11.75 
Q 45.40625 17.390625 45.40625 27.296875 
Q 45.40625 37.203125 41.296875 42.84375 
Q 37.203125 48.484375 30.078125 48.484375 
Q 22.953125 48.484375 18.875 42.84375 
Q 14.796875 37.203125 14.796875 27.296875 
" id="BitstreamVeraSans-Roman-64"/>
      </defs>
      <g style="fill:#555555;" transform="translate(838.0375 735.97065625)rotate(-90.0)scale(0.15 -0.15)">
       <use xlink:href="#BitstreamVeraSans-Roman-4d"/>
       <use x="86.279296875" xlink:href="#BitstreamVeraSans-Roman-61"/>
       <use x="147.55859375" xlink:href="#BitstreamVeraSans-Roman-72"/>
       <use x="188.671875" xlink:href="#BitstreamVeraSans-Roman-6b"/>
       <use x="246.53515625" xlink:href="#BitstreamVeraSans-Roman-65"/>
       <use x="308.05859375" xlink:href="#BitstreamVeraSans-Roman-74"/>
       <use x="347.267578125" xlink:href="#BitstreamVeraSans-Roman-20"/>
       <use x="379.0546875" xlink:href="#BitstreamVeraSans-Roman-61"/>
       <use x="440.333984375" xlink:href="#BitstreamVeraSans-Roman-6e"/>
       <use x="503.712890625" xlink:href="#BitstreamVeraSans-Roman-64"/>
       <use x="567.189453125" xlink:href="#BitstreamVeraSans-Roman-20"/>
       <use x="598.9765625" xlink:href="#BitstreamVeraSans-Roman-73"/>
       <use x="651.076171875" xlink:href="#BitstreamVeraSans-Roman-74"/>
       <use x="690.28515625" xlink:href="#BitstreamVeraSans-Roman-6f"/>
       <use x="751.466796875" xlink:href="#BitstreamVeraSans-Roman-72"/>
       <use x="792.580078125" xlink:href="#BitstreamVeraSans-Roman-61"/>
       <use x="853.859375" xlink:href="#BitstreamVeraSans-Roman-67"/>
       <use x="917.3359375" xlink:href="#BitstreamVeraSans-Roman-65"/>
      </g>
     </g>
    </g>
    <g id="xtick_12">
     <g id="line2d_34">
      <path clip-path="url(#p1806cf4502)" d="M 903.648438 581.14175 
L 903.648438 23.14175 
" style="fill:none;stroke:#ffffff;stroke-linecap:square;stroke-width:0.5;"/>
     </g>
     <g id="line2d_35">
      <g>
       <use style="fill:#555555;stroke:#555555;stroke-width:0.5;" x="903.6484375" xlink:href="#m3311e52e02" y="581.14175"/>
      </g>
     </g>
     <g id="line2d_36">
      <g>
       <use style="fill:#555555;stroke:#555555;stroke-width:0.5;" x="903.6484375" xlink:href="#mcbc5fb8651" y="23.14175"/>
      </g>
     </g>
     <g id="text_12">
      <!-- Tax exemption -->
      <defs>
       <path d="M -0.296875 72.90625 
L 61.375 72.90625 
L 61.375 64.59375 
L 35.5 64.59375 
L 35.5 0 
L 25.59375 0 
L 25.59375 64.59375 
L -0.296875 64.59375 
z
" id="BitstreamVeraSans-Roman-54"/>
       <path d="M 54.890625 54.6875 
L 35.109375 28.078125 
L 55.90625 0 
L 45.3125 0 
L 29.390625 21.484375 
L 13.484375 0 
L 2.875 0 
L 24.125 28.609375 
L 4.6875 54.6875 
L 15.28125 54.6875 
L 29.78125 35.203125 
L 44.28125 54.6875 
z
" id="BitstreamVeraSans-Roman-78"/>
      </defs>
      <g style="fill:#555555;" transform="translate(907.7875 701.29721875)rotate(-90.0)scale(0.15 -0.15)">
       <use xlink:href="#BitstreamVeraSans-Roman-54"/>
       <use x="60.833984375" xlink:href="#BitstreamVeraSans-Roman-61"/>
       <use x="122.11328125" xlink:href="#BitstreamVeraSans-Roman-78"/>
       <use x="181.29296875" xlink:href="#BitstreamVeraSans-Roman-20"/>
       <use x="213.080078125" xlink:href="#BitstreamVeraSans-Roman-65"/>
       <use x="274.587890625" xlink:href="#BitstreamVeraSans-Roman-78"/>
       <use x="333.720703125" xlink:href="#BitstreamVeraSans-Roman-65"/>
       <use x="395.244140625" xlink:href="#BitstreamVeraSans-Roman-6d"/>
       <use x="492.65625" xlink:href="#BitstreamVeraSans-Roman-70"/>
       <use x="556.1328125" xlink:href="#BitstreamVeraSans-Roman-74"/>
       <use x="595.341796875" xlink:href="#BitstreamVeraSans-Roman-69"/>
       <use x="623.125" xlink:href="#BitstreamVeraSans-Roman-6f"/>
       <use x="684.306640625" xlink:href="#BitstreamVeraSans-Roman-6e"/>
      </g>
     </g>
    </g>
    <g id="text_13">
     <!-- Ambiguous                              Beneficial                                               Capacity-enhancing                -->
     <defs>
      <path d="M 37.109375 75.984375 
L 37.109375 68.5 
L 28.515625 68.5 
Q 23.6875 68.5 21.796875 66.546875 
Q 19.921875 64.59375 19.921875 59.515625 
L 19.921875 54.6875 
L 34.71875 54.6875 
L 34.71875 47.703125 
L 19.921875 47.703125 
L 19.921875 0 
L 10.890625 0 
L 10.890625 47.703125 
L 2.296875 47.703125 
L 2.296875 54.6875 
L 10.890625 54.6875 
L 10.890625 58.5 
Q 10.890625 67.625 15.140625 71.796875 
Q 19.390625 75.984375 28.609375 75.984375 
z
" id="BitstreamVeraSans-Roman-66"/>
      <path d="M 64.40625 67.28125 
L 64.40625 56.890625 
Q 59.421875 61.53125 53.78125 63.8125 
Q 48.140625 66.109375 41.796875 66.109375 
Q 29.296875 66.109375 22.65625 58.46875 
Q 16.015625 50.828125 16.015625 36.375 
Q 16.015625 21.96875 22.65625 14.328125 
Q 29.296875 6.6875 41.796875 6.6875 
Q 48.140625 6.6875 53.78125 8.984375 
Q 59.421875 11.28125 64.40625 15.921875 
L 64.40625 5.609375 
Q 59.234375 2.09375 53.4375 0.328125 
Q 47.65625 -1.421875 41.21875 -1.421875 
Q 24.65625 -1.421875 15.125 8.703125 
Q 5.609375 18.84375 5.609375 36.375 
Q 5.609375 53.953125 15.125 64.078125 
Q 24.65625 74.21875 41.21875 74.21875 
Q 47.75 74.21875 53.53125 72.484375 
Q 59.328125 70.75 64.40625 67.28125 
" id="BitstreamVeraSans-Roman-43"/>
      <path d="M 4.890625 31.390625 
L 31.203125 31.390625 
L 31.203125 23.390625 
L 4.890625 23.390625 
z
" id="BitstreamVeraSans-Roman-2d"/>
     </defs>
     <g style="fill:#555555;" transform="translate(147.274609375 752.3683125)scale(0.15 -0.15)">
      <use xlink:href="#BitstreamVeraSans-Roman-41"/>
      <use x="68.408203125" xlink:href="#BitstreamVeraSans-Roman-6d"/>
      <use x="165.8203125" xlink:href="#BitstreamVeraSans-Roman-62"/>
      <use x="229.296875" xlink:href="#BitstreamVeraSans-Roman-69"/>
      <use x="257.080078125" xlink:href="#BitstreamVeraSans-Roman-67"/>
      <use x="320.556640625" xlink:href="#BitstreamVeraSans-Roman-75"/>
      <use x="383.935546875" xlink:href="#BitstreamVeraSans-Roman-6f"/>
      <use x="445.1171875" xlink:href="#BitstreamVeraSans-Roman-75"/>
      <use x="508.49609375" xlink:href="#BitstreamVeraSans-Roman-73"/>
      <use x="560.595703125" xlink:href="#BitstreamVeraSans-Roman-20"/>
      <use x="592.3828125" xlink:href="#BitstreamVeraSans-Roman-20"/>
      <use x="624.169921875" xlink:href="#BitstreamVeraSans-Roman-20"/>
      <use x="655.95703125" xlink:href="#BitstreamVeraSans-Roman-20"/>
      <use x="687.744140625" xlink:href="#BitstreamVeraSans-Roman-20"/>
      <use x="719.53125" xlink:href="#BitstreamVeraSans-Roman-20"/>
      <use x="751.318359375" xlink:href="#BitstreamVeraSans-Roman-20"/>
      <use x="783.10546875" xlink:href="#BitstreamVeraSans-Roman-20"/>
      <use x="814.892578125" xlink:href="#BitstreamVeraSans-Roman-20"/>
      <use x="846.6796875" xlink:href="#BitstreamVeraSans-Roman-20"/>
      <use x="878.466796875" xlink:href="#BitstreamVeraSans-Roman-20"/>
      <use x="910.25390625" xlink:href="#BitstreamVeraSans-Roman-20"/>
      <use x="942.041015625" xlink:href="#BitstreamVeraSans-Roman-20"/>
      <use x="973.828125" xlink:href="#BitstreamVeraSans-Roman-20"/>
      <use x="1005.61523438" xlink:href="#BitstreamVeraSans-Roman-20"/>
      <use x="1037.40234375" xlink:href="#BitstreamVeraSans-Roman-20"/>
      <use x="1069.18945312" xlink:href="#BitstreamVeraSans-Roman-20"/>
      <use x="1100.9765625" xlink:href="#BitstreamVeraSans-Roman-20"/>
      <use x="1132.76367188" xlink:href="#BitstreamVeraSans-Roman-20"/>
      <use x="1164.55078125" xlink:href="#BitstreamVeraSans-Roman-20"/>
      <use x="1196.33789062" xlink:href="#BitstreamVeraSans-Roman-20"/>
      <use x="1228.125" xlink:href="#BitstreamVeraSans-Roman-20"/>
      <use x="1259.91210938" xlink:href="#BitstreamVeraSans-Roman-20"/>
      <use x="1291.69921875" xlink:href="#BitstreamVeraSans-Roman-20"/>
      <use x="1323.48632812" xlink:href="#BitstreamVeraSans-Roman-20"/>
      <use x="1355.2734375" xlink:href="#BitstreamVeraSans-Roman-20"/>
      <use x="1387.06054688" xlink:href="#BitstreamVeraSans-Roman-20"/>
      <use x="1418.84765625" xlink:href="#BitstreamVeraSans-Roman-20"/>
      <use x="1450.63476562" xlink:href="#BitstreamVeraSans-Roman-20"/>
      <use x="1482.421875" xlink:href="#BitstreamVeraSans-Roman-20"/>
      <use x="1514.20898438" xlink:href="#BitstreamVeraSans-Roman-42"/>
      <use x="1582.8125" xlink:href="#BitstreamVeraSans-Roman-65"/>
      <use x="1644.3359375" xlink:href="#BitstreamVeraSans-Roman-6e"/>
      <use x="1707.71484375" xlink:href="#BitstreamVeraSans-Roman-65"/>
      <use x="1769.23828125" xlink:href="#BitstreamVeraSans-Roman-66"/>
      <use x="1804.44335938" xlink:href="#BitstreamVeraSans-Roman-69"/>
      <use x="1832.2265625" xlink:href="#BitstreamVeraSans-Roman-63"/>
      <use x="1887.20703125" xlink:href="#BitstreamVeraSans-Roman-69"/>
      <use x="1914.99023438" xlink:href="#BitstreamVeraSans-Roman-61"/>
      <use x="1976.26953125" xlink:href="#BitstreamVeraSans-Roman-6c"/>
      <use x="2004.05273438" xlink:href="#BitstreamVeraSans-Roman-20"/>
      <use x="2035.83984375" xlink:href="#BitstreamVeraSans-Roman-20"/>
      <use x="2067.62695312" xlink:href="#BitstreamVeraSans-Roman-20"/>
      <use x="2099.4140625" xlink:href="#BitstreamVeraSans-Roman-20"/>
      <use x="2131.20117188" xlink:href="#BitstreamVeraSans-Roman-20"/>
      <use x="2162.98828125" xlink:href="#BitstreamVeraSans-Roman-20"/>
      <use x="2194.77539062" xlink:href="#BitstreamVeraSans-Roman-20"/>
      <use x="2226.5625" xlink:href="#BitstreamVeraSans-Roman-20"/>
      <use x="2258.34960938" xlink:href="#BitstreamVeraSans-Roman-20"/>
      <use x="2290.13671875" xlink:href="#BitstreamVeraSans-Roman-20"/>
      <use x="2321.92382812" xlink:href="#BitstreamVeraSans-Roman-20"/>
      <use x="2353.7109375" xlink:href="#BitstreamVeraSans-Roman-20"/>
      <use x="2385.49804688" xlink:href="#BitstreamVeraSans-Roman-20"/>
      <use x="2417.28515625" xlink:href="#BitstreamVeraSans-Roman-20"/>
      <use x="2449.07226562" xlink:href="#BitstreamVeraSans-Roman-20"/>
      <use x="2480.859375" xlink:href="#BitstreamVeraSans-Roman-20"/>
      <use x="2512.64648438" xlink:href="#BitstreamVeraSans-Roman-20"/>
      <use x="2544.43359375" xlink:href="#BitstreamVeraSans-Roman-20"/>
      <use x="2576.22070312" xlink:href="#BitstreamVeraSans-Roman-20"/>
      <use x="2608.0078125" xlink:href="#BitstreamVeraSans-Roman-20"/>
      <use x="2639.79492188" xlink:href="#BitstreamVeraSans-Roman-20"/>
      <use x="2671.58203125" xlink:href="#BitstreamVeraSans-Roman-20"/>
      <use x="2703.36914062" xlink:href="#BitstreamVeraSans-Roman-20"/>
      <use x="2735.15625" xlink:href="#BitstreamVeraSans-Roman-20"/>
      <use x="2766.94335938" xlink:href="#BitstreamVeraSans-Roman-20"/>
      <use x="2798.73046875" xlink:href="#BitstreamVeraSans-Roman-20"/>
      <use x="2830.51757812" xlink:href="#BitstreamVeraSans-Roman-20"/>
      <use x="2862.3046875" xlink:href="#BitstreamVeraSans-Roman-20"/>
      <use x="2894.09179688" xlink:href="#BitstreamVeraSans-Roman-20"/>
      <use x="2925.87890625" xlink:href="#BitstreamVeraSans-Roman-20"/>
      <use x="2957.66601562" xlink:href="#BitstreamVeraSans-Roman-20"/>
      <use x="2989.453125" xlink:href="#BitstreamVeraSans-Roman-20"/>
      <use x="3021.24023438" xlink:href="#BitstreamVeraSans-Roman-20"/>
      <use x="3053.02734375" xlink:href="#BitstreamVeraSans-Roman-20"/>
      <use x="3084.81445312" xlink:href="#BitstreamVeraSans-Roman-20"/>
      <use x="3116.6015625" xlink:href="#BitstreamVeraSans-Roman-20"/>
      <use x="3148.38867188" xlink:href="#BitstreamVeraSans-Roman-20"/>
      <use x="3180.17578125" xlink:href="#BitstreamVeraSans-Roman-20"/>
      <use x="3211.96289062" xlink:href="#BitstreamVeraSans-Roman-20"/>
      <use x="3243.75" xlink:href="#BitstreamVeraSans-Roman-20"/>
      <use x="3275.53710938" xlink:href="#BitstreamVeraSans-Roman-20"/>
      <use x="3307.32421875" xlink:href="#BitstreamVeraSans-Roman-20"/>
      <use x="3339.11132812" xlink:href="#BitstreamVeraSans-Roman-20"/>
      <use x="3370.8984375" xlink:href="#BitstreamVeraSans-Roman-20"/>
      <use x="3402.68554688" xlink:href="#BitstreamVeraSans-Roman-20"/>
      <use x="3434.47265625" xlink:href="#BitstreamVeraSans-Roman-20"/>
      <use x="3466.25976562" xlink:href="#BitstreamVeraSans-Roman-20"/>
      <use x="3498.046875" xlink:href="#BitstreamVeraSans-Roman-43"/>
      <use x="3567.87109375" xlink:href="#BitstreamVeraSans-Roman-61"/>
      <use x="3629.15039062" xlink:href="#BitstreamVeraSans-Roman-70"/>
      <use x="3692.62695312" xlink:href="#BitstreamVeraSans-Roman-61"/>
      <use x="3753.90625" xlink:href="#BitstreamVeraSans-Roman-63"/>
      <use x="3808.88671875" xlink:href="#BitstreamVeraSans-Roman-69"/>
      <use x="3836.66992188" xlink:href="#BitstreamVeraSans-Roman-74"/>
      <use x="3875.87890625" xlink:href="#BitstreamVeraSans-Roman-79"/>
      <use x="3935.04296875" xlink:href="#BitstreamVeraSans-Roman-2d"/>
      <use x="3971.12695312" xlink:href="#BitstreamVeraSans-Roman-65"/>
      <use x="4032.65039062" xlink:href="#BitstreamVeraSans-Roman-6e"/>
      <use x="4096.02929688" xlink:href="#BitstreamVeraSans-Roman-68"/>
      <use x="4159.40820312" xlink:href="#BitstreamVeraSans-Roman-61"/>
      <use x="4220.6875" xlink:href="#BitstreamVeraSans-Roman-6e"/>
      <use x="4284.06640625" xlink:href="#BitstreamVeraSans-Roman-63"/>
      <use x="4339.046875" xlink:href="#BitstreamVeraSans-Roman-69"/>
      <use x="4366.83007812" xlink:href="#BitstreamVeraSans-Roman-6e"/>
      <use x="4430.20898438" xlink:href="#BitstreamVeraSans-Roman-67"/>
      <use x="4493.68554688" xlink:href="#BitstreamVeraSans-Roman-20"/>
      <use x="4525.47265625" xlink:href="#BitstreamVeraSans-Roman-20"/>
      <use x="4557.25976562" xlink:href="#BitstreamVeraSans-Roman-20"/>
      <use x="4589.046875" xlink:href="#BitstreamVeraSans-Roman-20"/>
      <use x="4620.83398438" xlink:href="#BitstreamVeraSans-Roman-20"/>
      <use x="4652.62109375" xlink:href="#BitstreamVeraSans-Roman-20"/>
      <use x="4684.40820312" xlink:href="#BitstreamVeraSans-Roman-20"/>
      <use x="4716.1953125" xlink:href="#BitstreamVeraSans-Roman-20"/>
      <use x="4747.98242188" xlink:href="#BitstreamVeraSans-Roman-20"/>
      <use x="4779.76953125" xlink:href="#BitstreamVeraSans-Roman-20"/>
      <use x="4811.55664062" xlink:href="#BitstreamVeraSans-Roman-20"/>
      <use x="4843.34375" xlink:href="#BitstreamVeraSans-Roman-20"/>
      <use x="4875.13085938" xlink:href="#BitstreamVeraSans-Roman-20"/>
      <use x="4906.91796875" xlink:href="#BitstreamVeraSans-Roman-20"/>
      <use x="4938.70507812" xlink:href="#BitstreamVeraSans-Roman-20"/>
     </g>
    </g>
   </g>
   <g id="matplotlib.axis_2">
    <g id="ytick_1">
     <g id="line2d_37">
      <path clip-path="url(#p1806cf4502)" d="M 101.523438 581.14175 
L 938.523438 581.14175 
" style="fill:none;stroke:#ffffff;stroke-linecap:square;stroke-width:0.5;"/>
     </g>
     <g id="line2d_38">
      <defs>
       <path d="M 0 0 
L -4 0 
" id="m845facc628" style="stroke:#555555;stroke-width:0.5;"/>
      </defs>
      <g>
       <use style="fill:#555555;stroke:#555555;stroke-width:0.5;" x="101.5234375" xlink:href="#m845facc628" y="581.14175"/>
      </g>
     </g>
     <g id="line2d_39">
      <defs>
       <path d="M 0 0 
L 4 0 
" id="m4315578f24" style="stroke:#555555;stroke-width:0.5;"/>
      </defs>
      <g>
       <use style="fill:#555555;stroke:#555555;stroke-width:0.5;" x="938.5234375" xlink:href="#m4315578f24" y="581.14175"/>
      </g>
     </g>
     <g id="text_14">
      <!-- 0 -->
      <defs>
       <path d="M 31.78125 66.40625 
Q 24.171875 66.40625 20.328125 58.90625 
Q 16.5 51.421875 16.5 36.375 
Q 16.5 21.390625 20.328125 13.890625 
Q 24.171875 6.390625 31.78125 6.390625 
Q 39.453125 6.390625 43.28125 13.890625 
Q 47.125 21.390625 47.125 36.375 
Q 47.125 51.421875 43.28125 58.90625 
Q 39.453125 66.40625 31.78125 66.40625 
M 31.78125 74.21875 
Q 44.046875 74.21875 50.515625 64.515625 
Q 56.984375 54.828125 56.984375 36.375 
Q 56.984375 17.96875 50.515625 8.265625 
Q 44.046875 -1.421875 31.78125 -1.421875 
Q 19.53125 -1.421875 13.0625 8.265625 
Q 6.59375 17.96875 6.59375 36.375 
Q 6.59375 54.828125 13.0625 64.515625 
Q 19.53125 74.21875 31.78125 74.21875 
" id="BitstreamVeraSans-Roman-30"/>
      </defs>
      <g style="fill:#555555;" transform="translate(83.9796875 585.2808125)scale(0.15 -0.15)">
       <use xlink:href="#BitstreamVeraSans-Roman-30"/>
      </g>
     </g>
    </g>
    <g id="ytick_2">
     <g id="line2d_40">
      <path clip-path="url(#p1806cf4502)" d="M 101.523438 511.39175 
L 938.523438 511.39175 
" style="fill:none;stroke:#ffffff;stroke-linecap:square;stroke-width:0.5;"/>
     </g>
     <g id="line2d_41">
      <g>
       <use style="fill:#555555;stroke:#555555;stroke-width:0.5;" x="101.5234375" xlink:href="#m845facc628" y="511.39175"/>
      </g>
     </g>
     <g id="line2d_42">
      <g>
       <use style="fill:#555555;stroke:#555555;stroke-width:0.5;" x="938.5234375" xlink:href="#m4315578f24" y="511.39175"/>
      </g>
     </g>
     <g id="text_15">
      <!-- 1000000 -->
      <defs>
       <path d="M 12.40625 8.296875 
L 28.515625 8.296875 
L 28.515625 63.921875 
L 10.984375 60.40625 
L 10.984375 69.390625 
L 28.421875 72.90625 
L 38.28125 72.90625 
L 38.28125 8.296875 
L 54.390625 8.296875 
L 54.390625 0 
L 12.40625 0 
z
" id="BitstreamVeraSans-Roman-31"/>
      </defs>
      <g style="fill:#555555;" transform="translate(26.7171875 515.5308125)scale(0.15 -0.15)">
       <use xlink:href="#BitstreamVeraSans-Roman-31"/>
       <use x="63.623046875" xlink:href="#BitstreamVeraSans-Roman-30"/>
       <use x="127.24609375" xlink:href="#BitstreamVeraSans-Roman-30"/>
       <use x="190.869140625" xlink:href="#BitstreamVeraSans-Roman-30"/>
       <use x="254.4921875" xlink:href="#BitstreamVeraSans-Roman-30"/>
       <use x="318.115234375" xlink:href="#BitstreamVeraSans-Roman-30"/>
       <use x="381.73828125" xlink:href="#BitstreamVeraSans-Roman-30"/>
      </g>
     </g>
    </g>
    <g id="ytick_3">
     <g id="line2d_43">
      <path clip-path="url(#p1806cf4502)" d="M 101.523438 441.64175 
L 938.523438 441.64175 
" style="fill:none;stroke:#ffffff;stroke-linecap:square;stroke-width:0.5;"/>
     </g>
     <g id="line2d_44">
      <g>
       <use style="fill:#555555;stroke:#555555;stroke-width:0.5;" x="101.5234375" xlink:href="#m845facc628" y="441.64175"/>
      </g>
     </g>
     <g id="line2d_45">
      <g>
       <use style="fill:#555555;stroke:#555555;stroke-width:0.5;" x="938.5234375" xlink:href="#m4315578f24" y="441.64175"/>
      </g>
     </g>
     <g id="text_16">
      <!-- 2000000 -->
      <defs>
       <path d="M 19.1875 8.296875 
L 53.609375 8.296875 
L 53.609375 0 
L 7.328125 0 
L 7.328125 8.296875 
Q 12.9375 14.109375 22.625 23.890625 
Q 32.328125 33.6875 34.8125 36.53125 
Q 39.546875 41.84375 41.421875 45.53125 
Q 43.3125 49.21875 43.3125 52.78125 
Q 43.3125 58.59375 39.234375 62.25 
Q 35.15625 65.921875 28.609375 65.921875 
Q 23.96875 65.921875 18.8125 64.3125 
Q 13.671875 62.703125 7.8125 59.421875 
L 7.8125 69.390625 
Q 13.765625 71.78125 18.9375 73 
Q 24.125 74.21875 28.421875 74.21875 
Q 39.75 74.21875 46.484375 68.546875 
Q 53.21875 62.890625 53.21875 53.421875 
Q 53.21875 48.921875 51.53125 44.890625 
Q 49.859375 40.875 45.40625 35.40625 
Q 44.1875 33.984375 37.640625 27.21875 
Q 31.109375 20.453125 19.1875 8.296875 
" id="BitstreamVeraSans-Roman-32"/>
      </defs>
      <g style="fill:#555555;" transform="translate(26.7171875 445.7808125)scale(0.15 -0.15)">
       <use xlink:href="#BitstreamVeraSans-Roman-32"/>
       <use x="63.623046875" xlink:href="#BitstreamVeraSans-Roman-30"/>
       <use x="127.24609375" xlink:href="#BitstreamVeraSans-Roman-30"/>
       <use x="190.869140625" xlink:href="#BitstreamVeraSans-Roman-30"/>
       <use x="254.4921875" xlink:href="#BitstreamVeraSans-Roman-30"/>
       <use x="318.115234375" xlink:href="#BitstreamVeraSans-Roman-30"/>
       <use x="381.73828125" xlink:href="#BitstreamVeraSans-Roman-30"/>
      </g>
     </g>
    </g>
    <g id="ytick_4">
     <g id="line2d_46">
      <path clip-path="url(#p1806cf4502)" d="M 101.523438 371.89175 
L 938.523438 371.89175 
" style="fill:none;stroke:#ffffff;stroke-linecap:square;stroke-width:0.5;"/>
     </g>
     <g id="line2d_47">
      <g>
       <use style="fill:#555555;stroke:#555555;stroke-width:0.5;" x="101.5234375" xlink:href="#m845facc628" y="371.89175"/>
      </g>
     </g>
     <g id="line2d_48">
      <g>
       <use style="fill:#555555;stroke:#555555;stroke-width:0.5;" x="938.5234375" xlink:href="#m4315578f24" y="371.89175"/>
      </g>
     </g>
     <g id="text_17">
      <!-- 3000000 -->
      <defs>
       <path d="M 40.578125 39.3125 
Q 47.65625 37.796875 51.625 33 
Q 55.609375 28.21875 55.609375 21.1875 
Q 55.609375 10.40625 48.1875 4.484375 
Q 40.765625 -1.421875 27.09375 -1.421875 
Q 22.515625 -1.421875 17.65625 -0.515625 
Q 12.796875 0.390625 7.625 2.203125 
L 7.625 11.71875 
Q 11.71875 9.328125 16.59375 8.109375 
Q 21.484375 6.890625 26.8125 6.890625 
Q 36.078125 6.890625 40.9375 10.546875 
Q 45.796875 14.203125 45.796875 21.1875 
Q 45.796875 27.640625 41.28125 31.265625 
Q 36.765625 34.90625 28.71875 34.90625 
L 20.21875 34.90625 
L 20.21875 43.015625 
L 29.109375 43.015625 
Q 36.375 43.015625 40.234375 45.921875 
Q 44.09375 48.828125 44.09375 54.296875 
Q 44.09375 59.90625 40.109375 62.90625 
Q 36.140625 65.921875 28.71875 65.921875 
Q 24.65625 65.921875 20.015625 65.03125 
Q 15.375 64.15625 9.8125 62.3125 
L 9.8125 71.09375 
Q 15.4375 72.65625 20.34375 73.4375 
Q 25.25 74.21875 29.59375 74.21875 
Q 40.828125 74.21875 47.359375 69.109375 
Q 53.90625 64.015625 53.90625 55.328125 
Q 53.90625 49.265625 50.4375 45.09375 
Q 46.96875 40.921875 40.578125 39.3125 
" id="BitstreamVeraSans-Roman-33"/>
      </defs>
      <g style="fill:#555555;" transform="translate(26.7171875 376.0308125)scale(0.15 -0.15)">
       <use xlink:href="#BitstreamVeraSans-Roman-33"/>
       <use x="63.623046875" xlink:href="#BitstreamVeraSans-Roman-30"/>
       <use x="127.24609375" xlink:href="#BitstreamVeraSans-Roman-30"/>
       <use x="190.869140625" xlink:href="#BitstreamVeraSans-Roman-30"/>
       <use x="254.4921875" xlink:href="#BitstreamVeraSans-Roman-30"/>
       <use x="318.115234375" xlink:href="#BitstreamVeraSans-Roman-30"/>
       <use x="381.73828125" xlink:href="#BitstreamVeraSans-Roman-30"/>
      </g>
     </g>
    </g>
    <g id="ytick_5">
     <g id="line2d_49">
      <path clip-path="url(#p1806cf4502)" d="M 101.523438 302.14175 
L 938.523438 302.14175 
" style="fill:none;stroke:#ffffff;stroke-linecap:square;stroke-width:0.5;"/>
     </g>
     <g id="line2d_50">
      <g>
       <use style="fill:#555555;stroke:#555555;stroke-width:0.5;" x="101.5234375" xlink:href="#m845facc628" y="302.14175"/>
      </g>
     </g>
     <g id="line2d_51">
      <g>
       <use style="fill:#555555;stroke:#555555;stroke-width:0.5;" x="938.5234375" xlink:href="#m4315578f24" y="302.14175"/>
      </g>
     </g>
     <g id="text_18">
      <!-- 4000000 -->
      <defs>
       <path d="M 37.796875 64.3125 
L 12.890625 25.390625 
L 37.796875 25.390625 
z
M 35.203125 72.90625 
L 47.609375 72.90625 
L 47.609375 25.390625 
L 58.015625 25.390625 
L 58.015625 17.1875 
L 47.609375 17.1875 
L 47.609375 0 
L 37.796875 0 
L 37.796875 17.1875 
L 4.890625 17.1875 
L 4.890625 26.703125 
z
" id="BitstreamVeraSans-Roman-34"/>
      </defs>
      <g style="fill:#555555;" transform="translate(26.7171875 306.2808125)scale(0.15 -0.15)">
       <use xlink:href="#BitstreamVeraSans-Roman-34"/>
       <use x="63.623046875" xlink:href="#BitstreamVeraSans-Roman-30"/>
       <use x="127.24609375" xlink:href="#BitstreamVeraSans-Roman-30"/>
       <use x="190.869140625" xlink:href="#BitstreamVeraSans-Roman-30"/>
       <use x="254.4921875" xlink:href="#BitstreamVeraSans-Roman-30"/>
       <use x="318.115234375" xlink:href="#BitstreamVeraSans-Roman-30"/>
       <use x="381.73828125" xlink:href="#BitstreamVeraSans-Roman-30"/>
      </g>
     </g>
    </g>
    <g id="ytick_6">
     <g id="line2d_52">
      <path clip-path="url(#p1806cf4502)" d="M 101.523438 232.39175 
L 938.523438 232.39175 
" style="fill:none;stroke:#ffffff;stroke-linecap:square;stroke-width:0.5;"/>
     </g>
     <g id="line2d_53">
      <g>
       <use style="fill:#555555;stroke:#555555;stroke-width:0.5;" x="101.5234375" xlink:href="#m845facc628" y="232.39175"/>
      </g>
     </g>
     <g id="line2d_54">
      <g>
       <use style="fill:#555555;stroke:#555555;stroke-width:0.5;" x="938.5234375" xlink:href="#m4315578f24" y="232.39175"/>
      </g>
     </g>
     <g id="text_19">
      <!-- 5000000 -->
      <defs>
       <path d="M 10.796875 72.90625 
L 49.515625 72.90625 
L 49.515625 64.59375 
L 19.828125 64.59375 
L 19.828125 46.734375 
Q 21.96875 47.46875 24.109375 47.828125 
Q 26.265625 48.1875 28.421875 48.1875 
Q 40.625 48.1875 47.75 41.5 
Q 54.890625 34.8125 54.890625 23.390625 
Q 54.890625 11.625 47.5625 5.09375 
Q 40.234375 -1.421875 26.90625 -1.421875 
Q 22.3125 -1.421875 17.546875 -0.640625 
Q 12.796875 0.140625 7.71875 1.703125 
L 7.71875 11.625 
Q 12.109375 9.234375 16.796875 8.0625 
Q 21.484375 6.890625 26.703125 6.890625 
Q 35.15625 6.890625 40.078125 11.328125 
Q 45.015625 15.765625 45.015625 23.390625 
Q 45.015625 31 40.078125 35.4375 
Q 35.15625 39.890625 26.703125 39.890625 
Q 22.75 39.890625 18.8125 39.015625 
Q 14.890625 38.140625 10.796875 36.28125 
z
" id="BitstreamVeraSans-Roman-35"/>
      </defs>
      <g style="fill:#555555;" transform="translate(26.7171875 236.5308125)scale(0.15 -0.15)">
       <use xlink:href="#BitstreamVeraSans-Roman-35"/>
       <use x="63.623046875" xlink:href="#BitstreamVeraSans-Roman-30"/>
       <use x="127.24609375" xlink:href="#BitstreamVeraSans-Roman-30"/>
       <use x="190.869140625" xlink:href="#BitstreamVeraSans-Roman-30"/>
       <use x="254.4921875" xlink:href="#BitstreamVeraSans-Roman-30"/>
       <use x="318.115234375" xlink:href="#BitstreamVeraSans-Roman-30"/>
       <use x="381.73828125" xlink:href="#BitstreamVeraSans-Roman-30"/>
      </g>
     </g>
    </g>
    <g id="ytick_7">
     <g id="line2d_55">
      <path clip-path="url(#p1806cf4502)" d="M 101.523438 162.64175 
L 938.523438 162.64175 
" style="fill:none;stroke:#ffffff;stroke-linecap:square;stroke-width:0.5;"/>
     </g>
     <g id="line2d_56">
      <g>
       <use style="fill:#555555;stroke:#555555;stroke-width:0.5;" x="101.5234375" xlink:href="#m845facc628" y="162.64175"/>
      </g>
     </g>
     <g id="line2d_57">
      <g>
       <use style="fill:#555555;stroke:#555555;stroke-width:0.5;" x="938.5234375" xlink:href="#m4315578f24" y="162.64175"/>
      </g>
     </g>
     <g id="text_20">
      <!-- 6000000 -->
      <defs>
       <path d="M 33.015625 40.375 
Q 26.375 40.375 22.484375 35.828125 
Q 18.609375 31.296875 18.609375 23.390625 
Q 18.609375 15.53125 22.484375 10.953125 
Q 26.375 6.390625 33.015625 6.390625 
Q 39.65625 6.390625 43.53125 10.953125 
Q 47.40625 15.53125 47.40625 23.390625 
Q 47.40625 31.296875 43.53125 35.828125 
Q 39.65625 40.375 33.015625 40.375 
M 52.59375 71.296875 
L 52.59375 62.3125 
Q 48.875 64.0625 45.09375 64.984375 
Q 41.3125 65.921875 37.59375 65.921875 
Q 27.828125 65.921875 22.671875 59.328125 
Q 17.53125 52.734375 16.796875 39.40625 
Q 19.671875 43.65625 24.015625 45.921875 
Q 28.375 48.1875 33.59375 48.1875 
Q 44.578125 48.1875 50.953125 41.515625 
Q 57.328125 34.859375 57.328125 23.390625 
Q 57.328125 12.15625 50.6875 5.359375 
Q 44.046875 -1.421875 33.015625 -1.421875 
Q 20.359375 -1.421875 13.671875 8.265625 
Q 6.984375 17.96875 6.984375 36.375 
Q 6.984375 53.65625 15.1875 63.9375 
Q 23.390625 74.21875 37.203125 74.21875 
Q 40.921875 74.21875 44.703125 73.484375 
Q 48.484375 72.75 52.59375 71.296875 
" id="BitstreamVeraSans-Roman-36"/>
      </defs>
      <g style="fill:#555555;" transform="translate(26.7171875 166.7808125)scale(0.15 -0.15)">
       <use xlink:href="#BitstreamVeraSans-Roman-36"/>
       <use x="63.623046875" xlink:href="#BitstreamVeraSans-Roman-30"/>
       <use x="127.24609375" xlink:href="#BitstreamVeraSans-Roman-30"/>
       <use x="190.869140625" xlink:href="#BitstreamVeraSans-Roman-30"/>
       <use x="254.4921875" xlink:href="#BitstreamVeraSans-Roman-30"/>
       <use x="318.115234375" xlink:href="#BitstreamVeraSans-Roman-30"/>
       <use x="381.73828125" xlink:href="#BitstreamVeraSans-Roman-30"/>
      </g>
     </g>
    </g>
    <g id="ytick_8">
     <g id="line2d_58">
      <path clip-path="url(#p1806cf4502)" d="M 101.523438 92.89175 
L 938.523438 92.89175 
" style="fill:none;stroke:#ffffff;stroke-linecap:square;stroke-width:0.5;"/>
     </g>
     <g id="line2d_59">
      <g>
       <use style="fill:#555555;stroke:#555555;stroke-width:0.5;" x="101.5234375" xlink:href="#m845facc628" y="92.89175"/>
      </g>
     </g>
     <g id="line2d_60">
      <g>
       <use style="fill:#555555;stroke:#555555;stroke-width:0.5;" x="938.5234375" xlink:href="#m4315578f24" y="92.89175"/>
      </g>
     </g>
     <g id="text_21">
      <!-- 7000000 -->
      <defs>
       <path d="M 8.203125 72.90625 
L 55.078125 72.90625 
L 55.078125 68.703125 
L 28.609375 0 
L 18.3125 0 
L 43.21875 64.59375 
L 8.203125 64.59375 
z
" id="BitstreamVeraSans-Roman-37"/>
      </defs>
      <g style="fill:#555555;" transform="translate(26.7171875 97.0308125)scale(0.15 -0.15)">
       <use xlink:href="#BitstreamVeraSans-Roman-37"/>
       <use x="63.623046875" xlink:href="#BitstreamVeraSans-Roman-30"/>
       <use x="127.24609375" xlink:href="#BitstreamVeraSans-Roman-30"/>
       <use x="190.869140625" xlink:href="#BitstreamVeraSans-Roman-30"/>
       <use x="254.4921875" xlink:href="#BitstreamVeraSans-Roman-30"/>
       <use x="318.115234375" xlink:href="#BitstreamVeraSans-Roman-30"/>
       <use x="381.73828125" xlink:href="#BitstreamVeraSans-Roman-30"/>
      </g>
     </g>
    </g>
    <g id="ytick_9">
     <g id="line2d_61">
      <path clip-path="url(#p1806cf4502)" d="M 101.523438 23.14175 
L 938.523438 23.14175 
" style="fill:none;stroke:#ffffff;stroke-linecap:square;stroke-width:0.5;"/>
     </g>
     <g id="line2d_62">
      <g>
       <use style="fill:#555555;stroke:#555555;stroke-width:0.5;" x="101.5234375" xlink:href="#m845facc628" y="23.14175"/>
      </g>
     </g>
     <g id="line2d_63">
      <g>
       <use style="fill:#555555;stroke:#555555;stroke-width:0.5;" x="938.5234375" xlink:href="#m4315578f24" y="23.14175"/>
      </g>
     </g>
     <g id="text_22">
      <!-- 8000000 -->
      <defs>
       <path d="M 31.78125 34.625 
Q 24.75 34.625 20.71875 30.859375 
Q 16.703125 27.09375 16.703125 20.515625 
Q 16.703125 13.921875 20.71875 10.15625 
Q 24.75 6.390625 31.78125 6.390625 
Q 38.8125 6.390625 42.859375 10.171875 
Q 46.921875 13.96875 46.921875 20.515625 
Q 46.921875 27.09375 42.890625 30.859375 
Q 38.875 34.625 31.78125 34.625 
M 21.921875 38.8125 
Q 15.578125 40.375 12.03125 44.71875 
Q 8.5 49.078125 8.5 55.328125 
Q 8.5 64.0625 14.71875 69.140625 
Q 20.953125 74.21875 31.78125 74.21875 
Q 42.671875 74.21875 48.875 69.140625 
Q 55.078125 64.0625 55.078125 55.328125 
Q 55.078125 49.078125 51.53125 44.71875 
Q 48 40.375 41.703125 38.8125 
Q 48.828125 37.15625 52.796875 32.3125 
Q 56.78125 27.484375 56.78125 20.515625 
Q 56.78125 9.90625 50.3125 4.234375 
Q 43.84375 -1.421875 31.78125 -1.421875 
Q 19.734375 -1.421875 13.25 4.234375 
Q 6.78125 9.90625 6.78125 20.515625 
Q 6.78125 27.484375 10.78125 32.3125 
Q 14.796875 37.15625 21.921875 38.8125 
M 18.3125 54.390625 
Q 18.3125 48.734375 21.84375 45.5625 
Q 25.390625 42.390625 31.78125 42.390625 
Q 38.140625 42.390625 41.71875 45.5625 
Q 45.3125 48.734375 45.3125 54.390625 
Q 45.3125 60.0625 41.71875 63.234375 
Q 38.140625 66.40625 31.78125 66.40625 
Q 25.390625 66.40625 21.84375 63.234375 
Q 18.3125 60.0625 18.3125 54.390625 
" id="BitstreamVeraSans-Roman-38"/>
      </defs>
      <g style="fill:#555555;" transform="translate(26.7171875 27.2808125)scale(0.15 -0.15)">
       <use xlink:href="#BitstreamVeraSans-Roman-38"/>
       <use x="63.623046875" xlink:href="#BitstreamVeraSans-Roman-30"/>
       <use x="127.24609375" xlink:href="#BitstreamVeraSans-Roman-30"/>
       <use x="190.869140625" xlink:href="#BitstreamVeraSans-Roman-30"/>
       <use x="254.4921875" xlink:href="#BitstreamVeraSans-Roman-30"/>
       <use x="318.115234375" xlink:href="#BitstreamVeraSans-Roman-30"/>
       <use x="381.73828125" xlink:href="#BitstreamVeraSans-Roman-30"/>
      </g>
     </g>
    </g>
    <g id="text_23">
     <!-- USD -->
     <defs>
      <path d="M 53.515625 70.515625 
L 53.515625 60.890625 
Q 47.90625 63.578125 42.921875 64.890625 
Q 37.9375 66.21875 33.296875 66.21875 
Q 25.25 66.21875 20.875 63.09375 
Q 16.5 59.96875 16.5 54.203125 
Q 16.5 49.359375 19.40625 46.890625 
Q 22.3125 44.4375 30.421875 42.921875 
L 36.375 41.703125 
Q 47.40625 39.59375 52.65625 34.296875 
Q 57.90625 29 57.90625 20.125 
Q 57.90625 9.515625 50.796875 4.046875 
Q 43.703125 -1.421875 29.984375 -1.421875 
Q 24.8125 -1.421875 18.96875 -0.25 
Q 13.140625 0.921875 6.890625 3.21875 
L 6.890625 13.375 
Q 12.890625 10.015625 18.65625 8.296875 
Q 24.421875 6.59375 29.984375 6.59375 
Q 38.421875 6.59375 43.015625 9.90625 
Q 47.609375 13.234375 47.609375 19.390625 
Q 47.609375 24.75 44.3125 27.78125 
Q 41.015625 30.8125 33.5 32.328125 
L 27.484375 33.5 
Q 16.453125 35.6875 11.515625 40.375 
Q 6.59375 45.0625 6.59375 53.421875 
Q 6.59375 63.09375 13.40625 68.65625 
Q 20.21875 74.21875 32.171875 74.21875 
Q 37.3125 74.21875 42.625 73.28125 
Q 47.953125 72.359375 53.515625 70.515625 
" id="BitstreamVeraSans-Roman-53"/>
      <path d="M 8.6875 72.90625 
L 18.609375 72.90625 
L 18.609375 28.609375 
Q 18.609375 16.890625 22.84375 11.734375 
Q 27.09375 6.59375 36.625 6.59375 
Q 46.09375 6.59375 50.34375 11.734375 
Q 54.59375 16.890625 54.59375 28.609375 
L 54.59375 72.90625 
L 64.5 72.90625 
L 64.5 27.390625 
Q 64.5 13.140625 57.4375 5.859375 
Q 50.390625 -1.421875 36.625 -1.421875 
Q 22.796875 -1.421875 15.734375 5.859375 
Q 8.6875 13.140625 8.6875 27.390625 
z
" id="BitstreamVeraSans-Roman-55"/>
     </defs>
     <g style="fill:#555555;" transform="translate(18.59765625 318.167140625)rotate(-90.0)scale(0.15 -0.15)">
      <use xlink:href="#BitstreamVeraSans-Roman-55"/>
      <use x="73.193359375" xlink:href="#BitstreamVeraSans-Roman-53"/>
      <use x="136.669921875" xlink:href="#BitstreamVeraSans-Roman-44"/>
     </g>
    </g>
   </g>
   <g id="patch_3">
    <path clip-path="url(#p1806cf4502)" d="M 118.960938 581.14175 
L 153.835938 581.14175 
L 153.835938 479.168862 
L 118.960938 479.168862 
z
" style="fill:#0000ff;stroke:#eeeeee;stroke-linejoin:miter;stroke-width:0.5;"/>
   </g>
   <g id="patch_4">
    <path clip-path="url(#p1806cf4502)" d="M 188.710938 581.14175 
L 223.585938 581.14175 
L 223.585938 579.80449 
L 188.710938 579.80449 
z
" style="fill:#0000ff;stroke:#eeeeee;stroke-linejoin:miter;stroke-width:0.5;"/>
   </g>
   <g id="patch_5">
    <path clip-path="url(#p1806cf4502)" d="M 258.460938 581.14175 
L 293.335938 581.14175 
L 293.335938 436.44879 
L 258.460938 436.44879 
z
" style="fill:#0000ff;stroke:#eeeeee;stroke-linejoin:miter;stroke-width:0.5;"/>
   </g>
   <g id="patch_6">
    <path clip-path="url(#p1806cf4502)" d="M 328.210938 581.14175 
L 363.085938 581.14175 
L 363.085938 212.08987 
L 328.210938 212.08987 
z
" style="fill:#0000ff;stroke:#eeeeee;stroke-linejoin:miter;stroke-width:0.5;"/>
   </g>
   <g id="patch_7">
    <path clip-path="url(#p1806cf4502)" d="M 397.960938 581.14175 
L 432.835938 581.14175 
L 432.835938 433.948236 
L 397.960938 433.948236 
z
" style="fill:#0000ff;stroke:#eeeeee;stroke-linejoin:miter;stroke-width:0.5;"/>
   </g>
   <g id="patch_8">
    <path clip-path="url(#p1806cf4502)" d="M 467.710938 581.14175 
L 502.585938 581.14175 
L 502.585938 514.41586 
L 467.710938 514.41586 
z
" style="fill:#0000ff;stroke:#eeeeee;stroke-linejoin:miter;stroke-width:0.5;"/>
   </g>
   <g id="patch_9">
    <path clip-path="url(#p1806cf4502)" d="M 537.460938 581.14175 
L 572.335938 581.14175 
L 572.335938 389.133519 
L 537.460938 389.133519 
z
" style="fill:#0000ff;stroke:#eeeeee;stroke-linejoin:miter;stroke-width:0.5;"/>
   </g>
   <g id="patch_10">
    <path clip-path="url(#p1806cf4502)" d="M 607.210938 581.14175 
L 642.085938 581.14175 
L 642.085938 527.708398 
L 607.210938 527.708398 
z
" style="fill:#0000ff;stroke:#eeeeee;stroke-linejoin:miter;stroke-width:0.5;"/>
   </g>
   <g id="patch_11">
    <path clip-path="url(#p1806cf4502)" d="M 676.960938 581.14175 
L 711.835938 581.14175 
L 711.835938 515.959959 
L 676.960938 515.959959 
z
" style="fill:#0000ff;stroke:#eeeeee;stroke-linejoin:miter;stroke-width:0.5;"/>
   </g>
   <g id="patch_12">
    <path clip-path="url(#p1806cf4502)" d="M 746.710938 581.14175 
L 781.585938 581.14175 
L 781.585938 390.286297 
L 746.710938 390.286297 
z
" style="fill:#0000ff;stroke:#eeeeee;stroke-linejoin:miter;stroke-width:0.5;"/>
   </g>
   <g id="patch_13">
    <path clip-path="url(#p1806cf4502)" d="M 816.460938 581.14175 
L 851.335938 581.14175 
L 851.335938 407.888277 
L 816.460938 407.888277 
z
" style="fill:#0000ff;stroke:#eeeeee;stroke-linejoin:miter;stroke-width:0.5;"/>
   </g>
   <g id="patch_14">
    <path clip-path="url(#p1806cf4502)" d="M 886.210938 581.14175 
L 921.085938 581.14175 
L 921.085938 515.49719 
L 886.210938 515.49719 
z
" style="fill:#0000ff;stroke:#eeeeee;stroke-linejoin:miter;stroke-width:0.5;"/>
   </g>
   <g id="patch_15">
    <path clip-path="url(#p1806cf4502)" d="M 118.960938 479.168862 
L 153.835938 479.168862 
L 153.835938 445.816172 
L 118.960938 445.816172 
z
" style="fill:#008000;stroke:#eeeeee;stroke-linejoin:miter;stroke-width:0.5;"/>
   </g>
   <g id="patch_16">
    <path clip-path="url(#p1806cf4502)" d="M 188.710938 579.80449 
L 223.585938 579.80449 
L 223.585938 570.021884 
L 188.710938 570.021884 
z
" style="fill:#008000;stroke:#eeeeee;stroke-linejoin:miter;stroke-width:0.5;"/>
   </g>
   <g id="patch_17">
    <path clip-path="url(#p1806cf4502)" d="M 258.460938 436.44879 
L 293.335938 436.44879 
L 293.335938 436.205839 
L 258.460938 436.205839 
z
" style="fill:#008000;stroke:#eeeeee;stroke-linejoin:miter;stroke-width:0.5;"/>
   </g>
   <g id="patch_18">
    <path clip-path="url(#p1806cf4502)" d="M 328.210938 212.08987 
L 363.085938 212.08987 
L 363.085938 83.828709 
L 328.210938 83.828709 
z
" style="fill:#008000;stroke:#eeeeee;stroke-linejoin:miter;stroke-width:0.5;"/>
   </g>
   <g id="patch_19">
    <path clip-path="url(#p1806cf4502)" d="M 397.960938 433.948236 
L 432.835938 433.948236 
L 432.835938 393.044014 
L 397.960938 393.044014 
z
" style="fill:#008000;stroke:#eeeeee;stroke-linejoin:miter;stroke-width:0.5;"/>
   </g>
   <g id="patch_20">
    <path clip-path="url(#p1806cf4502)" d="M 467.710938 514.41586 
L 502.585938 514.41586 
L 502.585938 495.510856 
L 467.710938 495.510856 
z
" style="fill:#008000;stroke:#eeeeee;stroke-linejoin:miter;stroke-width:0.5;"/>
   </g>
   <g id="patch_21">
    <path clip-path="url(#p1806cf4502)" d="M 537.460938 389.133519 
L 572.335938 389.133519 
L 572.335938 354.086043 
L 537.460938 354.086043 
z
" style="fill:#008000;stroke:#eeeeee;stroke-linejoin:miter;stroke-width:0.5;"/>
   </g>
   <g id="patch_22">
    <path clip-path="url(#p1806cf4502)" d="M 607.210938 527.708398 
L 642.085938 527.708398 
L 642.085938 508.770177 
L 607.210938 508.770177 
z
" style="fill:#008000;stroke:#eeeeee;stroke-linejoin:miter;stroke-width:0.5;"/>
   </g>
   <g id="patch_23">
    <path clip-path="url(#p1806cf4502)" d="M 676.960938 515.959959 
L 711.835938 515.959959 
L 711.835938 515.766564 
L 676.960938 515.766564 
z
" style="fill:#008000;stroke:#eeeeee;stroke-linejoin:miter;stroke-width:0.5;"/>
   </g>
   <g id="patch_24">
    <path clip-path="url(#p1806cf4502)" d="M 746.710938 390.286297 
L 781.585938 390.286297 
L 781.585938 339.958092 
L 746.710938 339.958092 
z
" style="fill:#008000;stroke:#eeeeee;stroke-linejoin:miter;stroke-width:0.5;"/>
   </g>
   <g id="patch_25">
    <path clip-path="url(#p1806cf4502)" d="M 816.460938 407.888277 
L 851.335938 407.888277 
L 851.335938 395.156687 
L 816.460938 395.156687 
z
" style="fill:#008000;stroke:#eeeeee;stroke-linejoin:miter;stroke-width:0.5;"/>
   </g>
   <g id="patch_26">
    <path clip-path="url(#p1806cf4502)" d="M 886.210938 515.49719 
L 921.085938 515.49719 
L 921.085938 505.232453 
L 886.210938 505.232453 
z
" style="fill:#008000;stroke:#eeeeee;stroke-linejoin:miter;stroke-width:0.5;"/>
   </g>
   <g id="patch_27">
    <path d="M 101.523438 23.14175 
L 938.523438 23.14175 
" style="fill:none;stroke:#ffffff;stroke-linecap:square;stroke-linejoin:miter;"/>
   </g>
   <g id="patch_28">
    <path d="M 938.523438 581.14175 
L 938.523438 23.14175 
" style="fill:none;stroke:#ffffff;stroke-linecap:square;stroke-linejoin:miter;"/>
   </g>
   <g id="patch_29">
    <path d="M 101.523438 581.14175 
L 938.523438 581.14175 
" style="fill:none;stroke:#ffffff;stroke-linecap:square;stroke-linejoin:miter;"/>
   </g>
   <g id="patch_30">
    <path d="M 101.523438 581.14175 
L 101.523438 23.14175 
" style="fill:none;stroke:#ffffff;stroke-linecap:square;stroke-linejoin:miter;"/>
   </g>
   <g id="text_24">
    <!-- Fisheries subsidies per category in 2009 USD -->
    <defs>
     <path d="M 10.984375 1.515625 
L 10.984375 10.5 
Q 14.703125 8.734375 18.5 7.8125 
Q 22.3125 6.890625 25.984375 6.890625 
Q 35.75 6.890625 40.890625 13.453125 
Q 46.046875 20.015625 46.78125 33.40625 
Q 43.953125 29.203125 39.59375 26.953125 
Q 35.25 24.703125 29.984375 24.703125 
Q 19.046875 24.703125 12.671875 31.3125 
Q 6.296875 37.9375 6.296875 49.421875 
Q 6.296875 60.640625 12.9375 67.421875 
Q 19.578125 74.21875 30.609375 74.21875 
Q 43.265625 74.21875 49.921875 64.515625 
Q 56.59375 54.828125 56.59375 36.375 
Q 56.59375 19.140625 48.40625 8.859375 
Q 40.234375 -1.421875 26.421875 -1.421875 
Q 22.703125 -1.421875 18.890625 -0.6875 
Q 15.09375 0.046875 10.984375 1.515625 
M 30.609375 32.421875 
Q 37.25 32.421875 41.125 36.953125 
Q 45.015625 41.5 45.015625 49.421875 
Q 45.015625 57.28125 41.125 61.84375 
Q 37.25 66.40625 30.609375 66.40625 
Q 23.96875 66.40625 20.09375 61.84375 
Q 16.21875 57.28125 16.21875 49.421875 
Q 16.21875 41.5 20.09375 36.953125 
Q 23.96875 32.421875 30.609375 32.421875 
" id="BitstreamVeraSans-Roman-39"/>
    </defs>
    <g transform="translate(356.8331875 18.14175)scale(0.144 -0.144)">
     <use xlink:href="#BitstreamVeraSans-Roman-46"/>
     <use x="57.41015625" xlink:href="#BitstreamVeraSans-Roman-69"/>
     <use x="85.193359375" xlink:href="#BitstreamVeraSans-Roman-73"/>
     <use x="137.29296875" xlink:href="#BitstreamVeraSans-Roman-68"/>
     <use x="200.671875" xlink:href="#BitstreamVeraSans-Roman-65"/>
     <use x="262.1953125" xlink:href="#BitstreamVeraSans-Roman-72"/>
     <use x="303.30859375" xlink:href="#BitstreamVeraSans-Roman-69"/>
     <use x="331.091796875" xlink:href="#BitstreamVeraSans-Roman-65"/>
     <use x="392.615234375" xlink:href="#BitstreamVeraSans-Roman-73"/>
     <use x="444.71484375" xlink:href="#BitstreamVeraSans-Roman-20"/>
     <use x="476.501953125" xlink:href="#BitstreamVeraSans-Roman-73"/>
     <use x="528.6015625" xlink:href="#BitstreamVeraSans-Roman-75"/>
     <use x="591.98046875" xlink:href="#BitstreamVeraSans-Roman-62"/>
     <use x="655.45703125" xlink:href="#BitstreamVeraSans-Roman-73"/>
     <use x="707.556640625" xlink:href="#BitstreamVeraSans-Roman-69"/>
     <use x="735.33984375" xlink:href="#BitstreamVeraSans-Roman-64"/>
     <use x="798.81640625" xlink:href="#BitstreamVeraSans-Roman-69"/>
     <use x="826.599609375" xlink:href="#BitstreamVeraSans-Roman-65"/>
     <use x="888.123046875" xlink:href="#BitstreamVeraSans-Roman-73"/>
     <use x="940.22265625" xlink:href="#BitstreamVeraSans-Roman-20"/>
     <use x="972.009765625" xlink:href="#BitstreamVeraSans-Roman-70"/>
     <use x="1035.48632812" xlink:href="#BitstreamVeraSans-Roman-65"/>
     <use x="1097.00976562" xlink:href="#BitstreamVeraSans-Roman-72"/>
     <use x="1138.12304688" xlink:href="#BitstreamVeraSans-Roman-20"/>
     <use x="1169.91015625" xlink:href="#BitstreamVeraSans-Roman-63"/>
     <use x="1224.890625" xlink:href="#BitstreamVeraSans-Roman-61"/>
     <use x="1286.16992188" xlink:href="#BitstreamVeraSans-Roman-74"/>
     <use x="1325.37890625" xlink:href="#BitstreamVeraSans-Roman-65"/>
     <use x="1386.90234375" xlink:href="#BitstreamVeraSans-Roman-67"/>
     <use x="1450.37890625" xlink:href="#BitstreamVeraSans-Roman-6f"/>
     <use x="1511.56054688" xlink:href="#BitstreamVeraSans-Roman-72"/>
     <use x="1552.67382812" xlink:href="#BitstreamVeraSans-Roman-79"/>
     <use x="1611.85351562" xlink:href="#BitstreamVeraSans-Roman-20"/>
     <use x="1643.640625" xlink:href="#BitstreamVeraSans-Roman-69"/>
     <use x="1671.42382812" xlink:href="#BitstreamVeraSans-Roman-6e"/>
     <use x="1734.80273438" xlink:href="#BitstreamVeraSans-Roman-20"/>
     <use x="1766.58984375" xlink:href="#BitstreamVeraSans-Roman-32"/>
     <use x="1830.21289062" xlink:href="#BitstreamVeraSans-Roman-30"/>
     <use x="1893.8359375" xlink:href="#BitstreamVeraSans-Roman-30"/>
     <use x="1957.45898438" xlink:href="#BitstreamVeraSans-Roman-39"/>
     <use x="2021.08203125" xlink:href="#BitstreamVeraSans-Roman-20"/>
     <use x="2052.86914062" xlink:href="#BitstreamVeraSans-Roman-55"/>
     <use x="2126.0625" xlink:href="#BitstreamVeraSans-Roman-53"/>
     <use x="2189.5390625" xlink:href="#BitstreamVeraSans-Roman-44"/>
    </g>
   </g>
   <g id="legend_1">
    <g id="patch_31">
     <path d="M 785.925625 75.4405 
L 931.523438 75.4405 
L 931.523438 30.14175 
L 785.925625 30.14175 
z
" style="fill:#e5e5e5;stroke:#ffffff;stroke-linejoin:miter;stroke-width:0.5;"/>
    </g>
    <g id="patch_32">
     <path d="M 791.525625 46.379562 
L 819.525625 46.379562 
L 819.525625 36.579562 
L 791.525625 36.579562 
z
" style="fill:#0000ff;stroke:#eeeeee;stroke-linejoin:miter;stroke-width:0.5;"/>
    </g>
    <g id="text_25">
     <!-- LSF subsidies -->
     <defs>
      <path d="M 9.8125 72.90625 
L 19.671875 72.90625 
L 19.671875 8.296875 
L 55.171875 8.296875 
L 55.171875 0 
L 9.8125 0 
z
" id="BitstreamVeraSans-Roman-4c"/>
     </defs>
     <g transform="translate(830.725625 46.3795625)scale(0.14 -0.14)">
      <use xlink:href="#BitstreamVeraSans-Roman-4c"/>
      <use x="55.712890625" xlink:href="#BitstreamVeraSans-Roman-53"/>
      <use x="119.189453125" xlink:href="#BitstreamVeraSans-Roman-46"/>
      <use x="176.708984375" xlink:href="#BitstreamVeraSans-Roman-20"/>
      <use x="208.49609375" xlink:href="#BitstreamVeraSans-Roman-73"/>
      <use x="260.595703125" xlink:href="#BitstreamVeraSans-Roman-75"/>
      <use x="323.974609375" xlink:href="#BitstreamVeraSans-Roman-62"/>
      <use x="387.451171875" xlink:href="#BitstreamVeraSans-Roman-73"/>
      <use x="439.55078125" xlink:href="#BitstreamVeraSans-Roman-69"/>
      <use x="467.333984375" xlink:href="#BitstreamVeraSans-Roman-64"/>
      <use x="530.810546875" xlink:href="#BitstreamVeraSans-Roman-69"/>
      <use x="558.59375" xlink:href="#BitstreamVeraSans-Roman-65"/>
      <use x="620.1171875" xlink:href="#BitstreamVeraSans-Roman-73"/>
     </g>
    </g>
    <g id="patch_33">
     <path d="M 791.525625 66.928937 
L 819.525625 66.928937 
L 819.525625 57.128937 
L 791.525625 57.128937 
z
" style="fill:#008000;stroke:#eeeeee;stroke-linejoin:miter;stroke-width:0.5;"/>
    </g>
    <g id="text_26">
     <!-- SSF subsidies -->
     <g transform="translate(830.725625 66.9289375)scale(0.14 -0.14)">
      <use xlink:href="#BitstreamVeraSans-Roman-53"/>
      <use x="63.4765625" xlink:href="#BitstreamVeraSans-Roman-53"/>
      <use x="126.953125" xlink:href="#BitstreamVeraSans-Roman-46"/>
      <use x="184.47265625" xlink:href="#BitstreamVeraSans-Roman-20"/>
      <use x="216.259765625" xlink:href="#BitstreamVeraSans-Roman-73"/>
      <use x="268.359375" xlink:href="#BitstreamVeraSans-Roman-75"/>
      <use x="331.73828125" xlink:href="#BitstreamVeraSans-Roman-62"/>
      <use x="395.21484375" xlink:href="#BitstreamVeraSans-Roman-73"/>
      <use x="447.314453125" xlink:href="#BitstreamVeraSans-Roman-69"/>
      <use x="475.09765625" xlink:href="#BitstreamVeraSans-Roman-64"/>
      <use x="538.57421875" xlink:href="#BitstreamVeraSans-Roman-69"/>
      <use x="566.357421875" xlink:href="#BitstreamVeraSans-Roman-65"/>
      <use x="627.880859375" xlink:href="#BitstreamVeraSans-Roman-73"/>
     </g>
    </g>
   </g>
  </g>
 </g>
 <defs>
  <clipPath id="p1806cf4502">
   <rect height="558.0" width="837.0" x="101.5234375" y="23.14175"/>
  </clipPath>
 </defs>
</svg>
